<svg width="54" height="32" viewBox="0 0 54 32" fill="none" xmlns="http://www.w3.org/2000/svg">
<path fill-rule="evenodd" clip-rule="evenodd" d="M51.696 12.4361C52.3186 13.1705 52.923 13.919 53.5188 14.6744L53.5203 14.6716C54.1274 15.4438 54.1711 16.4123 53.578 17.1943C52.9061 18.0815 52.1932 18.9392 51.4678 19.7843C49.9632 21.5362 48.3024 23.1354 46.5105 24.5972C45.0891 25.7576 43.586 26.8088 41.9984 27.7366C40.5488 28.5831 39.0485 29.3273 37.482 29.9342C36.0381 30.4934 34.5632 30.9685 33.0418 31.274L33.0145 31.2795C32.2332 31.4375 31.4492 31.596 30.6582 31.6861C29.7976 31.7833 28.9342 31.8503 28.0819 31.9165C27.7303 31.9438 27.3805 31.9709 27.0336 32C25.9769 31.9152 24.9577 31.8331 23.9388 31.7511L23.9147 31.7491C22.1862 31.609 20.507 31.2236 18.8503 30.7344C17.0599 30.2046 15.337 29.4997 13.6733 28.6504C11.456 27.5179 9.39786 26.1486 7.47497 24.5789C5.61124 23.0583 3.89542 21.3835 2.34161 19.5489C1.70487 18.7963 1.07517 18.0366 0.475058 17.256C-0.133507 16.4627 -0.165908 15.5587 0.427162 14.7487C0.952066 14.0317 1.52586 13.3492 2.09917 12.6672C2.14901 12.608 2.19884 12.5487 2.24863 12.4894C3.43477 11.0753 4.73501 9.76624 6.1071 8.5301C7.47919 7.29396 8.94144 6.16853 10.4868 5.15103C11.7856 4.2961 13.1267 3.50984 14.5453 2.86935C15.6075 2.38863 16.6922 1.94855 17.791 1.55612C18.6968 1.23237 19.6266 0.960475 20.5648 0.74464C21.8974 0.437707 23.2498 0.224675 24.619 0.115356C25.9362 0.0102422 27.2505 -0.0472202 28.5677 0.0494849C30.0158 0.156001 31.4626 0.283539 32.8769 0.631117C33.818 0.862368 34.7562 1.11184 35.6845 1.38934C37.8398 2.03264 39.8656 2.97867 41.8068 4.09848C43.7607 5.22531 45.585 6.53713 47.2909 8.01013C48.8715 9.37522 50.3478 10.844 51.696 12.4361ZM15.6624 15.3779C15.3694 21.9273 20.4746 26.9966 26.5729 27.2376C32.9291 27.4885 38.416 22.3155 38.3399 15.9582C38.4019 9.99189 33.5433 4.92819 27.4153 4.70955C20.9592 4.4783 15.9216 9.59245 15.6624 15.3779ZM20.9043 16.1614C20.7916 12.7276 23.7048 9.82649 27.159 9.90778V9.90638C30.3751 9.98206 32.9967 12.5482 33.1066 15.7297C33.2277 19.2545 30.3201 22.0113 27.004 22.0394C23.6456 21.9973 21.0099 19.3779 20.9043 16.1614Z" fill="white"/>
</svg>
