<svg width="54" height="32" viewBox="0 0 54 32" fill="none" xmlns="http://www.w3.org/2000/svg">
<mask id="path-1-inside-1_6598_763" fill="white">
<path fill-rule="evenodd" clip-rule="evenodd" d="M51.696 12.4361C52.3186 13.1705 52.923 13.919 53.5188 14.6744L53.5203 14.6716C54.1274 15.4438 54.1711 16.4123 53.578 17.1943C52.9061 18.0815 52.1932 18.9392 51.4678 19.7843C49.9632 21.5362 48.3024 23.1354 46.5105 24.5972C45.0891 25.7576 43.586 26.8088 41.9984 27.7366C40.5488 28.5831 39.0485 29.3273 37.482 29.9342C36.0381 30.4934 34.5632 30.9685 33.0418 31.274L33.0145 31.2795C32.2332 31.4375 31.4492 31.596 30.6582 31.6861C29.7976 31.7833 28.9342 31.8503 28.0819 31.9165C27.7303 31.9438 27.3805 31.9709 27.0336 32C25.9769 31.9152 24.9577 31.8331 23.9388 31.7511L23.9147 31.7491C22.1862 31.609 20.507 31.2236 18.8503 30.7344C17.0599 30.2046 15.337 29.4997 13.6733 28.6504C11.456 27.5179 9.39786 26.1486 7.47497 24.5789C5.61124 23.0583 3.89542 21.3835 2.34161 19.5489C1.70487 18.7963 1.07517 18.0366 0.475058 17.256C-0.133507 16.4627 -0.165908 15.5587 0.427162 14.7487C0.952066 14.0317 1.52586 13.3492 2.09917 12.6672C2.14901 12.608 2.19884 12.5487 2.24863 12.4894C3.43477 11.0753 4.73501 9.76624 6.1071 8.5301C7.47919 7.29396 8.94144 6.16853 10.4868 5.15103C11.7856 4.2961 13.1267 3.50984 14.5453 2.86935C15.6075 2.38863 16.6922 1.94855 17.791 1.55612C18.6968 1.23237 19.6266 0.960475 20.5648 0.74464C21.8974 0.437707 23.2498 0.224675 24.619 0.115356C25.9362 0.0102422 27.2505 -0.0472202 28.5677 0.0494849C30.0158 0.156001 31.4626 0.283539 32.8769 0.631117C33.818 0.862368 34.7562 1.11184 35.6845 1.38934C37.8398 2.03264 39.8656 2.97867 41.8068 4.09848C43.7607 5.22531 45.585 6.53713 47.2909 8.01013C48.8715 9.37522 50.3478 10.844 51.696 12.4361ZM15.6624 15.3779C15.3694 21.9273 20.4746 26.9966 26.5729 27.2376C32.9291 27.4885 38.416 22.3155 38.3399 15.9582C38.4019 9.99189 33.5433 4.92819 27.4153 4.70955C20.9592 4.4783 15.9216 9.59245 15.6624 15.3779ZM20.9043 16.1614C20.7916 12.7276 23.7048 9.82649 27.159 9.90778V9.90638C30.3751 9.98206 32.9967 12.5482 33.1066 15.7297C33.2277 19.2545 30.3201 22.0113 27.004 22.0394C23.6456 21.9973 21.0099 19.3779 20.9043 16.1614Z"/>
</mask>
<path d="M53.5189 14.6744L52.7337 15.2937L53.7071 16.5277L54.4125 15.1232L53.5189 14.6744ZM51.696 12.4361L50.9328 13.0823L50.9332 13.0828L51.696 12.4361ZM53.5203 14.6716L54.3064 14.0535L53.3332 12.8158L52.6266 14.2228L53.5203 14.6716ZM53.578 17.1943L52.7812 16.59L52.7809 16.5905L53.578 17.1943ZM51.4678 19.7843L52.2264 20.4358L52.2265 20.4357L51.4678 19.7843ZM46.5105 24.5971L45.8784 23.8223L45.8781 23.8225L46.5105 24.5971ZM41.9984 27.7366L42.5027 28.6001L42.5029 28.5999L41.9984 27.7366ZM37.482 29.9341L37.8432 30.8667L37.8433 30.8666L37.482 29.9341ZM33.0418 31.274L32.8449 30.2936L32.8437 30.2938L33.0418 31.274ZM33.0145 31.2795L32.8164 30.2993L32.8163 30.2993L33.0145 31.2795ZM30.6582 31.686L30.7705 32.6797L30.7713 32.6796L30.6582 31.686ZM28.0819 31.9165L28.0045 30.9195L28.0045 30.9195L28.0819 31.9165ZM27.0336 32L26.9536 32.9968L27.0353 33.0033L27.1171 32.9965L27.0336 32ZM23.9388 31.7511L23.8586 32.7478L23.8586 32.7478L23.9388 31.7511ZM23.9147 31.7491L23.8339 32.7458L23.8344 32.7459L23.9147 31.7491ZM18.8504 30.7344L18.5666 31.6933L18.5672 31.6935L18.8504 30.7344ZM13.6733 28.6503L13.2185 29.5409L13.2186 29.541L13.6733 28.6503ZM7.47497 24.5789L8.10735 23.8043L8.10716 23.8041L7.47497 24.5789ZM2.34161 19.5489L1.57818 20.1947L1.57853 20.1952L2.34161 19.5489ZM0.475064 17.256L-0.31835 17.8647L-0.31775 17.8654L0.475064 17.256ZM0.427168 14.7486L-0.37969 14.1579L-0.379707 14.1579L0.427168 14.7486ZM2.09918 12.6672L2.86462 13.3107L2.86463 13.3107L2.09918 12.6672ZM2.24864 12.4894L3.01441 13.1325L3.0148 13.132L2.24864 12.4894ZM6.10711 8.53009L5.43777 7.78713L5.43777 7.78713L6.10711 8.53009ZM10.4868 5.15102L9.937 4.31573L9.93688 4.3158L10.4868 5.15102ZM14.5453 2.86934L14.9568 3.78074L14.9576 3.78037L14.5453 2.86934ZM17.791 1.55611L18.1273 2.49785L18.1276 2.49777L17.791 1.55611ZM20.5648 0.744628L20.789 1.71917L20.7892 1.71911L20.5648 0.744628ZM24.619 0.115344L24.5395 -0.881487L24.5395 -0.881484L24.619 0.115344ZM28.5677 0.0494723L28.641 -0.947834L28.6409 -0.947843L28.5677 0.0494723ZM32.8769 0.631104L32.6383 1.60221L32.6383 1.60221L32.8769 0.631104ZM35.6845 1.38933L35.3981 2.34744L35.3985 2.34756L35.6845 1.38933ZM41.8068 4.09847L41.3071 4.96468L41.3072 4.96474L41.8068 4.09847ZM47.2909 8.01012L47.9445 7.25331L47.9445 7.25323L47.2909 8.01012ZM26.5729 27.2376L26.5334 28.2368L26.5335 28.2368L26.5729 27.2376ZM15.6624 15.3779L14.6634 15.3332L14.6634 15.3332L15.6624 15.3779ZM38.3399 15.9582L37.34 15.9478L37.3399 15.9589L37.34 15.9701L38.3399 15.9582ZM27.4153 4.70954L27.3796 5.70889L27.3797 5.7089L27.4153 4.70954ZM27.159 9.90777L27.1355 10.9075L28.159 10.9316V9.90777H27.159ZM20.9043 16.1614L19.9048 16.1942L19.9048 16.1942L20.9043 16.1614ZM27.159 9.90636L27.1825 8.90664L26.159 8.88256V9.90636H27.159ZM33.1066 15.7297L34.106 15.6953L34.106 15.6952L33.1066 15.7297ZM27.004 22.0393L26.9915 23.0393L27.002 23.0394L27.0125 23.0393L27.004 22.0393ZM54.304 14.055C53.7036 13.2939 53.0915 12.5357 52.4587 11.7894L50.9332 13.0828C51.5458 13.8053 52.1423 14.544 52.7337 15.2937L54.304 14.055ZM52.6266 14.2228L52.6252 14.2256L54.4125 15.1232L54.4139 15.1204L52.6266 14.2228ZM54.3748 17.7986C55.2631 16.6272 55.1733 15.1561 54.3064 14.0535L52.7341 15.2896C53.0816 15.7315 53.079 16.1974 52.7812 16.59L54.3748 17.7986ZM52.2265 20.4357C52.9582 19.5834 53.6857 18.7083 54.3752 17.7981L52.7809 16.5905C52.1264 17.4546 51.4283 18.295 50.709 19.133L52.2265 20.4357ZM47.1426 25.372C48.9769 23.8757 50.6807 22.2357 52.2264 20.4358L50.7091 19.1328C49.2458 20.8368 47.6279 22.3951 45.8784 23.8223L47.1426 25.372ZM42.5029 28.5999C44.1374 27.6448 45.6831 26.5636 47.1429 25.3718L45.8781 23.8225C44.4951 24.9516 43.0346 25.9727 41.4938 26.8732L42.5029 28.5999ZM37.8433 30.8666C39.466 30.238 41.0141 29.4694 42.5027 28.6001L41.4941 26.873C40.0835 27.6968 38.631 28.4166 37.1208 29.0017L37.8433 30.8666ZM33.2386 32.2544C34.8328 31.9343 36.3647 31.4392 37.8432 30.8667L37.1209 29.0016C35.7115 29.5475 34.2935 30.0027 32.8449 30.2936L33.2386 32.2544ZM33.2126 32.2597L33.2399 32.2542L32.8437 30.2938L32.8164 30.2993L33.2126 32.2597ZM30.7713 32.6796C31.6123 32.5839 32.4386 32.4162 33.2127 32.2597L32.8163 30.2993C32.0279 30.4588 31.2861 30.6081 30.5451 30.6925L30.7713 32.6796ZM28.1593 32.9135C29.0087 32.8475 29.8896 32.7792 30.7705 32.6797L30.5459 30.6924C29.7056 30.7873 28.8596 30.8531 28.0045 30.9195L28.1593 32.9135ZM27.1171 32.9965C27.4604 32.9677 27.8071 32.9408 28.1593 32.9135L28.0045 30.9195C27.6534 30.9467 27.3005 30.9741 26.9501 31.0035L27.1171 32.9965ZM23.8586 32.7478C24.8775 32.8299 25.8968 32.9119 26.9536 32.9968L27.1136 31.0032C26.0571 30.9184 25.038 30.8363 24.0191 30.7543L23.8586 32.7478ZM23.8344 32.7459L23.8586 32.7478L24.0191 30.7543L23.995 30.7523L23.8344 32.7459ZM18.5672 31.6935C20.2605 32.1934 22.0119 32.5981 23.8339 32.7458L23.9955 30.7524C22.3605 30.6198 20.7535 30.2536 19.1335 29.7753L18.5672 31.6935ZM13.2186 29.541C14.9319 30.4156 16.7118 31.1445 18.5666 31.6933L19.1341 29.7755C17.4079 29.2648 15.7422 28.5837 14.128 27.7597L13.2186 29.541ZM6.8426 25.3536C8.8159 26.9644 10.9331 28.3737 13.2185 29.5409L14.1282 27.7598C11.9789 26.6621 9.97984 25.3328 8.10735 23.8043L6.8426 25.3536ZM1.57853 20.1952C3.17321 22.078 4.93311 23.7956 6.84279 25.3537L8.10716 23.8041C6.28937 22.3209 4.61765 20.6889 3.1047 18.9026L1.57853 20.1952ZM-0.31775 17.8654C0.296535 18.6645 0.937956 19.438 1.57818 20.1947L3.10504 18.903C2.47179 18.1545 1.85382 17.4087 1.26788 16.6465L-0.31775 17.8654ZM-0.379707 14.1579C-0.789642 14.7179 -1.01508 15.3584 -0.99922 16.0321C-0.983432 16.7029 -0.730504 17.3274 -0.31835 17.8646L1.26848 16.6473C1.07207 16.3913 1.00451 16.1672 1.00023 15.9851C0.99601 15.806 1.05091 15.5895 1.23404 15.3394L-0.379707 14.1579ZM1.33374 12.0237C0.764082 12.7013 0.168356 13.4094 -0.37969 14.1579L1.23403 15.3394C1.73579 14.6541 2.28765 13.997 2.86462 13.3107L1.33374 12.0237ZM1.48287 11.8463C1.43326 11.9053 1.3836 11.9644 1.33373 12.0237L2.86463 13.3107C2.91443 13.2515 2.96442 13.192 3.01441 13.1325L1.48287 11.8463ZM5.43777 7.78713C4.03861 9.04767 2.70436 10.39 1.48247 11.8467L3.0148 13.132C4.16519 11.7605 5.43144 10.4848 6.77645 9.27304L5.43777 7.78713ZM9.93688 4.3158C8.35052 5.3603 6.84822 6.51642 5.43777 7.78713L6.77645 9.27304C8.11017 8.07146 9.53237 6.97674 11.0367 5.98623L9.93688 4.3158ZM14.1338 1.95793C12.6521 2.62694 11.2634 3.44265 9.937 4.31573L11.0366 5.9863C12.3079 5.14952 13.6014 4.39272 14.9568 3.78074L14.1338 1.95793ZM17.4547 0.614367C16.3293 1.0163 15.2192 1.46669 14.133 1.9583L14.9576 3.78037C15.9958 3.31053 17.0551 2.88078 18.1273 2.49785L17.4547 0.614367ZM20.3406 -0.229917C19.3644 -0.00535661 18.3972 0.277503 17.4544 0.61445L18.1276 2.49777C18.9965 2.18721 19.8887 1.92628 20.789 1.71917L20.3406 -0.229917ZM24.5395 -0.881484C23.1194 -0.768111 21.7186 -0.54731 20.3403 -0.22986L20.7892 1.71911C22.0762 1.4227 23.3801 1.21744 24.6986 1.11217L24.5395 -0.881484ZM28.6409 -0.947843C27.2494 -1.05 25.8769 -0.988219 24.5395 -0.881487L24.6986 1.11217C25.9955 1.00868 27.2516 0.955538 28.4945 1.04679L28.6409 -0.947843ZM33.1156 -0.340001C31.6113 -0.709688 30.0892 -0.841315 28.641 -0.947834L28.4943 1.04678C29.9424 1.15329 31.3139 1.27674 32.6383 1.60221L33.1156 -0.340001ZM35.9709 0.431218C35.0232 0.147941 34.0686 -0.105798 33.1156 -0.340003L32.6383 1.60221C33.5673 1.83051 34.4891 2.07571 35.3981 2.34744L35.9709 0.431218ZM42.3065 3.23226C40.3165 2.0843 38.2185 1.10206 35.9705 0.431099L35.3985 2.34756C37.4612 2.9632 39.4147 3.87301 41.3071 4.96468L42.3065 3.23226ZM47.9445 7.25323C46.1937 5.74153 44.3182 4.39243 42.3064 3.23221L41.3072 4.96474C43.2032 6.05816 44.9762 7.33271 46.6374 8.76702L47.9445 7.25323ZM52.4591 11.7899C51.0743 10.1544 49.5606 8.64901 47.9445 7.25331L46.6373 8.76694C48.1824 10.1014 49.6214 11.5336 50.9328 13.0823L52.4591 11.7899ZM26.6124 26.2384C21.0406 26.0181 16.3944 21.3912 16.6614 15.4226L14.6634 15.3332C14.3444 22.4633 19.9086 27.975 26.5334 28.2368L26.6124 26.2384ZM37.34 15.9701C37.409 21.7357 32.416 26.4675 26.6124 26.2384L26.5335 28.2368C33.4421 28.5095 39.423 22.8953 39.3399 15.9462L37.34 15.9701ZM27.3797 5.7089C32.9777 5.90863 37.3962 10.536 37.34 15.9478L39.3399 15.9685C39.4076 9.44771 34.1088 3.94771 27.451 3.71017L27.3797 5.7089ZM16.6614 15.4227C16.8969 10.1678 21.4893 5.49791 27.3796 5.70889L27.4511 3.71018C20.4291 3.45866 14.9464 9.01707 14.6634 15.3332L16.6614 15.4227ZM27.1825 8.90804C23.1645 8.81349 19.773 12.176 19.9048 16.1942L21.9038 16.1286C21.8102 13.2793 24.2451 10.8395 27.1355 10.9075L27.1825 8.90804ZM26.159 9.90636V9.90777H28.159V9.90636H26.159ZM34.106 15.6952C33.9775 11.975 30.9189 8.99457 27.1825 8.90664L27.1355 10.9061C29.8313 10.9695 32.0159 13.1215 32.1072 15.7642L34.106 15.6952ZM27.0125 23.0393C30.8558 23.0068 34.2477 19.8169 34.106 15.6953L32.1072 15.764C32.2078 18.6922 29.7845 21.0158 26.9956 21.0394L27.0125 23.0393ZM19.9048 16.1942C20.0283 19.9518 23.1053 22.9906 26.9915 23.0393L27.0166 21.0394C24.186 21.004 21.9916 18.8039 21.9038 16.1285L19.9048 16.1942Z" fill="white" mask="url(#path-1-inside-1_6598_763)"/>
</svg>
