<svg width="60" height="60" viewBox="0 0 60 60" fill="none" xmlns="http://www.w3.org/2000/svg">
<path fill-rule="evenodd" clip-rule="evenodd" d="M33.5 6C28.6086 6 26.4405 7.82105 23.4579 10.3262C21.3505 12.0962 18.8365 14.2078 14.6679 16.2598H14.783C17.3768 16.2598 19.4794 18.3624 19.4794 20.9562V29.3206H19.4854C21.2625 29.3206 22.6629 30.2332 23.4592 31.5098V25.5134C23.4592 19.1348 25.9694 17.8759 25.9694 17.8759C25.9694 17.8759 28.4796 19.1348 28.4796 25.5134V33.2348H25.9694H24.12C24.2503 33.9785 24.2054 34.7569 23.9565 35.5009H28.4796V38.0188H23.4592V36.5328C23.2777 36.8137 23.0607 37.0836 22.8063 37.3379L19.6094 40.5348C25.601 49.6044 33.5 53 33.5 53C33.5 53 54 44.1875 54 17.0366C48.8076 14.7487 45.9168 12.3206 43.5422 10.3262C40.5596 7.82105 38.3914 6 33.5 6ZM17.9478 37.7684C17.9478 37.7685 17.9478 37.7685 17.9478 37.7685L20.5924 35.124C20.9015 34.8148 21.0451 34.4368 21.0536 34.0636C21.0723 33.2462 20.4429 32.4514 19.4854 32.4514H16.3485V20.9561C16.3485 20.0915 15.6476 19.3906 14.783 19.3906H9.10487C8.24027 19.3906 7.53938 20.0915 7.53938 20.9561V32.4514H4.70589C3.31119 32.4514 2.61272 34.1377 3.59893 35.1239L10.9887 42.5136C11.6 43.125 12.5912 43.125 13.2026 42.5136L17.9478 37.7684ZM30.9898 38.0188V35.5009H36.0102V38.0188H30.9898ZM36.0102 33.2348H33.5H30.9898V25.5134C30.9898 19.1348 33.5 17.8759 33.5 17.8759C33.5 17.8759 36.0102 19.1348 36.0102 25.5134V33.2348ZM38.5204 38.0188V35.5009H43.5408V38.0188H38.5204ZM41.0306 33.2348H38.5204V25.5134C38.5204 19.1348 41.0306 17.8759 41.0306 17.8759C41.0306 17.8759 43.5408 19.1348 43.5408 25.5134V33.2348H41.0306Z" fill="white"/>
</svg>
