<svg width="60" height="60" viewBox="0 0 60 60" fill="none" xmlns="http://www.w3.org/2000/svg">
<path d="M36.1848 19.6201C36.7318 20.7799 37.1763 21.5952 37.5103 22.4526C38.9752 26.1898 41.1896 29.4851 43.4356 32.7778C45.0794 35.1869 46.9756 37.5512 48.0039 40.2259C50.0342 45.5016 48.9191 50.4854 44.8821 54.4882C41.4684 57.8704 36.3005 59.046 31.2273 56.9657C24.8917 54.3673 21.507 46.146 24.4131 39.9287C25.494 37.6144 26.9326 35.4315 28.4501 33.3643C31.2904 29.4983 33.7442 25.4402 35.4958 20.9667C35.6299 20.6248 35.8298 20.3065 36.1848 19.6201Z" fill="white"/>
<path d="M18.903 6.20801C19.2401 6.92275 19.514 7.42518 19.7198 7.95355C20.6226 10.2566 21.9872 12.2874 23.3714 14.3166C24.3843 15.8012 25.5529 17.2582 26.1866 18.9065C27.4378 22.1577 26.7506 25.229 24.2628 27.6958C22.159 29.7801 18.9743 30.5045 15.8479 29.2225C11.9435 27.6212 9.85761 22.5548 11.6485 18.7234C12.3147 17.2971 13.2012 15.9519 14.1364 14.678C15.8868 12.2955 17.3989 9.79471 18.4783 7.03783C18.561 6.82713 18.6842 6.63102 18.903 6.20801Z" fill="white"/>
<path d="M42.8345 2C43.0854 2.53195 43.2892 2.90588 43.4424 3.29912C44.1143 5.01318 45.1299 6.5246 46.1601 8.03481C46.914 9.13972 47.7837 10.2241 48.2553 11.4509C49.1865 13.8706 48.6751 16.1564 46.8235 17.9923C45.2578 19.5435 42.8875 20.0827 40.5607 19.1286C37.6549 17.9368 36.1024 14.1661 37.4353 11.3146C37.9311 10.2531 38.5909 9.2519 39.2869 8.3038C40.5896 6.53063 41.7151 4.66941 42.5184 2.61759C42.5799 2.46078 42.6716 2.31483 42.8345 2Z" fill="white"/>
</svg>
