<svg width="60" height="60" viewBox="0 0 60 60" fill="none" xmlns="http://www.w3.org/2000/svg">
<path fill-rule="evenodd" clip-rule="evenodd" d="M40.3249 11.0382L37.3007 30.2612L48.2614 36.9509L56.6163 37.1952L56.6256 40.9364L48.7573 46.2153L39.791 49.5347L30.5714 45.7784L29.202 49.5069L18.5417 49.4983L19.4365 40.5673L22.669 37.3349C25.3288 34.6751 23.9039 30.318 20.5489 29.4649L21.2241 22.7268L18.6549 11L40.3249 11.0382ZM19.9296 35.6464L20.4551 35.1209C21.2028 34.3732 20.9821 33.223 20.2237 32.7105L19.9296 35.6464Z" fill="white"/>
<path fill-rule="evenodd" clip-rule="evenodd" d="M8.96754 19.3875C8.10294 19.3875 7.40205 20.0884 7.40205 20.953V32.4483H4.56857C3.17386 32.4483 2.4754 34.1345 3.4616 35.1207L10.8513 42.5105C11.4627 43.1218 12.4539 43.1218 13.0653 42.5105L20.455 35.1207C21.4412 34.1345 20.7428 32.4483 19.3481 32.4483H16.2111V20.953C16.2111 20.0884 15.5102 19.3875 14.6456 19.3875H8.96754Z" fill="white"/>
</svg>
