<svg width="60" height="60" viewBox="0 0 60 60" fill="none" xmlns="http://www.w3.org/2000/svg">
<path fill-rule="evenodd" clip-rule="evenodd" d="M38.1021 26.6464H34.8388V20.6875C34.8388 20.3098 34.6714 20.2679 34.4623 20.5616L28.6469 28.7446C28.4378 29.0384 28.5633 29.2902 28.9398 29.2902H32.2031V35.2071C32.2031 35.5848 32.3704 35.6268 32.5796 35.333L38.3949 27.192C38.5623 26.8563 38.4367 26.6464 38.1021 26.6464ZM33.5 6C28.6086 6 26.4405 7.82105 23.4579 10.3262C21.3505 12.0962 18.8365 14.2078 14.6679 16.2598H14.783C17.3768 16.2598 19.4794 18.3624 19.4794 20.9562V29.3206H19.4854C23.6695 29.3206 25.7649 34.3793 22.8063 37.3379L19.6094 40.5348C25.601 49.6044 33.5 53 33.5 53C33.5 53 54 44.1875 54 17.0366C48.8076 14.7487 45.9168 12.3206 43.5422 10.3262C40.5596 7.82105 38.3914 6 33.5 6ZM17.9478 37.7684C17.9478 37.7685 17.9478 37.7685 17.9478 37.7685L20.5924 35.124C20.849 34.8674 20.9915 34.5633 21.0374 34.2539C21.0405 34.2333 21.0431 34.2127 21.0453 34.192C21.1372 33.3316 20.493 32.4514 19.4854 32.4514H16.3485V20.9561C16.3485 20.0915 15.6476 19.3906 14.783 19.3906H9.10487C8.24027 19.3906 7.53938 20.0915 7.53938 20.9561V32.4514H4.70589C3.31119 32.4514 2.61272 34.1377 3.59893 35.1239L10.9887 42.5136C11.6 43.125 12.5912 43.125 13.2026 42.5136L17.9478 37.7684ZM45.4653 21.9464C45.8 21.6107 46.3439 21.6107 46.6786 21.9464C47.0133 22.2821 47.0133 22.8277 46.6786 23.1634L45.4653 24.3804L44.2521 23.1634L45.4653 21.9464ZM41.8674 18.3795C42.2021 18.0438 42.7459 18.0438 43.0806 18.3795C43.4153 18.7152 43.4153 19.2607 43.0806 19.5964L41.8674 20.7714L40.6541 19.5545L41.8674 18.3795ZM38.2694 14.7705C38.6041 14.4348 39.148 14.4348 39.4827 14.7705C39.8174 15.1063 39.8174 15.6518 39.4827 15.9875L38.2694 17.2045L37.0561 15.9875L38.2694 14.7705ZM27.5174 14.7705C27.8521 14.4348 28.3959 14.4348 28.7306 14.7705L29.9439 15.9875L28.7306 17.2045L27.5174 15.9875C27.1827 15.6518 27.1827 15.1063 27.5174 14.7705ZM23.9612 18.3795C24.2959 18.0438 24.8398 18.0438 25.1745 18.3795L26.3878 19.5964L25.1327 20.7714L23.9612 19.5545C23.6265 19.2188 23.6265 18.6732 23.9612 18.3795ZM20.3214 21.9045C20.6561 21.5688 21.2 21.5688 21.5347 21.9045L22.748 23.1214L21.5347 24.3384L20.3214 23.1214C19.9867 22.7857 19.9867 22.2402 20.3214 21.9045ZM25.1327 37.5152C24.798 37.8509 24.2541 37.8509 23.9194 37.5152C23.5847 37.1795 23.5847 36.6339 23.9194 36.2982L25.1327 35.0813L26.3459 36.2982L25.1327 37.5152ZM28.7306 41.1241C28.3959 41.4598 27.8521 41.4598 27.5174 41.1241C27.1827 40.7884 27.1827 40.2429 27.5174 39.9071L28.7306 38.6902L29.9439 39.9071L28.7306 41.1241ZM39.4827 41.1241C39.148 41.4598 38.6041 41.4598 38.2694 41.1241L37.0561 39.9071L38.2694 38.6902L39.4827 39.9071C39.8174 40.2429 39.8174 40.7884 39.4827 41.1241ZM43.0388 37.5152C42.7041 37.8509 42.1602 37.8509 41.8255 37.5152L40.6541 36.3402L41.8674 35.1232L43.0806 36.3402C43.3735 36.6759 43.3735 37.2214 43.0388 37.5152ZM43.0806 30.3393L35.8847 37.5571C34.5878 38.858 32.4541 38.858 31.1572 37.5571L23.9194 30.3393C22.6225 29.0384 22.6225 26.8982 23.9194 25.5973L31.1153 18.3795C32.4123 17.0786 34.5459 17.0786 35.8429 18.3795L43.0388 25.5973C44.3776 26.8982 44.3776 28.9964 43.0806 30.3393ZM46.6367 33.9482C46.3021 34.2839 45.7582 34.2839 45.4235 33.9482L44.2102 32.7313L45.4235 31.5143L46.6367 32.7313C46.9714 33.067 46.9714 33.6125 46.6367 33.9482Z" fill="white"/>
</svg>
