<svg width="60" height="60" viewBox="0 0 60 60" fill="none" xmlns="http://www.w3.org/2000/svg">
<g clip-path="url(#clip0_4922_2339)">
<path d="M52.1839 35.5718C50.2664 26.5784 51.9409 26.5784 51.3467 21.5009C49.9963 9.75268 40.1926 5.02637 29.7407 5.02637C19.2888 5.02637 9.48508 9.75268 8.1347 21.5009C7.54054 26.5784 9.215 26.5784 7.29747 35.5718C5.40695 44.4033 12.2128 43.5931 13.9143 45.2135C15.6158 46.834 16.6961 51.9114 18.9377 53.8019C19.8019 54.5311 24.4472 55.6654 29.7137 55.6654C34.9802 55.6654 39.6255 54.5581 40.4897 53.8019C42.7313 51.9384 43.7846 46.834 45.5131 45.2135C47.2686 43.5661 54.0745 44.4033 52.1839 35.5718ZM18.8297 39.0828C14.4275 39.0828 10.8625 37.5974 10.8625 33.1952C10.8625 28.793 14.1034 24.7689 19.856 26.6324C25.6086 28.4959 26.7969 30.8996 26.7969 35.2748C26.7969 39.677 23.2319 39.0828 18.8297 39.0828ZM29.7137 49.9668C27.5801 49.9668 25.8246 53.3158 25.8516 49.9668C25.8516 46.6179 27.6341 40.0551 29.7677 40.0551C31.9013 40.0551 33.6028 46.6179 33.6028 49.9668C33.5758 53.2888 31.8473 49.9668 29.7137 49.9668ZM40.6787 39.0828C36.2765 39.0828 32.7115 39.677 32.7115 35.2748C32.7115 30.8725 33.8999 28.4959 39.6525 26.6324C45.4051 24.7689 48.646 28.793 48.646 33.1952C48.646 37.5974 45.081 39.0828 40.6787 39.0828Z" fill="white"/>
</g>
<defs>
<clipPath id="clip0_4922_2339">
<rect x="7" y="5" width="45.5076" height="50.6391" rx="6.3299" fill="white"/>
</clipPath>
</defs>
</svg>
