<svg width="45" height="45" viewBox="0 0 45 45" fill="none" xmlns="http://www.w3.org/2000/svg">
<g clip-path="url(#clip0_9901_36643)">
<path fill-rule="evenodd" clip-rule="evenodd" d="M14.034 1.62324C13.7415 1.73968 13.485 1.93045 13.29 2.17644C13.0951 2.42243 12.9685 2.71503 12.923 3.02493C12.8287 3.68069 12.6934 4.32996 12.5177 4.96893C20.411 0.192748 32.039 2.27957 37.723 9.29837L35.7818 12.6393C34.3394 10.6858 32.4788 9.07484 30.3347 7.92251C28.1905 6.77015 25.8158 6.10513 23.3819 5.97541L24.4158 7.43687C24.4715 7.51497 24.5357 7.5856 24.607 7.64772C29.4378 8.33105 33.5188 11.3295 35.6769 15.4771L39.7233 8.51263C39.7756 8.42172 39.7985 8.31696 39.7886 8.21263C39.779 8.1083 39.7371 8.00953 39.6687 7.9298C33.9409 0.810351 22.7312 -2.09487 14.034 1.62324ZM21.5323 5.97859L22.525 7.50003L22.5 7.5C14.3115 7.5 7.67343 14.0999 7.67343 22.2414C7.67343 23.9146 7.95381 25.5228 8.47043 27.022C8.47251 27.0701 8.47064 27.1187 8.46481 27.1668C8.44944 27.2941 8.40686 27.4164 8.33993 27.5255L7.42263 29.0224C2.64194 18.9055 10.2715 6.3659 21.5323 5.97859ZM9.26615 28.8952L6.23453 34.1131C2.35823 29.0659 1.26172 21.3226 3.6553 15.3064C3.04913 15.5803 2.42631 15.8163 1.79046 16.0127C1.48994 16.1065 1.21945 16.2771 1.00606 16.5075C0.79267 16.7378 0.643856 17.0198 0.574504 17.3253C-1.14069 24.336 1.08919 32.3677 5.86956 37.3978L9.07372 31.8833C10.4806 33.8405 12.3037 35.4659 14.4135 36.6437C16.5233 37.8215 18.8682 38.5228 21.2814 38.6979L20.4686 37.3195C20.3818 37.1708 20.2643 37.0422 20.1237 36.9422C19.9832 36.8423 19.8228 36.773 19.6534 36.7394C17.6905 36.3564 15.8264 35.5805 14.1742 34.4597C13.033 33.6853 12.0093 32.7574 11.1312 31.7046C10.4074 30.846 9.78016 29.9038 9.26615 28.8952ZM23.6717 38.7026L22.5495 36.9828C30.7152 36.9561 37.3266 30.3665 37.3266 22.2414C37.3266 20.5219 37.0306 18.8711 36.4862 17.3368C36.5062 17.2369 36.5431 17.1409 36.5959 17.0531L37.5001 15.5443C42.3593 25.5858 34.8732 38.1768 23.6717 38.7026ZM7.34444 38.5668L8.12674 36.4764C13.2382 41.8743 22.3338 43.9717 29.5086 41.1305C29.1993 41.8169 28.9397 42.5245 28.7313 43.2478C28.6707 43.4555 28.556 43.6438 28.3992 43.7933C28.2421 43.943 28.048 44.0491 27.8368 44.1005C24.2929 44.9775 20.5874 44.9827 17.0412 44.115C13.495 43.2476 10.2149 41.5335 7.48496 39.1216C7.40799 39.0541 7.35339 38.9648 7.32831 38.8658C7.30324 38.7667 7.30886 38.6625 7.34444 38.5668ZM40.0414 12.4385C40.0497 12.2308 40.1132 12.0291 40.2251 11.8536L41.2603 10.2235C45.2201 15.9984 46.0501 24.5423 43.1423 31.0544C43.0585 31.2533 42.9238 31.4268 42.751 31.5577C42.5786 31.6885 42.3747 31.7718 42.1595 31.7995C41.4107 31.8934 40.6696 32.0397 39.9415 32.2376C43.2525 26.6739 43.3634 18.6954 40.1775 13.036C40.0799 12.8522 40.0331 12.6461 40.0414 12.4385Z" fill="white" fill-opacity="0.83"/>
<path d="M22.5 28.4484C25.876 28.4484 28.6128 25.7274 28.6128 22.3708C28.6128 19.0142 25.876 16.2932 22.5 16.2932C19.1241 16.2932 16.3873 19.0142 16.3873 22.3708C16.3873 25.7274 19.1241 28.4484 22.5 28.4484Z" fill="white"/>
</g>
<defs>
<clipPath id="clip0_9901_36643">
<rect width="45" height="45" fill="white"/>
</clipPath>
</defs>
</svg>
