<svg width="30" height="45" viewBox="0 0 30 45" fill="none" xmlns="http://www.w3.org/2000/svg">
<path d="M0.528143 13.6072C-0.176048 14.3054 -0.176047 15.4373 0.528144 16.1354L4.60758 20.1799L11.1749 13.6689C13.2875 11.5745 16.7126 11.5745 18.8252 13.6689L25.3924 20.1799L29.4719 16.1354C30.1761 15.4373 30.176 14.3054 29.4719 13.6072L16.2751 0.523612C15.5709 -0.174538 14.4291 -0.174537 13.7249 0.523612L0.528143 13.6072Z" fill="white" fill-opacity="0.5"/>
<path d="M0.737981 31.6007C0.0337904 30.9026 0.0337919 29.7707 0.737983 29.0725L13.7249 16.197C14.4291 15.4988 15.5709 15.4988 16.275 16.197L29.262 29.0725C29.9662 29.7707 29.9662 30.9026 29.262 31.6007L16.275 44.4763C15.5709 45.1744 14.4291 45.1744 13.7249 44.4763L0.737981 31.6007Z" fill="white"/>
</svg>
