<svg width="54" height="39" viewBox="0 0 54 39" fill="none" xmlns="http://www.w3.org/2000/svg">
<path fill-rule="evenodd" clip-rule="evenodd" d="M41.2222 8.59014L48.3148 2.74032L46.5085 0.553223L38.423 7.23306C37.5321 6.85638 36.6205 6.52547 35.6845 6.25071C34.7561 5.9778 33.8179 5.73245 32.8769 5.50502C31.4626 5.16319 30.0158 5.03776 28.5677 4.93301C27.2505 4.8379 25.9362 4.89441 24.619 4.99779C23.2498 5.1053 21.8974 5.31481 20.5647 5.61667C19.6265 5.82894 18.6968 6.09634 17.791 6.41473C16.6922 6.80067 15.6075 7.23348 14.5453 7.70625C13.1267 8.33616 11.7856 9.10941 10.4868 9.95021C8.94144 10.9509 7.47919 12.0577 6.10711 13.2734C4.73502 14.4891 3.43477 15.7765 2.24864 17.1673L2.09916 17.3422C1.52585 18.0129 0.952065 18.6841 0.427167 19.3892C-0.165902 20.1859 -0.133501 21.0749 0.475064 21.855C1.07518 22.6228 1.70487 23.3699 2.34161 24.11C3.89542 25.9143 5.61124 27.5614 7.47497 29.0569C8.24972 29.6789 9.04643 30.2689 9.86666 30.8246L4.57802 35.1937L6.35594 37.3465L12.382 32.3765L18.1962 27.5811L22.2105 24.2703L31.5313 16.5828L35.5331 13.2823L41.2222 8.59014ZM33.3615 11.4146C31.6564 10.2862 29.6179 9.59331 27.4153 9.51603C20.9592 9.2886 15.9216 14.3182 15.6624 20.008C15.5768 21.8895 15.9518 23.6468 16.6777 25.1977L20.9954 21.6306C20.9448 21.3525 20.914 21.068 20.9043 20.7786C20.7916 17.4017 23.7048 14.5485 27.159 14.6284V14.627C27.8229 14.6424 28.4614 14.7621 29.0578 14.97L33.3615 11.4146ZM6.36504 37.3575L7.45684 38.4889L7.36324 38.5662L6.36504 37.3575ZM33.013 19.5022L24.9109 26.1846C25.5608 26.4185 26.2649 26.5503 27.004 26.5594C30.3201 26.5319 33.2277 23.8206 33.1066 20.3541C33.0964 20.0645 33.0647 19.78 33.013 19.5022ZM26.5729 31.6717C24.3874 31.5867 22.3294 30.8918 20.6017 29.7387L15.5296 33.9219C16.6109 34.3821 17.7171 34.7809 18.8503 35.1107C20.507 35.5917 22.1862 35.9708 23.9147 36.1086L23.9593 36.1121C24.9714 36.1923 25.984 36.2725 27.0336 36.3553C27.3799 36.3268 27.729 36.3001 28.0801 36.2733L28.0819 36.2732C28.9342 36.2081 29.7976 36.1422 30.6582 36.0466C31.4491 35.958 32.2331 35.8021 33.0143 35.6468L33.0144 35.6468L33.0145 35.6467L33.0417 35.6413C34.5631 35.3408 36.0381 34.8736 37.482 34.3236C39.0485 33.7268 40.5488 32.9949 41.9983 32.1624C43.586 31.2499 45.0891 30.2161 46.5105 29.0749C48.3023 27.6372 49.9632 26.0645 51.4677 24.3416C52.1932 23.5104 52.906 22.6669 53.578 21.7944C54.171 21.0253 54.1274 20.0728 53.5202 19.3134L53.5188 19.3161C52.9229 18.5732 52.3186 17.8371 51.6959 17.1149C50.3478 15.5491 48.8715 14.1046 47.2909 12.7621C46.2746 11.8991 45.2164 11.0923 44.1137 10.3468L37.3184 15.9513C37.9902 17.368 38.3572 18.9387 38.3399 20.5787C38.416 26.8309 32.929 31.9184 26.5729 31.6717Z" fill="white"/>
</svg>
