<svg width="60" height="60" viewBox="0 0 60 60" fill="none" xmlns="http://www.w3.org/2000/svg">
<path d="M34.4542 36.6329C32.634 38.4621 32.5246 40.8918 32.4576 43.3362C32.3367 43.3558 32.2174 43.3754 32.0965 43.3951C31.7076 42.7112 31.2305 42.0616 30.943 41.3384C29.7682 38.3721 30.0035 35.3535 30.7616 32.3397C30.9136 31.7327 31.1554 31.1486 31.3188 30.5449C31.3776 30.3289 31.3286 30.0835 31.3302 29.8512C31.0786 29.8757 30.7878 29.8283 30.5803 29.9379C27.6213 31.4824 25.0186 33.485 23.0106 36.1715C18.769 41.8456 18.0877 48.0286 20.6643 54.5567C21.161 55.8133 22.1789 56.8604 22.9305 58.0204C23.1037 58.2871 23.1723 58.6192 23.2899 58.9203C22.9599 58.9383 22.5907 59.0626 22.3031 58.9596C14.6076 56.2174 9.74517 50.8574 7.74042 42.9468C6.70944 38.8761 6.68657 34.7972 8.10804 30.7821C8.22568 30.4484 8.32207 30.0966 8.50507 29.8021C8.67336 29.5305 8.94294 29.3227 9.16842 29.0871C9.30893 29.3587 9.48539 29.6156 9.58179 29.9019C10.0523 31.2893 10.4379 32.7079 10.9836 34.0642C11.2385 34.699 11.7597 35.239 12.2107 35.7789C12.3528 35.9507 12.6567 35.9883 12.8871 36.0865C12.9492 35.8623 13.0538 35.6398 13.0652 35.4124C13.1502 33.8106 13.0717 32.1843 13.3201 30.6087C13.8495 27.2546 15.534 24.4143 17.7381 21.9029C19.1906 20.2455 20.7901 18.7173 22.3407 17.1483C24.5774 14.8855 26.3616 12.3577 27.1655 9.21632C27.8337 6.6067 27.6034 4.14105 26.1656 1.82266C26.0218 1.59033 25.9907 1.28764 25.9074 1.01768C26.1819 1.02259 26.4809 0.960418 26.7292 1.04386C31.8645 2.77979 35.7907 6.06678 38.6859 10.5923C42.6415 16.7769 43.5891 23.485 41.952 30.5989C41.8393 31.0881 41.7118 31.5724 41.5925 32.06L41.7984 32.2399C42.086 32.1009 42.3997 31.9994 42.6562 31.8162C45.2312 29.9837 46.7882 27.4592 47.6395 24.4503C47.7196 24.1689 47.9499 23.93 48.11 23.6715C48.3306 23.8564 48.6035 24.0037 48.762 24.2327C52.5689 29.7137 53.8645 35.7363 52.4316 42.2629C50.9726 48.9121 47.0644 53.7665 41.1971 57.1009C41.0321 57.1942 40.8638 57.3251 40.6874 57.3463C40.4668 57.3741 40.1482 57.3823 40.0322 57.2547C39.9227 57.1336 39.9668 56.8031 40.042 56.6019C40.3361 55.8149 40.7544 55.0639 40.9733 54.259C41.97 50.6006 41.0403 47.4543 38.2546 44.9068C36.8413 43.6143 35.5701 42.2432 35.1028 40.3404C34.8773 39.4258 34.8496 38.4605 34.7466 37.5181C34.7189 37.2579 34.7417 36.9929 34.7417 36.7311L34.4525 36.6362L34.4542 36.6329Z" fill="white"/>
</svg>
