<svg width="60" height="60" viewBox="0 0 60 60" fill="none" xmlns="http://www.w3.org/2000/svg">
<path d="M31.9718 50.103C33.1194 48.6402 34.1592 47.3699 34.929 46.4458C34.9778 46.3886 35.0035 46.3152 35.0009 46.2401C34.9984 46.165 34.9679 46.0935 34.9154 46.0397C34.8628 45.986 34.7921 45.9538 34.717 45.9495C34.642 45.9452 34.5681 45.9692 34.5098 46.0166C33.5834 46.7543 32.2777 47.9396 30.5589 49.8242L29.2314 49.5622C33.4055 44.8425 37.5097 40.9406 40.739 37.8705C42.0879 36.5881 43.2842 35.4508 44.269 34.4597C44.6659 34.1083 45.0606 33.5437 44.6587 33.0819C40.7947 28.6421 37.6135 23.8928 35.0897 20.0141C35.0035 19.8817 34.8824 19.7756 34.7398 19.7074C34.5972 19.6393 34.4385 19.6118 34.2813 19.628C34.1241 19.6442 33.9744 19.7033 33.8486 19.7991C33.7228 19.8948 33.6259 20.0233 33.5684 20.1705C33.2628 20.9764 33.0778 21.8231 33.0195 22.6831C33.0022 22.7376 32.9677 22.7851 32.9212 22.8184C32.8746 22.8517 32.8185 22.8689 32.7613 22.8676C32.7041 22.8662 32.6489 22.8463 32.604 22.8108C32.5591 22.7753 32.5269 22.7262 32.5123 22.6709C32.0167 20.7633 30.7226 11.6442 30.708 9.25256C30.7549 9.02309 30.9575 8.93728 31.1662 9.04811C34.5198 11.5609 37.8637 14.0916 41.1979 16.6401C41.3959 16.7908 41.2284 17.1359 41.0002 17.0368C39.5656 16.4139 38.6173 16.266 37.925 16.3561C37.2135 16.4488 36.8679 17.1539 37.2449 17.7645C41.1318 24.0598 46.6255 28.9217 51.59 33.1699C51.9513 33.4901 51.9984 33.8575 51.7011 34.25C51.4573 34.5157 51.0225 34.9206 50.4321 35.4703C47.8908 37.8367 42.4657 42.8885 36.9744 51.0904L31.9718 50.103Z" fill="white" fill-opacity="0.55"/>
<path fill-rule="evenodd" clip-rule="evenodd" d="M28.9673 26.4917C29.0054 26.8166 28.769 27.2171 28.4834 27.3779L22.402 30.8438L20.3304 27.2104L24.9061 24.6011C27.0017 23.4071 28.7213 24.2975 28.9673 26.4917ZM19.752 42.9656C19.2212 43.1809 18.9677 43.7862 19.183 44.317L19.1803 44.3143C19.1987 44.357 19.2198 44.397 19.2409 44.437C19.4939 44.8829 20.0436 45.0828 20.5317 44.8833L28.0186 41.8296C28.32 41.7062 28.4921 41.8615 28.376 42.1669C27.3172 44.9926 24.8661 47.4247 22.0172 48.1701L12.892 50.56C12.2577 50.7268 11.4825 50.4005 11.1583 49.8319L5.22011 39.4125C4.89592 38.8438 5.09418 38.1211 5.66281 37.7969L8.15088 36.3789C8.43651 36.2181 8.66758 35.8202 8.66938 35.4929L8.7 29.9472C8.70362 29.2925 9.16839 28.4994 9.73701 28.1752L15.3192 24.9939C15.8878 24.6698 16.6105 24.868 16.9347 25.4366L20.311 31.3605C20.4718 31.6435 20.374 32.0075 20.0883 32.1683L18.8843 32.8535C18.6014 33.017 18.1383 33.0197 17.8518 32.8611L13.5935 30.5091C13.0921 30.2322 12.4604 30.415 12.1835 30.9164C12.0034 31.2454 12.0172 31.6287 12.1912 31.9331C12.2834 32.0932 12.4184 32.2297 12.5909 32.3265L14.6948 33.4877L14.6576 40.2124C14.6566 40.4013 14.7062 40.5799 14.7932 40.7321C14.9724 41.0417 15.3066 41.2538 15.6898 41.2559C16.2646 41.2591 16.7302 40.796 16.7333 40.2238L16.7642 34.6302L17.8785 35.2457C18.1942 35.4204 18.5775 35.4172 18.8925 35.238L22.5338 33.1638L28.4763 29.7769C28.762 29.6135 28.9901 29.7478 28.9883 30.0751L28.9745 32.5686C28.9727 32.8959 28.7311 33.2751 28.435 33.4146L19.7259 37.5579C19.2083 37.8025 18.9893 38.4213 19.234 38.939C19.2392 38.9485 19.244 38.9581 19.2488 38.9675C19.2559 38.9817 19.2629 38.9955 19.2708 39.0084C19.537 39.4755 20.1241 39.6651 20.6177 39.4309L28.4249 35.7191C28.7211 35.5797 28.9597 35.73 28.9579 36.0574L28.9438 38.6253C28.942 38.9527 28.6951 39.3185 28.391 39.4419L19.752 42.9656Z" fill="white"/>
</svg>
