<svg width="36" height="38" viewBox="0 0 36 38" fill="none" xmlns="http://www.w3.org/2000/svg">
<path fill-rule="evenodd" clip-rule="evenodd" d="M7.3628 21.7961C8.0977 22.6206 8.96782 23.2706 10.0896 23.8327H10.0907C10.0907 23.7253 10.0884 23.6323 10.0863 23.5488C10.0824 23.3958 10.0794 23.2748 10.0931 23.1558C10.1233 22.8881 10.1521 22.6202 10.1809 22.3522C10.2769 21.4607 10.3729 20.5691 10.5176 19.6857C10.5787 19.3144 10.5434 19.0802 10.293 18.8015C10.0453 18.5263 9.79733 18.2513 9.54935 17.9763C8.18695 16.4655 6.82442 14.9546 5.50734 13.406C3.49549 11.0403 3.81767 7.5397 6.17639 5.52415C8.49631 3.54256 12.0168 3.77914 14.0627 6.06405C14.4179 6.46086 14.7742 6.8567 15.1305 7.25253C16.3832 8.64411 17.6358 10.0356 18.8378 11.4689C19.3763 12.1119 19.8513 12.8907 20.0877 13.6859C20.7532 15.9216 20.1535 17.8786 18.4509 19.4889C17.1281 20.7397 16.7201 22.5421 17.3868 24.1454C17.5055 24.4335 17.602 24.6045 17.9782 24.4616C24.9815 21.8113 26.3243 13.8651 22.3124 9.08679C20.5909 7.0361 18.7849 5.05569 16.9752 3.0823C15.3056 1.25999 13.1797 0.280911 10.7316 0.0443391C6.7596 -0.339798 2.89699 1.80106 1.08033 5.34028C-0.736336 8.87949 -0.234255 13.1823 2.37845 16.1851C3.60979 17.5994 4.8603 18.9973 6.11065 20.395C6.52829 20.8618 6.94592 21.3287 7.3628 21.7961ZM17.4973 18.4806C18.9776 17.0986 19.3563 14.9238 18.3544 13.4153L18.3521 13.413C18.3094 13.4247 18.2653 13.436 18.2205 13.4474C18.1222 13.4726 18.0203 13.4987 17.9217 13.5324C11.6346 15.6897 9.36284 23.7765 13.6523 28.8476C15.4066 30.9205 17.1774 32.9888 19.0776 34.927C21.8831 37.7881 25.3365 38.7016 29.1545 37.4555C36.0625 35.2011 38.2178 26.9878 33.4133 21.5443C33.0759 21.1621 32.7394 20.7791 32.4029 20.396C31.1913 19.017 29.9796 17.6378 28.7253 16.2987C28.2526 15.7945 27.695 15.3685 27.1381 14.9429C26.9331 14.7863 26.7282 14.6297 26.5277 14.4694C26.4277 14.3899 26.3048 14.3379 26.159 14.2761C26.0834 14.2442 26.0017 14.2096 25.9139 14.1672C25.9139 14.2729 25.9161 14.3651 25.9181 14.4483C25.922 14.6066 25.925 14.7322 25.9103 14.8558C25.8815 15.101 25.8536 15.3464 25.8257 15.5918C25.7238 16.4867 25.622 17.3816 25.4753 18.2686C25.4141 18.6351 25.4388 18.8729 25.6928 19.1551C25.9053 19.3912 26.118 19.6271 26.3307 19.8631C27.741 21.4276 29.1518 22.9926 30.5137 24.5975C32.495 26.9327 32.1623 30.4204 29.8247 32.4325C27.5365 34.4023 24.009 34.1974 21.9795 31.9523C20.3157 30.1112 18.6684 28.2538 17.034 26.3858C16.2709 25.5145 15.7982 24.4909 15.6759 23.3303C15.4737 21.4155 16.0863 19.7981 17.4973 18.4806Z" fill="white"/>
</svg>
