<svg width="60" height="60" viewBox="0 0 60 60" fill="none" xmlns="http://www.w3.org/2000/svg">
<g clip-path="url(#clip0_4922_2390)">
<path fill-rule="evenodd" clip-rule="evenodd" d="M12.755 19.2107C12.7177 19.8855 12.6977 20.5992 12.6977 21.354V25.4058L21.4544 31.0418V24.8097L12.755 19.2107ZM13.1192 15.872L21.4543 21.2366C21.4237 10.1738 17.0761 8 17.0761 8C17.0761 8 14.2163 9.42988 13.1192 15.872ZM25.8328 27.6277V33.8597L34.5895 39.4957V33.2636L25.8328 27.6277ZM34.5895 29.6906L25.8328 24.0546V21.354C25.8328 10.1892 30.2111 8 30.2111 8C30.2111 8 34.5895 10.1892 34.5895 21.354V29.6906ZM38.9679 36.0816V42.3137L43.4775 45.2161H47.7246V41.7176L38.9679 36.0816ZM47.7246 38.1445L38.9679 32.5086V21.354C38.9679 10.1892 43.3463 8 43.3463 8C43.3463 8 47.7246 10.1892 47.7246 21.354V38.1445ZM47.7246 47.9496V47.4058H46.8796L47.7246 47.9496ZM41.3281 47.4058L47.7246 51.5227V51.7841H38.9679V47.4058H41.3281ZM34.5895 43.0687L25.8328 37.4328V45.2161H30.2111H34.5895V43.0687ZM21.4544 34.6148L12.6977 28.9789V45.2161H17.0761H21.4544V34.6148ZM12.6977 47.4058V51.7841H21.4544V47.4058H12.6977ZM25.8328 47.4058V51.7841H34.5895V47.4058H25.8328Z" fill="white"/>
<path fill-rule="evenodd" clip-rule="evenodd" d="M4.40745 16.954C5.19052 15.7371 6.80882 15.3835 8.02202 16.1644L54.8477 46.302C56.0609 47.0828 56.4096 48.7024 55.6265 49.9193C54.8435 51.1362 53.2252 51.4898 52.012 50.709L5.18626 20.5713C3.97306 19.7905 3.62438 18.171 4.40745 16.954Z" fill="white"/>
</g>
<defs>
<clipPath id="clip0_4922_2390">
<rect width="60" height="60" fill="white"/>
</clipPath>
</defs>
</svg>
