<svg width="60" height="60" viewBox="0 0 60 60" fill="none" xmlns="http://www.w3.org/2000/svg">
<path d="M11.135 17.0257C11.9048 16.3518 12.5172 15.6915 13.2562 15.2307C13.5212 15.0656 14.1412 15.2806 14.504 15.488C15.5407 16.0792 15.5234 16.8394 14.4618 18.9204C15.5407 19.5501 16.6272 20.1874 17.9442 20.9572C17.7176 20.1778 17.5621 19.6211 17.3913 19.0682C17.0304 17.8953 17.422 17.0161 18.4586 16.6974C19.4799 16.3845 20.2919 16.8375 20.672 17.949C21.1366 19.3063 21.6856 20.6443 22.0254 22.0322C22.3191 23.232 23.0102 23.9059 24.045 24.4952C24.9184 24.9924 25.4598 24.9329 26.387 24.4837C27.6981 23.8502 27.8671 23.0074 27.8229 21.7827C27.7941 20.9975 27.6156 20.3986 27.0685 19.8207C25.9263 18.6152 24.8493 17.3482 23.7551 16.0984C23.0102 15.248 23.0333 14.3592 23.7973 13.6566C24.5998 12.9194 25.5481 12.9597 26.3256 13.7756C26.7556 14.2287 27.1741 14.6932 27.7346 15.2998V11.2973C27.2662 11.2723 26.8016 11.2493 26.339 11.2262C25.36 11.1782 24.761 10.5639 24.7322 9.57338C24.7034 8.58473 25.2736 7.89556 26.2161 7.78038C27.2451 7.65496 27.7717 7.06049 27.7961 5.99698C27.8248 4.78948 28.4871 4.02352 29.5219 4.00049C30.5892 3.97745 31.2995 4.77221 31.3187 6.02001C31.3264 6.55561 31.3187 7.09121 31.3187 7.7727C31.9177 7.7727 32.4187 7.7535 32.9178 7.77654C34.0082 7.82837 34.6129 8.49067 34.586 9.57338C34.5611 10.6158 33.9698 11.1936 32.8967 11.2262C31.846 11.2582 31.3206 11.7862 31.3206 12.81C31.3206 13.6374 31.3206 14.4648 31.3206 15.2902L31.5145 15.4381C32.1499 14.7259 32.7911 14.0194 33.4189 13.2976C34.3921 12.1803 35.8031 12.3416 36.4443 13.647C36.7879 14.3496 36.5998 14.9293 36.1084 15.4841C34.6455 17.1332 33.2326 18.8283 31.7238 20.435C31.0999 21.0993 31.4416 21.8153 31.3206 22.5045C31.167 23.3645 31.599 23.7139 32.3246 24.1593C33.3152 24.7678 34.0543 24.7947 34.9585 24.1151C35.7014 23.5565 36.6344 23.3146 36.9185 22.1916C37.3158 20.6193 37.9263 19.1028 38.4485 17.5632C38.8459 16.3941 39.6617 15.9353 40.7233 16.2808C41.7408 16.611 42.1036 17.4864 41.7292 18.6785C41.5622 19.2122 41.4106 19.7516 41.1898 20.4984C42.4606 19.7708 43.5299 19.1604 44.6894 18.4961C44.0847 17.2925 42.9252 15.9756 44.7585 14.9927C46.4133 14.1058 47.0756 15.463 47.7033 16.7377C48.3541 16.3806 48.8974 16.062 49.4618 15.7778C50.4044 15.3037 51.4026 15.5609 51.8921 16.3806C52.3721 17.1831 52.1187 18.237 51.274 18.8091C50.748 19.1642 50.1874 19.4694 49.5655 19.8438C49.8227 20.3122 50.0665 20.748 50.3045 21.1895C50.7921 22.0956 50.5656 22.946 49.6941 23.4854C48.8014 24.0383 47.8742 23.8272 47.2983 22.9249C47.043 22.5256 46.8107 22.109 46.4997 21.583C45.3114 22.2645 44.1673 22.923 43.025 23.5795V23.8195C43.9906 24.0249 44.9582 24.2245 45.9219 24.4395C47.0238 24.6853 47.4883 25.3936 47.2695 26.4533C47.0603 27.4631 46.3384 27.9814 45.3191 27.7933C43.2151 27.4036 41.1053 27.0369 39.0225 26.5531C38.316 26.39 37.7977 26.5435 37.2467 26.8852C36.8666 27.1214 36.4213 27.2807 36.1045 27.5802C35.8588 27.8125 35.6745 28.1945 35.6284 28.5323C35.5651 28.9969 35.7858 29.5191 35.6591 29.951C35.3981 30.8533 35.8684 31.1777 36.5192 31.6461C37.7228 32.5119 38.9284 32.5963 40.3087 32.2508C41.8559 31.8649 43.4339 31.6 45.0023 31.3044C46.0332 31.1105 46.8203 31.6845 46.995 32.7211C47.1639 33.7174 46.6686 34.4297 45.6416 34.6543C44.8161 34.8366 43.9887 35.0094 43.0826 35.2052C43.2228 35.3837 43.265 35.4778 43.336 35.52C44.3304 36.094 45.3287 36.6623 46.4172 37.2823C46.6993 36.835 46.9585 36.4089 47.2292 35.9904C47.7609 35.1668 48.7074 34.9614 49.5655 35.4797C50.46 36.0192 50.6942 36.8619 50.2028 37.768C49.9897 38.1596 49.7689 38.5455 49.504 39.0216C49.9494 39.2923 50.3775 39.5437 50.7979 39.8087C51.7789 40.4306 52.0937 41.3732 51.6215 42.2486C51.1262 43.1681 50.0934 43.4369 49.051 42.9071C48.6267 42.692 48.214 42.454 47.7053 42.1776C46.9297 43.3447 46.3327 45.1013 44.484 43.8784C42.8791 42.8187 44.0425 41.594 44.6453 40.3942C43.5453 39.7645 42.5029 39.1675 41.2148 38.4284C41.4624 39.2155 41.6429 39.7626 41.8079 40.3155C42.1247 41.3732 41.7158 42.1699 40.6964 42.5058C39.6694 42.8437 38.8766 42.4636 38.5061 41.4039C37.982 39.8989 37.4713 38.3881 37.0029 36.8638C36.7745 36.1228 36.4443 35.5239 35.6764 35.2398C35.4998 35.1745 35.3482 35.044 35.1831 34.948C33.726 34.0995 32.8276 34.1724 31.5587 35.2474C31.5107 35.2878 31.4569 35.3281 31.4224 35.3799C31.0903 35.8522 31.3955 38.843 31.8178 39.3191C32.962 40.6092 34.1099 41.8992 35.2464 43.1969C36.0028 44.0589 35.9567 44.9899 35.1427 45.7156C34.3576 46.4143 33.3747 46.3164 32.6241 45.4718C32.269 45.0725 31.9042 44.6828 31.3341 44.057C31.3341 45.4372 31.3091 46.5334 31.3609 47.6257C31.3686 47.7869 31.7103 48.0154 31.933 48.0672C32.267 48.1459 32.6337 48.0768 32.9831 48.1056C33.9141 48.1805 34.5553 48.9023 34.5361 49.8333C34.5169 50.7682 33.8642 51.4536 32.9274 51.5207C32.8948 51.5227 32.8641 51.5207 32.8314 51.5246C31.3763 51.5975 31.3552 51.5975 31.3341 53.0891C31.3206 53.9568 30.9636 54.5942 30.1611 54.8783C29.4528 55.1317 28.7329 55.0088 28.2568 54.3715C28.0245 54.0605 27.8863 53.6363 27.8287 53.2466C27.7577 52.7474 27.8114 52.231 27.8114 51.6033C27.2605 51.5745 26.7652 51.5515 26.2699 51.5246C25.2563 51.4689 24.6036 50.7932 24.6017 49.8045C24.5978 48.8178 25.2409 48.1594 26.2737 48.0998C26.4657 48.0883 26.6596 48.0749 26.8496 48.0979C27.6022 48.1901 27.8709 47.8829 27.821 47.1227C27.7596 46.1725 27.8057 45.2126 27.6175 44.1203C27.0435 44.7615 26.5329 45.4814 25.8725 46.0189C25.4559 46.3568 24.738 46.6831 24.3003 46.5468C23.7551 46.376 23.1773 45.7981 22.9642 45.2587C22.8048 44.8575 23.0678 44.128 23.3807 43.7306C24.4097 42.429 25.4905 41.1563 26.6596 39.9814C27.5657 39.0696 27.8824 38.0924 27.846 36.8235C27.8172 35.8061 27.5196 35.3012 26.65 34.6658C25.4252 33.7693 24.6132 34.0649 23.5478 34.7387C22.8547 35.1764 22.3979 35.6563 22.1617 36.4473C21.7164 37.9427 21.1942 39.417 20.6874 40.8952C20.3111 41.9914 19.4722 42.4271 18.4548 42.0797C17.4182 41.7264 17.0515 40.9298 17.4047 39.7991C17.5641 39.2865 17.7195 38.7739 17.9538 38.0118C16.7098 38.7221 15.6635 39.3211 14.5424 39.9622C15.151 41.2216 16.3431 42.5078 14.4868 43.5962C13.477 44.1894 12.9932 43.8784 11.4306 41.784C10.1866 42.3523 8.73535 43.7268 7.63536 41.8743C6.50274 39.9661 8.49347 39.4535 9.65681 38.58C9.02522 37.3687 7.79278 36.0384 9.7144 35.0171C11.4978 34.0688 11.9758 35.7447 12.7302 36.8658C13.8763 36.2111 14.9667 35.5872 16.3182 34.8136C15.318 34.6178 14.6135 34.4911 13.9128 34.3394C12.5479 34.0438 11.9758 33.3738 12.1601 32.3065C12.3559 31.1662 13.1622 30.692 14.5501 30.9512C16.37 31.2929 18.1841 31.6691 20.0001 32.03C20.7085 32.1702 23.1139 31.2084 23.5094 30.6229C23.9125 30.0297 23.3942 28.3289 22.8682 27.8528C21.4322 26.5512 19.8811 27.01 18.2935 27.3632C16.8614 27.6819 15.4159 27.9488 13.9723 28.2118C12.7917 28.4268 12.0641 27.9353 11.8664 26.8411C11.6725 25.768 12.1255 25.1114 13.2697 24.8561C14.2353 24.6411 15.2067 24.4549 16.4199 24.2073C15.0742 23.424 13.9109 22.7464 12.6803 22.0284C11.8261 23.1361 11.3596 25.1249 9.39765 23.8655C7.68143 22.7656 8.97339 21.5389 9.58002 20.2911C9.07706 19.9935 8.59521 19.7094 8.11529 19.4214C7.08249 18.7975 6.71582 17.7148 7.23222 16.8298C7.75822 15.9295 8.82174 15.7279 9.92364 16.3288C10.3959 16.586 10.8585 16.8606 11.1446 17.0237L11.135 17.0257ZM33.0426 29.5632C33.0176 27.609 31.4339 26.079 29.4624 26.1058C27.4908 26.1327 25.9435 27.7011 25.9666 29.6496C25.9896 31.577 27.6118 33.1511 29.5487 33.1243C31.4972 33.0974 33.0656 31.4983 33.0426 29.5632Z" fill="white"/>
</svg>
