<svg width="60" height="60" viewBox="0 0 60 60" fill="none" xmlns="http://www.w3.org/2000/svg">
<g clip-path="url(#clip0_4922_2083)">
<path d="M45.6745 46.4458C49.8159 47.1368 52.375 48.0899 52.375 49.1431C52.375 50.1963 49.8159 51.1495 45.6745 51.8405C41.5332 52.5315 35.8145 52.9556 29.5 52.9556C23.1855 52.9556 17.4668 52.5267 13.3255 51.8405C9.18414 51.1542 6.625 50.1963 6.625 49.1431C6.625 48.0899 9.18414 47.1368 13.3255 46.4458" stroke="white" stroke-width="2.85938" stroke-miterlimit="10" stroke-linecap="round"/>
<path d="M22.8281 49.4536C24.3674 49.5299 25.9639 49.5823 27.5938 49.6061V41.9811C25.9639 41.9573 24.3674 41.9097 22.8281 41.8334V49.4584V49.4536ZM31.4063 49.6061C33.0361 49.5823 34.6326 49.5346 36.1719 49.4536V41.8286C34.6326 41.9049 33.0361 41.9573 31.4063 41.9764V49.6014V49.6061ZM20.4453 32.1544V36.3291C20.4453 37.6444 21.5128 38.7119 22.8281 38.7119V39.9224C24.3674 39.9986 25.9639 40.0511 27.5938 40.0749V37.287H31.4063V40.0749C33.0361 40.0511 34.6326 40.0034 36.1719 39.9224V38.7119C37.4872 38.7119 38.5547 37.6444 38.5547 36.3291V32.1544C35.7287 32.3546 32.6596 32.4642 29.5 32.4642C26.3404 32.4642 23.2713 32.3593 20.4453 32.1544ZM22.8281 55.3916C22.8281 56.7069 23.8956 57.7744 25.2109 57.7744C26.5263 57.7744 27.5938 56.7069 27.5938 55.3916V51.5076C25.9639 51.4838 24.3674 51.4361 22.8281 51.3599V55.3916ZM29.5 13.4541C32.3975 13.4541 34.7422 11.1094 34.7422 8.21191C34.7422 5.31441 32.3975 2.96973 29.5 2.96973C26.6025 2.96973 24.2578 5.31441 24.2578 8.21191C24.2578 11.1094 26.6025 13.4541 29.5 13.4541ZM31.4063 55.3916C31.4063 56.7069 32.4738 57.7744 33.7891 57.7744C35.1044 57.7744 36.1719 56.7069 36.1719 55.3916V51.3599C34.6326 51.4361 33.0361 51.4886 31.4063 51.5076V55.3916ZM36.1719 15.8369H22.8281C21.5128 15.8369 20.4453 16.9044 20.4453 18.2197V30.2434C23.2618 30.4483 26.3309 30.5579 29.5 30.5579C32.6691 30.5579 35.7382 30.4483 38.5547 30.2434V18.2197C38.5547 16.9044 37.4872 15.8369 36.1719 15.8369Z" fill="white"/>
<path d="M45.6745 36.9146C49.8159 37.6056 52.375 38.5587 52.375 39.6119C52.375 40.6651 49.8159 41.6182 45.6745 42.3092C41.5332 43.0003 35.8145 43.4244 29.5 43.4244C23.1855 43.4244 17.4668 42.9955 13.3255 42.3092C9.18414 41.623 6.625 40.6651 6.625 39.6119C6.625 38.5587 9.18414 37.6056 13.3255 36.9146" stroke="white" stroke-width="2.85938" stroke-miterlimit="10" stroke-linecap="round"/>
<path d="M45.6745 27.3833C49.8159 28.0743 52.375 29.0274 52.375 30.0806C52.375 31.1338 49.8159 32.087 45.6745 32.778C41.5332 33.469 35.8145 33.8931 29.5 33.8931C23.1855 33.8931 17.4668 33.4642 13.3255 32.778C9.18414 32.0917 6.625 31.1338 6.625 30.0806C6.625 29.0274 9.18414 28.0743 13.3255 27.3833" stroke="white" stroke-width="2.85938" stroke-miterlimit="10" stroke-linecap="round"/>
</g>
<defs>
<clipPath id="clip0_4922_2083">
<rect width="60" height="60" fill="white"/>
</clipPath>
</defs>
</svg>
