<svg width="32" height="32" viewBox="0 0 32 32" fill="none" xmlns="http://www.w3.org/2000/svg">
<path d="M31.0853 9.20091L23.1745 9.28163C22.3344 11.1747 20.8144 12.6852 18.9145 13.5169C18.2023 12.8907 17.3065 12.4716 16.3161 12.3463C16.7734 12.0971 17.0909 11.6055 17.0846 11.0493L17.0568 8.61968C17.0475 7.8098 16.3841 7.16354 15.5715 7.17284C14.7588 7.18213 14.1104 7.84339 14.1196 8.65327L14.1475 11.0927C14.154 11.6586 14.4825 12.133 14.9455 12.3717C13.9582 12.5196 13.0722 12.9592 12.3745 13.6015C10.456 12.8037 8.90179 11.3283 8.01879 9.46472L0.108024 9.5552C0.108024 9.5552 -0.268331 13.4631 4.27449 13.4111C4.52904 13.4082 4.7836 13.4053 5.04794 13.4023C5.04816 13.4218 4.68138 17.31 9.2144 17.2581C9.78225 17.2517 10.3109 17.2456 10.8005 17.24C10.8563 22.1188 13.3414 27.0772 15.8631 31.8204C18.5358 26.6372 20.6468 22.0068 20.591 17.128C21.0806 17.1224 21.6092 17.1164 22.1771 17.1099C26.7003 17.0582 26.2546 13.189 26.2543 13.1597C26.5186 13.1567 26.783 13.1537 27.0277 13.1509C31.551 13.0991 31.0853 9.20091 31.0853 9.20091Z" fill="white"/>
<path d="M13.1624 10.4618L13.1421 8.68591C12.3903 8.02114 11.8997 7.07039 11.8874 5.99705C11.8643 3.97723 13.4904 2.31914 15.517 2.29596C17.5436 2.27278 19.2072 3.89325 19.2303 5.91307C19.2426 6.9864 18.7739 7.95789 18.0374 8.62992L18.0576 10.396C19.6435 9.50937 20.721 7.82828 20.6988 5.88651C20.6664 3.05681 18.3296 0.7902 15.5001 0.822561C12.6707 0.854922 10.3863 3.17438 10.4187 6.00409C10.441 7.95561 11.5566 9.61162 13.1624 10.4618Z" fill="white"/>
</svg>
