<svg width="60" height="60" viewBox="0 0 60 60" fill="none" xmlns="http://www.w3.org/2000/svg">
<path fill-rule="evenodd" clip-rule="evenodd" d="M36.1248 6.40873L54.2673 24.3136C57.5503 27.5121 57.5837 32.863 54.383 36.1438L49.3183 41.2686L40.0943 31.7734L42.5368 28.3166C43.0343 27.6028 42.7378 27.0194 41.8591 26.983L35.4794 27.0229L33.648 25.1376L33.5677 12.2775C33.5622 11.3996 33.1428 11.235 32.6037 11.9908L27.6658 18.9795L19.8734 10.9581L24.2861 6.48266C27.5287 3.20158 32.8414 3.1684 36.1248 6.40873ZM17.7634 13.098L25.902 21.4759L22.8256 25.8299L14.0833 16.8305L17.7634 13.098ZM11.9733 18.9705L21.0618 28.3262L18.2143 32.3564C17.6752 33.1123 17.9717 33.6957 18.892 33.6899L26.2278 33.6441L27.0968 34.5387L27.1834 48.3955C27.1889 49.2734 27.6082 49.438 28.1474 48.6821L33.4903 41.1201L41.4091 49.2717L36.4655 54.2739C33.2229 57.555 27.9101 57.5882 24.6268 54.3478L6.48433 36.443C3.201 33.2026 3.16785 27.8936 6.41045 24.6125L11.9733 18.9705ZM47.2059 43.4061L43.5215 47.1342L35.2541 38.6238L38.3305 34.2697L47.2059 43.4061Z" fill="white"/>
<path fill-rule="evenodd" clip-rule="evenodd" d="M9.60427 8.45923C10.6422 7.45079 12.2985 7.47221 13.3038 8.50706L52.1052 48.4492C53.1105 49.4841 53.0841 51.1405 52.0462 52.1489C51.0083 53.1573 49.352 53.1359 48.3467 52.1011L9.54527 12.1589C8.53997 11.1241 8.56639 9.46767 9.60427 8.45923Z" fill="white"/>
</svg>
