<svg width="60" height="60" viewBox="0 0 60 60" fill="none" xmlns="http://www.w3.org/2000/svg">
<g clip-path="url(#clip0_4922_2543)">
<path d="M24.0093 49.1694C23.9893 49.9594 23.4473 50.2273 22.5893 49.7978C20.8094 48.9074 19.0274 48.017 17.2895 47.0517C16.5055 46.6164 15.8816 46.5868 15.0796 47.0438C13.4097 47.9953 11.6837 48.8523 9.95379 49.6934C9.5798 49.8747 8.96582 50.0067 8.68583 49.8254C8.43584 49.6639 8.37385 49.0217 8.43184 48.6218C8.71983 46.6439 9.04582 44.67 9.42181 42.708C9.5478 42.0461 9.40381 41.5831 8.91983 41.13C7.44788 39.7491 5.98794 38.3563 4.56599 36.9301C4.274 36.6385 3.90601 36.016 4.02601 35.821C4.236 35.4841 4.78198 35.2438 5.22197 35.1709C7.22389 34.834 9.24581 34.6154 11.2397 34.249C11.7037 34.1623 12.2517 33.7466 12.4817 33.331C13.4197 31.6329 14.2236 29.8638 15.1356 28.1519C15.3616 27.7284 15.8056 27.4191 16.1496 27.0566C16.5175 27.4329 16.9975 27.752 17.2355 28.1953C18.1195 29.8481 18.9474 31.5304 19.7474 33.2246C20.0614 33.8924 20.5014 34.2135 21.2494 34.3061C23.2313 34.5504 25.2072 34.8419 27.1751 35.1709C27.5871 35.2398 28.1671 35.4703 28.2871 35.7737C28.3991 36.0534 28.0931 36.6228 27.8091 36.9084C26.4812 38.246 25.1372 39.5698 23.7213 40.8148C22.9473 41.4964 22.7793 42.1879 22.9913 43.165C23.3733 44.9261 23.6193 46.7149 23.9213 48.4918C23.9593 48.7183 23.9813 48.9468 24.0113 49.1753L24.0093 49.1694Z" fill="white"/>
<path d="M29.7871 10C34.5509 10.0374 39.0187 11.1406 43.1186 13.5696C44.4285 14.3457 44.5445 15.8055 43.3646 16.5048C42.6346 16.9382 41.9706 16.7018 41.3026 16.3157C37.7388 14.2591 33.8689 13.278 29.7591 13.3135C24.1913 13.3627 19.2115 14.9978 15.1456 18.9003C13.4157 20.5609 12.2117 22.5388 11.5398 24.8279C11.3378 25.5174 11.0438 26.1261 10.2398 26.2975C8.86386 26.593 7.91189 25.5154 8.30388 24.0497C8.94986 21.6287 10.1358 19.4755 11.8057 17.5981C15.9336 12.9549 21.2594 10.7131 27.3932 10.1202C28.1871 10.0433 28.9891 10.0374 29.7891 10H29.7871Z" fill="white"/>
<path d="M45.7304 29.3611C45.9004 28.4175 46.0624 27.4128 46.2684 26.4199C46.4144 25.7147 46.2724 25.1769 45.6784 24.6883C44.9385 24.0835 44.2705 23.3901 43.5985 22.7085C43.0565 22.1589 43.1725 21.7905 43.9465 21.6546C44.9925 21.4714 46.0624 21.4064 47.0944 21.17C47.5064 21.0754 47.9704 20.7386 48.1884 20.382C48.7343 19.4876 49.1423 18.5125 49.6283 17.5807C49.9703 16.9247 50.3563 16.9661 50.6843 17.5965C51.1822 18.5578 51.6182 19.5546 52.1662 20.4884C52.3482 20.7977 52.7662 21.0853 53.1242 21.1601C54.1621 21.3788 55.2261 21.4655 56.272 21.6487C56.54 21.696 56.914 21.8555 56.99 22.0545C57.056 22.2278 56.812 22.5706 56.628 22.7696C56.1561 23.2759 55.6901 23.8117 55.1301 24.2076C54.0401 24.9799 53.7581 25.9294 54.1381 27.1705C54.3381 27.8245 54.4281 28.5159 54.5181 29.1956C54.6321 30.0565 54.3761 30.2436 53.5941 29.8634C52.7002 29.43 51.8562 28.8824 50.9323 28.5238C50.4763 28.3485 49.8343 28.3406 49.3823 28.5179C48.4303 28.8902 47.5564 29.4536 46.6304 29.8969C45.9864 30.2042 45.7244 30.0427 45.7304 29.3611Z" fill="white"/>
<path d="M33.2129 47.0647C32.251 46.9781 31.551 46.4147 31.439 45.5636C31.321 44.6712 31.875 43.966 32.8669 43.7532C34.5229 43.3986 36.2168 43.1701 37.8267 42.6698C42.3906 41.2494 45.9724 38.59 48.1864 34.3053C48.7203 33.2691 49.6843 32.946 50.5783 33.4307C51.4122 33.8837 51.6402 34.8175 51.1242 35.8242C48.2763 41.3716 43.5365 44.5471 37.6087 46.1802C36.1728 46.5762 34.6809 46.7732 33.2149 47.0628L33.2129 47.0647Z" fill="white"/>
</g>
<defs>
<clipPath id="clip0_4922_2543">
<rect width="53" height="40" fill="white" transform="translate(4 10)"/>
</clipPath>
</defs>
</svg>
