<svg width="142" height="142" viewBox="0 0 142 142" fill="none" xmlns="http://www.w3.org/2000/svg">
<path fill-rule="evenodd" clip-rule="evenodd" d="M129.802 71C129.802 103.475 103.475 129.802 71 129.802C56.6924 129.802 43.5784 124.692 33.3833 116.197L119.258 37.3929C125.904 46.9186 129.802 58.5041 129.802 71ZM24.0314 106.383L110.277 27.2388C99.8645 17.8875 86.0967 12.1983 71 12.1983C38.5247 12.1983 12.1983 38.5247 12.1983 71C12.1983 84.2835 16.603 96.5382 24.0314 106.383ZM142 71C142 110.212 110.212 142 71 142C31.7878 142 0 110.212 0 71C0 31.7878 31.7878 0 71 0C110.212 0 142 31.7878 142 71Z" fill="white"/>
</svg>
