<svg width="24" height="24" viewBox="0 0 24 24" fill="none" xmlns="http://www.w3.org/2000/svg">
<path fill-rule="evenodd" clip-rule="evenodd" d="M23.6987 10.7899C24.1004 11.1916 24.1004 11.8428 23.6987 12.2445L19.2101 16.7332C18.8084 17.1349 18.1572 17.1349 17.7555 16.7332C17.3538 16.3315 17.3538 15.6802 17.7555 15.2786L20.4882 12.5458L3.51176 12.5458L6.24453 15.2786C6.64621 15.6802 6.64621 16.3315 6.24453 16.7332C5.84284 17.1349 5.19159 17.1349 4.78991 16.7332L0.301261 12.2445C-0.10042 11.8428 -0.10042 11.1916 0.301261 10.7899L4.78991 6.30126C5.19159 5.89958 5.84284 5.89958 6.24453 6.30126C6.64621 6.70294 6.64621 7.3542 6.24453 7.75588L3.51176 10.4886L20.4882 10.4886L17.7555 7.75588C17.3538 7.3542 17.3538 6.70295 17.7555 6.30126C18.1572 5.89958 18.8084 5.89958 19.2101 6.30126L23.6987 10.7899Z" fill="#B9B9B9"/>
</svg>
