<svg width="13" height="13" viewBox="0 0 13 13" fill="none" xmlns="http://www.w3.org/2000/svg">
<g clip-path="url(#clip0_16591_1757)">
<path fill-rule="evenodd" clip-rule="evenodd" d="M11.0137 3.35862C10.0193 1.93339 8.36756 1 6.5 1C3.46503 1 1 3.46503 1 6.5C1 7.69926 1.38489 8.80952 2.03775 9.71388L1.48995 10.6394C0.559454 9.51474 0 8.07215 0 6.5C0 2.91275 2.91275 0 6.5 0C10.0873 0 13 2.91275 13 6.5C13 6.77614 12.7761 7 12.5 7C12.2239 7 12 6.77614 12 6.5C12 5.33826 11.6388 4.26002 11.0227 3.37159L11.031 3.35862H11.0137ZM2.63322 10.4093C2.81632 10.5905 3.01206 10.7588 3.21899 10.913L2.39553 11.5387C2.29817 11.4593 2.20316 11.3771 2.11061 11.2923L2.63322 10.4093ZM3.15487 12.073L4.04127 11.4201C4.7814 11.7911 5.61655 12 6.5 12C8.28789 12 9.8849 11.1409 10.8898 9.80562L10.0106 9.43341L12.3884 7.63341L12.7662 10.6001L11.8344 10.2056C10.6604 11.8958 8.70403 13 6.5 13C5.27699 13 4.13238 12.6614 3.15487 12.073Z" fill="white" fill-opacity="0.34"/>
<path d="M10.1195 3.03369H4.8765L2.60988 7.06369H4.61321L1.6123 12.1337L10.4956 6.17482H8.28462L10.1195 3.03369Z" fill="white"/>
</g>
<defs>
<clipPath id="clip0_16591_1757">
<rect width="13" height="13" fill="white"/>
</clipPath>
</defs>
</svg>
