<svg width="22" height="16" viewBox="0 0 22 16" fill="none" xmlns="http://www.w3.org/2000/svg">
<path d="M9.58845 2.28613L12.3507 10.9692H12.4568L15.2246 2.28613H17.9032L13.9634 13.7147H10.8496L6.9043 2.28613H9.58845Z" fill="white"/>
<path fill-rule="evenodd" clip-rule="evenodd" d="M11.26 0L12.406 3.60233L13.5543 0H21.109L15.5933 16H9.2207L3.69727 0H11.26ZM12.4569 10.9688H12.3508L9.58856 2.28571H6.90441L10.8497 13.7143H13.9636L17.9033 2.28571H15.2247L12.4569 10.9688Z" fill="#1A1A1A"/>
<path d="M2.28516 2.28613H4.57087V13.7147H2.28516V2.28613Z" fill="white"/>
<path fill-rule="evenodd" clip-rule="evenodd" d="M0 0H6.85714V16H0V0ZM4.57143 2.28571H2.28571V13.7143H4.57143V2.28571Z" fill="#1A1A1A"/>
</svg>
