<svg width="202" height="130" viewBox="0 0 202 130" fill="none" xmlns="http://www.w3.org/2000/svg">
<path fill-rule="evenodd" clip-rule="evenodd" d="M60 3C60 1.34315 58.6569 0 57 0H3C1.34315 0 0 1.34315 0 3V57C0 58.6569 1.34315 60 3 60H57C58.6569 60 60 58.6569 60 57V3ZM60 73C60 71.3431 58.6569 70 57 70H3C1.34315 70 0 71.3431 0 73V127C0 128.657 1.34315 130 3 130H57C58.6569 130 60 128.657 60 127V73ZM71 3C71 1.34315 72.3431 0 74 0H128C129.657 0 131 1.34315 131 3V57C131 58.6569 129.657 60 128 60H74C72.3431 60 71 58.6569 71 57V3ZM131 73C131 71.3431 129.657 70 128 70H74C72.3431 70 71 71.3431 71 73V127C71 128.657 72.3431 130 74 130H128C129.657 130 131 128.657 131 127V73ZM142 3C142 1.34315 143.343 0 145 0H199C200.657 0 202 1.34315 202 3V57C202 58.6569 200.657 60 199 60H145C143.343 60 142 58.6569 142 57V3ZM202 73C202 71.3431 200.657 70 199 70H145C143.343 70 142 71.3431 142 73V127C142 128.657 143.343 130 145 130H199C200.657 130 202 128.657 202 127V73Z" fill="white"/>
</svg>
