<svg width="42" height="30" viewBox="0 0 42 30" fill="none" xmlns="http://www.w3.org/2000/svg">
<g clip-path="url(#clip0_17407_13992)">
<path fill-rule="evenodd" clip-rule="evenodd" d="M20.6677 29.9998C31.572 29.9413 41.5987 14.8464 41.5987 14.8464C41.5987 14.8464 31.5647 0.058679 20.6677 0.000171632C9.77073 -0.0583357 0 14.861 0 14.861C0 14.861 9.98282 30.0583 20.6677 29.9998ZM20.7771 25.4525C26.5489 25.4525 31.2279 20.7735 31.2279 15.0017C31.2279 9.2298 26.5489 4.55078 20.7771 4.55078C15.0052 4.55078 10.3262 9.2298 10.3262 15.0017C10.3262 20.7735 15.0052 25.4525 20.7771 25.4525ZM27.0888 14.999C27.0888 18.4847 24.263 21.3105 20.7773 21.3105C17.2916 21.3105 14.4658 18.4847 14.4658 14.999C14.4658 11.5132 17.2916 8.6875 20.7773 8.6875C24.263 8.6875 27.0888 11.5132 27.0888 14.999Z" fill="white"/>
</g>
<defs>
<clipPath id="clip0_17407_13992">
<rect width="42" height="30" fill="white"/>
</clipPath>
</defs>
</svg>
