<svg width="21" height="27" viewBox="0 0 21 27" fill="none" xmlns="http://www.w3.org/2000/svg">
<path fill-rule="evenodd" clip-rule="evenodd" d="M0 3C0 2.19141 0.320312 1.45703 0.84082 0.917969C1.38574 0.351562 2.15137 0 3 0H11C12.6572 0 14 1.34375 14 3V5H10C7.23828 5 5 7.23828 5 10V20H3C2 20 1.11426 19.5117 0.569336 18.7578C0.210938 18.2637 0 17.6562 0 17V3ZM7 10C7 8.34375 8.34277 7 10 7H14H18C18.4785 7 18.9316 7.11328 19.333 7.3125C20.3213 7.80273 21 8.82227 21 10V24C21 25.6562 19.6572 27 18 27H10C8.34277 27 7 25.6562 7 24V20V10Z" fill="white"/>
</svg>
