<svg width="28" height="28" viewBox="0 0 28 28" fill="none" xmlns="http://www.w3.org/2000/svg">
<g clip-path="url(#clip0_9456_46)">
<g opacity="0.6">
<path d="M24.2723 15.6137L21.052 14.6552C20.5728 16.2493 19.5926 17.6465 18.2568 18.6398C16.921 19.633 15.3007 20.1694 13.6362 20.1694C11.9716 20.1694 10.3513 19.633 9.0155 18.6398C7.67972 17.6465 6.69954 16.2493 6.22027 14.6552L3 15.6137C3.61043 17.6225 4.77401 19.4188 6.3576 20.7972C7.94118 22.1756 9.88081 23.0803 11.9545 23.4079V26.9057H15.3178V23.4079C17.3915 23.0803 19.3311 22.1756 20.9147 20.7972C22.4983 19.4188 23.6619 17.6225 24.2723 15.6137Z" fill="white"/>
<path d="M13.6362 16.8161C14.9741 16.8161 16.2573 16.2845 17.2034 15.3385C18.1495 14.3924 18.681 13.1092 18.681 11.7712V5.04482C18.681 3.70685 18.1495 2.42368 17.2034 1.47759C16.2573 0.531506 14.9741 0 13.6362 0C12.2982 0 11.015 0.531506 10.0689 1.47759C9.12284 2.42368 8.59134 3.70685 8.59134 5.04482V11.7712C8.59134 13.1092 9.12284 14.3924 10.0689 15.3385C11.015 16.2845 12.2982 16.8161 13.6362 16.8161Z" fill="white"/>
</g>
<path fill-rule="evenodd" clip-rule="evenodd" d="M-5.75015e-05 25.1716L24.9999 0.171573L27.8284 3L2.82837 28L-5.75015e-05 25.1716Z" fill="#FF4F4F"/>
</g>
<defs>
<clipPath id="clip0_9456_46">
<rect width="28" height="28" fill="white"/>
</clipPath>
</defs>
</svg>
