<svg width="37" height="35" viewBox="0 0 37 35" fill="none" xmlns="http://www.w3.org/2000/svg">
<path fill-rule="evenodd" clip-rule="evenodd" d="M24.0259 14.4699C22.8911 14.3028 21.9085 13.5901 21.3985 12.5596L18.5269 6.76062L15.6553 12.5596C15.6552 12.5598 15.6554 12.5594 15.6553 12.5596C15.145 13.5902 14.1619 14.3028 13.0281 14.4698L6.62312 15.4092L11.2514 19.9328C12.0727 20.7355 12.4481 21.8902 12.2555 23.0227L11.1699 29.4029L16.9015 26.3994C16.9018 26.3993 16.9012 26.3996 16.9015 26.3994C17.9189 25.8662 19.134 25.8658 20.1514 26.399C20.1517 26.3991 20.1511 26.3988 20.1514 26.399L25.8838 29.4029L24.7982 23.0228C24.6058 21.8907 24.9809 20.7356 25.8023 19.9328C25.8025 19.9326 25.8022 19.9329 25.8023 19.9328L30.4306 15.4092L24.0259 14.4699ZM35.2116 13.0784L35.8611 13.1736C36.2705 13.2336 36.4339 13.7366 36.138 14.0259L35.6691 14.4843L27.8992 22.0782C27.7818 22.1929 27.7282 22.3578 27.7557 22.5196L29.5781 33.2297L29.6881 33.8767C29.7575 34.2847 29.3296 34.5955 28.9631 34.4035L28.382 34.099L18.7589 29.0562C18.6136 28.98 18.4401 28.98 18.2948 29.0562L8.67192 34.0989L8.09065 34.4035C7.72413 34.5955 7.29625 34.2847 7.36565 33.8767L9.29796 22.5196C9.32548 22.3578 9.27188 22.1929 9.15453 22.0782L0.915709 14.0259C0.619777 13.7366 0.783212 13.2336 1.19264 13.1736L12.591 11.5018C12.7533 11.4779 12.8937 11.376 12.9665 11.2289L17.7877 1.49298L18.0788 0.905072C18.2624 0.534247 18.7913 0.534246 18.9749 0.905072L24.0872 11.2289C24.16 11.376 24.3003 11.4779 24.4627 11.5018L35.2116 13.0784Z" fill="white"/>
</svg>
