<svg width="94" height="89" viewBox="0 0 94 89" fill="none" xmlns="http://www.w3.org/2000/svg">
<path d="M46.9953 0.425344C47.141 -0.0232942 47.7757 -0.0232928 47.9215 0.425345L58.5747 33.2127C58.6399 33.4133 58.8269 33.5491 59.0379 33.5491H93.5125C93.9842 33.5491 94.1804 34.1528 93.7987 34.4301L65.9082 54.6937C65.7375 54.8177 65.6661 55.0375 65.7313 55.2382L76.3845 88.0255C76.5303 88.4741 76.0168 88.8472 75.6352 88.5699L47.7446 68.3063C47.5739 68.1823 47.3428 68.1823 47.1721 68.3063L19.2816 88.5699C18.8999 88.8472 18.3865 88.4741 18.5322 88.0255L29.1855 55.2382C29.2507 55.0375 29.1793 54.8177 29.0086 54.6937L1.11802 34.4301C0.736384 34.1528 0.932519 33.5491 1.40424 33.5491H35.8789C36.0898 33.5491 36.2768 33.4133 36.342 33.2127L46.9953 0.425344Z" fill="white"/>
</svg>
