<svg width="44" height="43" viewBox="0 0 44 43" fill="none" xmlns="http://www.w3.org/2000/svg">
<path d="M20.9541 0C22.1968 0.339141 23.3262 0.478788 24.3026 0.942059C29.9831 3.63746 35.4684 6.68308 40.5721 10.3737C43.2526 12.3133 44.5951 15.7933 43.743 18.6129C43.2215 20.3374 42.2452 21.6496 40.379 22.0907C38.5151 22.5296 37.0417 21.7893 35.7946 20.5036C34.6297 19.3022 34.8893 17.4292 36.265 16.7243C37.3612 16.1635 38.4751 16.6866 38.6638 17.9035C38.7791 18.6528 39.0232 19.2712 39.8931 19.085C40.7562 18.8988 40.7318 18.154 40.6031 17.4713C40.0551 14.5853 36.6312 13.61 34.0905 15.6448C32.4085 16.9925 31.3434 18.8035 30.4647 20.743C29.1155 23.7244 28.7849 26.9229 28.4587 30.1148C28.2257 32.3891 28.1325 34.6766 27.975 36.9597C27.6643 41.4528 23.2818 44.2945 19.0658 42.417C15.6109 40.8765 12.2225 39.0544 9.11371 36.9088C6.40656 35.0402 4.01673 32.6573 1.71122 30.2855C0.0292341 28.5455 -0.401247 26.2646 0.368737 23.8862C0.863568 22.3545 1.9664 22.0508 3.13358 23.1325C7.4872 27.1601 12.2314 30.6779 17.2396 33.8365C18.389 34.5614 18.906 35.4414 18.9127 36.8201C18.9238 39.4867 20.9053 41.1469 23.3063 40.6415C23.5925 40.5817 23.9875 40.5396 24.1184 40.3467C24.3891 39.9477 24.5178 39.4512 24.7042 38.9946C24.2693 38.8572 23.7811 38.5202 23.4061 38.6155C21.7951 39.0212 20.8654 38.549 20.8876 36.8999C20.9209 34.4705 19.6228 33.1339 17.7588 31.8438C13.9045 29.1794 10.2032 26.2934 6.43763 23.5005C5.64101 22.9087 5.32148 22.1306 5.57888 21.1686C7.19208 15.1306 9.35336 9.33636 13.5627 4.56621C14.6722 3.3094 16.0191 2.19888 17.4326 1.29672C18.4778 0.629517 19.8069 0.405639 20.9564 0.00443322L20.9541 0ZM26.1554 9.09253C25.7915 8.63813 25.5208 8.15269 25.1192 7.8335C24.5755 7.40126 23.9364 7.0865 23.324 6.74292C22.0126 6.00479 21.3336 6.13779 20.5281 7.36801C18.7529 10.0723 17.4948 13.0071 16.6382 16.1236C16.3542 17.1543 16.5894 17.9745 17.5547 18.4621C18.5665 18.9742 19.3188 18.4976 19.9379 17.6885C21.7729 15.2813 23.6213 12.8851 25.4409 10.4668C25.7183 10.0989 25.8758 9.64225 26.1554 9.09475V9.09253ZM13.3564 23.1791C13.3497 24.3406 14.0176 25.1585 14.9785 25.1652C16.0524 25.1718 16.9578 24.1101 16.9911 22.8067C17.0199 21.643 16.372 20.7896 15.4311 20.7519C14.3283 20.7076 13.3653 21.838 13.3564 23.1791Z" fill="white"/>
</svg>
