<svg width="29" height="29" viewBox="0 0 29 29" fill="none" xmlns="http://www.w3.org/2000/svg">
<path d="M14.4983 20.9449V24.9727H1.60938V20.9449C1.60938 19.2357 2.28834 17.5965 3.49691 16.388C4.70548 15.1794 6.34465 14.5004 8.05382 14.5004V14.5004C9.76299 14.5004 11.4022 15.1794 12.6107 16.388C13.8193 17.5965 14.4983 19.2357 14.4983 20.9449ZM8.05382 12.0838C8.77078 12.0838 9.47163 11.8712 10.0678 11.4728C10.6639 11.0745 11.1285 10.5084 11.4029 9.846C11.6773 9.18361 11.749 8.45475 11.6092 7.75157C11.4693 7.04838 11.124 6.40247 10.6171 5.89551C10.1101 5.38854 9.4642 5.04329 8.76102 4.90342C8.05784 4.76355 7.32897 4.83534 6.66659 5.10971C6.00421 5.38407 5.43806 5.8487 5.03974 6.44483C4.64142 7.04095 4.42882 7.74181 4.42882 8.45877C4.42776 8.93511 4.5208 9.40697 4.70259 9.84725C4.88439 10.2875 5.15136 10.6876 5.48819 11.0244C5.82501 11.3612 6.22505 11.6282 6.66534 11.81C7.10562 11.9918 7.57748 12.0848 8.05382 12.0838V12.0838ZM25.5022 14.7743C24.8612 14.1326 24.092 13.6335 23.2448 13.3095C22.3977 12.9855 21.4917 12.844 20.5861 12.8941C19.6806 12.9443 18.7958 13.1851 17.9896 13.6007C17.1835 14.0163 16.4741 14.5974 15.908 15.306C17.0923 16.9472 17.7267 18.921 17.7205 20.9449V23.3615H27.3872V19.3338C27.3878 18.4872 27.2217 17.6488 26.8983 16.8665C26.5748 16.0842 26.1004 15.3733 25.5022 14.7743V14.7743ZM20.9427 10.4727C21.6597 10.4727 22.3605 10.2601 22.9567 9.86173C23.5528 9.46341 24.0174 8.89727 24.2918 8.23489C24.5661 7.5725 24.6379 6.84364 24.4981 6.14046C24.3582 5.43727 24.0129 4.79136 23.506 4.2844C22.999 3.77743 22.3531 3.43218 21.6499 3.29231C20.9467 3.15244 20.2179 3.22423 19.5555 3.49859C18.8931 3.77296 18.327 4.23759 17.9286 4.83372C17.5303 5.42984 17.3177 6.1307 17.3177 6.84766C17.3166 7.324 17.4097 7.79586 17.5915 8.23614C17.7733 8.67643 18.0403 9.07646 18.3771 9.41329C18.7139 9.75011 19.1139 10.0171 19.5542 10.1989C19.9945 10.3807 20.4664 10.4737 20.9427 10.4727V10.4727Z" fill="white"/>
</svg>
