<svg width="24" height="10" viewBox="0 0 24 10" fill="none" xmlns="http://www.w3.org/2000/svg">
<path d="M11.9913 3.82994C12.7899 3.17826 13.5508 2.52608 14.3469 1.91624C15.1765 1.2808 16.025 0.645848 17.0475 0.332312C18.775 -0.197304 20.4705 -0.160881 21.9771 0.934282C23.3681 1.94528 24.014 3.34167 23.9998 5.02552C23.9911 6.06211 23.7443 7.03668 23.1808 7.92068C22.4026 9.14284 21.2294 9.77335 19.7818 9.93923C17.7225 10.175 15.9171 9.59468 14.3621 8.28295C13.6343 7.66867 12.9288 7.02979 12.2132 6.40222C12.1516 6.34808 12.0895 6.29394 12.0208 6.23389C11.4915 6.70838 10.9799 7.18533 10.4475 7.63963C9.62756 8.33906 8.80046 9.03849 7.77995 9.45834C6.33952 10.051 4.85125 10.1637 3.33906 9.76499C2.17653 9.45834 1.29141 8.76679 0.738653 7.74398C-0.188718 6.02864 -0.2727 4.25324 0.656706 2.51968C1.48177 0.981534 2.83363 0.167422 4.64511 0.0369867C6.31509 -0.0831121 7.74076 0.460286 9.01627 1.4319C9.99352 2.17662 10.9321 2.96956 11.8875 3.74085C11.9256 3.77235 11.9628 3.80533 11.9913 3.82994ZM13.1268 4.90985C13.6821 5.40205 14.1596 5.84357 14.6579 6.26293C15.7771 7.20452 16.9753 7.99944 18.5241 8.09739C19.4006 8.15251 20.2384 8.03242 20.9459 7.48803C21.8554 6.78811 22.172 5.84849 22.1033 4.74594C21.9923 2.95972 20.4705 1.70902 18.6285 1.89261C17.7998 1.9753 17.0394 2.24159 16.3625 2.6831C15.2834 3.38695 14.239 4.14053 13.1268 4.90985ZM10.8532 4.94676C10.3386 4.55103 9.85762 4.1612 9.35475 3.79992C8.84525 3.43371 8.32405 3.08129 7.79115 2.74758C6.95234 2.22288 6.04635 1.89606 5.02685 1.89753C3.76813 1.8995 2.85807 2.44635 2.27273 3.50705C1.948 4.09573 1.90016 4.73807 1.93375 5.39369C1.98821 6.46572 2.83872 7.58943 3.89538 7.92019C5.10371 8.29821 6.27234 8.12003 7.38701 7.58746C8.72259 6.94907 9.75888 5.9361 10.8532 4.94676Z" fill="white"/>
</svg>
