<svg width="20" height="18" viewBox="0 0 20 18" fill="none" xmlns="http://www.w3.org/2000/svg">
<path d="M9.25 3.007C9.648 3.007 10 3.359 10 3.757C10 4.171 9.664 4.507 9.25 4.507C7.745 4.507 1.5 4.507 1.5 4.507V16.507H18.5V7.757C18.5 7.343 18.836 7.007 19.25 7.007C19.664 7.007 20 7.343 20 7.757V17.007C20 17.628 19.478 18.007 19 18.007H1C0.52 18.007 0 17.628 0 17.007V4.007C0 3.526 0.38 3.007 1 3.007H9.25ZM7.239 9.533C6.194 12.536 6.001 12.983 6.001 13.373C6.001 13.814 6.386 13.999 6.628 13.999C6.9 13.999 7.736 13.698 10.457 12.75L7.239 9.533ZM8.127 8.644L11.347 11.864L19.755 3.464C19.918 3.301 20 3.087 20 2.872C20 2.659 19.918 2.445 19.755 2.281C19.175 1.703 18.297 0.824 17.716 0.245C17.553 0.0819999 17.339 0 17.125 0C16.912 0 16.697 0.0819999 16.533 0.245L8.127 8.644Z" fill="white"/>
</svg>
