<svg width="48" height="48" viewBox="0 0 48 48" fill="none" xmlns="http://www.w3.org/2000/svg">
<path d="M23.9235 1.5C12.1025 1.5 2.4226 10.6125 1.5 22.1967L13.5579 27.1847C14.5792 26.4841 15.8126 26.0795 17.1447 26.0795C17.2631 26.0795 17.3815 26.0845 17.4999 26.0894L22.8628 18.309C22.8628 18.2745 22.8628 18.235 22.8628 18.2005C22.8628 13.5234 26.6716 9.71456 31.3487 9.71456C36.0258 9.71456 39.8346 13.5234 39.8346 18.2005C39.8346 22.8776 36.0258 26.6864 31.3487 26.6864C31.2846 26.6864 31.2204 26.6864 31.1563 26.6814L23.5042 32.143C23.5091 32.2417 23.5091 32.3453 23.5091 32.444C23.5091 35.9567 20.6525 38.8133 17.1397 38.8133C14.0562 38.8133 11.4808 36.6129 10.8937 33.6971L2.27459 30.1301C4.9437 39.5731 13.622 46.5 23.9235 46.5C36.3514 46.5 46.4211 36.4254 46.4211 24.0025C46.4211 11.5746 36.3465 1.5 23.9235 1.5Z" fill="white"/>
<path d="M15.5988 35.6397L12.8359 34.5C13.3244 35.5213 14.173 36.3748 15.2978 36.8435C17.7301 37.8549 20.5325 36.7004 21.5488 34.2681C22.0372 33.089 22.0422 31.7914 21.5537 30.6123C21.0702 29.4331 20.1526 28.5105 18.9734 28.0221C17.8041 27.5336 16.551 27.5534 15.4508 27.9678L18.3074 29.147C20.1032 29.8969 20.9518 31.9542 20.2019 33.7501C19.452 35.5361 17.3946 36.3846 15.5988 35.6397Z" fill="white"/>
<path d="M37.0033 18.2009C37.0033 15.0828 34.4674 12.5469 31.3493 12.5469C28.2312 12.5469 25.6953 15.0828 25.6953 18.2009C25.6953 21.3189 28.2312 23.8548 31.3493 23.8548C34.4674 23.8548 37.0033 21.3189 37.0033 18.2009ZM27.1113 18.191C27.1113 15.8475 29.0157 13.9431 31.3592 13.9431C33.7027 13.9431 35.6071 15.8426 35.6071 18.191C35.6071 20.5345 33.7076 22.4389 31.3592 22.4389C29.0107 22.4389 27.1113 20.5394 27.1113 18.191Z" fill="white"/>
</svg>
