<svg width="30" height="30" viewBox="0 0 30 30" fill="none" xmlns="http://www.w3.org/2000/svg">
<path fill-rule="evenodd" clip-rule="evenodd" d="M17 26V4C16.9134 4.03259 16.8437 4.05675 16.7854 4.07695C16.6882 4.11064 16.6226 4.13336 16.5633 4.16596C16.0359 4.45615 15.5083 4.74609 14.9807 5.03606L14.9789 5.03705C12.4751 6.41299 9.9706 7.78937 7.49047 9.19376C7.2202 9.34708 7.03584 9.79438 7.03226 10.1073C7.01508 11.8489 7.01419 13.59 7.0133 15.3311V15.3312C7.01252 16.8547 7.01174 18.3783 7.00005 19.9021C6.99647 20.419 7.20588 20.7161 7.68914 20.9801C9.46403 21.9501 11.2313 22.9293 12.9988 23.9085C14.0795 24.5073 15.1603 25.1061 16.2429 25.7029C16.3836 25.7815 16.5414 25.8365 16.721 25.8992L16.721 25.8992L16.721 25.8992L16.7215 25.8994C16.809 25.9299 16.9016 25.9622 17 26ZM1.0018 20.9957V20.9991L1 20.9957H1.0018ZM2.11226 20.9979C1.74659 20.9968 1.37687 20.9957 1.0018 20.9957V9.00257C1.33861 9.00257 1.67372 9.00192 2.00749 9.00128L2.0079 9.00128C3.21214 8.99895 4.39886 8.99666 5.58448 9.02486C5.72673 9.02829 5.98062 9.35243 5.98242 9.52908C6.00583 13.1786 6.00763 16.8282 5.97702 20.4777C5.97702 20.6527 5.6565 20.9682 5.47824 20.9734C4.36965 21.0046 3.26106 21.0013 2.11245 20.9979H2.11235H2.11226ZM23.6018 5L23.6026 5.00079C23.4676 5.1263 23.3432 5.24723 23.2242 5.36286C22.9721 5.60787 22.7445 5.82913 22.4927 6.01991C21.8371 6.51912 21.8556 6.89931 22.4304 7.52911C26.0878 11.5393 26.2227 17.1728 22.818 21.2541C21.8042 22.469 21.8063 22.4711 22.9166 23.5858L22.9815 23.651C23.4484 24.1204 23.7349 24.1171 24.1849 23.6361C27.3283 20.2838 28.6599 16.4223 27.6873 11.8964C27.1093 9.19902 25.6955 6.9776 23.6026 5.00079L23.6034 5H23.6018ZM20.3015 20.8903C20.3463 20.9227 20.3954 20.9582 20.4497 21C20.5093 20.9461 20.5703 20.8943 20.6311 20.8428C20.7669 20.7275 20.9013 20.6135 21.0145 20.4794C23.4576 17.5836 23.6673 13.2764 21.5258 10.1138C21.0296 9.381 20.7882 9.02257 20.5198 9.00103C20.2558 8.97985 19.9657 9.28452 19.3813 9.87938C18.9312 10.3386 18.8608 10.649 19.271 11.2149C20.84 13.3782 20.9564 15.7986 19.6813 18.0784C19.1322 19.0593 19.27 19.942 20.0946 20.7268C20.1545 20.7838 20.2213 20.8322 20.3015 20.8903Z" fill="#FFEFD7"/>
</svg>
