<svg width="11" height="14" viewBox="0 0 11 14" fill="none" xmlns="http://www.w3.org/2000/svg">
<path d="M4.64667 6.8368C4.9376 6.4489 5.51945 6.4489 5.81038 6.8368L10.3079 12.8335C10.7418 13.412 10.1571 14.2006 9.47741 13.9534L5.47713 12.4984C5.31654 12.44 5.14051 12.44 4.97991 12.4984L0.97964 13.9534C0.299987 14.2006 -0.284753 13.412 0.149176 12.8335L4.64667 6.8368Z" fill="white"/>
<path d="M4.64667 0.290927C4.9376 -0.0969771 5.51945 -0.0969772 5.81038 0.290927L10.3079 6.28758C10.7418 6.86616 10.1571 7.65469 9.47741 7.40749L5.47713 5.9525C5.31654 5.89408 5.14051 5.89408 4.97991 5.9525L0.979639 7.40749C0.299986 7.65469 -0.284753 6.86616 0.149176 6.28758L4.64667 0.290927Z" fill="white"/>
</svg>
