<svg width="82" height="72" viewBox="0 0 82 72" fill="none" xmlns="http://www.w3.org/2000/svg">
<path d="M46.521 40.5414C46.2408 38.4846 46.1878 36.396 46.0434 34.3202C45.7696 30.3764 45.5149 26.4306 45.2178 22.4889C45.1095 21.0477 44.4218 20.2305 43.0103 20.1329C40.0535 19.9249 37.0883 19.8294 34.1231 19.7487C32.3804 19.6999 31.3552 20.74 31.4019 22.4974C31.5356 27.651 31.6524 32.8068 31.8901 37.954C31.9941 40.2018 32.3953 42.4369 32.6203 44.6804C32.7115 45.5868 33.187 45.8606 34.0318 45.85C36.0822 45.8202 38.1305 45.8394 40.1809 45.8415C42.1591 45.8415 44.1395 45.8436 46.1177 45.8415C47.7372 45.8394 48.0917 45.3384 47.5738 43.738C47.2278 42.6661 46.6675 41.6345 46.521 40.5414Z" fill="white"/>
<path d="M32.6275 13.708C33.6293 16.0938 35.3677 17.5138 38.0167 17.6263C40.6741 17.7388 42.8731 16.4355 43.9026 14.1347C44.2443 13.3705 44.465 12.6255 45.4414 12.3517C45.798 12.2519 46.1249 11.6555 46.2565 11.2225C46.6004 10.0933 46.0464 9.33977 44.5542 8.75819C44.4905 7.61624 44.5011 6.54859 44.3589 5.50004C44.0257 3.05696 42.6694 1.33556 40.3833 0.450446C38.0825 -0.441034 35.9684 0.0110722 34.0984 1.62635C32.1945 3.27134 31.8251 5.43637 31.9886 7.78393C32.031 8.39947 32.0013 8.84733 31.3263 9.24426C30.0952 9.97017 30.2205 11.8614 31.5322 12.4408C32.1775 12.7253 32.394 13.1498 32.6275 13.708ZM40.7803 5.92668C41.6335 5.93092 42.2364 6.53373 42.2427 7.39337C42.2512 8.24452 41.6505 8.88342 40.8227 8.90889C39.9885 8.93436 39.252 8.21056 39.269 7.38488C39.286 6.59317 39.9822 5.92456 40.7803 5.92668ZM38.4794 10.8277C38.524 10.7343 38.5686 10.6409 38.6153 10.5475C39.2881 10.8999 40.0713 11.1355 40.602 11.6364C41.2451 12.2435 41.0604 13.3833 40.4109 14.0243C39.668 14.7587 37.4797 14.8903 36.6285 14.2514C35.8453 13.6613 35.6033 12.6149 36.0873 11.8083C36.6349 10.8935 37.5073 10.7301 38.4794 10.8277ZM34.1642 7.32757C34.2067 6.50826 34.8774 5.89909 35.7052 5.92668C36.516 5.9564 37.1549 6.63349 37.1358 7.44856C37.1167 8.25726 36.4439 8.91101 35.6373 8.90677C34.7904 8.90464 34.1196 8.18509 34.1642 7.32757Z" fill="white"/>
<path d="M27.8818 19.382C27.2472 19.1868 26.6295 18.9257 26.0161 18.671C24.6767 18.117 24.0272 17.1194 23.9529 15.6548C23.8256 13.1205 23.6558 10.5861 23.4287 8.05812C23.2949 6.55958 22.2506 5.65962 20.9346 5.73815C19.6123 5.81669 18.7314 6.82278 18.7059 8.33405C18.6826 9.63944 18.7017 10.9469 18.7017 12.2523C18.7059 12.2523 18.7102 12.2523 18.7123 12.2523C18.7123 13.5237 18.6975 14.7952 18.7166 16.0645C18.7399 17.7222 19.1772 19.2462 20.1726 20.6046C22.0044 23.1029 24.8274 23.5932 27.5634 24.1939C27.8861 24.2639 28.5398 23.6123 28.7584 23.1602C29.0195 22.619 28.9728 21.9291 29.0704 21.3051C29.2233 20.3202 28.8646 19.6813 27.8818 19.382Z" fill="white"/>
<path d="M67.313 56.4906C67.0328 54.4339 66.9797 52.3453 66.8354 50.2694C66.5616 46.3256 66.3069 42.3798 66.0097 38.4382C65.9015 36.9969 65.2138 36.1798 63.8022 36.0821C60.8455 35.8741 57.8803 35.7786 54.915 35.6979C53.1724 35.6491 52.1472 36.6892 52.1939 38.4467C52.3276 43.6003 52.4444 48.756 52.6821 53.9032C52.7861 56.151 53.1873 58.3861 53.4123 60.6296C53.5035 61.536 53.979 61.8098 54.8238 61.7992C56.8742 61.7695 58.9225 61.7886 60.9729 61.7907C62.9511 61.7907 64.9315 61.7928 66.9097 61.7907C68.5292 61.7886 68.8837 61.2876 68.3658 59.6872C68.0198 58.6153 67.4616 57.5816 67.313 56.4906Z" fill="white"/>
<path d="M53.4224 29.6543C54.4242 32.0401 56.1626 33.4601 58.8116 33.5726C61.469 33.6851 63.668 32.3818 64.6975 30.081C65.0392 29.3168 65.26 28.5718 66.2364 28.298C66.5929 28.1982 66.9198 27.6018 67.0514 27.1688C67.3953 26.0396 66.8413 25.2861 65.3491 24.7045C65.2854 23.5625 65.296 22.4949 65.1538 21.4463C64.8206 19.0033 63.4643 17.2818 61.1783 16.3967C58.8774 15.5053 56.7633 15.9574 54.8933 17.5726C52.9894 19.2176 52.6201 21.3827 52.7835 23.7302C52.826 24.3458 52.7962 24.7936 52.1213 25.1905C50.8902 25.9165 51.0154 27.8077 52.3271 28.3871C52.9703 28.6737 53.1889 29.0961 53.4224 29.6543ZM61.5752 21.8751C62.4284 21.8793 63.0313 22.4821 63.0376 23.3418C63.0461 24.1929 62.4454 24.8318 61.6176 24.8573C60.7835 24.8828 60.0469 24.159 60.0639 23.3333C60.0809 22.5416 60.7771 21.873 61.5752 21.8751ZM59.2743 26.7761C59.3189 26.6827 59.3635 26.5893 59.4102 26.4959C60.083 26.8483 60.8662 27.0839 61.3969 27.5848C62.04 28.1919 61.8554 29.3317 61.2058 29.9727C60.4629 30.7071 58.2746 30.8387 57.4234 30.1998C56.6402 29.6097 56.3982 28.5633 56.8822 27.7567C57.4277 26.8419 58.3001 26.6785 59.2743 26.7761ZM54.957 23.276C54.9995 22.4567 55.6702 21.8475 56.498 21.8751C57.3088 21.9048 57.9477 22.5819 57.9286 23.397C57.9095 24.2057 57.2366 24.8594 56.4301 24.8552C55.5832 24.8531 54.9124 24.1335 54.957 23.276Z" fill="white"/>
<path d="M80.6076 44.4096C80.2319 42.4675 79.8392 40.538 78.3683 39.0395C76.5514 37.1886 74.3078 36.6092 71.8053 36.7301C71.7353 36.7301 71.6631 36.7323 71.5931 36.7301C68.5323 36.6601 68.5323 36.6601 68.7722 39.6954C68.8783 41.022 69.1266 41.2873 70.4914 41.4826C71.0157 41.5569 71.5442 41.5951 72.0685 41.6588C73.9661 41.8901 74.796 42.6033 75.3224 44.4563C75.8106 46.1798 76.2924 47.9034 76.7849 49.6248C77.2327 51.1912 78.3789 51.9341 79.7671 51.5733C81.0364 51.2443 81.6625 49.9983 81.359 48.4446C81.1001 47.1031 80.8687 45.7553 80.6076 44.4096Z" fill="white"/>
<path d="M27.8276 66.3647C27.5474 64.3079 27.4944 62.2193 27.3501 60.1434C27.0762 56.1997 26.8215 52.2538 26.5244 48.3122C26.4161 46.871 25.7284 46.0538 24.3169 45.9561C21.3601 45.7481 18.3949 45.6526 15.4297 45.572C13.6871 45.5231 12.6619 46.5632 12.7086 48.3207C12.8423 53.4743 12.959 58.63 13.1968 63.7773C13.3008 66.0251 13.7019 68.2601 13.9269 70.5037C14.0182 71.41 14.4936 71.6838 15.3384 71.6732C17.3888 71.6435 19.4371 71.6626 21.4875 71.6647C23.4657 71.6647 25.4461 71.6668 27.4243 71.6647C29.0439 71.6626 29.3983 71.1617 28.8804 69.5613C28.5344 68.4894 27.9762 67.4557 27.8276 66.3647Z" fill="white"/>
<path d="M13.9351 39.5293C14.9369 41.9151 16.6753 43.3351 19.3243 43.4476C21.9818 43.5601 24.1807 42.2568 25.2102 39.9559C25.5519 39.1918 25.7727 38.4468 26.7491 38.173C27.1056 38.0732 27.4325 37.4768 27.5641 37.0438C27.908 35.9146 27.354 35.1611 25.8618 34.5795C25.7981 33.4375 25.8088 32.3699 25.6665 31.3213C25.3333 28.8783 23.977 27.1568 21.6909 26.2717C19.3901 25.3803 17.276 25.8324 15.406 27.4476C13.5021 29.0926 13.1328 31.2577 13.2962 33.6052C13.3386 34.2208 13.3089 34.6686 12.634 35.0655C11.4029 35.7915 11.5281 37.6827 12.8398 38.2621C13.483 38.5487 13.6995 38.9711 13.9351 39.5293ZM22.0879 31.7501C22.9411 31.7543 23.544 32.3571 23.5503 33.2168C23.5588 34.0679 22.9581 34.7068 22.1303 34.7323C21.2962 34.7578 20.5596 34.034 20.5766 33.2083C20.5936 32.4166 21.2877 31.7458 22.0879 31.7501ZM19.787 36.6511C19.8316 36.5577 19.8762 36.4643 19.9229 36.3709C20.5957 36.7233 21.3789 36.9589 21.9096 37.4598C22.5527 38.0669 22.3681 39.2067 21.7185 39.8477C20.9756 40.5821 18.7873 40.7137 17.9361 40.0748C17.1529 39.4847 16.9109 38.4383 17.3949 37.6317C17.9404 36.7169 18.8128 36.5535 19.787 36.6511ZM15.4697 33.1489C15.5122 32.3295 16.1829 31.7204 17.0107 31.748C17.8215 31.7777 18.4604 32.4548 18.4413 33.2699C18.4222 34.0785 17.7493 34.7323 16.9428 34.7281C16.0959 34.7259 15.4251 34.0064 15.4697 33.1489Z" fill="white"/>
<path d="M9.18748 50.6638C8.55283 50.859 7.93515 51.1201 7.32173 51.3748C5.98239 51.9288 5.33289 52.9264 5.2586 54.391C5.13124 56.9253 4.96144 59.4597 4.73433 61.9877C4.6006 63.4862 3.5563 64.3862 2.24031 64.3076C0.917944 64.2291 0.0370769 63.223 0.0116061 61.7117C-0.0117422 60.4064 0.00735678 59.0989 0.00735678 57.7935C0.0116019 57.7935 0.0158315 57.7935 0.0179541 57.7935C0.0179541 56.5221 0.00310024 55.2506 0.0222034 53.9813C0.0455517 52.3236 0.482798 50.7996 1.47828 49.4412C3.31006 46.9429 6.1331 46.4526 8.86909 45.8519C9.19172 45.7818 9.84547 46.4335 10.0641 46.8856C10.3252 47.4268 10.2785 48.1167 10.3761 48.7407C10.5311 49.7256 10.1702 50.3645 9.18748 50.6638Z" fill="white"/>
</svg>
