<svg width="70" height="71" viewBox="0 0 70 71" fill="none" xmlns="http://www.w3.org/2000/svg">
<path d="M25.1245 55.9461C28.4738 56.3143 31.6288 56.7183 34.7941 56.9969C38.5653 57.3293 42.3441 57.6054 46.1255 57.8049C49.122 57.9634 50.8043 56.7285 51.6788 53.8087C56.4471 37.8828 61.1949 21.9518 65.9504 6.02332C66.1166 5.4634 66.3212 4.91626 66.5538 4.21827C67.6379 4.94949 67.3515 5.83668 67.1317 6.64716C66.3109 9.67434 65.4672 12.6938 64.5979 15.7057C60.9597 28.3359 57.3163 40.9688 53.6474 53.5914C53.3432 54.6422 52.8651 55.6521 52.3946 56.6467C51.3771 58.802 49.5618 59.7454 47.2633 59.7863C46.1639 59.8068 45.0542 59.7122 43.9651 59.5562C42.8145 59.3926 42.0373 59.6048 41.9734 61.0085C44.5301 61.6476 47.115 61.8956 49.751 61.4584C52.3333 61.0289 53.9952 59.5051 54.6752 57.0557C59.1419 41.002 63.5624 24.9355 67.9984 8.87152C68.0597 8.64653 68.1543 8.43177 68.3026 8.02269C69.1643 9.28827 69.1412 10.4746 68.8344 11.6763C66.6408 20.3052 64.465 28.9393 62.2125 37.553C60.433 44.3641 58.564 51.1497 56.7155 57.9404C55.9127 60.8883 54.4324 63.3862 51.193 63.964C49.526 64.2606 47.7363 63.9538 46.0105 63.8158C44.6554 63.7084 43.3029 63.5013 41.9734 63.22C41.1297 63.0436 40.7717 63.376 40.6285 64.1021C40.2783 65.8893 39.951 67.6815 39.611 69.4713C39.5828 69.6221 39.5317 69.7704 39.4294 70.1411C38.2789 68.8858 37.2255 67.794 36.2437 66.6461C35.6455 65.9455 35.1239 65.8509 34.4412 66.5029C33.6845 67.2239 32.8791 67.8963 31.8257 68.8269C31.8666 65.0097 32.966 61.8368 34.5589 58.6435C32.0098 58.329 29.5886 58.0324 27.1673 57.7358C26.6176 57.6694 26.0679 57.6054 25.5234 57.5185C24.6234 57.3779 24.0226 57.6719 23.8078 58.8403C26.3338 59.1804 28.8548 59.5204 31.4422 59.8682C31.1354 61.0059 30.8874 61.7908 29.4479 61.4303C27.9369 61.0519 26.3415 61.0212 24.787 60.8065C23.7157 60.6582 23.1021 60.9931 22.9257 62.1462C22.7621 63.2226 22.4374 64.276 22.1152 65.6234C20.9954 64.0868 20.0315 62.7649 18.9756 61.3153C17.8122 62.6166 16.6924 63.8694 15.3833 65.3319C15.0765 61.0366 15.841 57.2143 17.8046 53.2411C13.7649 52.9445 9.92728 52.6556 6.08962 52.405C5.84928 52.3897 5.5885 52.7016 5.33538 52.8601C5.5527 53.0596 5.74701 53.4022 5.9899 53.4405C8.84066 53.8854 11.6991 54.2842 14.555 54.6959C14.8004 54.7317 15.0459 54.7598 15.3297 54.7956C15.3066 55.7876 14.964 56.2197 13.9132 56.0867C11.7195 55.8081 9.51564 55.6112 7.31174 55.4373C6.97936 55.4118 6.62142 55.693 6.2737 55.8311C6.58562 56.0561 6.87198 56.4166 7.21458 56.4856C9.54121 56.9509 11.8806 57.3549 14.2072 57.7767C14.3197 59.9423 14.0104 60.1775 11.9829 59.9014C8.86879 59.477 5.7419 59.1344 2.62013 58.7815C0.917344 58.5898 0.625876 58.3111 0.464802 56.5827C0.416224 56.074 0.367646 55.5626 0.255149 55.0641C-0.396818 52.1264 0.234696 49.4801 1.76107 46.9029C2.88092 45.011 3.77577 42.9681 4.62205 40.9304C5.49645 38.8211 7.12509 37.8317 9.23696 37.645C10.8784 37.4993 12.5556 37.5427 14.197 37.714C15.2836 37.8265 15.9049 37.5121 16.314 36.5635C16.7844 35.4718 17.2932 34.3954 17.7586 33.3011C18.2392 32.171 17.9835 31.7185 16.7154 31.6929C14.1459 31.6418 11.5738 31.6776 8.83811 31.6776C8.94293 31.3069 9.01964 30.8288 9.20883 30.4018C11.1289 26.0502 13.136 21.737 14.9717 17.3522C15.841 15.2736 17.3674 14.2944 19.4383 14.1C20.911 13.962 22.4118 14.0489 23.8922 14.1435C24.8842 14.2074 25.5259 13.9185 25.8813 12.9649C26.2367 12.0112 26.6713 11.0882 27.0497 10.1422C27.579 8.8255 27.1801 8.16075 25.756 7.92553C23.6595 7.57782 21.6039 7.72355 19.5943 8.43432C19.3974 8.50335 19.198 8.57238 18.9935 8.61841C18.9244 8.63375 18.8401 8.56983 18.6048 8.48546C18.748 8.15308 18.858 7.81559 19.0293 7.5139C20.1517 5.51453 21.3329 3.54585 22.4016 1.5158C22.9283 0.513558 23.6672 0.0763564 24.7461 0.10448C27.0881 0.165842 29.4326 0.181183 31.7695 0.342257C32.1837 0.370381 32.6285 0.960987 32.9251 1.3854C33.1475 1.705 33.1501 2.17544 33.3316 2.88876C34.0884 2.31094 34.6228 1.77914 35.262 1.44677C36.0136 1.05559 36.8548 0.595373 37.6602 0.587703C43.7912 0.518671 49.9248 0.567249 56.0559 0.534012C56.9252 0.528898 57.3573 0.712983 57.2269 1.65642C57.1885 1.92743 57.278 2.21379 57.3394 2.78138C58.4388 2.04504 59.4205 1.48 60.2949 0.782015C61.6475 -0.299484 63.0997 -0.0872746 64.5315 0.393391C65.6411 0.766675 65.549 1.70755 65.2703 2.63309C63.9536 7.01789 62.6957 11.4231 61.3125 15.7875C57.7791 26.9451 54.1997 38.0899 50.6151 49.2296C49.6487 52.2363 48.7436 52.7298 45.6449 52.4664C39.882 51.9755 34.1114 51.5358 28.3434 51.1241C27.3028 51.05 26.5307 50.8122 26.2392 49.6949C25.9964 48.7617 25.4543 48.593 24.6413 49.1427C23.3373 50.0247 21.9772 50.3111 20.3306 50.1372C16.8202 49.7691 13.2792 49.7051 9.75086 49.5415C9.14492 49.5134 8.5313 49.6029 7.92024 49.6361C7.887 49.7742 7.85121 49.9122 7.81797 50.0477C8.25773 50.2344 8.6847 50.5335 9.1398 50.5872C12.2641 50.963 15.391 51.298 18.5205 51.6304C24.0558 52.2184 29.5937 52.7988 35.1316 53.3715C38.7672 53.7473 42.4055 54.0848 46.0412 54.476C46.4477 54.5195 46.8312 54.793 47.2275 54.9592C46.867 55.2635 46.509 55.8311 46.1485 55.8311C44.0699 55.8285 41.9862 55.7697 39.9178 55.5805C35.5585 55.1817 31.2095 54.678 26.8529 54.2408C25.6947 54.1308 25.5873 55.1024 25.1245 55.9461ZM44.7065 44.9905C44.0239 45.8675 43.4154 46.3277 43.285 46.8953C43.0983 47.716 43.7299 48.2401 44.5506 48.2606C45.3611 48.281 46.036 47.7927 45.9465 46.9848C45.8852 46.4197 45.3074 45.9135 44.7065 44.9905ZM58.9654 6.46564C59.1521 6.47075 59.3387 6.47586 59.5279 6.47842C59.8859 5.97474 60.4356 5.51197 60.5583 4.95461C60.7347 4.15691 60.07 3.58931 59.3592 3.74527C58.7865 3.87311 58.0169 4.45093 57.9146 4.94694C57.8277 5.36624 58.5819 5.95429 58.9654 6.46564Z" fill="white"/>
</svg>
