<svg width="110" height="85" viewBox="0 0 110 85" fill="none" xmlns="http://www.w3.org/2000/svg">
<path d="M94.6332 27.3169C88.2431 23.3088 81.6345 19.6167 74.9415 16.13C70.4933 13.8123 65.8962 14.0001 61.7393 17.2404C59.9702 18.6189 58.2796 20.111 56.4307 21.3714C51.9891 24.4018 47.0792 25.7654 41.6893 25.0592C39.6202 24.7885 37.5727 24.3292 35.4999 24.1076C30.9981 23.6276 27.1907 25.2275 24.4168 28.6914C22.594 30.9647 21.2757 33.6489 19.7876 36.1837C17.6902 39.7574 15.8126 43.4694 13.5447 46.9276C9.04587 53.7933 8.52185 60.9048 12.032 68.2055C15.7191 75.8702 23.855 80.2981 32.3281 79.6009C40.81 78.9014 47.8679 73.1831 50.3785 64.921C50.7791 63.6061 50.9989 62.2362 51.3048 60.8818C57.4291 64.2033 63.566 61.7988 66.5195 56.716C66.8116 57.0611 67.0385 57.3154 67.247 57.5818C73.2316 65.2563 83.8571 67.7446 92.5452 63.3792C99.798 59.7351 103.767 53.7306 104.172 45.6601C104.564 37.7972 101.269 31.4781 94.6332 27.3169ZM34.7294 74.7286C25.9433 77.0492 17.0877 71.8567 14.7674 63.0176C12.4705 54.266 17.6336 45.5434 26.4987 43.1944C35.1619 40.8996 44.21 46.1824 46.4529 54.8402C48.7132 63.5631 43.497 72.4106 34.7294 74.7286ZM58.3198 56.5749C55.7198 57.2764 52.9819 55.6767 52.2913 53.0545C51.6073 50.457 53.1463 47.8244 55.7553 47.1205C58.412 46.4062 61.0707 47.9526 61.7676 50.6164C62.4453 53.2083 60.8996 55.8788 58.3198 56.5749ZM87.6358 60.5524C78.9495 62.8414 69.98 57.6458 67.6438 48.9721C65.2951 40.2512 70.517 31.2362 79.263 28.9096C88.1077 26.5564 96.9674 31.755 99.2939 40.6623C101.576 49.396 96.3878 58.2482 87.6358 60.5524Z" fill="white"/>
<path d="M58.8552 15.6249C61.0787 13.7518 63.479 12.2691 66.4073 11.814C67.0611 11.7134 67.7191 11.6285 68.4534 11.5232C66.0115 8.42486 61.5119 7.73742 57.9417 9.80059C54.7192 11.6623 53.0095 15.938 54.3189 19.2266C55.8613 18.0075 57.393 16.8562 58.8552 15.6249Z" fill="white"/>
<path d="M43.07 22.1247C42.1923 18.0949 38.2278 15.4816 34.0806 15.9482C30.5427 16.3453 27.0647 19.6322 27.1019 22.7157C32.2813 19.6825 37.6338 21.2817 43.07 22.1247Z" fill="white"/>
<path d="M71.7031 39.8815C69.6268 44.8447 71.303 52.3482 75.0012 54.0755C73.344 49.4078 73.5449 44.9327 75.9508 40.6701C78.3552 36.4104 82.0753 33.9102 87.0853 32.8035C81.3273 30.589 74.1559 34.0164 71.7031 39.8815Z" fill="white"/>
<path d="M19.4865 52.6559C16.5092 57.7667 17.6084 65.1818 22.0694 68.3645C20.4264 63.4982 20.6555 59.0299 23.0708 54.7841C25.4762 50.5554 29.2037 48.0916 34.0437 46.9968C29.3866 44.8601 22.3974 47.6566 19.4865 52.6559Z" fill="white"/>
</svg>
