<svg width="62" height="68" viewBox="0 0 62 68" fill="none" xmlns="http://www.w3.org/2000/svg">
<path d="M61.5524 55.3558C60.7304 51.1934 58.4918 47.7506 56.0659 44.4327C46.7443 31.6783 35.5138 20.6352 24.4283 9.47227C23.9187 8.95759 22.9368 8.64778 22.1947 8.68276C20.4434 8.7677 19.424 10.2043 18.2797 11.3161C18.1673 11.426 18.4871 12.3355 18.7719 12.4454C22.6345 13.9345 25.6726 16.5903 28.5932 19.3735C35.4689 25.9244 42.0697 32.7426 48.1634 40.0355C51.2839 43.7706 54.3395 47.5757 56.5081 51.9679C57.1577 53.2846 57.7948 54.7487 57.8747 56.1778C58.1071 60.3551 54.5493 65.4869 48.3532 63.1409C46.1272 62.2989 44.0035 60.8099 42.2396 59.1759C33.0354 50.6563 24.2534 41.7119 16.6807 31.6858C14.0374 28.188 11.8213 24.3579 9.55523 20.5953C8.31102 18.5291 8.53836 16.2805 9.93248 14.3542C11.0668 12.7852 12.351 11.2561 13.8225 10.0119C15.8463 8.3005 18.1098 6.87141 20.271 5.32239C21.7175 4.28554 22.0573 2.80147 21.1579 1.42484C20.3284 0.153142 18.6845 -0.221615 17.3153 0.697805C12.1961 4.13314 7.15175 7.68339 2.98188 12.2755C1.88507 13.4822 1.0406 14.9563 0.276085 16.4104C-0.266073 17.4397 0.00874427 18.5216 0.938158 19.346C1.78512 20.0981 2.64709 20.2005 3.64896 19.5934C3.84383 19.476 4.47593 19.7033 4.61585 19.9432C5.43033 21.3248 6.00246 22.8713 6.93437 24.1605C17.4402 38.6963 29.8999 51.4708 42.8542 63.793C45.2727 66.0915 48.1684 67.4757 51.5887 67.5281C59.3188 67.4282 62.7067 61.1921 61.5524 55.3558Z" fill="white"/>
<path d="M31.0115 38.1293C30.8441 38.1293 30.6792 38.1268 30.5118 38.1293C29.6249 38.1493 28.4182 37.7971 28.1783 38.9488C28.0384 39.6259 28.5081 40.6453 29.0328 41.2074C33.9372 46.4741 38.8391 51.7458 43.9134 56.8475C45.24 58.1792 47.0489 59.236 48.8303 59.8656C52.2931 61.0873 55.0988 58.4815 54.5467 54.8338C54.2219 52.6851 53.3375 50.7689 51.9908 49.0949C50.087 46.7289 48.1907 44.3479 46.122 42.1268C44.8028 40.7102 43.2638 39.4585 41.6748 38.3392C39.6211 36.8926 37.3475 36.6753 34.9216 37.5422C33.6923 37.9794 32.3407 38.0769 31.0465 38.3267C31.0365 38.2593 31.024 38.1943 31.0115 38.1293ZM48.8928 48.8176C50.5417 49.8894 51.5561 51.4534 51.8309 53.3897C51.9034 53.8969 51.5186 54.584 51.1338 54.9812C50.9939 55.1261 50.122 54.7913 49.7772 54.4665C48.4105 53.1873 47.5111 51.6183 47.2238 49.8295C47.2463 48.6477 47.9608 48.213 48.8928 48.8176Z" fill="white"/>
<path d="M23.1494 32.0675C24.3362 32.3598 25.1632 31.6178 25.1582 30.3611C25.1532 29.2668 24.1763 28.0351 22.7697 27.6378C22.215 27.4829 21.3081 27.5204 20.9883 27.8677C20.596 28.2899 20.3937 29.2043 20.5611 29.7715C20.9233 30.9857 21.9077 31.7602 23.1494 32.0675Z" fill="white"/>
<path d="M32.923 33.5348C33.4426 33.4224 34.0797 32.8903 34.2621 32.3956C34.522 31.6935 33.5801 30.8091 32.7356 30.7991C31.9836 30.7891 31.4414 31.0714 31.4214 31.9334C31.3989 32.8128 32.116 33.7072 32.923 33.5348Z" fill="white"/>
</svg>
