<svg width="69" height="68" viewBox="0 0 69 68" fill="none" xmlns="http://www.w3.org/2000/svg">
<path d="M8.11425 14.7729C8.11425 30.0068 8.11425 45.024 8.11425 60.1319C20.2129 60.1319 32.2383 60.425 44.4425 60.425C44.4425 59.7979 44.4425 59.2265 44.4425 58.6581C44.4454 56.9996 44.3986 55.3353 44.4689 53.6797C44.5685 51.3561 46.0307 49.8705 48.0847 49.8822C50.1329 49.8939 51.5365 51.3912 51.6771 53.7207C51.683 53.8174 51.6859 53.917 51.6859 54.0137C51.6859 57.0406 51.7181 60.0675 51.6742 63.0914C51.6273 66.089 50.0216 67.7504 47.0328 67.7562C33.3665 67.7885 19.6972 67.4896 6.0309 67.4662C3.22672 67.4603 1.59755 66.0714 0.996862 63.3112C0.844493 62.6021 0.78296 61.8637 0.78296 61.137C0.768309 44.98 0.768309 28.8231 0.774169 12.6661C0.774169 9.03854 2.32423 7.56174 5.94885 7.46504C13.8369 7.257 21.6927 6.40725 29.6041 6.89073C30.3806 6.93761 31.1776 6.93468 31.919 7.12807C33.5921 7.56467 34.5561 8.8979 34.5385 10.5681C34.5239 12.1533 33.5599 13.4572 31.9629 13.8968C31.3153 14.0755 30.618 14.1312 29.9411 14.137C26.8175 14.1605 23.6881 14.0345 20.5704 14.1781C16.4506 14.3656 12.3366 14.4623 8.11425 14.7729Z" fill="white"/>
<path d="M45.8287 32.7526C46.2477 34.0067 46.5261 34.9707 46.8894 35.8996C47.4286 37.2797 47.2205 38.232 45.7936 39.0348C41.8525 41.253 37.7414 42.932 33.2261 43.4828C32.807 43.5327 32.3558 43.3363 31.9192 43.2543C32.0305 42.8265 32.0188 42.2932 32.2737 41.9826C36.083 37.35 39.8922 32.7203 43.7747 28.1522C45.6998 25.8872 47.7714 23.7452 49.7932 21.5622C50.3295 20.985 50.8188 20.3609 50.1331 19.6752C49.3742 18.9192 48.7354 19.4613 48.1611 20.0796C40.9441 27.8269 33.9938 35.7911 27.7144 44.3385C26.094 46.5449 23.8261 48.2942 21.7427 50.1255C21.3794 50.4449 20.2864 50.3453 19.844 50.0171C19.5334 49.7886 19.5011 48.6722 19.7824 48.2444C20.641 46.9492 21.6519 45.742 22.7155 44.6051C24.3271 42.891 25.2912 40.9307 25.8362 38.6276C27.2016 32.861 29.9208 27.7302 33.5513 23.0537C34.3278 22.0516 35.1014 21.6501 36.2852 22.1922C36.5459 22.3124 36.8507 22.3329 37.1349 22.4003C38.3626 22.6933 38.8256 22.2948 38.4388 21.0875C37.7942 19.0804 38.2542 17.7179 39.9889 16.329C44.472 12.7454 49.2717 9.78002 54.5108 7.43002C58.1882 5.78034 61.719 3.80247 65.3173 1.97111C65.9678 1.64 66.5919 1.21513 67.2805 1.01881C67.6614 0.910391 68.2709 1.05397 68.5522 1.32062C68.7602 1.51694 68.7544 2.17916 68.5844 2.49268C67.9339 3.68819 67.0197 4.76064 66.4923 6.0001C64.8221 9.92653 63.2691 13.9057 61.6927 17.8732C61.1359 19.2708 60.6232 20.689 60.1074 22.1043C59.7089 23.2002 59.0057 23.6339 57.8366 23.3291C57.1333 23.1475 56.4037 23.042 55.68 22.9629C54.6925 22.8574 54.2998 23.3995 54.7482 24.2932C55.2053 25.2044 55.8939 26.022 56.222 26.9684C56.4447 27.613 56.4945 28.6034 56.1429 29.1074C55.0353 30.6985 53.7636 32.1988 52.4128 33.5935C52.029 33.9891 51.1235 34.1034 50.517 34.0008C49.5237 33.8338 48.5831 33.365 47.6073 33.0661C47.1297 32.9313 46.6257 32.8932 45.8287 32.7526Z" fill="white"/>
</svg>
