<svg width="82" height="72" viewBox="0 0 82 72" fill="none" xmlns="http://www.w3.org/2000/svg">
<path fill-rule="evenodd" clip-rule="evenodd" d="M26.9165 20.2485L8.03919 21.8274C6.21456 21.98 4.85911 23.5829 5.01172 25.4075L8.09668 62.2924C8.24928 64.117 9.85216 65.4724 11.6768 65.3198L16.7517 64.8954C16.6787 64.5537 16.6036 64.2124 16.5285 63.871L16.5284 63.8703L16.5283 63.8701L16.5283 63.87C16.2557 62.631 15.9831 61.3921 15.8159 60.1397C15.2812 56.1337 14.8301 52.1146 14.379 48.0961C14.3156 47.5312 14.2522 46.9663 14.1885 46.4014C14.0115 44.8386 14.8574 43.8319 16.4349 43.7399C19.1188 43.5811 21.8039 43.4356 24.49 43.3911C25.7722 43.3684 26.4559 44.0432 26.6644 45.3193C27.0572 47.7207 27.432 50.1255 27.8068 52.5302L27.8068 52.5305L27.8072 52.5326L27.8076 52.5353C27.9772 53.6237 28.1469 54.7121 28.3182 55.8001C28.4012 56.3271 28.4775 56.8557 28.5539 57.3842L28.5539 57.3843L28.5539 57.3846L28.5539 57.3846C28.7439 58.7002 28.9338 60.0158 29.227 61.3079C29.3698 61.9376 29.6696 62.5317 29.9704 63.1277L29.9704 63.1278C30.077 63.3389 30.1837 63.5503 30.2835 63.7636L33.279 63.5131C35.1037 63.3605 36.4591 61.7576 36.3065 59.933L35.2838 47.7047L35.0993 47.7266C32.412 48.0443 29.9759 46.1234 29.6582 43.4361L26.9165 20.2485ZM29.3593 20.0442L29.6414 20.0206C31.4661 19.868 33.0689 21.2235 33.2215 23.0481L35.0795 45.262L34.8116 45.2937C33.468 45.4525 32.2499 44.4921 32.0911 43.1484L29.3593 20.0442ZM14.3187 38.4699C15.3583 40.3984 16.9657 41.4611 19.2666 41.3581C21.575 41.2544 23.384 39.9962 24.1087 37.9876C24.134 37.9174 24.1581 37.8476 24.182 37.7784C24.3856 37.1893 24.5732 36.6467 25.3117 36.3759C25.6131 36.2655 25.8529 35.7404 25.9355 35.367C26.1515 34.3932 25.6175 33.8019 24.2839 33.4248C24.24 33.1211 24.2033 32.8233 24.1671 32.5302C24.0896 31.9024 24.0149 31.2967 23.8792 30.7037C23.4142 28.6773 22.1157 27.3329 20.073 26.7602C18.0171 26.1833 16.2199 26.7205 14.7182 28.216C13.1892 29.7392 13.0261 31.5846 13.3373 33.5434C13.4185 34.0571 13.4252 34.4353 12.8697 34.8189C11.8567 35.5202 12.1018 37.0988 13.279 37.4875C13.8565 37.6802 14.0744 38.0187 14.3187 38.4699ZM20.8128 31.3304C21.5516 31.2704 22.117 31.7316 22.1846 32.4529C22.2535 33.1669 21.7798 33.7481 21.0651 33.8312C20.345 33.9148 19.6551 33.362 19.6101 32.6675C19.5676 32.0015 20.1199 31.3865 20.8128 31.3304ZM19.1757 35.617L19.1758 35.6167L19.1758 35.6166C19.2076 35.535 19.2394 35.4534 19.273 35.3716C19.4585 35.4466 19.6522 35.5117 19.8458 35.5768L19.8458 35.5768C20.2865 35.725 20.727 35.8731 21.0713 36.1378C21.6719 36.5996 21.5945 37.5704 21.0786 38.157C20.4887 38.829 18.6041 39.1026 17.8212 38.6296C17.1006 38.1925 16.8155 37.332 17.1761 36.6187C17.5821 35.8099 18.3254 35.6077 19.1757 35.617ZM15.1856 32.9983C15.1631 32.3071 15.6996 31.7457 16.4181 31.7072C17.122 31.6717 17.724 32.1926 17.7664 32.8784C17.8083 33.5587 17.2732 34.1578 16.5748 34.2144C15.8416 34.2757 15.209 33.7216 15.1856 32.9983Z" fill="#D9D9D9"/>
<path fill-rule="evenodd" clip-rule="evenodd" d="M30.1143 5.56514C28.7707 5.72401 27.8102 6.94204 27.9691 8.28569L32.0912 43.1484C32.2501 44.4921 33.4681 45.4525 34.8118 45.2937L38.7694 44.8257C38.6965 44.3658 38.6173 43.9064 38.538 43.4471L38.5379 43.4467C38.3413 42.3069 38.1447 41.1673 38.0446 40.0197C37.7247 36.347 37.4813 32.6659 37.2379 28.9852L37.2378 28.9829L37.2376 28.9805C37.2037 28.4669 37.1697 27.9532 37.1355 27.4396C37.0394 26.0089 37.8519 25.1273 39.2925 25.1093C41.7435 25.0767 44.195 25.0561 46.6433 25.1276C47.812 25.1603 48.4066 25.8035 48.5432 26.9744C48.8012 29.1818 49.0427 31.3915 49.2842 33.6012C49.393 34.5972 49.5018 35.5931 49.6122 36.5889C49.6659 37.0728 49.7134 37.5579 49.7609 38.0429C49.8102 38.5451 49.8594 39.0473 49.9154 39.5482L51.3011 28.0511C51.6172 25.4289 53.9733 23.55 56.5892 23.8116L54.3841 5.16242C54.2252 3.81877 53.0072 2.85831 51.6636 3.01718L30.1143 5.56514ZM56.8816 26.2848L56.3988 26.2266C55.0712 26.0666 53.8651 27.0131 53.7051 28.3408L51.9054 43.2725L56.361 42.7457C57.7047 42.5868 58.6651 41.3688 58.5062 40.0252L56.8816 26.2848ZM37.7077 20.0007C38.6403 21.9288 40.1689 23.0373 42.4303 23.0392C44.6989 23.0407 46.53 21.8934 47.3314 19.9656C47.3594 19.8983 47.3862 19.8312 47.4128 19.7647C47.6391 19.1988 47.8475 18.6778 48.584 18.4463C48.8847 18.352 49.1436 17.8502 49.2414 17.4896C49.4972 16.549 49.0001 15.9481 47.7091 15.5208C47.6799 15.2226 47.6572 14.9303 47.635 14.6428L47.635 14.6427C47.5873 14.0266 47.5413 13.4322 47.435 12.8475C47.0703 10.8493 45.8575 9.47981 43.8798 8.83002C41.8894 8.1755 40.1025 8.61977 38.5621 10.0125C36.9938 11.4307 36.7505 13.2242 36.9674 15.1496C37.0239 15.6545 37.0134 16.0239 36.4512 16.3735C35.4259 17.0128 35.5952 18.5641 36.7323 18.9958C37.2917 19.2077 37.4902 19.5495 37.7077 20.0007ZM44.3991 13.3209C45.1264 13.2952 45.6602 13.7704 45.694 14.4773C45.7293 15.1771 45.2385 15.7232 44.5338 15.7725C43.8237 15.822 43.172 15.2519 43.1592 14.5721C43.1476 13.9203 43.7188 13.3465 44.3991 13.3209ZM42.6 17.4311L42.6001 17.4308C42.635 17.3526 42.6699 17.2743 42.7066 17.196C42.8852 17.2774 43.0722 17.3496 43.2591 17.4217L43.2591 17.4217C43.6847 17.5859 44.1101 17.75 44.4358 18.0236C45.004 18.501 44.8842 19.4449 44.3518 19.9944C43.7429 20.6239 41.8822 20.807 41.1356 20.3107C40.4486 19.8521 40.2078 18.9996 40.5937 18.3196C41.0301 17.5484 41.7683 17.3841 42.6 17.4311ZM38.8066 14.6998C38.8157 14.0244 39.3672 13.5004 40.0736 13.4947C40.7657 13.4914 41.3326 14.0265 41.3432 14.6976C41.3537 15.3634 40.8018 15.9242 40.1142 15.9483C39.3924 15.9756 38.7969 15.4067 38.8066 14.6998Z" fill="#D9D9D9"/>
<path fill-rule="evenodd" clip-rule="evenodd" d="M53.7052 28.3408C53.8652 27.0131 55.0712 26.0665 56.3989 26.2266L78.0553 28.8367C79.3829 28.9968 80.3295 30.2028 80.1695 31.5305L75.9517 66.5252C75.7917 67.8528 74.5856 68.7994 73.258 68.6394L68.7954 68.1015C68.8722 67.1906 68.9828 66.2809 69.0933 65.3712L69.0934 65.3711L69.0934 65.3708C69.1581 64.8381 69.2229 64.3054 69.2809 63.7724C69.4001 62.6768 69.521 61.5813 69.6419 60.4857L69.6421 60.4841C69.9112 58.0458 70.1803 55.6074 70.4312 53.1676C70.5646 51.8745 70.0858 51.0418 68.8517 50.7309C66.2674 50.0766 63.6576 49.5205 61.0454 48.9776C59.5106 48.6573 58.4376 49.415 58.1995 50.9782C58.1137 51.5392 58.0277 52.1001 57.9416 52.661L57.9408 52.6668C57.3241 56.6874 56.7073 60.7085 56.1739 64.7387C56.094 65.3426 56.0382 65.9498 55.9948 66.5587L51.6016 66.0292C50.2739 65.8692 49.3273 64.6632 49.4874 63.3355L53.7052 28.3408ZM64.833 47.7158C62.5059 47.1949 61.1927 45.6615 60.6853 43.3902C60.5673 42.8589 60.441 42.4502 59.9172 42.0942C58.8481 41.3727 59.038 39.6786 60.2433 39.2317C60.9038 38.9877 61.0014 38.596 61.0617 38.0443C61.2903 35.9402 61.9615 34.0823 63.9085 32.9288C65.8208 31.7963 67.7641 31.7322 69.6593 32.8872C71.5422 34.0343 72.4691 35.7739 72.3756 37.9895C72.3477 38.6378 72.2556 39.2826 72.1601 39.9509C72.1155 40.2629 72.0702 40.5799 72.0304 40.9049C73.2589 41.657 73.6295 42.4121 73.1455 43.3571C72.9601 43.7194 72.5759 44.1954 72.2445 44.2271C71.432 44.305 71.0952 44.8133 70.7295 45.3652C70.6866 45.43 70.6432 45.4954 70.5986 45.5608C69.3214 47.4338 67.1675 48.2379 64.833 47.7158ZM70.2008 39.331C70.332 38.5689 69.8941 37.9394 69.1395 37.8001C68.4333 37.6713 67.7107 38.1525 67.5697 38.8506C67.4234 39.5789 67.9604 40.3367 68.7028 40.4468C69.4397 40.5558 70.073 40.0858 70.2008 39.331ZM66.3236 41.7724L66.3233 41.7728C65.4764 41.5315 64.6782 41.5374 64.0498 42.2605C63.4931 42.8975 63.5409 43.8623 64.1404 44.5093C64.7923 45.2102 66.7504 45.4417 67.5249 44.9097C68.2018 44.4455 68.5465 43.4659 68.0737 42.8262C67.8027 42.4595 67.4034 42.1868 67.0039 41.914C66.8284 41.7941 66.6529 41.6742 66.4882 41.5463C66.4321 41.6215 66.3778 41.6969 66.3236 41.7724ZM64.6449 36.9927C63.9165 36.8367 63.2259 37.2693 63.058 37.9878C62.8822 38.7398 63.3616 39.4835 64.1109 39.62C64.8242 39.752 65.5239 39.2803 65.6694 38.5675C65.8159 37.8489 65.358 37.1479 64.6449 36.9927Z" fill="#D9D9D9"/>
</svg>
