<svg width="67" height="80" viewBox="0 0 67 80" fill="none" xmlns="http://www.w3.org/2000/svg">
<path d="M15.1048 3.94556C16.6604 3.77592 18.0882 3.6218 19.5151 3.46504C23.1307 3.06598 26.7466 2.66391 30.3613 2.26655C34.651 1.79494 38.9407 1.32766 43.23 0.859063C44.0296 0.771752 44.8372 0.731159 45.6251 0.589599C46.1113 0.502149 46.3068 0.663829 46.4595 1.15462C47.7312 5.24478 49.0235 9.32849 50.3061 13.4152C53.0935 22.2923 55.8841 31.167 58.6642 40.0463C60.9072 47.2102 63.1362 54.3799 65.3732 61.5457C65.6339 62.3806 65.8829 63.2205 66.1763 64.0452C66.3404 64.5048 66.2505 64.7387 65.8492 64.953C62.6068 66.6932 59.3759 68.4574 56.1413 70.214C52.3128 72.2946 48.4843 74.3752 44.6554 76.4545C42.8338 77.4432 41.0123 78.432 39.1899 79.4181C39.1183 79.4565 39.032 79.4691 38.8797 79.5169C38.7887 79.2776 38.6913 79.0562 38.6181 78.8271C38.219 77.5767 37.8247 76.3246 37.4293 75.073C37.0959 74.0191 37.0966 74.0174 36.1557 74.3142C32.0072 75.6205 27.8591 76.9282 23.7106 78.2345C23.0061 78.4556 22.2884 78.6432 21.5942 78.893C21.1493 79.0529 20.9585 78.9187 20.8074 78.4332C19.4749 74.1449 18.1205 69.8634 16.7746 65.5793C14.7874 59.2518 12.8015 52.924 10.8163 46.5944C8.83691 40.2876 6.86159 33.9811 4.88223 27.6743C3.59258 23.5651 2.31181 19.4546 0.994369 15.3542C0.783903 14.7005 0.868823 14.4508 1.49482 14.2587C6.37871 12.7578 11.2461 11.2041 16.1287 9.69923C16.7241 9.51527 16.8236 9.26972 16.6065 8.64997C16.1567 7.36905 15.7761 6.0635 15.3666 4.76704C15.2893 4.53352 15.2153 4.29754 15.1048 3.94556ZM26.9945 41.8167C26.9957 41.8163 26.9969 41.8159 26.9981 41.8156C24.2409 33.0304 21.4789 24.2467 18.7374 15.4566C18.5458 14.8419 18.3091 14.7264 17.7662 14.8997C14.4907 15.9509 11.2103 16.9863 7.91951 17.9886C7.3076 18.1749 7.1981 18.4308 7.40701 19.0922C10.1132 27.6516 12.7945 36.2202 15.4838 44.7849C18.2973 53.745 21.1143 62.704 23.9161 71.6693C24.0787 72.1917 24.2412 72.3666 24.7704 72.1962C28.0841 71.1272 31.4065 70.0816 34.7367 69.0654C35.3011 68.8926 35.4474 68.699 35.2389 68.0389C32.474 59.301 29.7377 50.5571 26.9945 41.8167ZM29.9279 40.8048C30.2803 41.3314 30.5272 41.839 30.8915 42.217C31.9508 43.3168 33.337 42.9035 33.6876 41.4235C33.9607 40.2719 33.4602 38.8505 32.5219 38.111C31.5271 37.327 30.29 37.7036 30.0059 38.947C29.8718 39.535 29.9471 40.1891 29.9279 40.8048Z" fill="white"/>
</svg>
