<svg width="129" height="129" viewBox="0 0 129 129" fill="none" xmlns="http://www.w3.org/2000/svg">
<path d="M122.87 50.1926L79.1249 6.47787C71.2082 -1.43338 58.3182 -1.43338 50.4014 6.47787L6.75787 50.1926C-1.15887 58.1038 -1.15887 70.985 6.75787 78.8962L50.5029 122.611C58.4197 130.522 71.3098 130.522 79.2264 122.611L122.972 78.8962C130.787 70.985 130.787 58.0025 122.87 50.1926ZM94.3494 59.7267L59.1301 108.918C57.8106 110.744 56.7957 110.338 56.7957 108.209V72.405H36.9024C34.6694 72.405 33.959 70.985 35.2784 69.1594L70.4978 19.9676C71.8172 18.1418 72.8321 18.5476 72.8321 20.6775V56.481H92.7255C94.857 56.5825 95.5674 58.0025 94.3494 59.7267Z" fill="white"/>
</svg>
