<svg width="87" height="33" viewBox="0 0 87 33" fill="none" xmlns="http://www.w3.org/2000/svg">
<path d="M5.38981 22.2909L9.79457 26.9925L12.7073 26.4681L12.6936 26.3918L7.83681 21.803L10.5462 16.2141L10.5324 16.1378L7.6197 16.6623L5.37334 22.1994L5.38981 22.2909ZM4.55447 17.2142L2.00773 17.6727L3.04377 22.9022L3.87759 28.0579L6.42433 27.5994L5.40751 22.4766L4.55447 17.2142Z" fill="#FFEFD7"/>
<path d="M12.2354 14.1938C11.2595 14.3695 10.6958 14.9118 10.8825 15.9488C11.0226 16.7266 11.6762 17.034 12.6675 16.8555C13.6282 16.6825 14.1891 16.1249 14.0024 15.088C13.8678 14.3407 13.2267 14.0153 12.2354 14.1938ZM14.5004 19.6901L14.0775 17.3416L11.4698 17.8111L11.9942 19.9367L13.1556 26.3874L15.8244 25.9069L14.5004 19.6901Z" fill="#FFEFD7"/>
<path d="M18.2858 19.0243L17.3083 13.5953L14.7006 14.0648L15.8101 19.2653L16.9383 25.7063L19.5918 25.2285L18.2858 19.0243Z" fill="#FFEFD7"/>
<path d="M22.0387 18.3485L21.0612 12.9196L18.4535 13.3891L19.563 18.5896L20.6912 25.0306L23.3447 24.5528L22.0387 18.3485Z" fill="#FFEFD7"/>
<path d="M23.524 12.1613C22.548 12.337 21.9844 12.8793 22.1711 13.9163C22.3111 14.6941 22.9647 15.0015 23.956 14.823C24.9167 14.65 25.4776 14.0924 25.2909 13.0554C25.1563 12.3082 24.5152 11.9828 23.524 12.1613ZM25.7889 17.6576L25.366 15.3091L22.7583 15.7786L23.2827 17.9041L24.4442 24.3549L27.1129 23.8744L25.7889 17.6576Z" fill="#FFEFD7"/>
<path d="M31.35 16.798C32.1735 16.6497 32.6707 16.8751 32.8531 17.9758L33.6253 22.7018L36.2941 22.2213L35.1866 16.5953C34.6961 14.133 33.3608 13.7122 32.095 13.9401C30.875 14.1598 29.9311 15.0382 29.2101 16.0182L28.7217 14.7049L26.541 15.0975L27.0654 17.2231L28.2269 23.6738L30.8956 23.1933L29.6829 17.5075C30.1172 17.2089 30.7095 16.9133 31.35 16.798Z" fill="#FFEFD7"/>
<path d="M40.7275 22.4779C39.3703 22.7223 38.8701 22.6549 38.7987 22.2584C38.763 22.0601 38.816 21.8302 38.8969 21.5795C40.5716 21.2622 42.1009 20.9239 42.5431 20.8442C42.8939 20.7811 43.1113 20.8521 43.158 21.1114C43.2541 21.6451 42.7558 22.1127 40.7275 22.4779ZM39.6502 14.658C40.9007 14.4329 41.4433 14.8232 41.5806 15.5857C41.7316 16.4245 41.3287 16.9851 40.2155 17.1855C38.9802 17.408 38.4169 16.9898 38.2796 16.2273C38.1286 15.3886 38.5217 14.8612 39.6502 14.658ZM45.339 20.5455C45.1221 19.3407 44.3706 18.7518 42.8303 19.0291C41.7933 19.2159 39.9505 19.7366 39.31 19.8519C39.127 19.8849 39.0316 19.7918 39.0069 19.6546C38.9739 19.4716 39.0215 19.2111 39.1066 18.8967C39.5015 18.9043 39.9188 18.8606 40.3763 18.7783C42.5418 18.3884 44.16 17.0579 43.7317 14.6789C43.5642 13.7486 43.0719 13.113 42.3033 12.7791C42.7534 12.1312 43.2396 11.5084 43.6409 11.0268L41.8325 10.0771C41.4474 10.8235 41.1991 11.7183 41.0689 12.4818C40.5742 12.4449 40.0142 12.4827 39.4042 12.5926C37.4065 12.9523 35.6052 14.3157 36.0308 16.6794C36.2368 17.8232 36.9465 18.5298 38.0479 18.7881C37.3785 19.6172 36.924 20.3287 37.0366 20.954C37.0915 21.259 37.3169 21.549 37.6826 21.6564C37.148 22.2722 36.6811 23.0018 36.7992 23.6575C36.9941 24.7403 38.28 24.8866 41.0402 24.3896C44.0597 23.846 45.7482 22.8177 45.339 20.5455Z" fill="#FFEFD7"/>
<path d="M53.0907 16.9141C52.5417 17.013 51.9927 17.1118 51.4867 17.1872L51.0886 14.9759C51.6348 14.8618 52.1228 14.774 52.7176 14.6669C53.4801 14.5296 54.2658 14.6085 54.4195 15.4625C54.5678 16.286 54.0667 16.7384 53.0907 16.9141ZM52.317 13.0544C51.7833 13.1505 51.2648 13.2438 50.7893 13.3137L50.4159 11.2397C50.9496 11.1436 51.5264 11.024 51.8466 10.9663C52.9751 10.7632 53.3945 11.0812 53.4988 11.6607C53.6416 12.4537 53.2015 12.8951 52.317 13.0544ZM56.8531 15.5124C56.584 14.0179 55.1642 13.5651 53.8546 13.549C55.2655 12.7282 55.6927 11.6908 55.5033 10.6386C55.2177 9.05259 53.937 8.32279 52.046 8.66326L47.6235 9.45953L48.6595 14.689L49.4934 19.8447L53.9921 19.0347C56.1881 18.6393 57.1662 17.2509 56.8531 15.5124Z" fill="#FFEFD7"/>
<path d="M59.5529 11.5941L58.5755 6.1651L55.9677 6.63463L57.0773 11.8351L58.2055 18.2761L60.859 17.7983L59.5529 11.5941Z" fill="#FFEFD7"/>
<path d="M64.8879 10.5233C66.5044 10.2323 67.2544 10.9002 67.4768 12.1354C67.7212 13.4927 67.1945 14.3275 65.7305 14.5911C64.132 14.8946 63.3612 14.199 63.1361 12.9485C62.8972 11.6217 63.4086 10.7896 64.8879 10.5233ZM64.5706 8.06135C62.2983 8.47047 60.2994 10.3103 60.9145 13.7263C61.4005 16.4256 63.3028 17.5473 66.0326 17.0558C68.3201 16.6439 70.3037 14.8068 69.6832 11.3603C69.1999 8.67631 67.3155 7.56711 64.5706 8.06135Z" fill="#FFEFD7"/>
<path d="M79.3878 14.6197L80.6383 14.3945L81.7462 5.15779L79.23 5.61084L78.9768 10.238L75.5148 6.13807L75.2555 6.18474L73.6225 11.2808L71.544 6.99471L68.982 7.45599L73.2421 15.7262L74.5688 15.4873L75.9411 10.5169L79.3878 14.6197Z" fill="#FFEFD7"/>
<path fill-rule="evenodd" clip-rule="evenodd" d="M5.40748 22.4766L6.4243 27.5994L3.87756 28.0579L3.04374 22.9022L2.0077 17.6727L4.55443 17.2142L5.40748 22.4766ZM1.60597 23.1608L0.286089 16.4986L5.7584 15.5133L5.97285 16.8363L6.56876 15.3674L9.47561 14.844C9.56839 14.4788 9.73778 14.1287 10.0014 13.8127C10.5457 13.1602 11.3099 12.8763 11.9766 12.7563C12.4775 12.6661 13.0275 12.6476 13.5583 12.7864L21.8113 11.3004C22.2694 10.9768 22.7918 10.809 23.2651 10.7238C23.9395 10.6024 24.7029 10.6109 25.3886 10.9582C26.139 11.3383 26.5884 12.0194 26.7284 12.7966C26.7745 13.0529 26.7947 13.3126 26.7837 13.5698L29.665 13.051L29.7871 13.3795C30.3705 12.9678 31.0504 12.6441 31.8362 12.5026C32.6977 12.3475 33.7854 12.3788 34.7649 13.0594C34.9448 13.1844 35.1117 13.3248 35.2661 13.4798C35.4097 13.267 35.5715 13.0664 35.7495 12.8788C36.6663 11.9131 37.9316 11.3736 39.1454 11.1551C39.3987 11.1095 39.6501 11.0736 39.8984 11.0486C40.055 10.499 40.2638 9.93194 40.5346 9.40727L41.2092 8.10002L45.9197 10.5738L44.763 11.9619C44.6238 12.1289 44.4738 12.3139 44.3189 12.5112C44.7509 13.0389 45.0372 13.687 45.1692 14.4201C45.3897 15.645 45.208 16.7534 44.6799 17.6746C44.9196 17.7534 45.152 17.8616 45.3732 18.0045C46.2377 18.5627 46.6255 19.4479 46.7765 20.2867C46.9135 21.0474 46.891 21.7997 46.6438 22.509C46.3943 23.2247 45.95 23.7989 45.3973 24.2487C44.3478 25.1027 42.8594 25.5462 41.299 25.8271C39.9116 26.0769 38.6851 26.2105 37.7284 26.0585C37.2294 25.9792 36.6853 25.8053 36.2244 25.4237C35.7337 25.0174 35.4632 24.4805 35.3616 23.9164C35.3591 23.9024 35.3567 23.8885 35.3545 23.8746L9.27165 28.5708L7.79292 26.9924L8.14644 28.7734L2.67307 29.7589L1.60597 23.1608ZM9.79453 26.9926L12.7073 26.4681L12.6935 26.3919L7.83678 21.803L10.5461 16.2141L10.5324 16.1378L7.61967 16.6623L5.3733 22.1994L5.38978 22.2909L9.79453 26.9926ZM10.4476 19.7658L10.5649 20.2413L11.027 22.8078L9.61816 21.4767L10.4476 19.7658ZM13.1556 26.3874L15.8243 25.9069L14.5003 19.6901L14.0775 17.3416L11.4697 17.8111L11.9941 19.9367L13.1556 26.3874ZM13.6989 16.3704C13.7622 16.3047 13.8174 16.2329 13.8638 16.1546C13.9145 16.069 13.9548 15.9756 13.9838 15.8744C14.0477 15.6513 14.0567 15.39 14.0023 15.088C13.9391 14.7368 13.764 14.4787 13.4932 14.3224C13.416 14.2779 13.3311 14.2416 13.2388 14.2138C12.9658 14.1315 12.6281 14.1231 12.2354 14.1938C11.9107 14.2522 11.6317 14.3513 11.4107 14.4956C10.9675 14.7851 10.7579 15.2568 10.8825 15.9488C10.89 15.9906 10.899 16.0309 10.9095 16.0699C10.9163 16.0954 10.9237 16.1203 10.9318 16.1446C10.9631 16.2392 11.0036 16.3251 11.053 16.4021C11.0728 16.433 11.094 16.4625 11.1166 16.4906C11.1589 16.5431 11.2059 16.5905 11.2576 16.633C11.4132 16.761 11.611 16.8439 11.8458 16.8815C12.0835 16.9195 12.3591 16.911 12.6674 16.8555C13.1053 16.7767 13.4601 16.6179 13.6989 16.3704ZM15.8101 19.2653L16.9383 25.7063L19.5918 25.2285L18.2858 19.0243L17.3083 13.5953L14.7005 14.0648L15.8101 19.2653ZM19.563 18.5896L20.6912 25.0306L23.3447 24.5528L22.0387 18.3486L21.0612 12.9196L18.4534 13.3891L19.563 18.5896ZM22.3415 14.3696C22.3983 14.4582 22.4667 14.5352 22.5461 14.6005C22.6422 14.6795 22.7543 14.7413 22.8813 14.7859C23.1683 14.8867 23.5311 14.8995 23.956 14.823C24.3294 14.7558 24.6425 14.6304 24.8747 14.4414C24.9868 14.35 25.0802 14.2438 25.1523 14.1221C25.2031 14.0365 25.2434 13.9431 25.2723 13.8419C25.3362 13.6188 25.3452 13.3575 25.2909 13.0555C25.1563 12.3082 24.5152 11.9828 23.5239 12.1613C23.0878 12.2398 22.734 12.3915 22.4928 12.6279C22.479 12.6413 22.4657 12.655 22.4527 12.669C22.1829 12.9596 22.0725 13.3691 22.171 13.9163C22.2025 14.0913 22.26 14.2424 22.3415 14.3696ZM22.7583 15.7786L23.2827 17.9042L24.4441 24.3549L27.1129 23.8744L25.7888 17.6576L25.366 15.3091L22.7583 15.7786ZM27.0654 17.2231L28.2268 23.6738L30.8956 23.1933L29.6829 17.5075C29.8168 17.4154 29.9657 17.3237 30.1265 17.2374C30.487 17.0438 30.907 16.8778 31.35 16.798C32.1735 16.6497 32.6707 16.8751 32.8531 17.9758L33.6253 22.7018L36.294 22.2213L35.1866 16.5953C35.0524 15.9216 34.8549 15.4008 34.613 15.0042C33.9706 13.9513 33.0144 13.7746 32.095 13.9401C31.4222 14.0612 30.8333 14.3827 30.3195 14.8111C29.9017 15.1595 29.5334 15.5787 29.2101 16.0182L28.7217 14.7049L26.541 15.0976L27.0654 17.2231ZM37.1955 20.0578C37.0497 20.3758 36.9861 20.6736 37.0366 20.954C37.0484 21.0193 37.0679 21.084 37.095 21.1463C37.1574 21.2897 37.2596 21.4207 37.3981 21.5192C37.4773 21.5756 37.5685 21.6214 37.6708 21.6528C37.6747 21.654 37.6787 21.6552 37.6826 21.6564C37.6796 21.6599 37.6766 21.6634 37.6735 21.6669C37.5792 21.7759 37.487 21.8885 37.3999 22.0036C37.3753 22.0361 37.3511 22.0689 37.3273 22.1018C37.1388 22.3631 36.9798 22.6355 36.8827 22.9071C36.7972 23.1465 36.7597 23.3853 36.7924 23.6157C36.7944 23.6297 36.7966 23.6436 36.7991 23.6575C36.9941 24.7403 38.28 24.8866 41.0402 24.3896C44.0597 23.846 45.7481 22.8177 45.339 20.5455C45.1601 19.5516 44.6172 18.9768 43.5678 18.9618C43.3452 18.9586 43.0998 18.9806 42.8303 19.0292C42.2496 19.1337 41.4163 19.343 40.6829 19.5272C40.6275 19.5411 40.5727 19.5549 40.5185 19.5684C40.0097 19.6961 39.5648 19.8061 39.31 19.8519C39.217 19.8687 39.1466 19.8529 39.0966 19.8153C39.094 19.8133 39.0915 19.8113 39.089 19.8092C39.0451 19.7727 39.0183 19.7185 39.0068 19.6546C39.0012 19.6234 38.9979 19.59 38.9968 19.5544C38.9912 19.3812 39.036 19.1575 39.1065 18.8967C39.117 18.8969 39.1276 18.897 39.1381 18.8972C39.3733 18.9001 39.6165 18.885 39.8715 18.8547C39.9651 18.8435 40.0602 18.8303 40.1572 18.8152C40.2292 18.8039 40.3022 18.7916 40.3762 18.7783C41.2434 18.6221 42.0227 18.3152 42.6181 17.8505C42.7445 17.7518 42.8627 17.6461 42.9716 17.5331C43.6306 16.8495 43.9521 15.903 43.7317 14.6789C43.6316 14.123 43.4155 13.6724 43.0939 13.3285C42.9209 13.1435 42.7174 12.9894 42.485 12.8664C42.4263 12.8353 42.3657 12.8062 42.3033 12.7791C42.3213 12.7532 42.3393 12.7273 42.3574 12.7015C42.428 12.6009 42.4992 12.5011 42.5708 12.4024C42.6215 12.3325 42.6724 12.2632 42.7232 12.1946C42.8799 11.9832 43.0365 11.7789 43.1883 11.586C43.3462 11.3854 43.4989 11.1972 43.6409 11.0268L41.8325 10.0771C41.8325 10.0771 41.8325 10.0772 41.8325 10.0771C41.6126 10.5033 41.4372 10.978 41.3031 11.4489C41.2705 11.5632 41.2404 11.6772 41.2126 11.7903C41.1963 11.8569 41.1808 11.9232 41.1661 11.9889C41.1284 12.1572 41.0961 12.3224 41.0689 12.4818C40.9624 12.4738 40.853 12.4694 40.7406 12.4683C40.3309 12.4645 39.8829 12.5064 39.4042 12.5926C37.9912 12.847 36.6766 13.6035 36.1786 14.8609C35.9971 15.319 35.9241 15.8435 35.9941 16.4344C35.9942 16.435 35.9943 16.4357 35.9944 16.4363C36.0039 16.5161 36.016 16.5972 36.0308 16.6795C36.1367 17.2675 36.3758 17.74 36.7328 18.0955C36.8208 18.1831 36.916 18.2636 37.0181 18.337C37.2073 18.4729 37.4203 18.5843 37.6557 18.6711C37.7802 18.717 37.911 18.756 38.0479 18.7881C37.8576 19.0238 37.6847 19.2499 37.5372 19.4673C37.4534 19.5909 37.3778 19.7116 37.3119 19.8297C37.2688 19.9069 37.2299 19.9829 37.1955 20.0578ZM39.8434 21.3954C39.5378 21.4562 39.22 21.5182 38.8968 21.5795C38.816 21.8302 38.763 22.0602 38.7986 22.2584C38.8142 22.3445 38.8499 22.4151 38.9102 22.4703C38.9544 22.5108 39.0117 22.543 39.0839 22.567C39.3675 22.6615 39.8807 22.6304 40.7275 22.4779C41.3648 22.3632 41.851 22.2383 42.2152 22.1045C42.4241 22.0277 42.5929 21.948 42.727 21.8656C43.1032 21.6342 43.2066 21.3812 43.158 21.1114C43.1113 20.8521 42.8938 20.7811 42.5431 20.8442C42.3908 20.8717 42.1096 20.9298 41.7379 21.0071C41.6927 21.0165 41.6462 21.0262 41.5984 21.0362C41.2835 21.1017 40.9136 21.1788 40.5085 21.2614C40.3097 21.3019 40.1025 21.3438 39.8891 21.3863C39.8739 21.3894 39.8587 21.3924 39.8434 21.3954ZM31.4225 18.2779L31.6905 19.918L31.3455 18.3004C31.3711 18.2925 31.3968 18.285 31.4225 18.2779ZM48.6595 14.689L47.6235 9.45954L52.0459 8.66327C53.4656 8.40766 54.5413 8.75529 55.1102 9.61558C55.2991 9.90119 55.4321 10.2433 55.5032 10.6386C55.5553 10.9279 55.5608 11.2161 55.512 11.4989C55.4681 11.7534 55.3804 12.0035 55.2432 12.2463C55.14 12.4289 55.0088 12.6074 54.8472 12.7804C54.6791 12.9605 54.4781 13.1347 54.2416 13.3015C54.1218 13.3859 53.9929 13.4685 53.8545 13.549C54.0263 13.5511 54.1999 13.5607 54.3726 13.5792C54.5707 13.6004 54.7675 13.6333 54.9588 13.68C55.2302 13.7461 55.4904 13.8399 55.7273 13.9672C55.8212 14.0177 55.9114 14.0735 55.9972 14.1349C56.4234 14.4399 56.74 14.8841 56.8531 15.5125C56.9833 16.2357 56.8901 16.8984 56.5786 17.4542C56.1415 18.2343 55.2744 18.8039 53.9921 19.0347L49.4933 19.8447L48.6595 14.689ZM56.9033 19.3079C56.1893 19.9075 55.2738 20.2881 54.2509 20.4722L48.2888 21.5457L47.2217 14.9476L45.9019 8.28543L51.7871 7.22578C52.775 7.04792 53.7679 7.08147 54.6458 7.43899L54.2245 5.4644L59.7541 4.4688L60.5389 8.82755C61.5065 7.57918 62.9079 6.87662 64.3117 6.62387C65.196 6.46464 66.0682 6.43659 66.8873 6.57911L66.7789 6.36859L72.375 5.36099L73.3448 7.36089L74.1325 4.90286L76.0864 4.55106L77.7193 6.48496L77.8346 4.37799L83.4317 3.37023L81.9599 15.6407L78.8138 16.2071L76.6097 13.5835L75.7321 16.762L72.4381 17.3551L70.9788 14.5221C70.7859 15.1468 70.496 15.7154 70.118 16.2209C69.1503 17.5146 67.7236 18.2354 66.2914 18.4933C64.9232 18.7396 63.5822 18.6665 62.4218 18.1321L62.598 18.9693L57.0199 19.9737L56.9033 19.3079ZM59.5529 11.5941L58.5754 6.16511L55.9677 6.63464L57.0772 11.8352L58.2054 18.2761L60.8589 17.7984L59.5529 11.5941ZM60.9417 11.3017C60.9382 11.3164 60.9347 11.3311 60.9312 11.3459C60.7719 12.0311 60.7519 12.8237 60.9145 13.7263C61.0918 14.7111 61.4576 15.4859 61.9833 16.0489C62.8986 17.0293 64.2987 17.368 66.0325 17.0558C68.1248 16.6791 69.963 15.1099 69.7865 12.2075C69.7701 11.9367 69.7361 11.6544 69.6831 11.3603C69.4299 9.9539 68.792 8.9799 67.8471 8.44241C66.9888 7.95415 65.8771 7.8261 64.5705 8.06136C62.9407 8.35481 61.4515 9.38436 60.9667 11.2036C60.9581 11.2361 60.9497 11.2688 60.9417 11.3017ZM73.2421 15.7262L74.5688 15.4873L75.9411 10.517L79.3878 14.6197L80.6383 14.3945L81.7462 5.1578L79.2299 5.61085L78.9767 10.238L75.5148 6.13808L75.2555 6.18476L73.6225 11.2808L71.544 6.99472L68.982 7.45601L73.2421 15.7262ZM51.0895 14.9757C51.0892 14.9758 51.0889 14.9759 51.0885 14.9759L51.4867 17.1872C51.9927 17.1118 52.5417 17.013 53.0907 16.9141C54.0667 16.7384 54.5678 16.286 54.4195 15.4625C54.3885 15.2903 54.3317 15.1495 54.2546 15.0357C54.1497 14.8808 54.0071 14.7759 53.8403 14.7093C53.5224 14.5824 53.1168 14.595 52.7175 14.6669C52.1232 14.7739 51.6354 14.8617 51.0895 14.9757ZM53.523 12.0164C53.5297 11.9067 53.5218 11.7883 53.4988 11.6608C53.3945 11.0813 52.9751 10.7632 51.8466 10.9663C51.7068 10.9915 51.5181 11.0285 51.3055 11.0701C51.031 11.1239 50.7166 11.1855 50.4158 11.2397L50.7893 13.3137C51.0398 13.2769 51.3023 13.2335 51.5727 13.1867C51.8154 13.1447 52.0645 13.0998 52.317 13.0544C52.7621 12.9742 53.0947 12.8226 53.297 12.5908C53.4321 12.436 53.5092 12.2454 53.523 12.0164ZM65.4716 13.1536C65.7251 13.1079 65.876 13.0482 65.9583 13.0035C65.9979 12.982 66.0196 12.9651 66.0299 12.9561C66.0397 12.9475 66.0424 12.9433 66.0425 12.9432C66.0426 12.9431 66.0451 12.9397 66.049 12.9292C66.0532 12.918 66.0605 12.8944 66.0661 12.854C66.0778 12.7697 66.0804 12.6226 66.0393 12.3942C66.0041 12.1991 65.9579 12.0839 65.9245 12.0227C65.9086 11.9937 65.8965 11.9785 65.8908 11.972C65.8855 11.9661 65.8828 11.9642 65.8814 11.9632C65.88 11.9622 65.8726 11.9573 65.8545 11.9506C65.8357 11.9437 65.8013 11.9335 65.746 11.926C65.6321 11.9105 65.4403 11.9079 65.1467 11.9608C64.8881 12.0074 64.7342 12.068 64.6504 12.1133C64.6101 12.135 64.5882 12.152 64.5781 12.1608C64.5729 12.1653 64.57 12.1683 64.5687 12.1697L64.5674 12.1713L64.5665 12.1727C64.566 12.1737 64.5648 12.1762 64.563 12.1809C64.5596 12.19 64.5528 12.2112 64.5476 12.249C64.5366 12.328 64.5338 12.4687 64.5735 12.6896C64.609 12.8868 64.6568 13.008 64.6939 13.076C64.7266 13.1359 64.7484 13.1508 64.7515 13.1529C64.7533 13.1542 64.785 13.1779 64.8848 13.1918C64.9923 13.2069 65.1757 13.2097 65.458 13.1561L65.4716 13.1536ZM65.7305 14.5911C67.1945 14.3275 67.7211 13.4927 67.4768 12.1354C67.2544 10.9002 66.5043 10.2323 64.8879 10.5233C63.4086 10.7897 62.8972 11.6217 63.136 12.9485C63.3612 14.199 64.132 14.8946 65.7305 14.5911ZM41.5805 15.5858C41.4433 14.8233 40.9006 14.4329 39.6501 14.658C38.5216 14.8612 38.1285 15.3886 38.2795 16.2273C38.4168 16.9898 38.9802 17.408 40.2154 17.1856C41.3287 16.9851 41.7316 16.4245 41.5805 15.5858Z" fill="#FF5656"/>
</svg>
