<svg width="218" height="239" viewBox="0 0 218 239" fill="none" xmlns="http://www.w3.org/2000/svg">
<path d="M1.41004 79.61H14.91V93.11C14.91 93.87 15.52 94.48 16.28 94.48H21.76C22.52 94.48 23.13 93.87 23.13 93.11V79.61H36.63C37.39 79.61 38 79 38 78.24V72.76C38 72 37.39 71.39 36.63 71.39H23.13V57.89C23.13 57.13 22.52 56.52 21.76 56.52H16.28C15.52 56.52 14.91 57.13 14.91 57.89V71.39H1.41004C0.650039 71.39 0.0400391 72 0.0400391 72.76V78.24C0.0400391 79 0.650039 79.61 1.41004 79.61Z" fill="white"/>
<path d="M214.87 122.85H185.28V93.2598C185.28 91.5998 183.94 90.2598 182.28 90.2598H170.28C168.62 90.2598 167.28 91.5998 167.28 93.2598V122.85H137.69C136.03 122.85 134.69 124.19 134.69 125.85V137.85C134.69 139.51 136.03 140.85 137.69 140.85H167.28V170.44C167.28 172.1 168.62 173.44 170.28 173.44H182.28C183.94 173.44 185.28 172.1 185.28 170.44V140.85H214.87C216.53 140.85 217.87 139.51 217.87 137.85V125.85C217.87 124.19 216.53 122.85 214.87 122.85Z" fill="white"/>
<path d="M62.39 212.9C63.68 212.9 64.72 211.85 64.72 210.57V201.23C64.72 199.94 63.67 198.9 62.39 198.9H39.37V175.88C39.37 174.59 38.32 173.55 37.04 173.55H27.7C26.41 173.55 25.37 174.6 25.37 175.88V198.9H2.33C1.04 198.9 0 199.95 0 201.23V210.57C0 211.86 1.05 212.9 2.33 212.9H25.35V235.92C25.35 237.21 26.4 238.25 27.68 238.25H37.02C38.31 238.25 39.35 237.2 39.35 235.92V212.9H62.37H62.39Z" fill="white"/>
<path d="M127.69 137.85V125.85C127.69 120.34 132.18 115.85 137.69 115.85H147.47V82.4302C147.47 71.0102 142.68 60.7202 135 53.4302H141.99C143.65 53.4302 144.99 52.0902 144.99 50.4302V34.4302C144.99 32.7702 143.65 31.4302 141.99 31.4302H54.7197C53.0597 31.4302 51.7197 32.7702 51.7197 34.4302V50.4302C51.7197 52.0902 53.0597 53.4302 54.7197 53.4302H60.9397C53.2697 60.7202 48.4697 71.0102 48.4697 82.4302V191.9H62.3797C67.5297 191.9 71.7097 196.09 71.7097 201.23V210.57C71.7097 215.72 67.5197 219.9 62.3797 219.9H57.6297C64.9697 228.77 76.0597 234.43 88.4697 234.43H107.47C129.56 234.43 147.47 216.52 147.47 194.43V147.85H137.69C132.18 147.85 127.69 143.36 127.69 137.85ZM56.4697 96.4302V82.4302C56.4697 69.6102 64.0497 58.5302 74.9597 53.4302H120.97C131.88 58.5302 139.46 69.6102 139.46 82.4302V96.4302H56.4697Z" fill="white"/>
<path d="M122.77 0H73.8701C72.2133 0 70.8701 1.34315 70.8701 3V23.23C70.8701 24.8869 72.2133 26.23 73.8701 26.23H122.77C124.427 26.23 125.77 24.8869 125.77 23.23V3C125.77 1.34315 124.427 0 122.77 0Z" fill="white"/>
</svg>
