<svg width="19" height="18" viewBox="0 0 19 18" fill="none" xmlns="http://www.w3.org/2000/svg">
<g clip-path="url(#clip0_4898_2066)">
<path d="M8.59253 2.08172V0.289305C8.59429 0.248062 8.58682 0.206947 8.57067 0.168955C8.55452 0.130963 8.53011 0.0970552 8.49919 0.0696969C8.46828 0.0423386 8.43165 0.0222205 8.39198 0.0108117C8.3523 -0.000597058 8.31059 -0.00301599 8.26986 0.00374155C6.30409 0.272285 4.4803 1.17708 3.07723 2.57986C1.67416 3.98264 0.768981 5.80624 0.50003 7.77196C0.493576 7.81264 0.496205 7.85425 0.507728 7.89379C0.519251 7.93333 0.539381 7.96983 0.566677 8.00067C0.593973 8.03151 0.62776 8.05594 0.665608 8.07218C0.703456 8.08842 0.74443 8.09609 0.785591 8.09463H2.57962C2.66922 8.09081 2.7549 8.05688 2.82282 7.99833C2.89075 7.93977 2.93693 7.86002 2.95391 7.77196C3.20103 6.4512 3.8417 5.23601 4.79183 4.28588C5.74196 3.33575 6.95716 2.69507 8.27793 2.44795C8.36346 2.43025 8.44072 2.38472 8.49764 2.31846C8.55456 2.25221 8.58793 2.16895 8.59253 2.08172V2.08172Z" fill="#FF9900"/>
<path d="M16.4182 8.09227H18.2122C18.2533 8.09344 18.2941 8.08558 18.3318 8.06924C18.3695 8.0529 18.4032 8.02849 18.4304 7.99772C18.4577 7.96694 18.4778 7.93055 18.4895 7.89113C18.5011 7.85172 18.5039 7.81023 18.4978 7.7696C18.2268 5.80701 17.3217 3.9868 15.9205 2.58616C14.5193 1.18553 12.6987 0.281252 10.736 0.0110658C10.6953 0.00430823 10.6536 0.00672716 10.6139 0.0181359C10.5742 0.0295447 10.5376 0.0496629 10.5067 0.0770212C10.4758 0.104379 10.4513 0.138287 10.4352 0.176279C10.419 0.214271 10.4116 0.255386 10.4133 0.29663V2.08904C10.4166 2.17881 10.4503 2.2648 10.509 2.33284C10.5676 2.40087 10.6477 2.44689 10.736 2.46333C12.0568 2.71045 13.272 3.35113 14.2221 4.30126C15.1722 5.25139 15.8129 6.46657 16.06 7.78734C16.0794 7.86971 16.1246 7.94373 16.1891 7.99858C16.2535 8.05344 16.3338 8.08626 16.4182 8.09227V8.09227Z" fill="#FF9900"/>
<path d="M10.4138 15.9193V17.7133C10.4123 17.7544 10.4199 17.7954 10.4362 17.8331C10.4524 17.8709 10.4769 17.9046 10.5077 17.9318C10.5386 17.959 10.5752 17.979 10.6147 17.9903C10.6543 18.0016 10.6958 18.004 10.7364 17.9973C12.702 17.7282 14.5255 16.8232 15.9285 15.4205C17.3315 14.0179 18.2368 12.1945 18.5063 10.229C18.5124 10.1884 18.5096 10.1469 18.4979 10.1075C18.4863 10.0681 18.4662 10.0317 18.4389 10.0009C18.4117 9.97016 18.378 9.94575 18.3403 9.92941C18.3026 9.91307 18.2618 9.90519 18.2207 9.90636H16.4186C16.3289 9.9099 16.2431 9.94373 16.1751 10.0023C16.1071 10.0609 16.061 10.1409 16.0443 10.229C15.7972 11.5498 15.1565 12.765 14.2064 13.7151C13.2563 14.6653 12.0411 15.3059 10.7203 15.553C10.6362 15.5723 10.5608 15.6185 10.5055 15.6846C10.4501 15.7508 10.4179 15.8332 10.4138 15.9193V15.9193Z" fill="#FF9900"/>
<path d="M2.58304 9.9074H0.789007C0.747846 9.90594 0.706871 9.91361 0.669023 9.92985C0.631175 9.9461 0.597391 9.97052 0.570095 10.0014C0.542799 10.0322 0.522669 10.0687 0.511146 10.1083C0.499623 10.1478 0.496994 10.1894 0.503448 10.2301C0.772399 12.1958 1.67758 14.0194 3.08065 15.4222C4.48372 16.825 6.3075 17.7297 8.27328 17.9983C8.31386 18.005 8.35544 18.0026 8.39499 17.9913C8.43454 17.98 8.47108 17.96 8.50196 17.9328C8.53284 17.9057 8.55729 17.872 8.57355 17.8342C8.58981 17.7964 8.59745 17.7555 8.59594 17.7143V15.9203C8.5927 15.8305 8.55897 15.7446 8.50032 15.6765C8.44166 15.6085 8.36159 15.5625 8.27328 15.546C6.95251 15.2989 5.73731 14.6582 4.78718 13.7081C3.83705 12.758 3.19638 11.5428 2.94926 10.222C2.93106 10.1367 2.88537 10.0598 2.81922 10.0029C2.75307 9.94611 2.6701 9.91254 2.58304 9.9074V9.9074Z" fill="#FF9900"/>
<path d="M9.50163 4.15771C8.21798 4.15771 6.98691 4.66765 6.07923 5.57533C5.17155 6.48301 4.66162 7.71407 4.66162 8.99772C4.66162 10.2814 5.17155 11.5125 6.07923 12.4201C6.98691 13.3278 8.21798 13.8377 9.50163 13.8377C10.7853 13.8377 12.0164 13.3278 12.924 12.4201C13.8317 11.5125 14.3416 10.2814 14.3416 8.99772C14.3416 7.71407 13.8317 6.48301 12.924 5.57533C12.0164 4.66765 10.7853 4.15771 9.50163 4.15771ZM9.50163 11.4177C8.85981 11.4177 8.24427 11.1628 7.79043 10.7089C7.33659 10.2551 7.08163 9.63955 7.08163 8.99772C7.08163 8.3559 7.33659 7.74037 7.79043 7.28653C8.24427 6.83269 8.85981 6.57772 9.50163 6.57772C10.1435 6.57772 10.759 6.83269 11.2128 7.28653C11.6667 7.74037 11.9216 8.3559 11.9216 8.99772C11.9221 9.3158 11.8598 9.63084 11.7384 9.92482C11.6169 10.2188 11.4387 10.486 11.214 10.711C10.9892 10.9361 10.7223 11.1146 10.4285 11.2364C10.1347 11.3583 9.8197 11.421 9.50163 11.421V11.4177Z" fill="#FF9900"/>
</g>
<defs>
<clipPath id="clip0_4898_2066">
<rect width="18" height="18" fill="white" transform="translate(0.5)"/>
</clipPath>
</defs>
</svg>
