<svg width="21" height="21" viewBox="0 0 21 21" fill="none" xmlns="http://www.w3.org/2000/svg">
<path d="M20.0238 8.1454L12.8469 0.973455C11.548 -0.324485 9.43324 -0.324485 8.1344 0.973455L0.97413 8.1454C-0.32471 9.44334 -0.32471 11.5567 0.97413 12.8546L8.15105 20.0265C9.44989 21.3245 11.5647 21.3245 12.8635 20.0265L20.0404 12.8546C21.3226 11.5567 21.3226 9.4267 20.0238 8.1454ZM15.3446 9.70959L9.56645 17.7801C9.34998 18.0796 9.18346 18.0131 9.18346 17.6636V11.7896H5.91971C5.55337 11.7896 5.43681 11.5567 5.65328 11.2571L11.4315 3.18661C11.6479 2.88708 11.8144 2.95365 11.8144 3.30309V9.1771H15.0782C15.4279 9.19374 15.5444 9.4267 15.3446 9.70959Z" fill="#80EEFF"/>
</svg>
