<svg width="18" height="18" viewBox="0 0 18 18" fill="none" xmlns="http://www.w3.org/2000/svg">
<path fill-rule="evenodd" clip-rule="evenodd" d="M17.9962 3.56596L17.9999 14.4239C18.0132 16.3763 16.3995 17.9881 14.4448 18L3.57397 17.9962C1.60662 17.9956 0.0044496 16.3953 0.00376778 14.4303L2.1768e-07 3.57233C-0.000681594 1.60732 1.60038 0.00815695 3.56773 0.00883796L14.426 0C16.3933 0.000681002 17.9955 1.60095 17.9962 3.56596ZM9.07153 3.07479C7.55699 3.07479 6.32909 4.30058 6.32803 5.81307H7.6988C7.70039 5.05772 8.31393 4.44588 9.07055 4.44588C9.82716 4.44588 10.4407 5.05772 10.4423 5.81307H10.4419V7.6399H11.8137V5.81307H11.815C11.814 4.30058 10.5861 3.07479 9.07153 3.07479ZM13.1854 8.55135H4.95494V14.0318H13.1854V8.55135Z" fill="#80EEFF"/>
</svg>
