<svg width="18" height="24" viewBox="0 0 18 24" fill="none" xmlns="http://www.w3.org/2000/svg">
<path d="M8.50256 2.9967C8.09 2.9967 7.75244 3.33426 7.75244 3.74682V6.37225C7.75244 6.78481 8.09 7.12237 8.50256 7.12237C8.91513 7.12237 9.25268 6.78481 9.25268 6.37225V3.74682C9.25268 3.33426 8.91513 2.9967 8.50256 2.9967Z" fill="white" fill-opacity="0.2"/>
<path d="M9.06494 1.96907C9.82256 2.2091 10.3777 2.91047 10.3777 3.74685V6.37227C10.3777 7.20866 9.82256 7.91002 9.06494 8.15006V9.74781H16.4799C16.0486 6.35727 15.3922 3.28178 14.5971 2.02908C13.4606 0.243789 10.6177 0.0300048 9.06494 0V1.96907Z" fill="white"/>
<path d="M0.389812 10.8728C0.19478 12.6318 0.0635092 14.4284 0.00725016 16.0599C-0.176529 21.232 3.1465 23.9999 8.50236 23.9999C13.8582 23.9999 17.1813 21.232 16.9975 16.0599C16.9375 14.4284 16.8062 12.6318 16.6149 10.8728H0.389812Z" fill="white" fill-opacity="0.2"/>
<path d="M7.93984 9.74781V8.15006C7.18222 7.91002 6.62713 7.20866 6.62713 6.37227V3.74685C6.62713 2.91047 7.18222 2.2091 7.93984 1.96907V0C6.38709 0.0262542 3.54414 0.243789 2.4077 2.02908C1.60883 3.28178 0.952471 6.35727 0.524902 9.74781H7.93984Z" fill="white"/>
</svg>
