<svg width="32" height="32" viewBox="0 0 32 32" fill="none" xmlns="http://www.w3.org/2000/svg">
<path d="M27.4408 13.1802L18.8207 4.56015C17.2607 3.00013 14.7207 3.00013 13.1607 4.56015L4.56063 13.1802C3.00062 14.7402 3.00062 17.2802 4.56063 18.8403L13.1807 27.4603C14.7407 29.0203 17.2807 29.0203 18.8407 27.4603L27.4608 18.8403C29.0008 17.2802 29.0008 14.7202 27.4408 13.1802Z" fill="white"/>
<path d="M23.1401 1.72001C23.5401 1.32001 23.5401 0.680005 23.1401 0.300002C22.7401 -0.100001 22.1001 -0.100001 21.7201 0.300002L20.3 1.72001L21.7201 3.14002L23.1401 1.72001Z" fill="white"/>
<path d="M27.4195 5.9998C27.8195 5.59979 27.8195 4.95979 27.4195 4.57979C27.0195 4.17978 26.3795 4.17978 25.9995 4.57979L24.5594 5.9998L25.9995 7.43981L27.4195 5.9998Z" fill="white"/>
<path d="M31.6995 10.2801C32.0995 9.88007 32.0995 9.24006 31.6995 8.86006C31.2995 8.46006 30.6595 8.46006 30.2795 8.86006L28.8595 10.2801L30.2795 11.7001L31.6995 10.2801Z" fill="white"/>
<path d="M1.72001 8.86006C1.32001 8.46006 0.680005 8.46006 0.300002 8.86006C-0.100001 9.26006 -0.100001 9.90007 0.300002 10.2801L1.72001 11.7001L3.14002 10.2801L1.72001 8.86006Z" fill="white"/>
<path d="M5.99968 4.57979C5.59967 4.17978 4.95967 4.17978 4.57967 4.57979C4.17966 4.97979 4.17966 5.6198 4.57967 5.9998L5.99968 7.43981L7.43969 5.9998L5.99968 4.57979Z" fill="white"/>
<path d="M10.2795 0.300002C9.87946 -0.100001 9.23945 -0.100001 8.85945 0.300002C8.45945 0.700005 8.45945 1.34001 8.85945 1.72001L10.2795 3.14002L11.6995 1.72001L10.2795 0.300002Z" fill="white"/>
<path d="M8.85945 30.2799C8.45945 30.6799 8.45945 31.3199 8.85945 31.6999C9.25945 32.0999 9.89946 32.0999 10.2795 31.6999L11.6995 30.2799L10.2795 28.8599L8.85945 30.2799Z" fill="white"/>
<path d="M4.57967 26.0001C4.17966 26.4001 4.17966 27.0401 4.57967 27.4201C4.97967 27.8201 5.61967 27.8201 5.99968 27.4201L7.43969 26.0001L5.99968 24.5601L4.57967 26.0001Z" fill="white"/>
<path d="M0.300002 21.7203C-0.100001 22.1203 -0.100001 22.7603 0.300002 23.1403C0.700005 23.5203 1.34001 23.5403 1.72001 23.1403L3.14002 21.7203L1.72001 20.3003L0.300002 21.7203Z" fill="white"/>
<path d="M30.2795 23.1403C30.6795 23.5403 31.3195 23.5403 31.6995 23.1403C32.0995 22.7403 32.0995 22.1003 31.6995 21.7203L30.2795 20.3003L28.8595 21.7203L30.2795 23.1403Z" fill="white"/>
<path d="M25.9995 27.4201C26.3995 27.8201 27.0395 27.8201 27.4195 27.4201C27.8195 27.0201 27.8195 26.3801 27.4195 26.0001L25.9995 24.5601L24.5594 26.0001L25.9995 27.4201Z" fill="white"/>
<path d="M21.7201 31.6999C22.1201 32.0999 22.7601 32.0999 23.1401 31.6999C23.5401 31.2999 23.5401 30.6599 23.1401 30.2799L21.7201 28.8599L20.3 30.2799L21.7201 31.6999Z" fill="white"/>
<path fill-rule="evenodd" clip-rule="evenodd" d="M13 12C13 12 13 12 13 12C13 10.3432 14.3432 9 16 9C17.6569 9 19 10.3432 19 12C19 12 19 12 19 12H17.5001C17.5001 11.1716 16.8285 10.5 16.0001 10.5C15.1716 10.5 14.5001 11.1716 14.5001 12H13Z" fill="#1A1A1A"/>
<rect x="11.5" y="15" width="9.00006" height="6.00004" fill="#1A1A1A"/>
<rect x="13" y="12" width="1.50001" height="2.00001" fill="#1A1A1A"/>
<rect x="17.5001" y="12" width="1.50001" height="2.00001" fill="#1A1A1A"/>
</svg>
