<svg width="170" height="170" viewBox="0 0 170 170" fill="none" xmlns="http://www.w3.org/2000/svg">
<path d="M46.4728 160.085C41.5015 160.085 36.5301 160.093 31.5588 160.083C26.7098 160.074 21.8613 160.048 17.0124 160.03C16.2375 160.027 15.8359 159.456 16.0632 158.706C16.7826 156.334 18.3512 154.71 20.5233 153.614C21.8882 152.925 23.3327 152.454 24.8115 152.087C26.4911 151.669 28.1784 151.281 29.8568 150.857C31.6506 150.405 33.4093 149.85 35.0464 148.962C36.1008 148.391 37.0026 147.664 37.5882 146.592C38.0195 145.802 38.277 144.957 38.4198 144.071C38.6043 142.928 38.5904 141.781 38.4696 140.635C38.41 140.069 38.3035 139.506 38.1864 138.949C38.0656 138.375 38.3056 137.908 38.874 137.75C39.8031 137.492 40.7327 137.236 41.6137 136.835C42.853 136.272 43.9323 135.51 44.7267 134.376C45.1136 133.824 45.2899 133.189 45.5094 132.571C45.9048 131.458 46.29 130.341 46.6793 129.226C46.8144 128.839 47.0923 128.611 47.484 128.52C49.0154 128.163 50.4457 127.572 51.7225 126.646C53.307 125.497 54.4838 124.039 55.0375 122.132C55.3191 121.162 55.3738 120.178 55.1077 119.193C54.776 117.966 53.986 117.141 52.8336 116.639C51.1153 115.891 49.5847 116.261 48.1883 117.418C47.6093 117.898 47.1127 118.457 46.6744 119.066C46.6091 119.156 46.5577 119.294 46.5744 119.398C46.6107 119.626 46.8686 119.678 47.0931 119.527C47.4811 119.264 47.8594 118.985 48.2646 118.752C48.8755 118.401 49.5263 118.129 50.2429 118.115C51.7404 118.085 52.8907 119.301 52.8006 120.798C52.7618 121.446 52.5178 122.031 52.1966 122.577C50.9676 124.669 49.2162 126.131 46.9021 126.896C46.5932 126.998 46.2725 127.063 45.964 127.167C45.68 127.262 45.4829 127.457 45.3751 127.746C44.9744 128.821 44.577 129.897 44.1604 130.966C43.8686 131.714 43.4895 132.419 43.0574 133.098C42.6775 133.695 42.176 134.134 41.5231 134.384C40.6935 134.701 39.8652 135.034 39.0123 135.274C37.687 135.648 36.3465 135.973 35.0023 136.274C33.6974 136.567 32.3806 136.806 31.067 137.06C30.4603 137.177 29.851 137.284 29.2398 137.375C28.4322 137.494 27.8867 137.09 27.7491 136.272C27.4835 134.691 27.2289 133.109 26.9685 131.527C26.8139 130.589 26.66 129.65 26.4989 128.713C26.4189 128.247 26.1565 127.905 25.7423 127.684C24.6765 127.113 23.6106 126.543 22.5411 125.979C21.9335 125.658 21.8299 125.161 22.2661 124.632C23.7751 122.801 25.2828 120.969 26.7886 119.136C27.1179 118.734 27.0934 118.382 26.7257 118.02C26.6049 117.9 26.4866 117.778 26.3605 117.664C26.0777 117.408 25.9602 117.094 25.992 116.715C26.0843 115.614 26.2924 114.534 26.616 113.479C27.6985 109.953 29.547 106.905 32.3055 104.433C33.5158 103.348 34.9101 102.546 36.3616 101.838C37.8828 101.096 39.4726 100.549 41.1403 100.251C42.5861 99.9932 44.0412 99.9222 45.5061 100.093C49.4272 100.551 52.6537 102.352 55.3387 105.185C56.8501 106.78 58.0265 108.596 58.8141 110.655C59.1556 111.548 59.3752 112.47 59.5106 113.414C59.689 114.655 59.7902 115.901 59.7469 117.154C59.5694 122.289 57.6781 126.684 54.0508 130.329C53.2388 131.145 52.6382 132.092 52.4019 133.229C52.3003 133.718 52.2709 134.226 52.2501 134.727C52.1921 136.127 52.1819 137.529 52.3003 138.927C52.4443 140.634 52.7353 142.307 53.4359 143.888C54.3014 145.842 55.75 147.193 57.6915 148.043C58.8851 148.566 60.1362 148.902 61.3975 149.206C63.3839 149.686 65.3854 150.106 67.3159 150.793C69.0416 151.408 70.6759 152.204 72.1347 153.318C73.0222 153.995 73.791 154.809 74.5316 155.644C75.3771 156.597 76.1304 157.619 76.8086 158.697C77.0179 159.03 77.0624 159.372 76.8735 159.719C76.6833 160.069 76.3642 160.213 75.9741 160.211C71.3565 160.193 66.7385 160.174 62.121 160.16C59.1218 160.15 56.1225 160.146 53.1233 160.143C50.9064 160.14 48.6894 160.142 46.4724 160.142V160.085H46.4728ZM34.964 116.508C34.2956 116.508 33.721 116.633 33.1922 116.843C32.2847 117.205 31.6041 117.879 30.8895 118.503C30.6349 118.725 30.7614 119.097 31.0964 119.166C31.6551 119.281 32.2178 119.377 32.7752 119.497C33.8822 119.734 34.964 119.677 36.0151 119.24C36.9304 118.861 37.842 118.471 38.7573 118.091C38.9368 118.016 39.065 117.915 39.0523 117.703C39.0393 117.487 38.8903 117.415 38.7038 117.366C38.0473 117.194 37.3944 117.009 36.7378 116.836C36.1343 116.677 35.5381 116.474 34.9636 116.507L34.964 116.508Z" fill="white" fill-opacity="0.7"/>
<path d="M88.4728 160.085C83.5015 160.085 78.5301 160.093 73.5588 160.083C68.7098 160.074 63.8613 160.048 59.0124 160.03C58.2375 160.027 57.8359 159.456 58.0632 158.706C58.7826 156.334 60.3512 154.71 62.5233 153.614C63.8882 152.925 65.3327 152.454 66.8115 152.087C68.4911 151.669 70.1784 151.281 71.8568 150.857C73.6506 150.405 75.4093 149.85 77.0464 148.962C78.1008 148.391 79.0026 147.664 79.5882 146.592C80.0195 145.802 80.277 144.957 80.4198 144.071C80.6043 142.928 80.5904 141.781 80.4696 140.635C80.41 140.069 80.3035 139.506 80.1864 138.949C80.0656 138.375 80.3056 137.908 80.874 137.75C81.8031 137.492 82.7327 137.236 83.6137 136.835C84.853 136.272 85.9323 135.51 86.7267 134.376C87.1136 133.824 87.2899 133.189 87.5094 132.571C87.9048 131.458 88.29 130.341 88.6793 129.226C88.8144 128.839 89.0923 128.611 89.484 128.52C91.0154 128.163 92.4457 127.572 93.7225 126.646C95.307 125.497 96.4838 124.039 97.0375 122.132C97.3191 121.162 97.3738 120.178 97.1077 119.193C96.776 117.966 95.986 117.141 94.8336 116.639C93.1153 115.891 91.5847 116.261 90.1883 117.418C89.6093 117.898 89.1127 118.457 88.6744 119.066C88.6091 119.156 88.5577 119.294 88.5744 119.398C88.6107 119.626 88.8686 119.678 89.0931 119.527C89.4811 119.264 89.8594 118.985 90.2646 118.752C90.8755 118.401 91.5263 118.129 92.2429 118.115C93.7404 118.085 94.8907 119.301 94.8006 120.798C94.7618 121.446 94.5178 122.031 94.1966 122.577C92.9676 124.669 91.2162 126.131 88.9021 126.896C88.5932 126.998 88.2725 127.063 87.964 127.167C87.68 127.262 87.4829 127.457 87.3751 127.746C86.9744 128.821 86.577 129.897 86.1604 130.966C85.8686 131.714 85.4895 132.419 85.0574 133.098C84.6775 133.695 84.176 134.134 83.5231 134.384C82.6935 134.701 81.8652 135.034 81.0123 135.274C79.687 135.648 78.3465 135.973 77.0023 136.274C75.6974 136.567 74.3806 136.806 73.067 137.06C72.4603 137.177 71.851 137.284 71.2398 137.375C70.4322 137.494 69.8867 137.09 69.7491 136.272C69.4835 134.691 69.2289 133.109 68.9685 131.527C68.8139 130.589 68.66 129.65 68.4989 128.713C68.4189 128.247 68.1565 127.905 67.7423 127.684C66.6765 127.113 65.6106 126.543 64.5411 125.979C63.9335 125.658 63.8299 125.161 64.2661 124.632C65.7751 122.801 67.2828 120.969 68.7886 119.136C69.1179 118.734 69.0934 118.382 68.7257 118.02C68.6049 117.9 68.4866 117.778 68.3605 117.664C68.0777 117.408 67.9602 117.094 67.992 116.715C68.0843 115.614 68.2924 114.534 68.616 113.479C69.6985 109.953 71.547 106.905 74.3055 104.433C75.5158 103.348 76.9101 102.546 78.3616 101.838C79.8828 101.096 81.4726 100.549 83.1403 100.251C84.5861 99.9932 86.0412 99.9222 87.5061 100.093C91.4272 100.551 94.6537 102.352 97.3387 105.185C98.8501 106.78 100.027 108.596 100.814 110.655C101.156 111.548 101.375 112.47 101.511 113.414C101.689 114.655 101.79 115.901 101.747 117.154C101.569 122.289 99.6781 126.684 96.0508 130.329C95.2388 131.145 94.6382 132.092 94.4019 133.229C94.3003 133.718 94.2709 134.226 94.2501 134.727C94.1921 136.127 94.1819 137.529 94.3003 138.927C94.4443 140.634 94.7353 142.307 95.4359 143.888C96.3014 145.842 97.75 147.193 99.6915 148.043C100.885 148.566 102.136 148.902 103.397 149.206C105.384 149.686 107.385 150.106 109.316 150.793C111.042 151.408 112.676 152.204 114.135 153.318C115.022 153.995 115.791 154.809 116.532 155.644C117.377 156.597 118.13 157.619 118.809 158.697C119.018 159.03 119.062 159.372 118.873 159.719C118.683 160.069 118.364 160.213 117.974 160.211C113.357 160.193 108.739 160.174 104.121 160.16C101.122 160.15 98.1225 160.146 95.1233 160.143C92.9064 160.14 90.6894 160.142 88.4724 160.142V160.085H88.4728ZM76.964 116.508C76.2956 116.508 75.721 116.633 75.1922 116.843C74.2847 117.205 73.6041 117.879 72.8895 118.503C72.6349 118.725 72.7614 119.097 73.0964 119.166C73.6551 119.281 74.2178 119.377 74.7752 119.497C75.8822 119.734 76.964 119.677 78.0151 119.24C78.9304 118.861 79.842 118.471 80.7573 118.091C80.9368 118.016 81.065 117.915 81.0523 117.703C81.0393 117.487 80.8903 117.415 80.7038 117.366C80.0473 117.194 79.3944 117.009 78.7378 116.836C78.1343 116.677 77.5381 116.474 76.9636 116.507L76.964 116.508Z" fill="white"/>
<path d="M134.473 160.085C129.501 160.085 124.53 160.093 119.559 160.083C114.71 160.074 109.861 160.048 105.012 160.03C104.237 160.027 103.836 159.456 104.063 158.706C104.783 156.334 106.351 154.71 108.523 153.614C109.888 152.925 111.333 152.454 112.812 152.087C114.491 151.669 116.178 151.281 117.857 150.857C119.651 150.405 121.409 149.85 123.046 148.962C124.101 148.391 125.003 147.664 125.588 146.592C126.02 145.802 126.277 144.957 126.42 144.071C126.604 142.928 126.59 141.781 126.47 140.635C126.41 140.069 126.304 139.506 126.186 138.949C126.066 138.375 126.306 137.908 126.874 137.75C127.803 137.492 128.733 137.236 129.614 136.835C130.853 136.272 131.932 135.51 132.727 134.376C133.114 133.824 133.29 133.189 133.509 132.571C133.905 131.458 134.29 130.341 134.679 129.226C134.814 128.839 135.092 128.611 135.484 128.52C137.015 128.163 138.446 127.572 139.722 126.646C141.307 125.497 142.484 124.039 143.038 122.132C143.319 121.162 143.374 120.178 143.108 119.193C142.776 117.966 141.986 117.141 140.834 116.639C139.115 115.891 137.585 116.261 136.188 117.418C135.609 117.898 135.113 118.457 134.674 119.066C134.609 119.156 134.558 119.294 134.574 119.398C134.611 119.626 134.869 119.678 135.093 119.527C135.481 119.264 135.859 118.985 136.265 118.752C136.875 118.401 137.526 118.129 138.243 118.115C139.74 118.085 140.891 119.301 140.801 120.798C140.762 121.446 140.518 122.031 140.197 122.577C138.968 124.669 137.216 126.131 134.902 126.896C134.593 126.998 134.272 127.063 133.964 127.167C133.68 127.262 133.483 127.457 133.375 127.746C132.974 128.821 132.577 129.897 132.16 130.966C131.869 131.714 131.49 132.419 131.057 133.098C130.677 133.695 130.176 134.134 129.523 134.384C128.694 134.701 127.865 135.034 127.012 135.274C125.687 135.648 124.346 135.973 123.002 136.274C121.697 136.567 120.381 136.806 119.067 137.06C118.46 137.177 117.851 137.284 117.24 137.375C116.432 137.494 115.887 137.09 115.749 136.272C115.483 134.691 115.229 133.109 114.969 131.527C114.814 130.589 114.66 129.65 114.499 128.713C114.419 128.247 114.156 127.905 113.742 127.684C112.676 127.113 111.611 126.543 110.541 125.979C109.934 125.658 109.83 125.161 110.266 124.632C111.775 122.801 113.283 120.969 114.789 119.136C115.118 118.734 115.093 118.382 114.726 118.02C114.605 117.9 114.487 117.778 114.361 117.664C114.078 117.408 113.96 117.094 113.992 116.715C114.084 115.614 114.292 114.534 114.616 113.479C115.699 109.953 117.547 106.905 120.306 104.433C121.516 103.348 122.91 102.546 124.362 101.838C125.883 101.096 127.473 100.549 129.14 100.251C130.586 99.9932 132.041 99.9222 133.506 100.093C137.427 100.551 140.654 102.352 143.339 105.185C144.85 106.78 146.027 108.596 146.814 110.655C147.156 111.548 147.375 112.47 147.511 113.414C147.689 114.655 147.79 115.901 147.747 117.154C147.569 122.289 145.678 126.684 142.051 130.329C141.239 131.145 140.638 132.092 140.402 133.229C140.3 133.718 140.271 134.226 140.25 134.727C140.192 136.127 140.182 137.529 140.3 138.927C140.444 140.634 140.735 142.307 141.436 143.888C142.301 145.842 143.75 147.193 145.692 148.043C146.885 148.566 148.136 148.902 149.397 149.206C151.384 149.686 153.385 150.106 155.316 150.793C157.042 151.408 158.676 152.204 160.135 153.318C161.022 153.995 161.791 154.809 162.532 155.644C163.377 156.597 164.13 157.619 164.809 158.697C165.018 159.03 165.062 159.372 164.873 159.719C164.683 160.069 164.364 160.213 163.974 160.211C159.357 160.193 154.739 160.174 150.121 160.16C147.122 160.15 144.123 160.146 141.123 160.143C138.906 160.14 136.689 160.142 134.472 160.142V160.085H134.473ZM122.964 116.508C122.296 116.508 121.721 116.633 121.192 116.843C120.285 117.205 119.604 117.879 118.89 118.503C118.635 118.725 118.761 119.097 119.096 119.166C119.655 119.281 120.218 119.377 120.775 119.497C121.882 119.734 122.964 119.677 124.015 119.24C124.93 118.861 125.842 118.471 126.757 118.091C126.937 118.016 127.065 117.915 127.052 117.703C127.039 117.487 126.89 117.415 126.704 117.366C126.047 117.194 125.394 117.009 124.738 116.836C124.134 116.677 123.538 116.474 122.964 116.507L122.964 116.508Z" fill="white" fill-opacity="0.5"/>
<path d="M88.1581 61.4085C88.4212 57.2833 88.4231 53.9195 88.3181 50.5576C88.2452 48.2274 88.0421 45.9017 87.4682 43.6314C87.3064 42.9918 87.0311 42.3806 86.7893 41.7629C86.7287 41.6081 86.6113 41.4682 86.4953 41.3438C86.1606 40.9846 85.7467 40.924 85.4269 41.2903C85.0516 41.7203 84.7131 42.2071 84.4694 42.7223C83.7421 44.2614 83.3133 45.9049 82.9084 47.5517C82.6808 48.4789 82.4751 49.4112 82.2655 50.3429C82.1604 50.8104 82.1301 51.2785 82.321 51.7363C82.5866 52.3727 83.1669 52.5687 83.7305 52.1708C83.9871 51.9897 84.1857 51.7227 84.4017 51.4861C84.5603 51.312 84.6854 51.105 84.8563 50.9464C85.1342 50.6879 85.3753 50.7259 85.5075 51.078C85.6461 51.4455 85.7776 51.8381 85.795 52.225C85.8331 53.0793 85.844 53.9401 85.7828 54.7925C85.6609 56.4844 85.452 58.1705 85.3347 59.8624C85.1161 63.0153 85.031 66.176 85.1432 69.3341C85.2354 71.9203 85.3979 74.5059 85.6074 77.085C85.8047 79.5138 86.1336 81.9324 86.3437 84.3606C86.4173 85.2085 86.3296 86.0731 86.2728 86.9275C86.2515 87.2518 86.1484 87.6051 85.7338 87.6754C85.4559 87.7225 85.1683 87.4981 85.0439 87.0242C84.7608 85.9468 84.4481 84.8681 84.2908 83.7694C83.9826 81.6235 83.7601 79.4648 83.5248 77.3087C83.3404 75.622 83.2198 73.9281 83.018 72.244C82.7627 70.113 82.4757 67.9846 82.1624 65.8614C81.9096 64.1501 81.5453 62.4576 80.8883 60.8508C80.6388 60.2409 80.2893 59.6664 79.9366 59.1067C79.7825 58.8623 79.5311 58.6573 79.2835 58.4967C78.3318 57.8797 77.3865 58.2491 77.1312 59.3491C77.0377 59.7515 77.019 60.179 77.0235 60.5942C77.0383 61.9373 77.0738 63.2797 77.1138 64.6221C77.1254 65.0051 76.9674 65.2688 76.6289 65.4139C76.2775 65.5648 75.9783 65.4332 75.7243 65.1785C75.1633 64.6163 74.8635 63.9006 74.5811 63.181C73.8229 61.2448 73.3277 59.2344 72.9963 57.1866C72.5862 54.6539 71.5358 52.4487 69.8053 50.5538C69.0335 49.7091 69.0283 48.9979 69.704 48.0688C70.5003 46.9746 71.2831 45.8707 72.0955 44.7888C72.3708 44.4226 72.6822 44.0647 73.0427 43.7875C73.3354 43.5625 73.7126 43.3755 74.0737 43.3245C76.7347 42.948 79.2183 42.1427 81.3345 40.4211C83.2411 38.8704 84.3662 36.8813 84.5913 34.4202C84.9298 30.7211 84.1373 27.3057 81.9141 24.2901C80.6362 22.557 78.9604 21.3628 76.8217 20.9141C75.6289 20.6633 74.4225 20.5291 73.2168 20.8625C72.7035 21.0043 72.238 21.2339 71.8453 21.6066C70.0774 23.2856 68.8323 25.3134 67.8909 27.5404C67.0308 29.576 66.4879 31.6876 66.4872 33.9121C66.4872 35.1804 66.769 36.3861 67.4215 37.4829C67.5995 37.782 67.8355 38.0606 68.0927 38.2959C68.4828 38.6525 68.9458 38.7163 69.4384 38.4868C70.4184 38.0309 71.2147 37.3275 71.9885 36.595C72.6049 36.0121 73.2084 35.4157 73.8254 34.8328C74.004 34.6646 74.1988 34.5079 74.4057 34.377C74.4876 34.3254 74.6224 34.357 74.7333 34.3505C74.7371 34.4518 74.7765 34.5698 74.7384 34.6523C74.5947 34.9631 74.4547 35.2822 74.2613 35.5627C73.1523 37.1714 72.0517 38.7866 70.9027 40.3663C69.9349 41.6971 68.8639 42.946 67.6079 44.0209C66.9934 44.547 66.3338 44.9997 65.5478 45.2492C65.13 45.3814 64.787 45.2724 64.4691 45.0184C64.3356 44.912 64.2073 44.7907 64.1054 44.6541C62.7559 42.8461 61.4316 41.0259 60.5914 38.902C59.3412 35.7407 58.8699 32.4678 59.1046 29.084C59.4502 24.1006 61.0692 19.5665 63.9443 15.4889C66.5704 11.7634 70.0013 9.06117 74.2761 7.43054C76.3749 6.63037 78.5271 6.07006 80.7529 5.81086C82.6131 5.59422 84.4803 5.58841 86.3502 5.76379C89.1737 6.02944 91.8849 6.71999 94.4898 7.83159C97.5454 9.13532 100.268 10.942 102.643 13.2683C102.927 13.5462 103.235 13.8003 103.51 14.0859C103.702 14.2851 103.88 14.5057 104.023 14.7423C104.274 15.1569 104.292 15.6082 104.064 16.0338C103.909 16.3239 103.719 16.6076 103.493 16.8455C100.855 19.6219 98.4965 22.6324 96.1289 25.6351C95.7169 26.158 95.3068 26.6829 94.9012 27.211C94.749 27.4095 94.573 27.5359 94.3235 27.4211C94.054 27.2974 94.0727 27.0349 94.1552 26.8338C94.3377 26.3889 94.5633 25.9614 94.7851 25.5345C95.0624 25.002 95.3629 24.4816 95.6369 23.9471C96.1005 23.0438 95.35 22.0012 94.533 21.8226C93.5685 21.6117 92.6858 21.8058 91.903 22.3648C90.302 23.508 89.3478 25.1219 88.7185 26.9447C88.0324 28.9325 87.7951 30.9784 88.0279 33.072C88.4193 36.5924 90.1757 39.2012 93.4202 40.6294C96.1598 41.8357 98.7525 41.2632 101.046 39.412C102.824 37.9768 103.822 36.0637 104.21 33.8205C104.421 32.6026 104.46 31.3859 104.201 30.1711C104.051 29.4657 103.697 28.8519 103.294 28.2645C102.936 27.7416 102.564 27.229 102.208 26.7048C101.421 25.5429 101.399 24.3295 101.941 23.0599C102.444 21.8812 103.25 20.9231 104.096 19.9914C105.189 18.7883 106.334 17.6425 107.737 16.7894C108.748 16.1743 109.846 15.8603 111.02 15.7462C111.98 15.6527 112.935 15.5057 113.891 15.3755C113.994 15.3613 114.103 15.3194 114.186 15.2588C115.318 14.4315 116.126 13.385 116.39 11.9736C116.442 11.6996 116.501 11.4262 116.571 11.1567C116.639 10.9001 116.684 10.6035 117.053 10.6209C117.316 10.6338 117.507 10.9078 117.468 11.2824C117.37 12.1999 117.282 13.1207 117.121 14.0279C116.995 14.7358 116.727 15.409 116.319 16.0157C115.691 16.9474 114.738 17.3259 113.704 17.578C112.808 17.7966 111.903 17.99 111.09 18.4562C109.491 19.3724 108.785 20.8251 108.638 22.595C108.539 23.7827 108.864 24.9168 109.16 26.0497C109.517 27.4121 109.839 28.7797 109.848 30.1995C109.862 32.3053 109.28 34.2661 108.396 36.154C107.349 38.3901 105.917 40.3637 104.331 42.2426C102.967 43.8584 101.614 45.4871 100.331 47.1674C98.9349 48.9947 98.1418 51.1044 97.608 53.3347C96.822 56.6198 95.9664 59.8888 95.1372 63.1636C95.0057 63.6827 94.8748 64.2036 94.7104 64.7124C94.5808 65.1128 94.3345 65.4345 93.9095 65.5777C93.5826 65.6873 93.4111 65.6363 93.2977 65.3127C93.1919 65.0122 93.1029 64.6917 93.0894 64.3764C93.043 63.2823 93.0378 62.1868 93.0062 61.092C92.9772 60.0951 92.9437 59.0977 92.8902 58.1015C92.8785 57.8829 92.7896 57.6624 92.7077 57.4541C92.5052 56.9415 92.0507 56.8229 91.6722 57.2272C91.4394 57.4754 91.2376 57.8004 91.146 58.126C90.587 60.1216 90.3659 62.1713 90.273 64.2339C90.1802 66.3056 90.1711 68.3811 90.046 70.4502C89.9609 71.8513 89.7553 73.2466 89.5644 74.6387C89.5244 74.9282 89.3452 75.2196 89.1672 75.464C88.9815 75.7193 88.6714 75.6871 88.5424 75.4002C88.4045 75.0926 88.3052 74.7541 88.2626 74.4201C87.9783 72.1666 87.8906 69.9015 87.9486 67.6332C88.0079 65.303 88.104 62.9734 88.1575 61.4092L88.1581 61.4085Z" fill="white"/>
<path d="M40 61.2431C40.0658 58.2752 40.4346 55.368 41.3302 52.538C42.2135 49.7455 43.5443 47.2103 45.6592 45.1373C46.8095 44.0096 47.9913 42.9135 49.1191 41.7638C50.094 40.7702 50.8464 39.6225 51.1456 38.2343C51.2313 37.8384 51.2352 37.4251 51.2861 37.0209C51.3145 36.7952 51.4087 36.605 51.6562 36.5483C51.9496 36.4812 52.134 36.6179 52.2204 36.9667C52.4751 37.9938 52.4235 39.01 52.1024 40.0152C51.6724 41.3602 50.9083 42.5311 50.1662 43.7124C49.3886 44.9503 48.6187 46.1941 48.2312 47.6216C47.4388 50.5425 47.7483 53.2408 49.8928 55.5478C50.2622 55.9457 50.5073 56.4099 50.5937 56.9367C50.6891 57.5183 50.7529 58.1076 50.7871 58.6963C50.9038 60.7312 51.3313 62.6945 52.1714 64.5528C53.1624 66.7437 54.579 68.5865 56.6874 69.8232C57.7919 70.4705 58.9783 70.8606 60.2756 70.7749C62.0365 70.6582 63.2867 69.7658 63.9779 68.1564C64.1662 67.718 64.2081 67.1925 64.2191 66.705C64.2964 63.4322 63.5343 60.3663 61.8792 57.5325C60.9442 55.9321 59.489 55.1416 57.7017 54.914C56.6268 54.7773 55.5436 54.7025 54.4642 54.6C52.9729 54.4582 51.8813 53.6851 51.0882 52.451C49.8547 50.5309 49.9096 47.9324 51.2139 46.1038C52.3055 44.5731 53.695 44.0618 55.4927 44.6305C58.5811 45.6086 61.1699 47.3366 63.1874 49.897C64.8122 51.959 65.9967 54.2673 66.9219 56.7033C67.8775 59.2192 68.7299 61.7738 69.6474 64.3045C70.6307 67.0184 71.6191 69.7329 73.0673 72.2456C73.4252 72.8665 73.8513 73.45 74.2737 74.031C74.4349 74.2528 74.6541 74.443 74.8772 74.6055C75.3956 74.9827 75.834 74.8769 76.0977 74.2857C76.2576 73.9278 76.3299 73.5306 76.4433 73.1515C76.4769 73.0387 76.4853 72.8988 76.5581 72.8214C76.6722 72.7008 76.836 72.5428 76.9714 72.5493C77.1081 72.5557 77.3125 72.7208 77.3538 72.8568C77.495 73.3275 77.6323 73.8118 77.6736 74.2992C77.7967 75.7648 77.8889 77.2336 77.9644 78.7024C78.1526 82.3776 78.751 85.9742 79.9696 89.4572C80.3662 90.5907 80.7743 91.7223 81.1012 92.8758C81.234 93.3446 81.2121 93.8746 81.1728 94.3691C81.1289 94.9185 80.5873 95.1551 80.0889 94.8927C79.7897 94.7354 79.6098 94.4858 79.4983 94.1628C78.7084 91.8719 77.974 89.5591 77.0978 87.3017C75.502 83.1919 73.6237 79.2117 71.1104 75.5701C70.3264 74.4346 69.3992 73.3959 68.5113 72.3346C68.2676 72.0438 67.9471 71.8046 67.6286 71.5931C67.3101 71.3816 67.0909 71.4848 67.0909 71.8639C67.0922 72.655 67.0677 73.4616 67.205 74.2354C67.7692 77.4051 69.2064 80.2298 70.8628 82.9385C72.0099 84.8142 73.2865 86.6112 74.5129 88.4378C74.8101 88.8801 74.9803 89.3547 74.9771 89.8847C74.9739 90.4998 74.5335 90.7784 74.0403 90.4121C73.5838 90.0736 73.155 89.6519 72.8365 89.1838C72.0943 88.0929 71.4425 86.942 70.7235 85.8342C69.857 84.4983 68.9143 83.2171 67.7453 82.1248C67.3939 81.7967 67.0051 81.5039 66.6099 81.2292C66.2204 80.9591 65.8581 80.9926 65.5454 81.2673C65.2326 81.5413 65.1372 81.9514 65.3564 82.3479C65.6208 82.8257 65.9219 83.2848 66.2262 83.7394C66.5905 84.2835 66.9858 84.8071 67.3443 85.3552C67.43 85.4867 67.4242 85.6782 67.4603 85.842C67.2914 85.8665 67.1167 85.9322 66.9542 85.909C66.2759 85.813 65.7485 85.4435 65.2797 84.9593C64.8393 84.5047 64.4047 84.036 63.9121 83.642C62.8115 82.7612 61.56 82.6735 60.2543 83.0849C58.6224 83.5994 56.9582 83.8799 55.2451 83.8193C52.0006 83.7052 49.2641 82.415 46.9468 80.1886C44.7114 78.0408 43.2174 75.4153 42.1091 72.5512C41.265 70.3693 40.6983 68.1107 40.3959 65.7966C40.1986 64.2871 40.129 62.7616 40.0019 61.2431H40ZM54.0838 80.8688C55.8196 80.794 56.9943 80.1467 57.6449 78.7217C58.0569 77.8184 58.0299 76.8654 57.7861 75.9137C56.9718 72.7318 54.3972 70.426 50.8142 70.7729C49.4363 70.9064 48.1506 71.7079 47.7515 73.2269C47.4046 74.5468 47.7064 75.7661 48.4156 76.888C49.5027 78.6076 51.1088 79.7231 52.9071 80.5774C53.3204 80.774 53.8124 80.805 54.0845 80.8688H54.0838Z" fill="white" fill-opacity="0.5"/>
<path d="M90.0502 91.3301C90.0444 88.5305 90.3229 85.7548 90.8716 83.01C91.5235 79.7487 92.6467 76.6357 93.7847 73.5169C95.1981 69.6457 97.4516 66.3567 100.224 63.3662C101.911 61.5473 103.587 59.7162 105.201 57.8328C106.973 55.765 108.415 53.4838 109.285 50.8763C109.729 49.5461 109.964 48.176 110.112 46.7833C110.29 45.1191 110.504 43.4601 111.036 41.8578C111.68 39.9209 112.94 38.5695 114.772 37.6926C116.047 37.082 117.384 36.7093 118.776 36.5552C120.547 36.3592 122.326 36.238 124.101 36.0664C125.633 35.9181 127.162 35.7144 128.547 34.989C129.101 34.6982 129.593 34.2862 130.104 33.9168C130.343 33.7446 130.538 33.4545 130.886 33.6627C131.133 33.811 131.143 34.0554 130.972 34.5054C130.36 36.1129 129.42 37.4656 127.953 38.4115C126.85 39.1233 125.628 39.505 124.327 39.4786C121.72 39.4257 119.632 40.4928 117.867 42.3169C116.399 43.8347 115.337 45.622 114.514 47.5486C114.046 48.6415 113.639 49.7628 113.263 50.8905C112.882 52.0343 112.258 53.0202 111.486 53.9261C110.698 54.8487 109.883 55.7495 109.122 56.6934C108.502 57.4614 108.081 58.3409 107.891 59.3222C107.651 60.5653 108.441 61.6182 109.71 61.6885C111.275 61.7749 112.707 61.3158 114.024 60.5105C116.177 59.1932 117.634 57.3331 118.269 54.8687C118.656 53.3696 118.618 51.9124 117.775 50.5487C117.093 49.4449 117.18 48.3655 117.841 47.2739C118.895 45.5305 120.376 44.2667 122.148 43.3105C124.052 42.284 126.103 41.6612 128.176 41.0989C128.756 40.9416 129.335 40.7817 129.913 40.6186C130.867 40.349 131.692 40.6495 132.447 41.2105C133.164 41.743 133.689 42.451 134.186 43.1822C135.008 44.3911 135.469 45.7484 135.798 47.1553C136.342 49.4823 136.343 51.8286 135.887 54.1601C135.049 58.4408 133.092 62.1115 129.79 65.0181C128.462 66.1878 126.937 67.0511 125.324 67.7391C123.184 68.6515 121.041 69.5735 118.845 70.3337C115.321 71.5536 112.436 73.653 110.027 76.4378C108.532 78.167 107.131 79.9776 105.671 81.7378C105.506 81.9371 105.253 82.1202 105.008 82.1846C104.598 82.2923 104.275 82.0351 104.315 81.6147C104.367 81.0782 104.47 80.5301 104.654 80.0253C105.246 78.4024 106.31 77.0761 107.439 75.8027C108.436 74.6782 109.463 73.5795 110.452 72.4466C110.867 71.9714 111.246 71.4536 111.383 70.8121C111.513 70.2047 111.123 69.8404 110.526 70.0281C110.295 70.1009 110.081 70.2389 109.869 70.3627C105.444 72.9386 102.173 76.5609 100.042 81.2143C99.2524 82.9365 98.705 84.7425 98.1898 86.5594C98.106 86.8548 97.99 87.1507 97.8326 87.4138C97.6818 87.6665 97.4097 87.74 97.1227 87.6452C96.8423 87.5524 96.723 87.3416 96.7314 87.0488C96.81 84.2196 97.2878 81.4786 98.5142 78.9002C99.1564 77.5506 100.057 76.3759 100.98 75.2146C101.889 74.0714 102.824 72.945 103.48 71.6271C103.656 71.2725 103.816 70.9069 103.946 70.5329C104.07 70.1783 104.102 69.805 103.796 69.5109C103.487 69.2156 103.1 69.2163 102.739 69.3575C102.434 69.4768 102.143 69.656 101.88 69.854C98.4271 72.4524 96.0247 75.8252 94.5385 79.866C93.6435 82.3007 93.0516 84.816 92.5822 87.3609C92.2121 89.3655 91.8736 91.3766 91.5093 93.3825C91.4661 93.6204 91.3726 93.8583 91.2579 94.0724C91.0896 94.3864 90.7885 94.525 90.5086 94.4431C90.1837 94.3483 90.0554 94.0949 90.0528 93.779C90.0463 92.9627 90.0509 92.1464 90.0509 91.3301H90.0502ZM130.632 55.547C130.647 54.7424 130.529 53.9628 130.216 53.2175C129.721 52.0382 128.839 51.4927 127.574 51.6146C126.713 51.6977 125.97 52.0994 125.301 52.612C123.021 54.3607 121.264 56.5084 120.315 59.2629C119.908 60.446 119.56 61.6408 119.59 62.9046C119.633 64.7402 120.661 65.7338 122.484 65.6887C124.188 65.6468 125.694 65.0568 126.982 63.9375C127.974 63.0754 128.625 61.9587 129.22 60.8129C130.076 59.1642 130.614 57.4227 130.632 55.5464V55.547ZM112.033 67.2871C112.485 67.1717 112.955 67.1188 113.366 66.9351C115.009 66.1974 115.99 64.8286 116.672 63.2366C117.004 62.459 116.576 62.0038 115.737 62.1283C115.622 62.1457 115.506 62.1747 115.398 62.2172C113.723 62.8775 112.348 63.953 111.19 65.3102C110.982 65.5546 110.844 65.8757 110.733 66.1826C110.609 66.5243 110.739 66.8435 111.069 66.995C111.364 67.1304 111.693 67.1878 112.034 67.2878L112.033 67.2871Z" fill="white" fill-opacity="0.5"/>
<path d="M104.386 49.377C104.923 49.4163 105.165 49.6852 105.1 50.2119C105.015 50.8999 104.69 51.497 104.351 52.0824C103.838 52.9703 103.213 53.7737 102.463 54.4771C102.157 54.7653 101.805 54.9497 101.382 54.7834C100.997 54.6325 100.865 54.283 100.833 53.9026C100.702 52.3455 102.089 50.1326 103.547 49.5833C103.815 49.4827 104.106 49.444 104.386 49.377Z" fill="white" fill-opacity="0.5"/>
<path d="M78.5786 30.305C78.5741 31.0413 77.792 32.0787 77.0905 32.2806C76.8062 32.3624 76.527 32.3483 76.3084 32.1381C76.0859 31.924 76.1291 31.6564 76.2226 31.3895C76.4554 30.7254 76.8822 30.2218 77.4761 29.8556C77.5838 29.7891 77.7056 29.7356 77.8281 29.7053C78.2904 29.5918 78.5819 29.8285 78.5786 30.305Z" fill="white" fill-opacity="0.5"/>
<path d="M134.713 28.1874C134.605 28.9354 134.251 29.6253 133.548 30.0953C133.277 30.2771 132.945 30.3107 132.669 30.0998C132.419 29.9077 132.434 29.6188 132.501 29.3306C132.649 28.6929 132.971 28.1616 133.463 27.7335C133.559 27.6503 133.668 27.5768 133.782 27.5207C134.296 27.266 134.718 27.5355 134.712 28.1881L134.713 28.1874Z" fill="white" fill-opacity="0.5"/>
<path d="M118.493 5.48506C118.358 5.86483 118.278 6.25943 118.086 6.5902C117.845 7.00737 117.364 7.02414 117.008 6.6953C116.459 6.18851 116.447 4.60881 117.156 4.16069C117.557 3.90729 117.917 3.93824 118.124 4.36379C118.289 4.70166 118.364 5.08336 118.492 5.48441L118.493 5.48506Z" fill="white" fill-opacity="0.5"/>
<path d="M51.1097 31.8646C51.093 32.0883 51.0923 32.3759 50.7854 32.4649C50.4895 32.5513 50.2335 32.4333 50.0542 32.1824C49.795 31.8201 49.6687 31.4152 49.726 30.969C49.7712 30.6195 49.9891 30.4906 50.3231 30.5924C50.8093 30.7407 51.1084 31.2101 51.1104 31.8646H51.1097Z" fill="white" fill-opacity="0.5"/>
</svg>
