<svg width="170" height="170" viewBox="0 0 170 170" fill="none" xmlns="http://www.w3.org/2000/svg">
<g clip-path="url(#clip0_17184_12406)">
<path d="M131.285 72.573C130.645 70.438 129.811 68.3805 128.873 66.3606C127.476 63.354 125.865 60.4628 124.209 57.5954C122.903 55.3338 121.595 53.073 120.323 50.7945C119.738 49.7461 119.227 48.6516 118.705 47.5672C118.436 47.0044 118.379 46.4011 118.547 45.7919C119.089 43.8334 119.635 41.874 120.182 39.9178C120.317 39.4346 120.704 39.3638 121.052 39.7662C122.038 40.909 123.024 42.0518 123.991 43.2109C124.281 43.5597 124.608 43.6864 125.039 43.6344C129.026 43.1554 132.918 42.2426 136.718 40.9549C139.056 40.1605 141.342 39.226 143.564 38.1413C145.324 37.2827 147.047 36.3541 148.697 35.2952C148.944 35.1385 149.22 35.0546 149.508 35.2171C149.806 35.3875 149.883 35.6645 149.881 35.9788C149.86 38.5179 149.824 41.0542 149.821 43.5919C149.818 47.6514 149.81 51.7086 149.852 55.7657C149.878 58.2629 149.936 60.7613 150.076 63.2535C150.172 64.9343 150.416 66.6105 150.628 68.2821C151.004 71.2481 151.642 74.1659 152.45 77.0447C153.1 79.3566 153.913 81.6175 154.893 83.8081C156.116 86.5413 157.583 89.1293 159.448 91.478C160.194 92.4196 159.942 93.6627 158.888 94.2731C157.547 95.0515 156.212 95.8355 154.858 96.5931C154.279 96.917 153.679 96.8594 153.114 96.492C152.762 96.2637 152.42 96.0145 152.047 95.8239C150.967 95.2686 149.737 95.7682 149.382 96.9322C149.211 97.4857 149.11 98.0719 149.033 98.6473C148.934 99.3844 148.597 99.9054 147.918 100.209C146.03 101.063 144.174 101.988 142.263 102.774C139.725 103.817 137.157 104.791 134.579 105.73C131.795 106.743 128.944 107.549 126.05 108.185C123.366 108.774 120.652 109.164 117.891 109.13C117.617 109.126 117.336 109.119 117.067 109.071C116.142 108.904 115.593 108.099 115.747 107.166C116.462 102.779 118.31 98.9181 121.039 95.466C122.66 93.4114 124.595 91.7022 126.696 90.1559C130.252 87.5407 132.206 84.0292 132.32 79.5357C132.376 77.4022 132.03 75.0439 131.285 72.573Z" fill="white" fill-opacity="0.5"/>
<path d="M131.216 38.4362C129.819 38.8436 128.418 39.252 127.021 39.6594C126.256 39.8826 125.622 39.6958 125.097 39.109C124.231 38.138 123.358 37.1689 122.49 36.202C121.724 35.3454 120.953 34.494 120.19 33.6364C119.995 33.4163 119.767 33.2653 119.461 33.3301C119.152 33.3958 119.011 33.6295 118.927 33.9101C118.185 36.3352 117.443 38.7603 116.697 41.1832C116.43 42.0466 115.926 42.4177 115.027 42.3888C111.887 42.2843 108.745 42.1732 105.602 42.059C104.787 42.03 104.297 41.3526 104.522 40.5612C105.16 38.3381 105.655 36.0865 105.981 33.7968C106.391 30.9143 106.569 28.0225 106.266 25.1273C106.126 23.7867 105.887 22.4469 105.582 21.1335C105.36 20.178 105.773 19.1108 107.18 18.9319C109.708 18.6085 112.238 18.2776 114.753 17.8632C117.197 17.459 119.635 16.997 122.056 16.4737C125.934 15.6303 129.781 14.6558 133.541 13.3701C135.173 12.8101 136.808 12.263 138.416 11.6329C140.003 11.0126 141.551 10.2982 143.113 9.62169C143.455 9.47293 143.785 9.30668 144.128 9.16116C144.867 8.84749 145.783 9.17971 146.13 9.90621C146.5 10.6816 146.819 11.4828 147.2 12.2553C149.39 16.7004 152.236 20.6424 156.231 23.6778C156.998 24.2605 157.018 25.0926 156.304 25.7461C154.032 27.8214 151.517 29.5576 148.838 31.0609C147.347 31.8988 145.833 32.705 144.286 33.4364C142.647 34.2126 140.966 34.9094 139.285 35.603C136.648 36.691 133.955 37.6236 131.219 38.4352L131.216 38.4362Z" fill="white" fill-opacity="0.5"/>
<path d="M43.5982 48.4661C46.5624 48.4909 49.5266 48.5747 52.4814 48.8169C54.6888 48.997 56.8994 49.1833 59.0973 49.4379C61.0997 49.6676 63.0927 49.9657 65.0825 50.2886C67.0124 50.6021 68.936 50.9623 70.8533 51.3442C72.2818 51.6298 73.704 51.9589 75.1199 52.3066C76.5168 52.6513 77.7309 52.2942 78.8251 51.4466C79.8595 50.6456 80.5248 49.5745 80.9978 48.3885C81.742 46.5318 82.1646 44.6007 82.1078 42.6012C82.0574 40.816 81.5844 39.1425 80.4208 37.7267C80.1559 37.4038 79.8122 37.1182 79.4558 36.8916C78.5886 36.3482 77.6647 36.46 76.8952 37.1399C76.2235 37.7329 75.8105 38.4936 75.4541 39.2915C74.7194 40.9246 74.3567 42.6291 74.4955 44.4206C74.5775 45.4731 74.8234 46.4852 75.369 47.4073C75.4226 47.4974 75.4825 47.5874 75.5456 47.6744C75.8704 48.1028 76.2046 48.1929 76.6934 47.9507C77.8034 47.4042 78.5287 46.5101 78.9576 45.3862C79.4779 44.0263 79.5346 42.626 79.213 41.2134C79.1625 40.996 79.0585 40.7787 78.9292 40.5955C78.6201 40.1484 78.1692 40.1484 77.8476 40.5862C77.466 41.1016 77.2768 41.6884 77.2484 42.3249C77.22 42.9551 77.384 43.5544 77.5858 44.1474C77.7025 44.492 77.7908 44.8397 77.7056 45.203C77.6773 45.321 77.6363 45.442 77.5732 45.5414C77.2736 46.0257 76.6619 46.0288 76.4285 45.5103C76.2614 45.1378 76.1573 44.7186 76.1195 44.3119C75.9681 42.6757 76.192 41.0954 77.034 39.6486C77.22 39.3288 77.4723 39.0276 77.7593 38.7917C78.2607 38.3756 78.8535 38.4315 79.3328 38.8755C79.7648 39.276 79.9698 39.8069 80.1622 40.3378C80.8686 42.3031 80.7929 44.2684 80.1054 46.2213C79.6482 47.5129 78.9702 48.671 77.9453 49.6117C77.8192 49.7297 77.6804 49.8353 77.5448 49.9408C76.9993 50.3507 76.4096 50.4345 75.7379 50.2699C74.0571 49.8601 72.3701 49.472 70.6767 49.1088C69.0148 48.7517 67.3498 48.4133 65.6785 48.109C64.1207 47.8234 62.5566 47.5812 60.9925 47.3453C59.6081 47.1372 58.2175 46.9478 56.8268 46.7802C55.7389 46.6498 54.6478 46.5442 53.5567 46.4573C51.9201 46.3269 50.2803 46.1903 48.6405 46.1096C45.3894 45.9512 42.1319 45.9357 38.8807 46.1127C36.7521 46.2306 34.6267 46.4325 32.5013 46.6001C31.6562 46.6653 30.8142 46.7554 29.9723 46.8143C27.8027 46.9696 26.2512 46.0413 25.343 44.0201C24.6556 42.4956 24.4222 40.8936 24.561 39.2325C24.643 38.239 24.87 37.2828 25.261 36.3637C25.8949 34.8859 27.0333 34.0476 28.6163 33.7464C29.9186 33.4981 31.2116 33.2062 32.5139 32.964C33.605 32.7591 34.7024 32.5853 35.8029 32.4207C37.0012 32.2406 38.1995 32.073 39.401 31.9302C40.4637 31.8029 41.5296 31.7004 42.5954 31.6104C43.5951 31.5234 44.5978 31.4458 45.6006 31.393C47.2183 31.3123 48.836 31.213 50.4538 31.2036C52.7116 31.1943 54.9695 31.2285 57.2273 31.303C58.8513 31.3558 60.4753 31.4769 62.0962 31.6197C63.5342 31.7439 64.969 31.9146 66.3975 32.1102C67.867 32.3089 69.3396 32.5201 70.7933 32.8026C72.5088 33.1348 74.2148 33.5229 75.9114 33.9358C77.4565 34.3115 78.9828 34.7648 80.4302 35.4292C82.5083 36.3824 83.7949 37.972 84.2868 40.1795C84.4351 40.8501 84.4382 41.5238 84.4004 42.2038C84.2679 44.5851 83.8895 46.9292 83.2967 49.2392C82.2434 53.325 80.6005 57.1718 78.4877 60.8323C75.8168 65.4584 72.5151 69.6063 68.7531 73.4128C67.271 74.9123 65.7573 76.3809 64.291 77.896C62.7237 79.5167 61.3047 81.2522 60.2483 83.2486C59.0563 85.5058 58.4445 87.8995 58.5991 90.4485C58.7473 92.9292 59.4631 95.2329 60.9799 97.251C61.2101 97.5584 61.4781 97.8409 61.7399 98.1266C62.2129 98.6358 62.79 98.7382 63.4427 98.5178C64.0702 98.3066 64.5811 97.9217 65.051 97.4746C66.183 96.3972 67.0029 95.1057 67.6652 93.7147C68.545 91.8767 69.0842 89.9518 69.1063 87.9057C69.1126 87.232 69.0432 86.5676 68.6743 85.9684C67.5359 84.1179 64.6946 84.1521 63.6635 86.0615C62.8688 87.5363 62.4178 89.1197 62.4525 90.8118C62.462 91.3644 62.544 91.914 62.8436 92.389C63.0012 92.6374 63.2377 92.8423 63.4616 93.0472C63.6225 93.1931 63.8306 93.1776 64.0261 93.1031C64.8397 92.7926 65.4073 91.5166 65.0825 90.728C65.0541 90.6597 65.0226 90.5944 64.9816 90.5324C64.5433 89.8897 64.6095 89.2284 64.9343 88.5764C65.2465 87.9523 65.8645 87.9026 66.3218 88.4366C66.6876 88.8651 66.8169 89.3836 66.8484 89.9176C66.9462 91.4762 66.6088 92.9385 65.71 94.2456C65.5776 94.4412 65.4073 94.6182 65.2307 94.7734C64.5054 95.4099 63.7328 95.4782 62.9003 94.9815C61.9322 94.404 61.3772 93.5222 61.0461 92.4883C60.5573 90.9701 60.5668 89.4302 60.8664 87.884C61.1439 86.4682 61.6862 85.1611 62.607 84.0279C63.6603 82.7332 65.0384 82.1961 66.6844 82.4817C68.3684 82.7736 69.5351 83.7547 70.0397 85.3723C70.7366 87.6201 70.869 89.9176 70.4339 92.2338C69.9388 94.8511 68.7562 97.1548 67.107 99.2443C66.1736 100.427 65.0194 101.29 63.5657 101.747C62.7111 102.014 61.8345 102.113 60.9389 102.07C59.4883 101.995 58.0346 101.939 56.5872 101.855C54.8717 101.756 53.1594 101.641 51.4439 101.52C50.0438 101.421 48.6468 101.318 47.2499 101.197C45.9444 101.082 44.6388 100.949 43.3365 100.809C42.1413 100.682 40.9462 100.548 39.751 100.399C38.4834 100.241 37.2188 100.073 35.9543 99.8932C34.592 99.6976 33.2297 99.5051 31.8738 99.2753C30.3948 99.0238 28.919 98.7599 27.4495 98.4557C25.8192 98.1204 24.1857 97.7819 22.5775 97.3566C20.6728 96.8536 18.7871 96.2855 16.9076 95.6924C14.3502 94.8852 12.3383 93.3422 10.8656 91.1347C9.73988 89.4457 9.12181 87.5797 9.03667 85.5616C8.99252 84.4626 8.97675 83.3542 9.05559 82.2551C9.16596 80.7369 9.5223 79.2559 10.0332 77.8153C10.8846 75.4091 12.1712 73.2358 13.71 71.1991C15.5075 68.8177 17.5982 66.691 19.6984 64.5766C21.3445 62.9156 23 61.2639 24.6083 59.5656C26.1724 57.9107 27.5725 56.1286 28.6541 54.1198C29.3353 52.8562 29.7988 51.518 30.1079 50.124C30.2435 49.5186 30.6723 49.1336 31.2967 49.056C32.2522 48.9349 33.2108 48.8449 34.1695 48.7765C37.3103 48.5468 40.4542 48.4412 43.6014 48.4661H43.5982ZM16.3432 78.7374C16.3652 80.3457 16.526 81.7707 16.9265 83.1648C17.7906 86.1578 19.5786 88.4677 22.2085 90.166C24.0564 91.3582 26.0872 92.1251 28.2253 92.6094C29.4204 92.8795 30.6313 93.0876 31.8485 93.2428C32.8324 93.367 33.832 93.4415 34.8222 93.4167C37.367 93.3546 39.8772 92.9944 42.3526 92.4014C44.6168 91.8581 46.7989 91.0881 48.8613 90.017C53.8311 87.4338 57.3787 83.5684 59.5608 78.4766C60.4186 76.474 61.0146 74.397 61.3583 72.2516C61.6295 70.5533 61.8156 68.8519 61.6516 67.1256C61.5097 65.6291 61.1376 64.201 60.4943 62.8411C59.2802 60.2859 57.3692 58.3609 54.9348 56.9234C52.1251 55.2655 49.041 54.4769 45.8056 54.1912C43.9356 54.0267 42.0719 54.1416 40.224 54.4334C38.6253 54.6849 37.0612 55.0792 35.5286 55.6008C32.8797 56.5043 30.4106 57.7555 28.1149 59.3451C25.5417 61.1241 23.3091 63.2571 21.3823 65.7005C20.1588 67.2529 19.0078 68.8612 18.1532 70.6371C16.9013 73.2451 16.4188 76.0394 16.3463 78.7436L16.3432 78.7374Z" fill="white" fill-opacity="0.7"/>
<path d="M27.0326 75.277C27.0545 75.6033 27.0827 75.9296 27.0952 76.2559C27.1171 76.7718 26.8669 77.0111 26.3572 76.9427C25.6066 76.8433 24.8592 76.7221 24.1118 76.6102C23.7553 76.5574 23.3956 76.4983 23.0391 76.4486C22.8421 76.4206 22.6889 76.3491 22.642 76.144C22.5919 75.9358 22.7108 75.8053 22.864 75.6903C23.7834 75.0253 24.6997 74.3633 25.6191 73.6983C28.7401 71.4421 31.8642 69.189 34.979 66.9266C35.2917 66.6997 35.6201 66.6096 35.9954 66.65C37.0586 66.7588 38.125 66.8675 39.1883 66.9763C40.5236 67.113 41.8558 67.2467 43.1912 67.3865C44.5171 67.5232 45.8431 67.6538 47.169 67.8029C47.7914 67.8744 48.126 68.238 48.2354 68.8471C48.4669 70.1524 48.7045 71.4545 48.9485 72.7566C49.0548 73.3222 48.9172 73.7791 48.4293 74.1333C46.2309 75.7307 44.0324 77.3281 41.8465 78.9441C41.1835 79.4351 40.4892 79.4196 39.7356 79.2704C38.3095 78.9876 36.8741 78.7452 35.4418 78.4841C34.1815 78.2542 32.9181 78.0211 31.6578 77.788C31.0418 77.6761 30.4288 77.5611 29.8128 77.4555C29.4594 77.3933 29.2936 77.1975 29.2624 76.8433C29.1748 75.8239 29.0779 74.8077 28.9747 73.7915C28.9371 73.431 28.6838 73.3191 28.3805 73.518C28.0584 73.7293 27.7425 73.95 27.4267 74.1769C27.042 74.4503 26.9889 74.845 27.0326 75.2739V75.277Z" fill="white" fill-opacity="0.7"/>
<path d="M35.8431 90.267C34.6819 90.1962 33.5206 90.1222 32.3594 90.0514C32.0374 90.0298 31.8227 89.8758 31.7446 89.6201C31.6665 89.3552 31.7479 89.1303 32.0146 88.9454C33.924 87.6177 35.8366 86.29 37.7492 84.9622C38.8812 84.1767 40.0262 83.4065 41.1419 82.5994C41.8478 82.088 42.5926 81.9802 43.4384 82.1897C45.2502 82.6394 47.0652 83.0615 48.8803 83.4989C49.6349 83.6807 50.383 83.8778 51.1409 84.0504C51.4304 84.1181 51.6224 84.266 51.6907 84.5309C51.7557 84.7835 51.6224 84.9807 51.4304 85.1532C50.0415 86.3947 48.4769 87.3836 46.7497 88.1476C44.8858 88.9732 42.9277 89.5061 40.9044 89.8357C39.2293 90.1068 37.5411 90.2239 35.8399 90.2639L35.8431 90.267Z" fill="white" fill-opacity="0.7"/>
<path d="M27.2529 66.8208C27.2278 66.2029 27.1963 65.5817 27.1743 64.9638C27.1585 64.4931 27.3411 64.3296 27.7785 64.4211C28.6061 64.5911 29.4306 64.7808 30.2614 64.9344C30.746 65.0227 31.2464 65.0358 31.6995 64.8102C31.9355 64.6925 32.1715 64.5094 32.3226 64.2936C32.609 63.885 32.4422 63.3979 31.9764 63.2409C31.6712 63.1363 31.347 63.1004 31.0324 63.0317C30.2551 62.8617 29.4778 62.6884 28.7005 62.5217C28.4991 62.4792 28.3103 62.4203 28.2631 62.1719C28.2159 61.9299 28.3512 61.7926 28.518 61.6619C29.9184 60.5797 31.4194 59.6807 33.0055 58.9288C34.7268 58.1114 36.5174 57.5001 38.3678 57.098C39.8626 56.771 41.3762 56.6141 42.9087 56.6501C42.9843 56.6501 43.0566 56.6566 43.1322 56.6566C43.2958 56.6631 43.4532 56.6828 43.5129 56.8756C43.5727 57.0685 43.4626 57.183 43.3304 57.2843C42.9685 57.5687 42.6066 57.8564 42.2416 58.1441C37.5716 61.809 32.9016 65.4771 28.2316 69.142C28.1592 69.1976 28.0869 69.2564 28.005 69.3022C27.7313 69.4558 27.4418 69.3251 27.3631 69.0112C27.3411 68.9295 27.3348 68.8412 27.3316 68.7562C27.3033 68.1122 27.2813 67.4681 27.2529 66.8208Z" fill="white" fill-opacity="0.7"/>
<path d="M27.1702 88.5369C27.146 88.6944 27.149 88.8642 27.0945 89.0093C26.9915 89.2872 26.6824 89.423 26.3764 89.3273C23.9463 88.5585 21.9162 87.2309 20.5315 84.9955C19.7831 83.7852 19.2983 82.4668 19.1165 81.0465C19.0347 80.4043 19.0105 79.7528 18.9953 79.1045C18.9862 78.6506 19.2923 78.3943 19.7316 78.4653C21.795 78.7926 23.8554 79.123 25.9188 79.4595C26.4218 79.5429 26.6824 79.8578 26.7066 80.3765C26.7612 81.5374 26.7975 82.6984 26.8612 83.8593C26.943 85.4185 27.0399 86.9746 27.1308 88.5307C27.146 88.5307 27.1581 88.5307 27.1733 88.5307L27.1702 88.5369Z" fill="white" fill-opacity="0.7"/>
<path d="M57.4452 66.6405C56.2507 66.5496 55.1183 66.4618 53.9858 66.3741C52.8627 66.2863 51.7395 66.1953 50.6133 66.1044C49.9649 66.0524 49.4685 65.6169 49.3381 64.954C49.0806 63.6412 48.8417 62.3218 48.5904 61.0057C48.426 60.1413 48.2678 59.2769 48.094 58.4158C47.9823 57.8471 48.3329 57.4507 48.8635 57.5774C50.3434 57.9251 51.7675 58.432 53.083 59.2379C55.5868 60.775 57.2528 62.9945 58.0347 65.9321C58.1619 66.4098 57.9261 66.6535 57.439 66.6373L57.4452 66.6405Z" fill="white" fill-opacity="0.7"/>
<path d="M54.1397 73.8552C54.3606 73.7644 54.5543 73.7129 54.7207 73.616C55.6588 73.0619 56.5907 72.4958 57.5288 71.9387C57.6619 71.86 57.792 71.7268 57.9615 71.86C58.1309 71.9932 58.0583 72.1627 58.016 72.3202C57.4894 74.2609 56.6634 76.0775 55.7132 77.8366C55.1504 78.8781 54.5392 79.8954 53.9461 80.9248C53.8644 81.0671 53.7736 81.2124 53.5799 81.173C53.3923 81.1367 53.353 80.9793 53.3197 80.8158C52.9475 79.0567 52.5723 77.2976 52.2001 75.5386C51.8824 74.0278 51.5677 72.517 51.25 71.0062C51.1199 70.3825 50.9837 69.7618 50.8536 69.1381C50.8324 69.0442 50.8112 68.9504 50.8021 68.8565C50.7749 68.5962 50.9171 68.4387 51.1804 68.4599C51.9096 68.5235 52.6389 68.5931 53.3681 68.6628C54.518 68.7748 55.6648 68.8929 56.8147 69.0079C56.9569 69.0231 57.1021 69.0291 57.2413 69.0654C57.3381 69.0897 57.4229 69.1623 57.5136 69.2108C57.4592 69.3077 57.4229 69.4318 57.3412 69.4923C56.9296 69.7921 56.506 70.0767 56.0854 70.3613C55.2654 70.9123 54.4363 71.4452 53.6284 72.0114C53.0776 72.3959 53.0353 73.1164 53.5255 73.5312C53.698 73.6766 53.937 73.7462 54.1488 73.8522L54.1397 73.8552Z" fill="white" fill-opacity="0.7"/>
<path d="M47.1645 65.2625C47.1582 65.572 46.9561 65.7603 46.6847 65.7284C45.6619 65.6007 44.6423 65.4635 43.6196 65.3359C42.319 65.17 41.0154 65.0104 39.7148 64.8445C39.617 64.8317 39.5191 64.8094 39.4181 64.7998C39.2224 64.7743 39.0614 64.6977 39.0046 64.4935C38.9415 64.2701 39.0488 64.1106 39.2224 63.9766C39.6233 63.6639 40.0179 63.3416 40.4219 63.0321C41.9118 61.8929 43.4018 60.7538 44.8949 59.6147C44.9548 59.57 45.0148 59.5221 45.0748 59.4807C45.3873 59.2669 45.6903 59.3722 45.785 59.7423C46.0376 60.7315 46.2869 61.7238 46.5363 62.7162C46.7257 63.4724 46.9183 64.2287 47.1077 64.9817C47.1329 65.087 47.1519 65.1955 47.1645 65.2625Z" fill="white" fill-opacity="0.7"/>
<path d="M29.9001 80.1174C29.8908 79.608 30.2589 79.2884 30.7167 79.377C32.65 79.7504 34.5833 80.1269 36.5167 80.5003C36.826 80.5604 37.0766 80.6996 37.1508 81.035C37.225 81.3767 37.0704 81.6204 36.7982 81.8197C35.1092 83.0537 33.4141 84.2783 31.7437 85.5344C31.1931 85.9489 30.6115 85.6388 30.5404 85.0092C30.3734 83.4714 30.1352 81.9431 29.9279 80.4085C29.9124 80.3009 29.9063 80.1934 29.9001 80.1174Z" fill="white" fill-opacity="0.7"/>
<path d="M25.2574 67.4239C25.2876 68.0724 25.3177 68.721 25.3539 69.3695C25.3749 69.7587 25.2333 70.0624 24.9381 70.2965C23.4678 71.4576 22.0005 72.6187 20.5332 73.7829C20.3826 73.9031 20.2199 73.9632 20.0511 73.8493C19.8884 73.7386 19.8854 73.5709 19.9246 73.3843C20.2379 71.9258 20.8194 70.5812 21.5275 69.2936C22.3741 67.7529 23.3985 66.3451 24.5012 65.0005C24.6157 64.8613 24.7483 64.7853 24.92 64.8423C25.0978 64.8992 25.152 65.0543 25.158 65.2314C25.1912 65.9622 25.2273 66.6962 25.2635 67.427H25.2574V67.4239Z" fill="white" fill-opacity="0.7"/>
<path d="M50.7959 80.7459C50.7993 81.0584 50.5913 81.2219 50.2424 81.1702C49.6252 81.0814 49.0114 80.9695 48.3975 80.8692C47.2369 80.6771 46.0796 80.4792 44.919 80.29C44.6942 80.2527 44.5097 80.1867 44.4527 79.9803C44.3957 79.7738 44.5164 79.6362 44.7009 79.5215C46.1702 78.604 47.636 77.6864 49.1053 76.7689C49.5112 76.5166 49.8298 76.6313 49.9305 77.0528C50.2089 78.2284 50.4907 79.4011 50.7691 80.5767C50.7858 80.6426 50.7926 80.7115 50.7993 80.7487L50.7959 80.7459Z" fill="white" fill-opacity="0.7"/>
<path d="M84.2308 161.166C78.5547 160.449 72.8785 159.732 67.2058 159.016C66.4125 158.916 65.8021 158.559 65.5289 157.773C65.4292 157.485 65.4046 157.14 65.4364 156.832C65.517 155.967 65.6332 155.103 65.7561 154.243C65.8682 153.44 65.6533 152.759 65.1238 152.159C62.168 148.79 60.0309 144.95 58.7319 140.629C57.9478 138.017 57.5152 135.344 57.4306 132.61C57.349 130.05 57.5931 127.521 58.1237 125.021C58.7313 122.138 59.7462 119.405 61.1473 116.818C63.7027 112.097 67.238 108.295 71.7119 105.399C74.8166 103.391 78.1779 101.989 81.7872 101.232C82.924 100.994 84.0908 100.887 85.2233 100.627C86.8604 100.256 87.9528 99.2069 88.5575 97.6237C88.9 96.7265 89.0887 95.7989 89.17 94.8433C89.2933 93.3846 88.2671 92.2927 87.0413 92.1851C86.3185 92.1229 85.6011 92.0178 84.8837 91.9127C83.2338 91.6753 82.1482 90.231 82.3862 88.6016C82.5905 87.1821 83.9229 86.0758 85.3383 86.1564C85.4912 86.1649 85.6437 86.1768 85.7953 86.196C91.0132 86.8548 96.2346 87.5141 101.452 88.1729C102.528 88.3087 103.34 88.8252 103.805 89.8208C104.682 91.6999 103.369 93.8763 101.304 93.9134C100.493 93.9272 99.6797 93.7591 98.8688 93.6858C98.5572 93.6573 98.2293 93.6159 97.9254 93.6683C96.9771 93.8318 96.3062 94.379 96.0539 95.3276C95.667 96.7748 95.6319 98.2446 96.0924 99.6754C96.5848 101.194 97.6931 102.089 99.1384 102.671C106.817 105.772 112.381 111.148 115.849 118.743C117.232 121.775 118.049 124.98 118.384 128.308C118.726 131.703 118.532 135.078 117.748 138.396C115.934 146.068 111.864 152.236 105.502 156.807C104.442 157.566 103.798 158.415 103.76 159.739C103.744 160.347 103.617 160.952 103.541 161.559C103.38 162.803 102.525 163.479 101.291 163.323C98.6461 162.993 95.9988 162.655 93.3546 162.321C90.3156 161.938 87.273 161.553 84.2339 161.17L84.2308 161.166ZM84.8177 149.823C86.4594 150.012 88.0828 149.948 89.7048 149.612C92.8606 148.958 95.5724 147.452 97.8091 145.112C101.49 141.267 103.145 136.664 102.601 131.327C102.275 128.123 101.097 125.229 99.2141 122.638C98.8294 122.11 98.3349 121.913 97.779 122.061C97.2306 122.206 96.8995 122.643 96.7914 123.273C96.6731 123.955 96.5542 124.641 96.3596 125.302C95.8761 126.948 94.0016 127.666 92.5733 126.752C91.5427 126.092 91.092 125.095 91.0783 123.869C91.0724 123.179 91.0709 122.481 90.9852 121.799C90.821 120.518 90.3523 119.322 89.8487 118.147C88.8775 115.882 87.5679 113.858 85.6654 112.274C85.2405 111.922 84.8268 111.54 84.266 111.415C83.1165 111.157 82.0648 111.997 81.9911 113.233C81.9094 114.647 81.6523 116.03 81.2106 117.373C80.5568 119.345 79.5833 121.154 78.2187 122.714C76.8709 124.254 75.6098 125.845 74.6289 127.657C73.7229 129.329 73.0155 131.074 72.712 132.967C72.2634 135.754 72.5297 138.467 73.6362 141.051C75.7713 146.041 79.5264 148.952 84.8177 149.823Z" fill="white"/>
<path d="M94.7897 81.7347C93.4539 81.566 92.1182 81.3973 90.7824 81.2287C89.7693 81.1008 89.1628 80.4887 88.9782 79.3825C88.7575 78.0591 88.5478 76.7332 88.3455 75.4042C88.2228 74.6169 88.7385 73.8827 89.4569 73.8041C89.607 73.7876 89.7582 73.7909 89.9074 73.8098C93.7655 74.2969 97.6236 74.784 101.482 75.2712C101.69 75.2975 101.902 75.3479 102.087 75.446C102.67 75.7441 102.904 76.5376 102.615 77.2138C102.088 78.4507 101.559 79.6833 101.013 80.9099C100.565 81.9165 99.818 82.3617 98.8287 82.2407C97.4825 82.0707 96.1363 81.9008 94.7902 81.7308L94.7897 81.7347Z" fill="white"/>
<path d="M81.5058 137.4C81.6738 135.855 82.2794 134.506 83.1328 133.254C84.0486 131.909 84.782 130.457 85.3706 128.922C85.5521 128.447 85.8709 128.141 86.3588 128.073C86.8258 128.009 87.1965 128.2 87.4493 128.604C88.5224 130.316 89.5922 132.028 90.6506 133.749C91.7557 135.555 92.0796 137.533 91.6223 139.658C91.1715 141.759 89.5151 143.357 87.5071 143.623C85.6228 143.872 83.9807 143.326 82.6413 141.905C81.6742 140.877 81.3745 139.562 81.4196 138.136C81.4268 137.891 81.4815 137.645 81.5124 137.4L81.5058 137.4Z" fill="white"/>
</g>
<defs>
<clipPath id="clip0_17184_12406">
<rect width="170" height="170" fill="white"/>
</clipPath>
</defs>
</svg>
