<svg width="170" height="170" viewBox="0 0 170 170" fill="none" xmlns="http://www.w3.org/2000/svg">
<g clip-path="url(#clip0_17184_12424)">
<path opacity="0.5" d="M98.2494 139.349C97.2298 138.887 96.3248 138.518 95.4561 138.077C90.5837 135.609 85.7317 133.101 80.8514 130.651C76.7909 128.612 72.6179 126.85 68.1702 125.824C64.2039 124.909 60.2069 124.662 56.1737 125.33C55.6809 125.412 55.1188 125.418 54.9053 124.964C54.7429 124.619 54.785 124.048 54.9678 123.697C55.2744 123.11 55.6865 122.527 56.1907 122.105C58.674 120.032 61.389 118.334 64.4832 117.301C67.9056 116.158 71.3859 116.083 74.8242 117.051C77.6902 117.859 80.4994 118.887 83.2984 119.911C86.371 121.036 89.4425 122.15 92.6855 122.679C95.5651 123.149 98.4447 123.142 101.324 122.62C103.492 122.227 105.557 121.527 107.616 120.759C110.549 119.663 113.439 119.918 116.25 121.273C119.186 122.687 121.769 124.625 124.325 126.612C128.028 129.489 131.686 132.428 135.474 135.19C138.729 137.563 142.311 139.361 146.254 140.35C149.288 141.111 152.344 141.23 155.423 140.669C155.977 140.568 156.49 140.559 156.852 141.069C157.2 141.559 157.031 142.029 156.766 142.5C154.903 145.809 152.147 148.209 148.959 150.167C145.399 152.355 141.519 153.849 137.653 155.384C134.162 156.771 130.7 158.233 127.234 159.686C126.418 160.027 125.656 160.5 124.84 160.847C123.87 161.262 122.979 161.022 122.227 160.312C121.718 159.833 121.258 159.302 120.755 158.816C118.914 157.038 117.009 155.339 114.704 154.169C114.455 154.043 114.133 154.06 113.844 154.012C114.001 154.259 114.108 154.567 114.321 154.743C116.819 156.803 118.624 159.396 120.128 162.222C120.193 162.344 120.196 162.637 120.145 162.658C119.827 162.795 119.464 162.999 119.16 162.942C118.879 162.89 118.599 162.578 118.414 162.314C116.347 159.374 113.851 156.867 110.906 154.812C108.798 153.342 106.553 152.089 104.031 151.555C100.057 150.715 96.0102 150.509 91.9531 150.552C87.4622 150.601 82.9963 151.009 78.5622 151.686C74.3223 152.333 70.1005 153.095 65.8765 153.845C61.523 154.617 57.1706 155.399 52.8308 156.245C50.5927 156.682 48.8145 155.918 47.2816 154.396C45.7532 152.877 44.3361 151.241 42.7567 149.778C37.321 144.746 31.0145 141.244 23.8893 139.205C20.7326 138.301 17.5237 137.726 14.2478 137.518C13.7141 137.484 13.2838 137.271 13.0975 136.749C12.9056 136.21 12.9908 135.709 13.4075 135.282C15.1051 133.54 17.1104 132.302 19.4393 131.599C22.6152 130.641 25.8389 130.688 29.0421 131.347C36.9225 132.966 43.9239 136.515 50.3645 141.252C51.0197 141.733 51.7168 142.183 52.2801 142.758C53.5518 144.056 55.0859 144.151 56.7437 143.956C60.308 143.534 63.5578 142.152 66.7917 140.718C69.8484 139.364 72.862 137.903 76.0812 136.954C78.5758 136.219 81.1194 135.822 83.6935 136.373C85.0334 136.66 86.3211 137.194 87.6246 137.641C89.9104 138.427 92.1836 139.252 94.4762 140.018C95.4822 140.354 96.5223 140.429 97.5102 139.9C97.7453 139.774 97.944 139.582 98.2517 139.351L98.2494 139.349Z" fill="white"/>
<path opacity="0.5" d="M25.3238 110.427C29.5376 110.561 33.0395 112.282 36.0588 115.108C39.0758 117.931 41.1151 121.409 42.614 125.205C43.3475 127.061 43.8607 129.005 44.4682 130.912C44.5193 131.071 44.5364 131.245 44.542 131.413C44.5682 132.144 44.1878 132.385 43.5439 132.047C42.4913 131.492 41.4717 130.859 40.3839 130.387C38.7056 129.658 36.9955 128.994 35.2696 128.385C34.0501 127.955 33.2087 127.263 32.7295 126.015C30.8423 121.1 27.7799 116.947 24.2155 113.132C24.0089 112.911 23.7931 112.696 23.6058 112.46C23.0278 111.732 23.2651 110.913 24.1588 110.631C24.5312 110.512 24.9343 110.492 25.3227 110.427H25.3238Z" fill="white"/>
<path d="M77.7446 94.3339C77.6561 94.6405 77.5493 95.2411 77.3132 95.785C76.9873 96.5333 76.1867 96.623 75.7655 95.9224C75.4475 95.3944 75.217 94.7404 75.1886 94.1318C75.1569 93.4414 75.2931 92.6999 75.5384 92.0504C75.8245 91.293 76.5194 91.251 77.0599 91.8653C77.6061 92.4876 77.697 93.2552 77.7446 94.335V94.3339Z" fill="white"/>
<path d="M88.9444 70.0745C89.2609 65.111 89.2632 61.0637 89.1368 57.0187C89.0491 54.2149 88.8048 51.4166 88.1143 48.685C87.9196 47.9155 87.5883 47.18 87.2974 46.4368C87.2245 46.2506 87.0833 46.0822 86.9436 45.9325C86.541 45.5004 86.0429 45.4275 85.6581 45.8681C85.2066 46.3856 84.7993 46.9713 84.5061 47.5912C83.631 49.443 83.1151 51.4205 82.6279 53.4019C82.354 54.5175 82.1065 55.6393 81.8544 56.7603C81.7279 57.3228 81.6915 57.886 81.9211 58.4368C82.2407 59.2025 82.939 59.4384 83.617 58.9597C83.9258 58.7417 84.1647 58.4205 84.4246 58.1358C84.6155 57.9263 84.766 57.6773 84.9715 57.4865C85.3059 57.1754 85.5961 57.2211 85.7551 57.6447C85.9219 58.0869 86.0802 58.5594 86.1011 59.0249C86.1469 60.0528 86.1601 61.0885 86.0864 62.1141C85.9397 64.1498 85.6884 66.1785 85.5472 68.2142C85.2842 72.0078 85.1818 75.8108 85.3168 79.6106C85.4277 82.7223 85.6232 85.8333 85.8753 88.9365C86.1127 91.8589 86.5084 94.7689 86.7613 97.6906C86.8497 98.7107 86.7442 99.7511 86.676 100.779C86.6504 101.169 86.5262 101.594 86.0274 101.679C85.693 101.736 85.347 101.466 85.1973 100.895C84.8567 99.599 84.4805 98.3011 84.2912 96.9792C83.9203 94.3973 83.6527 91.7999 83.3695 89.2057C83.1476 87.1762 83.0026 85.1382 82.7597 83.1118C82.4525 80.5478 82.1073 77.9869 81.7303 75.4322C81.4261 73.3732 80.9878 71.3368 80.1973 69.4035C79.8971 68.6696 79.4766 67.9783 79.0522 67.3049C78.8668 67.0109 78.5642 66.7642 78.2663 66.571C77.1213 65.8286 75.9839 66.2731 75.6767 67.5966C75.5642 68.0807 75.5417 68.5951 75.5472 69.0947C75.565 70.7107 75.6077 72.3259 75.6558 73.9411C75.6697 74.4019 75.4797 74.7192 75.0724 74.8938C74.6496 75.0753 74.2896 74.9171 73.9839 74.6106C73.309 73.9341 72.9482 73.073 72.6084 72.2072C71.6961 69.8775 71.1003 67.4585 70.7015 64.9946C70.2081 61.9473 68.9444 59.2941 66.8621 57.014C65.9335 55.9977 65.9273 55.142 66.7403 54.0241C67.6984 52.7075 68.6402 51.3794 69.6178 50.0776C69.949 49.6369 70.3237 49.2064 70.7574 48.8728C71.1096 48.602 71.5634 48.3771 71.9979 48.3158C75.1996 47.8627 78.188 46.8937 80.7341 44.8224C83.0282 42.9566 84.3819 40.5632 84.6527 37.602C85.06 33.1513 84.1065 29.0419 81.4316 25.4135C79.894 23.3281 77.8777 21.8914 75.3043 21.3514C73.8691 21.0496 72.4176 20.8883 70.9669 21.2893C70.3493 21.46 69.7892 21.7362 69.3167 22.1846C67.1895 24.2048 65.6914 26.6447 64.5588 29.3243C63.5239 31.7735 62.8706 34.3142 62.8699 36.9907C62.8699 38.5167 63.2089 39.9674 63.994 41.287C64.2081 41.647 64.4921 41.9822 64.8016 42.2653C65.271 42.6943 65.828 42.7711 66.4207 42.495C67.5999 41.9465 68.558 41.1001 69.489 40.2188C70.2306 39.5175 70.9568 38.7998 71.6992 38.0985C71.9141 37.896 72.1484 37.7075 72.3974 37.55C72.496 37.488 72.6581 37.526 72.7915 37.5182C72.7962 37.64 72.8435 37.782 72.7977 37.8813C72.6247 38.2552 72.4564 38.6393 72.2237 38.9767C70.8893 40.9123 69.565 42.8557 68.1825 44.7564C67.0181 46.3577 65.7295 47.8604 64.2182 49.1536C63.4789 49.7867 62.6852 50.3313 61.7395 50.6315C61.2368 50.7906 60.8241 50.6594 60.4416 50.3538C60.281 50.2258 60.1267 50.0799 60.0041 49.9155C58.3803 47.7401 56.7868 45.5501 55.776 42.9946C54.2717 39.1908 53.7046 35.2529 53.987 31.1815C54.4028 25.1854 56.3509 19.73 59.8101 14.8239C62.9699 10.3413 67.098 7.08994 72.2415 5.12795C74.7667 4.16519 77.3563 3.49102 80.0344 3.17915C82.2725 2.91848 84.5192 2.9115 86.7691 3.12252C90.1663 3.44214 93.4285 4.27302 96.5627 5.61049C100.239 7.17916 103.515 9.35294 106.373 12.152C106.714 12.4864 107.085 12.792 107.415 13.1357C107.647 13.3754 107.861 13.6408 108.033 13.9255C108.335 14.4243 108.357 14.9674 108.083 15.4794C107.896 15.8285 107.667 16.1699 107.395 16.4561C104.221 19.7967 101.384 23.4189 98.5348 27.0318C98.0391 27.661 97.5457 28.2925 97.0577 28.9278C96.8746 29.1668 96.6628 29.3188 96.3626 29.1807C96.0383 29.0318 96.0608 28.716 96.1601 28.474C96.3796 27.9387 96.6512 27.4243 96.918 26.9108C97.2516 26.27 97.6131 25.6439 97.9429 25.0008C98.5007 23.9139 97.5976 22.6594 96.6147 22.4445C95.4541 22.1908 94.392 22.4243 93.4502 23.0969C91.5239 24.4724 90.3757 26.4143 89.6186 28.6074C88.7931 30.9992 88.5076 33.4608 88.7877 35.9798C89.2586 40.2157 91.3719 43.3545 95.2757 45.0729C98.572 46.5245 101.692 45.8355 104.451 43.6082C106.59 41.8813 107.792 39.5795 108.258 36.8805C108.512 35.415 108.559 33.9511 108.248 32.4895C108.067 31.6408 107.64 30.9022 107.156 30.1955C106.726 29.5663 106.277 28.9496 105.85 28.3188C104.903 26.9208 104.876 25.4608 105.528 23.9333C106.133 22.5151 107.103 21.3623 108.121 20.2412C109.436 18.7936 110.813 17.415 112.501 16.3886C113.718 15.6485 115.04 15.2707 116.452 15.1334C117.607 15.0209 118.756 14.844 119.906 14.6873C120.03 14.6702 120.162 14.6198 120.261 14.5469C121.623 13.5515 122.595 12.2924 122.913 10.5942C122.975 10.2645 123.046 9.93556 123.131 9.61128C123.213 9.30251 123.266 8.94564 123.711 8.96659C124.027 8.98211 124.257 9.31182 124.21 9.76256C124.093 10.8665 123.986 11.9744 123.792 13.0659C123.641 13.9177 123.318 14.7277 122.827 15.4577C122.072 16.5787 120.925 17.0341 119.681 17.3374C118.603 17.6004 117.514 17.8332 116.536 18.3941C114.612 19.4965 113.762 21.2443 113.586 23.3739C113.467 24.8029 113.858 26.1676 114.214 27.5306C114.643 29.1699 115.031 30.8153 115.042 32.5237C115.058 35.0574 114.358 37.4166 113.294 39.6881C112.034 42.3786 110.312 44.7533 108.404 47.014C106.762 48.9581 105.134 50.9178 103.591 52.9395C101.911 55.1381 100.957 57.6765 100.314 60.36C99.3688 64.3127 98.3393 68.246 97.3416 72.1863C97.1834 72.8108 97.0259 73.4376 96.828 74.0497C96.6721 74.5315 96.3758 74.9186 95.8645 75.0908C95.4712 75.2227 95.2648 75.1614 95.1283 74.772C95.001 74.4105 94.894 74.0249 94.8777 73.6455C94.8218 72.329 94.8156 71.0109 94.7776 69.6936C94.7427 68.4942 94.7024 67.2941 94.638 66.0955C94.624 65.8325 94.5169 65.5672 94.4184 65.3166C94.1748 64.6998 93.6279 64.5571 93.1725 65.0435C92.8924 65.3422 92.6496 65.7332 92.5394 66.125C91.8668 68.526 91.6007 70.9923 91.489 73.4741C91.3773 75.9667 91.3664 78.464 91.2159 80.9535C91.1135 82.6393 90.866 84.3182 90.6364 85.9931C90.5883 86.3414 90.3726 86.6921 90.1585 86.9861C89.9351 87.2933 89.5619 87.2546 89.4068 86.9093C89.2407 86.5393 89.1213 86.132 89.0701 85.7301C88.7279 83.0187 88.6224 80.2933 88.6923 77.5641C88.7636 74.7603 88.8792 71.9574 88.9436 70.0753L88.9444 70.0745Z" fill="white"/>
<path d="M31 69.875C31.0791 66.304 31.5229 62.8059 32.6005 59.4009C33.6633 56.041 35.2646 52.9905 37.8092 50.4963C39.1932 49.1395 40.6152 47.8206 41.9721 46.4374C43.1451 45.2419 44.0505 43.861 44.4104 42.1907C44.5136 41.7143 44.5183 41.217 44.5795 40.7306C44.6137 40.4591 44.7269 40.2302 45.0249 40.162C45.3778 40.0813 45.5997 40.2457 45.7037 40.6655C46.0101 41.9013 45.948 43.124 45.5617 44.3334C45.0442 45.9517 44.1249 47.3606 43.232 48.7818C42.2964 50.2714 41.3701 51.7679 40.9038 53.4855C39.9504 56.9998 40.3227 60.2466 42.903 63.0224C43.3476 63.501 43.6424 64.0596 43.7463 64.6934C43.8612 65.3932 43.938 66.1023 43.9791 66.8106C44.1195 69.259 44.6339 71.6213 45.6447 73.8571C46.8371 76.4933 48.5415 78.7105 51.0784 80.1985C52.4073 80.9774 53.8348 81.4467 55.3957 81.3436C57.5144 81.2031 59.0187 80.1294 59.8503 78.1931C60.0769 77.6655 60.1273 77.0332 60.1405 76.4467C60.2336 72.5088 59.3166 68.8199 57.3251 65.4103C56.2002 63.4847 54.4492 62.5336 52.2987 62.2598C51.0055 62.0953 49.7021 62.0053 48.4034 61.8819C46.609 61.7113 45.2956 60.7811 44.3414 59.2962C42.8573 56.9859 42.9232 53.8594 44.4927 51.6593C45.8061 49.8175 47.4779 49.2023 49.6408 49.8866C53.3569 51.0635 56.4717 53.1426 58.8992 56.2233C60.8542 58.7043 62.2793 61.4816 63.3926 64.4126C64.5423 67.4397 65.5679 70.5135 66.6719 73.5585C67.855 76.8238 69.0443 80.0899 70.7867 83.1132C71.2173 83.8602 71.7301 84.5623 72.2382 85.2613C72.4322 85.5282 72.696 85.7571 72.9644 85.9526C73.5881 86.4064 74.1157 86.2792 74.433 85.5678C74.6254 85.1372 74.7123 84.6593 74.8488 84.2032C74.8891 84.0674 74.8992 83.899 74.9869 83.8059C75.1242 83.6609 75.3213 83.4708 75.4842 83.4786C75.6486 83.4863 75.8946 83.6849 75.9442 83.8486C76.1141 84.4149 76.2794 84.9976 76.329 85.5841C76.4772 87.3475 76.5881 89.1147 76.6789 90.882C76.9054 95.304 77.6254 99.6314 79.0916 103.822C79.5687 105.186 80.0598 106.548 80.4532 107.936C80.613 108.5 80.5866 109.137 80.5393 109.732C80.4865 110.393 79.8348 110.678 79.2352 110.362C78.8752 110.173 78.6587 109.873 78.5245 109.484C77.5742 106.728 76.6905 103.945 75.6362 101.229C73.7161 96.2839 71.4562 91.4949 68.4322 87.1132C67.4888 85.747 66.3732 84.4972 65.305 83.2202C65.0117 82.8703 64.6261 82.5825 64.2429 82.328C63.8596 82.0736 63.5959 82.1977 63.5959 82.6539C63.5974 83.6058 63.5679 84.5763 63.7332 85.5073C64.412 89.3211 66.1413 92.7199 68.1343 95.979C69.5144 98.2358 71.0505 100.398 72.5261 102.596C72.8837 103.128 73.0885 103.699 73.0846 104.337C73.0808 105.077 72.5509 105.412 71.9574 104.971C71.4081 104.564 70.8922 104.057 70.509 103.493C69.6161 102.181 68.8317 100.796 67.9667 99.4631C66.924 97.8556 65.7898 96.3141 64.3833 94.9999C63.9605 94.605 63.4927 94.2528 63.0171 93.9223C62.5485 93.5973 62.1125 93.6376 61.7363 93.9681C61.36 94.2978 61.2452 94.7912 61.509 95.2683C61.8271 95.8432 62.1894 96.3956 62.5555 96.9425C62.9939 97.5973 63.4694 98.2272 63.9008 98.8867C64.0039 99.0449 63.997 99.2753 64.0404 99.4724C63.8371 99.5019 63.6269 99.581 63.4314 99.5531C62.6153 99.4375 61.9807 98.9929 61.4167 98.4103C60.8868 97.8634 60.3639 97.2994 59.7712 96.8254C58.4469 95.7656 56.9411 95.6601 55.3701 96.1551C53.4066 96.7742 51.4042 97.1116 49.3429 97.0387C45.4391 96.9014 42.1466 95.349 39.3584 92.6702C36.6687 90.086 34.8712 86.927 33.5376 83.4809C32.5221 80.8556 31.8402 78.138 31.4763 75.3536C31.2389 73.5375 31.1552 71.702 31.0023 69.875H31ZM47.9457 93.4887C50.0342 93.3987 51.4477 92.6198 52.2305 90.9053C52.7262 89.8184 52.6936 88.6717 52.4004 87.5267C51.4205 83.6981 48.3228 80.9239 44.0117 81.3412C42.3538 81.5018 40.8068 82.4661 40.3266 84.2939C39.9092 85.882 40.2723 87.349 41.1257 88.6989C42.4337 90.7679 44.3662 92.1101 46.5299 93.138C47.0272 93.3746 47.6191 93.4119 47.9465 93.4887H47.9457Z" fill="white" fill-opacity="0.5"/>
<path d="M91.2203 106.076C91.2133 102.707 91.5485 99.3675 92.2087 96.0649C92.993 92.141 94.3444 88.3954 95.7137 84.6429C97.4143 79.985 100.126 76.0277 103.462 72.4295C105.491 70.241 107.508 68.0377 109.45 65.7716C111.582 63.2837 113.317 60.5389 114.364 57.4016C114.898 55.8011 115.181 54.1525 115.359 52.4768C115.573 50.4745 115.83 48.4784 116.471 46.5505C117.245 44.22 118.762 42.5939 120.965 41.5389C122.5 40.8042 124.109 40.3558 125.784 40.1703C127.915 39.9345 130.055 39.7887 132.19 39.5823C134.033 39.4039 135.873 39.1587 137.539 38.2859C138.206 37.9361 138.798 37.4403 139.414 36.9958C139.701 36.7887 139.936 36.4395 140.355 36.6901C140.652 36.8686 140.663 37.1626 140.457 37.7041C139.721 39.6382 138.59 41.2658 136.826 42.4039C135.498 43.2603 134.028 43.7196 132.462 43.6878C129.325 43.6242 126.813 44.9081 124.69 47.1029C122.923 48.9291 121.646 51.0796 120.655 53.3977C120.092 54.7127 119.603 56.0618 119.151 57.4186C118.692 58.7949 117.941 59.9811 117.012 61.0711C116.064 62.1813 115.084 63.265 114.168 64.4008C113.422 65.3248 112.915 66.383 112.687 67.5637C112.397 69.0595 113.348 70.3263 114.875 70.4109C116.758 70.5149 118.481 69.9625 120.066 68.9935C122.656 67.4086 124.41 65.1704 125.174 62.2053C125.639 60.4016 125.593 58.6483 124.579 57.0075C123.758 55.6793 123.864 54.3806 124.658 53.0672C125.926 50.9694 127.708 49.4489 129.841 48.2984C132.131 47.0633 134.599 46.3139 137.094 45.6374C137.791 45.4481 138.488 45.2557 139.183 45.0594C140.331 44.7351 141.324 45.0967 142.232 45.7716C143.095 46.4124 143.727 47.2642 144.325 48.144C145.314 49.5986 145.868 51.2317 146.264 52.9244C146.919 55.7243 146.919 58.5474 146.371 61.3527C145.363 66.5032 143.008 70.9198 139.036 74.4171C137.438 75.8244 135.603 76.8632 133.662 77.691C131.087 78.7887 128.509 79.8981 125.867 80.8128C121.626 82.2806 118.154 84.8066 115.257 88.1572C113.458 90.2379 111.772 92.4164 110.016 94.5343C109.817 94.774 109.512 94.9943 109.217 95.0719C108.725 95.2015 108.335 94.8919 108.384 94.3861C108.447 93.7407 108.57 93.0812 108.792 92.4738C109.504 90.5211 110.784 88.9253 112.142 87.3931C113.342 86.0401 114.578 84.7181 115.768 83.3551C116.268 82.7833 116.723 82.1603 116.888 81.3884C117.044 80.6576 116.575 80.2193 115.857 80.4451C115.579 80.5327 115.322 80.6987 115.067 80.8477C109.742 83.947 105.807 88.3054 103.242 93.9044C102.292 95.9765 101.634 98.1495 101.014 100.336C100.913 100.691 100.773 101.047 100.584 101.364C100.403 101.668 100.075 101.756 99.73 101.642C99.3925 101.53 99.249 101.277 99.2591 100.925C99.3538 97.5203 99.9286 94.2224 101.404 91.12C102.177 89.4963 103.261 88.0828 104.372 86.6856C105.465 85.3101 106.59 83.9548 107.379 82.369C107.59 81.9423 107.784 81.5025 107.94 81.0525C108.089 80.6258 108.127 80.1766 107.759 79.8229C107.388 79.4676 106.922 79.4683 106.487 79.6382C106.12 79.7818 105.77 79.9974 105.454 80.2356C101.299 83.3621 98.4088 87.4202 96.6206 92.2822C95.5438 95.2116 94.8316 98.238 94.2669 101.3C93.8216 103.712 93.4143 106.132 92.9759 108.545C92.924 108.831 92.8115 109.118 92.6734 109.375C92.4709 109.753 92.1086 109.92 91.7719 109.821C91.3809 109.707 91.2265 109.402 91.2234 109.022C91.2157 108.04 91.2211 107.058 91.2211 106.076H91.2203ZM140.048 63.0214C140.066 62.0532 139.924 61.1153 139.548 60.2185C138.953 58.7996 137.891 58.1432 136.369 58.2899C135.333 58.3899 134.439 58.8733 133.635 59.49C130.891 61.594 128.777 64.1782 127.635 67.4924C127.145 68.9159 126.727 70.3535 126.763 71.8741C126.815 74.0827 128.051 75.2782 130.245 75.2239C132.295 75.1735 134.107 74.4637 135.656 73.1169C136.85 72.0796 137.634 70.736 138.349 69.3574C139.379 67.3737 140.026 65.2782 140.048 63.0207V63.0214ZM117.67 77.1471C118.214 77.0083 118.78 76.9447 119.274 76.7236C121.251 75.836 122.431 74.189 123.251 72.2736C123.652 71.338 123.137 70.7903 122.127 70.94C121.988 70.9609 121.849 70.9959 121.718 71.0471C119.704 71.8415 118.05 73.1355 116.656 74.7686C116.405 75.0626 116.239 75.4489 116.106 75.8182C115.957 76.2294 116.113 76.6134 116.51 76.7957C116.865 76.9586 117.261 77.0277 117.672 77.1479L117.67 77.1471Z" fill="white" fill-opacity="0.5"/>
<path d="M108.469 55.5977C109.115 55.645 109.407 55.9685 109.329 56.6023C109.226 57.4301 108.835 58.1485 108.428 58.8529C107.81 59.9212 107.059 60.8878 106.156 61.7342C105.787 62.081 105.364 62.3029 104.855 62.1027C104.391 61.9212 104.233 61.5007 104.194 61.043C104.037 59.1694 105.706 56.5069 107.461 55.8459C107.782 55.7249 108.132 55.6783 108.469 55.5977Z" fill="white"/>
<path d="M77.4181 32.6498C77.4127 33.5358 76.4716 34.784 75.6275 35.0268C75.2854 35.1254 74.9495 35.1083 74.6865 34.8554C74.4189 34.5978 74.4708 34.2759 74.5833 33.9547C74.8634 33.1556 75.377 32.5497 76.0915 32.1091C76.221 32.0292 76.3677 31.9648 76.5151 31.9283C77.0713 31.7918 77.422 32.0765 77.4181 32.6498Z" fill="white"/>
<path d="M144.959 30.1024C144.828 31.0024 144.402 31.8325 143.558 32.398C143.231 32.6168 142.831 32.6571 142.499 32.4034C142.198 32.1723 142.216 31.8247 142.297 31.4779C142.475 30.7107 142.862 30.0714 143.454 29.5563C143.57 29.4562 143.702 29.3678 143.838 29.3003C144.457 28.9938 144.965 29.3181 144.958 30.1032L144.959 30.1024Z" fill="white"/>
<path d="M125.443 2.78683C125.281 3.24377 125.185 3.71856 124.953 4.11654C124.663 4.61848 124.085 4.63866 123.656 4.243C122.995 3.63322 122.981 1.73252 123.834 1.19334C124.317 0.888455 124.75 0.925693 124.999 1.43772C125.197 1.84424 125.288 2.30351 125.441 2.78605L125.443 2.78683Z" fill="white"/>
<path d="M44.3673 34.5264C44.3471 34.7956 44.3464 35.1416 43.9771 35.2487C43.621 35.3527 43.313 35.2107 43.0973 34.9089C42.7855 34.4729 42.6334 33.9857 42.7024 33.4489C42.7568 33.0284 43.019 32.8732 43.4208 32.9958C44.0058 33.1742 44.3658 33.739 44.3681 34.5264H44.3673Z" fill="white"/>
</g>
<defs>
<clipPath id="clip0_17184_12424">
<rect width="170" height="170" fill="white"/>
</clipPath>
</defs>
</svg>
