<svg width="170" height="170" viewBox="0 0 170 170" fill="none" xmlns="http://www.w3.org/2000/svg">
<path d="M77.1528 76.3969C77.1528 78.0006 77.1491 79.6034 77.1564 81.2071C77.1573 81.4811 77.2087 81.7542 77.2233 82.0282C77.2417 82.3627 77.3076 82.7119 77.2371 83.029C77.183 83.2727 76.9512 83.4771 76.7981 83.6989C76.6167 83.5394 76.3353 83.412 76.2721 83.2141C75.9504 82.2152 75.6141 81.2126 75.4134 80.1853C74.5447 75.7297 74.135 71.2155 73.7162 66.7003C73.3607 62.8707 72.9125 59.0492 72.5414 55.2214C72.3434 53.1842 72.2151 51.1379 72.5093 49.097C72.9171 46.2598 74.3119 44.0806 77.0254 43.0102C80.4253 41.6686 82.4249 38.2586 82.2022 34.4528C82.0803 32.367 81.5002 30.3976 80.6122 28.5217C79.5217 26.217 77.0584 25.0321 74.4805 25.4463C67.0393 26.6413 63.0602 32.0774 61.8194 37.6849C61.2952 40.052 61.4702 42.3925 62.9246 44.4435C63.4533 45.1894 64.1553 45.8419 64.8719 46.4202C66.9907 48.1302 68.2773 50.3305 68.7346 52.9771C69.0306 54.6862 69.1259 56.4301 69.3055 58.1594C69.4045 59.1143 69.5933 60.0738 69.3046 61.0232C69.191 61.398 69.0544 61.782 68.8437 62.1064C68.5303 62.5884 68.0381 62.6736 67.5744 62.3373C67.2592 62.1082 66.9467 61.8315 66.7359 61.5089C65.8855 60.2057 64.6951 59.3425 63.2975 58.7276C62.7688 58.4948 62.2464 58.2345 61.6975 58.0586C60.9928 57.8322 60.5584 58.252 60.7811 58.9594C60.925 59.4158 61.1706 59.8548 61.4427 60.2525C62.5186 61.8278 63.9436 63.0869 65.2907 64.4157C66.4014 65.5118 67.4709 66.6435 68.2517 68.0099C68.6943 68.7852 69.0425 69.5962 69.0407 70.5108C69.0407 70.6666 68.9646 70.8214 68.9243 70.9772C68.763 70.9149 68.5687 70.8911 68.4478 70.7839C68.1408 70.5108 67.8182 70.234 67.5891 69.8995C65.7095 67.1576 63.2233 65.0508 60.5272 63.1777C56.4959 60.3762 54.1169 56.4787 52.8523 51.8187C51.7242 47.6628 51.1899 43.4428 51.4786 39.1329C51.6087 37.1901 52 35.2949 52.5013 33.4209C53.1923 30.8366 53.4104 28.2312 53.0246 25.5737C52.8999 24.7159 52.8651 23.8398 52.8541 22.971C52.8321 21.1996 52.8321 19.4273 52.8697 17.6568C52.8816 17.1005 53.02 16.5424 53.1455 15.9953C53.2115 15.7067 53.4113 15.4033 53.7522 15.5142C53.9859 15.5894 54.2654 15.8221 54.3332 16.0439C54.4798 16.5186 54.5541 17.03 54.5678 17.5294C54.6301 19.8855 55.1809 22.1554 55.7921 24.4071C56.6884 27.7061 56.7525 31.0254 56.3237 34.395C56.0405 36.6192 55.8902 38.8607 55.7106 41.0958C55.6776 41.5119 55.7271 41.9582 55.848 42.3577C56.0698 43.0909 56.8213 43.2494 57.3656 42.7096C58.4021 41.6814 58.8236 40.3764 59.0234 38.9734C59.2901 37.0957 59.0912 35.2235 58.9648 33.3512C58.8548 31.72 58.7338 30.0906 58.9822 28.4603C59.3359 26.1363 60.2706 24.0506 61.5894 22.127C63.6614 19.1029 66.3565 16.701 69.2606 14.5172C72.3682 12.1803 75.8579 10.6508 79.6289 9.76923C83.0013 8.98112 86.4195 8.807 89.868 9.15615C93.5464 9.52913 97.0526 10.5042 100.389 12.0933C103.216 13.4395 105.933 17.2471 104.906 21.4315C104.48 23.1699 103.504 24.6013 102.217 25.8229C101.858 26.1629 101.417 26.14 100.968 25.9934C99.7185 25.5847 98.4511 25.2621 97.125 25.2181C94.0789 25.1164 92.0197 26.5111 91.0327 29.3969C90.273 31.6165 90.1777 33.9194 90.3445 36.2297C90.5663 39.2951 91.6916 42.0187 93.7471 44.306C96.5339 47.4071 100.023 48.5838 104.12 47.7985C107.147 47.2184 109.184 45.0666 109.774 42.0306C110.29 39.3776 109.882 36.8107 109.158 34.2594C108.883 33.2871 108.41 32.4302 107.787 31.644C107.597 31.4048 107.435 31.1436 107.244 30.9062C106.358 29.8001 106.246 28.5419 106.686 27.2708C107.133 25.9787 107.731 24.7388 108.259 23.4732C109.227 21.1511 109.796 18.7299 110.186 16.2464C110.508 14.1854 110.969 12.1446 111.433 10.1083C111.565 9.5273 111.908 8.99212 112.179 8.44777C112.237 8.33138 112.402 8.26815 112.517 8.18018C112.6 8.31397 112.743 8.44319 112.754 8.58248C112.81 9.32752 112.853 10.0744 112.863 10.8204C112.887 13.0335 112.839 15.2485 112.921 17.4588C113.012 19.8974 113.796 22.1536 114.996 24.2678C116.241 26.4644 117.281 28.749 117.972 31.1839C118.838 34.2365 119.203 37.3395 118.966 40.5121C118.696 44.1163 117.783 47.5409 115.822 50.5853C114.586 52.5033 113.118 54.2756 111.696 56.0672C109.929 58.2923 108.133 60.4917 106.844 63.0466C105.476 65.761 104.466 68.59 104.077 71.6224C103.828 73.5597 103.603 75.5025 103.256 77.4223C103.043 78.5981 102.656 79.7482 102.27 80.8836C102.147 81.2438 101.817 81.5764 101.503 81.8193C101.038 82.1785 100.613 82.0392 100.429 81.4811C100.278 81.0229 100.154 80.529 100.159 80.0524C100.18 78.084 100.236 76.1146 100.315 74.1471C100.435 71.1404 100.573 68.1336 100.25 65.1333C100.172 64.4111 99.987 63.6918 99.7762 62.9935C99.4078 61.7728 98.6169 60.938 97.3175 60.7538C96.0272 60.5705 94.988 61.1093 94.1861 62.0972C93.5199 62.9183 93.3018 63.9309 93.1221 64.939C92.8087 66.6958 92.4907 68.4525 92.2506 70.2203C92.027 71.8671 91.8016 73.5249 91.7521 75.1836C91.5258 82.7394 91.3617 90.297 91.1757 97.8546C91.1445 99.1156 91.0034 100.356 90.4215 101.499C90.2648 101.807 90.0558 102.104 89.8121 102.347C89.4858 102.672 89.122 102.628 88.8187 102.275C88.3165 101.693 88.1708 100.968 88.0672 100.243C87.5861 96.8897 87.1004 93.5374 86.6614 90.1788C86.2289 86.865 85.8266 83.5467 85.4591 80.2247C85.1824 77.722 84.9853 75.2101 84.7471 72.7028C84.6169 71.3337 84.4227 69.9774 83.9287 68.6789C83.4604 67.4481 82.5165 66.8552 81.272 66.7581C78.9902 66.5794 77.4928 67.8779 77.2957 70.2679C77.128 72.3042 77.0868 74.3515 76.9896 76.3941C77.0446 76.396 77.1005 76.3969 77.1555 76.3987L77.1528 76.3969ZM82.3836 54.7989C82.3836 55.226 82.3516 55.6567 82.391 56.0801C82.456 56.7848 82.6274 57.4666 83.0746 58.0421C83.4338 58.504 83.925 58.5782 84.4007 58.241C84.5729 58.1191 84.7104 57.9486 84.8744 57.813C85.307 57.4547 85.713 57.0469 86.1904 56.7628C86.842 56.3751 87.4496 56.541 87.9417 57.1211C88.0993 57.3071 88.2468 57.5069 88.4319 57.6627C89.276 58.3738 90.3931 58.0219 90.6322 56.9442C90.7331 56.4915 90.7688 55.9994 90.7111 55.5403C90.4352 53.3317 90.1585 51.1223 89.7992 48.9266C89.5582 47.4511 89.1541 46.005 88.41 44.6863C87.9527 43.8753 87.3799 43.1687 86.4754 42.8159C85.8128 42.5575 85.3409 42.6885 84.9844 43.287C84.7278 43.7168 84.4666 44.1631 84.3218 44.6378C83.9754 45.7732 83.6785 46.9251 83.3944 48.078C82.8492 50.2874 82.4102 52.5152 82.3827 54.8007L82.3836 54.7989Z" fill="white"/>
<path d="M97.2494 141.349C96.2298 140.887 95.3248 140.518 94.4561 140.077C89.5837 137.609 84.7317 135.101 79.8514 132.651C75.7909 130.612 71.6179 128.85 67.1702 127.824C63.2039 126.909 59.2069 126.662 55.1737 127.33C54.6809 127.412 54.1188 127.418 53.9053 126.964C53.7429 126.619 53.785 126.048 53.9678 125.697C54.2744 125.11 54.6865 124.527 55.1907 124.105C57.674 122.032 60.389 120.334 63.4832 119.301C66.9056 118.158 70.3859 118.083 73.8242 119.051C76.6902 119.859 79.4994 120.887 82.2984 121.911C85.371 123.036 88.4425 124.15 91.6855 124.679C94.5651 125.149 97.4447 125.142 100.324 124.62C102.492 124.227 104.557 123.527 106.616 122.759C109.549 121.663 112.439 121.918 115.25 123.273C118.186 124.687 120.769 126.625 123.325 128.612C127.028 131.489 130.686 134.428 134.474 137.19C137.729 139.563 141.311 141.361 145.254 142.35C148.288 143.111 151.344 143.23 154.423 142.669C154.977 142.568 155.49 142.559 155.852 143.069C156.2 143.559 156.031 144.029 155.766 144.5C153.903 147.809 151.147 150.209 147.959 152.167C144.399 154.355 140.519 155.849 136.653 157.384C133.162 158.771 129.7 160.233 126.234 161.686C125.418 162.027 124.656 162.5 123.84 162.847C122.87 163.262 121.979 163.022 121.227 162.312C120.718 161.833 120.258 161.302 119.755 160.816C117.914 159.038 116.009 157.339 113.704 156.169C113.455 156.043 113.133 156.06 112.844 156.012C113.001 156.259 113.108 156.567 113.321 156.743C115.819 158.803 117.624 161.396 119.128 164.222C119.193 164.344 119.196 164.637 119.145 164.658C118.827 164.795 118.464 164.999 118.16 164.942C117.879 164.89 117.599 164.578 117.414 164.314C115.347 161.374 112.851 158.867 109.906 156.812C107.798 155.342 105.553 154.089 103.031 153.555C99.0571 152.715 95.0102 152.509 90.9531 152.552C86.4622 152.601 81.9963 153.009 77.5622 153.686C73.3223 154.333 69.1005 155.095 64.8765 155.845C60.523 156.617 56.1706 157.399 51.8308 158.245C49.5927 158.682 47.8145 157.918 46.2816 156.396C44.7532 154.877 43.3361 153.241 41.7567 151.778C36.321 146.746 30.0145 143.244 22.8893 141.205C19.7326 140.301 16.5237 139.726 13.2478 139.518C12.7141 139.484 12.2838 139.271 12.0975 138.749C11.9056 138.21 11.9908 137.709 12.4075 137.282C14.1051 135.54 16.1104 134.302 18.4393 133.599C21.6152 132.641 24.8389 132.688 28.0421 133.347C35.9225 134.966 42.9239 138.515 49.3645 143.252C50.0197 143.733 50.7168 144.183 51.2801 144.758C52.5518 146.056 54.0859 146.151 55.7437 145.956C59.308 145.534 62.5578 144.152 65.7917 142.718C68.8484 141.364 71.862 139.903 75.0812 138.954C77.5758 138.219 80.1194 137.822 82.6935 138.373C84.0334 138.66 85.3211 139.194 86.6246 139.641C88.9104 140.427 91.1836 141.252 93.4762 142.018C94.4822 142.354 95.5223 142.429 96.5102 141.9C96.7453 141.774 96.944 141.582 97.2517 141.351L97.2494 141.349Z" fill="white" fill-opacity="0.5"/>
<path d="M24.3238 112.428C28.5376 112.562 32.0395 114.282 35.0588 117.108C38.0758 119.931 40.1151 123.409 41.614 127.205C42.3475 129.062 42.8607 131.006 43.4682 132.912C43.5193 133.071 43.5364 133.246 43.542 133.414C43.5682 134.144 43.1878 134.386 42.5439 134.048C41.4913 133.492 40.4717 132.86 39.3839 132.387C37.7056 131.658 35.9955 130.994 34.2696 130.386C33.0501 129.955 32.2087 129.264 31.7295 128.016C29.8423 123.1 26.7799 118.948 23.2155 115.132C23.0089 114.911 22.7931 114.696 22.6058 114.46C22.0278 113.732 22.2651 112.914 23.1588 112.631C23.5312 112.513 23.9343 112.492 24.3227 112.428H24.3238Z" fill="white" fill-opacity="0.5"/>
<path d="M74.6714 96.6038C74.5944 96.8704 74.5015 97.3928 74.2962 97.8657C74.0128 98.5164 73.3167 98.5944 72.9504 97.9852C72.6739 97.5261 72.4735 96.9573 72.4488 96.4281C72.4211 95.8278 72.5396 95.183 72.7529 94.6182C73.0017 93.9596 73.606 93.9231 74.076 94.4573C74.5509 94.9984 74.6299 95.6658 74.6714 96.6048V96.6038Z" fill="white"/>
<path d="M48.9714 9.83319C48.8381 10.319 48.7532 10.8245 48.5596 11.2846C48.3464 11.7912 47.9366 11.8218 47.5417 11.4278C46.8534 10.7426 46.8633 9.05118 47.5584 8.37384C47.8142 8.12502 48.0679 8.11613 48.3424 8.34619C48.8035 8.73325 48.8953 9.25359 48.9724 9.83319H48.9714Z" fill="white"/>
</svg>
