<svg width="170" height="170" viewBox="0 0 170 170" fill="none" xmlns="http://www.w3.org/2000/svg">
<path d="M121.728 79.5993C121.776 81.8231 121.413 83.9957 121.044 86.1648C120.329 90.3764 119.313 94.5128 117.91 98.5534C116.035 103.956 113.582 109.057 109.979 113.542C108.399 115.509 106.729 117.412 104.413 118.554C99.3766 121.045 94.5423 120.621 89.9646 117.395C88.8971 116.642 87.816 116.07 86.4612 116.194C85.1542 116.31 84.1176 116.888 83.3341 117.921C82.6053 118.886 81.9656 119.93 81.165 120.83C78.5134 123.809 75.0682 124.836 71.1953 124.641C70.121 124.586 69.0433 124.432 67.9792 124.254C66.8844 124.07 66.0941 123.447 65.7793 122.352C65.468 121.267 65.8033 120.351 66.597 119.557C71.9856 114.189 77.357 108.804 82.749 103.439C84.5418 101.653 85.7598 99.5832 86.2354 97.0753C87.1933 92.046 84.5384 86.8525 79.8751 84.6833C75.5848 82.6887 70.4939 83.4585 67.1102 86.784C61.5779 92.2205 56.1244 97.7357 50.6332 103.22C50.2637 103.59 49.9044 103.966 49.5178 104.322C47.9337 105.776 45.5457 105.557 44.3345 103.778C41.707 99.9253 39.5721 95.8368 38.313 91.307C37.3516 87.8446 36.6366 84.3549 36.5989 80.7488C36.5271 73.9883 38.6415 68.1139 43.6332 63.4199C46.7979 60.4433 50.5545 58.6027 54.814 57.8055C60.9655 56.6525 66.7339 57.8876 72.2388 60.6897C74.3429 61.7605 76.4709 61.5792 78.1268 60.1388C78.534 59.7864 78.8761 59.3588 79.2422 58.9619C82.5027 55.4414 86.3106 52.742 90.9054 51.2434C101.727 47.7161 113.558 52.2767 118.553 63.5259C120.024 66.8412 120.897 70.3172 121.273 73.913C121.468 75.8016 121.578 77.7004 121.725 79.5958L121.728 79.5993Z" fill="white"/>
<path d="M29.1716 149.931C29.0998 148.391 29.1716 147.088 28.9526 145.832C28.4565 143.003 26.0445 140.916 23.1809 140.922C20.4438 140.929 17.7068 141.141 14.9766 141.323C13.7346 141.405 12.4995 141.627 11.261 141.791C10.3817 141.908 9.62906 141.555 9.23561 140.827C8.82847 140.077 8.95164 139.229 9.58458 138.565C10.0841 138.038 10.6076 137.532 11.1207 137.015C14.9424 133.19 18.8119 129.413 22.5685 125.53C25.0934 122.923 28.1144 121.722 31.6897 121.575C34.3891 121.465 37.0817 121.199 39.7708 120.939C41.632 120.761 43.2537 119.957 44.5744 118.65C47.9615 115.314 51.3143 111.94 54.6741 108.581C60.2645 102.994 65.8515 97.3999 71.4454 91.8129C73.1834 90.0783 75.5715 89.7738 77.5182 91.0123C79.9268 92.5416 80.4537 95.8432 78.6335 98.0397C78.3735 98.3545 78.0793 98.6453 77.7885 98.9327C69.1804 107.544 60.5827 116.166 51.9507 124.753C50.0416 126.652 49.0289 128.866 48.8886 131.548C48.7449 134.265 48.4918 136.978 48.2831 139.691C48.0675 142.503 46.9453 144.901 44.961 146.889C40.5133 151.354 36.0587 155.809 31.6007 160.263C30.848 161.016 30.0201 161.19 29.2229 160.793C28.4326 160.4 28.1144 159.654 28.2342 158.57C28.5626 155.607 28.8739 152.644 29.1682 149.924L29.1716 149.931Z" fill="white" fill-opacity="0.5"/>
<path d="M120.373 17.208C124.458 17.1875 128.52 16.8077 132.56 16.209C141.367 14.9054 149.916 12.6645 158.134 9.21579C158.969 8.86682 159.736 8.91471 160.41 9.5545C161.019 10.1327 161.152 10.9367 160.776 11.8228C158.552 17.0848 156.858 22.5179 155.562 28.0741C154.426 32.9392 153.591 37.859 153.129 42.8405C152.811 46.2789 152.588 49.7173 152.79 53.1694C152.835 53.9495 152.479 54.5414 151.891 54.7501C151.247 54.9793 150.655 54.7569 150.152 54.0829C148.469 51.8283 146.803 49.5599 145.103 47.319C144.316 46.2823 144.117 45.1875 144.483 43.9524C144.678 43.2921 144.836 42.6215 144.979 41.9475C145.27 40.5927 144.695 39.2755 143.539 38.5878C142.386 37.9035 140.867 38.0232 139.851 38.971C138 40.7021 136.187 42.4744 134.36 44.2329C130.99 47.4763 127.62 50.7232 124.246 53.9666C123.121 55.0477 122.149 54.9656 121.201 53.7237C119.98 52.1293 118.574 50.7266 116.966 49.5257C115.761 48.6259 115.669 47.6714 116.654 46.5492C121.441 41.1024 126.224 35.6523 131.007 30.2055C131.975 29.1039 132.139 27.6635 131.441 26.4797C130.737 25.2823 129.341 24.7041 127.924 25.0291C127.107 25.2173 126.296 25.4157 125.478 25.6107C124.568 25.8263 123.73 25.6347 122.987 25.0907C120.568 23.315 118.16 21.5257 115.758 19.7329C115.211 19.3224 115.033 18.6791 115.248 18.0907C115.45 17.5501 116.004 17.2046 116.675 17.2046C117.903 17.2046 119.135 17.2046 120.363 17.2046L120.373 17.208Z" fill="white" fill-opacity="0.5"/>
<path d="M51.663 52.7729C47.5951 52.6155 43.5648 52.2186 39.709 50.7646C35.5281 49.1873 32.0213 46.7069 29.3971 43.0529C28.2099 41.397 28.6068 39.221 30.3004 38.027C32.9348 36.1692 35.8703 35.0334 39.0452 34.5578C43.0208 33.9625 46.969 34.0857 50.8077 35.396C56.0081 37.1717 59.4157 40.8427 61.4925 45.8276C61.9407 46.9053 62.2794 48.0343 62.6044 49.16C63.0252 50.6072 62.1254 51.9278 60.6337 52.1228C57.6572 52.5128 54.6772 52.8618 51.6665 52.7729H51.663Z" fill="white"/>
<path d="M68.1436 42.1768C68.1778 39.515 68.3659 36.8874 69.2076 34.3351C70.8977 29.21 74.278 25.7134 79.3518 23.9378C81.1514 23.3083 83.0434 22.9011 84.9251 22.5556C86.8068 22.2134 88.5072 23.1953 89.2941 24.8547C90.1084 26.5653 89.7389 28.5839 88.3396 29.884C87.344 30.8078 86.2697 31.6528 85.3083 32.6142C81.3738 36.5556 78.777 41.2907 77.3127 46.6313C76.7174 48.797 76.4129 51.0414 75.9818 53.2516C75.732 54.5243 74.8459 55.4481 73.6553 55.6636C72.427 55.886 71.2604 55.3283 70.5727 54.2061C69.7447 52.8547 69.2418 51.3733 68.9134 49.8405C68.6944 48.821 68.5199 47.7877 68.4241 46.7511C68.2838 45.2286 68.2325 43.7027 68.1436 42.1768Z" fill="white"/>
</svg>
