<svg width="170" height="170" viewBox="0 0 170 170" fill="none" xmlns="http://www.w3.org/2000/svg">
<path d="M43.3942 101.534C43.3942 78.8765 61.8071 60.4493 84.4504 60.4458C107.196 60.4387 125.634 78.88 125.599 101.598C125.563 124.255 107.104 142.686 84.4858 142.64C61.761 142.594 43.3871 124.216 43.3906 101.534H43.3942ZM84.4787 132.365C101.595 132.276 115.239 118.554 115.306 101.576C115.377 84.6303 101.574 70.7878 84.5602 70.724C67.5893 70.6602 53.7468 84.4567 53.6866 101.498C53.6263 118.459 67.4688 132.333 84.4752 132.365H84.4787Z" fill="white"/>
<path d="M111.196 50.4542C111.048 50.8864 110.909 51.3009 110.761 51.7119C110.031 53.6889 109.319 55.6765 108.56 57.6429C107.979 59.1451 106.746 59.5951 105.301 58.89C102.697 57.6181 99.997 56.5871 97.2051 55.8076C95.6179 55.3648 95.0439 54.1814 95.6427 52.6615C95.8304 52.1867 96.0111 51.7084 96.1989 51.2336C98.7569 44.8173 101.134 38.3336 103.235 31.7507C104.001 29.3486 106.098 27.9384 108.426 28.0412C111.611 28.1794 114.8 28.1121 117.971 27.7365C121.666 27.3007 125.29 26.5248 128.802 25.2741C134.307 23.3113 139.257 20.4273 143.505 16.3848C144.245 15.6797 144.943 14.9357 145.641 14.1881C147.374 12.328 149.868 12.7248 150.917 15.049C152.929 19.5132 154.534 24.1156 155.608 28.8986C156.795 34.1847 157.284 39.5311 156.873 44.9377C156.214 53.611 153.386 61.5437 148.564 68.775C146.067 72.5199 143.147 75.907 139.803 78.9186C138.336 80.2401 136.274 80.063 135.2 78.5218C134.895 78.086 134.708 77.551 134.541 77.0408C131.994 69.1753 127.476 62.6279 121.287 57.2C118.353 54.6278 115.172 52.4241 111.675 50.6809C111.54 50.6136 111.398 50.5569 111.193 50.4648L111.196 50.4542Z" fill="white" fill-opacity="0.5"/>
<path d="M57.7434 50.3835C56.2943 51.2196 54.8629 51.9707 53.506 52.8388C48.0568 56.3215 43.4616 60.7007 39.8088 66.0506C37.4208 69.5475 35.6103 73.3244 34.3277 77.3563C33.8246 78.9365 32.783 79.7655 31.3587 79.7868C30.4517 79.801 29.7183 79.4219 29.0664 78.8195C26.6182 76.5627 24.3719 74.1215 22.356 71.4714C19.4755 67.6804 17.1301 63.5847 15.3834 59.1559C13.8776 55.3366 12.8785 51.3897 12.3754 47.3117C11.8971 43.4357 11.8864 39.5596 12.2832 35.6836C12.6588 31.9989 13.4064 28.385 14.448 24.8314C15.4259 21.4939 16.6482 18.2485 18.0796 15.0811C19.1566 12.7002 21.658 12.2892 23.4082 14.2272C28.2586 19.6055 34.2108 23.276 41.0453 25.5471C46.9089 27.4957 52.9568 28.2114 59.1181 28.0768C60.0534 28.0555 61.0136 27.9776 61.917 28.1547C63.9153 28.5409 65.1553 29.8448 65.7718 31.7686C67.9507 38.5605 70.4096 45.2497 73.0385 51.8751C73.2015 52.2861 73.3786 52.6935 73.5026 53.1151C73.825 54.2064 73.244 55.3578 72.1492 55.6803C69.1518 56.5554 66.243 57.636 63.4334 59.0036C62.2182 59.5953 60.9746 59.0426 60.4609 57.7069C59.6035 55.4677 58.8027 53.2073 57.9737 50.9539C57.917 50.798 57.8497 50.6457 57.7398 50.3799L57.7434 50.3835Z" fill="white" fill-opacity="0.5"/>
<path d="M44.5953 157.853C43.7273 157.853 42.8557 157.864 41.9877 157.853C39.5288 157.821 37.8176 155.851 38.1471 153.417C38.5651 150.331 39.6351 147.451 40.9992 144.673C42.7281 141.155 44.9142 137.938 47.5395 135.019C48.5564 133.888 49.6441 133.867 50.7672 134.884C52.4572 136.414 54.1756 137.917 55.9116 139.394C56.971 140.298 57.1658 141.127 56.4679 142.345C54.7991 145.258 53.2154 148.209 52.0887 151.384C51.6565 152.599 51.327 153.853 50.9443 155.086C50.4164 156.783 49.024 157.828 47.2561 157.85C46.3703 157.86 45.4846 157.85 44.5988 157.85L44.5953 157.853Z" fill="white" fill-opacity="0.5"/>
<path d="M124.398 157.857C123.562 157.857 122.729 157.86 121.893 157.857C119.923 157.843 118.474 156.794 117.999 154.888C116.997 150.87 115.239 147.178 113.234 143.589C112.943 143.068 112.635 142.558 112.366 142.027C111.905 141.12 112.093 140.259 112.858 139.589C114.729 137.956 116.6 136.319 118.47 134.682C119.392 133.878 120.525 133.97 121.397 134.941C124.866 138.806 127.597 143.128 129.44 147.997C130.12 149.8 130.641 151.649 130.874 153.57C131.147 155.78 129.432 157.789 127.211 157.843C126.276 157.864 125.337 157.846 124.398 157.846V157.853V157.857Z" fill="white" fill-opacity="0.5"/>
<path d="M60.0781 101.562C60.0604 88.0526 71.0047 77.1083 84.5142 77.126C98.013 77.1437 108.929 88.0668 108.925 101.551C108.922 115.047 98.0094 125.952 84.5071 125.956C71.0047 125.959 60.0959 115.064 60.0781 101.562ZM84.3937 110.065C89.0315 110.104 92.9429 106.487 93.0209 101.658C93.0953 97.0164 89.4566 93.1368 84.6346 93.0092C79.9862 92.8888 76.0677 96.6479 75.9862 101.445C75.9047 106.083 79.5717 109.962 84.3972 110.065H84.3937Z" fill="white"/>
</svg>
