<svg width="45" height="10" viewBox="0 0 45 10" fill="none" xmlns="http://www.w3.org/2000/svg">
<path fill-rule="evenodd" clip-rule="evenodd" d="M9.58974 0C9.30188 0 9.03872 0.162641 8.90998 0.420117L7.68027 2.87953C7.65463 2.93081 7.63497 2.98464 7.62152 3.03998H3.05176e-05V6.07998H7.60004V6.10011C7.60004 6.21199 7.62474 6.32249 7.67237 6.42372L8.91467 9.06361C9.04003 9.32998 9.30794 9.5 9.60234 9.5H13.7011C14.1209 9.5 14.4611 9.15974 14.4611 8.74V7.38894H18.2084C18.6456 7.38894 19 7.03449 19 6.59727C19 6.16004 18.6456 5.8056 18.2084 5.8056H14.4611V3.69442H18.2084C18.6456 3.69442 19 3.33998 19 2.90275C19 2.46553 18.6456 2.11108 18.2084 2.11108H14.4611V0.76C14.4611 0.340264 14.1209 0 13.7011 0H9.58974ZM44.4178 3.16669H36.4645C36.4545 3.1359 36.4426 3.1057 36.4288 3.07628L35.1865 0.436394C35.0611 0.17002 34.7932 0 34.4988 0H30.4C29.9803 0 29.64 0.340264 29.64 0.76V8.74C29.64 9.15974 29.9803 9.5 30.4 9.5L34.5114 9.5C34.7993 9.5 35.0625 9.33736 35.1912 9.07988L36.4209 6.62047C36.4658 6.53071 36.4924 6.43312 36.4993 6.33335H44.4178V3.16669ZM26.6 6.71336L25.7134 7.60003L23.94 5.82671L22.1667 7.60005L21.28 6.71338L23.0534 4.94004L21.28 3.16669L22.1667 2.28003L23.94 4.05338L25.7134 2.28005L26.6 3.16671L24.8267 4.94004L26.6 6.71336Z" fill="white"/>
</svg>
