<svg width="33" height="33" viewBox="0 0 33 33" fill="none" xmlns="http://www.w3.org/2000/svg">
<path d="M25.5196 2.05422C25.4744 2.0288 25.4229 2.01711 25.3712 2.02058C25.3195 2.02405 25.27 2.04253 25.2286 2.07378C25.1872 2.10502 25.1557 2.14768 25.138 2.19657C25.1203 2.24545 25.1171 2.29846 25.1288 2.34914C25.3192 3.17939 25.5256 4.83395 24.9196 6.97617C23.6293 11.5376 17.5503 15.2813 15.3939 12.2701C13.8405 10.1012 15.3825 7.2682 16.1737 6.0802C16.1972 6.04541 16.2314 6.01928 16.271 6.00581C16.3106 5.99234 16.3536 5.99227 16.3933 6.0056C16.4329 6.01893 16.4672 6.04493 16.4908 6.07964C16.5144 6.11436 16.5261 6.15588 16.524 6.19787C16.449 7.60219 16.5034 10.6697 18.4455 10.403C20.1133 10.1739 21.3312 7.04162 21.2342 5.2199C21.2282 4.57767 20.9975 3.90206 20.6326 3.26447C19.594 1.44923 17.6617 0.341669 15.5791 0.27806C13.7757 0.222949 11.0613 0.552212 7.87086 2.27572C2.54058 5.15576 -0.409951 11.8213 0.0461031 17.7784C0.426308 22.7446 2.53762 26.0153 3.4288 27.1928C3.45089 27.2218 3.48186 27.2427 3.51695 27.2523C3.55203 27.2619 3.58927 27.2596 3.62293 27.2458C3.65659 27.232 3.6848 27.2075 3.70321 27.176C3.72162 27.1445 3.7292 27.1077 3.72479 27.0715C3.52618 25.4304 3.47039 20.8879 8.39117 18.5607C10.4574 17.5837 13.6315 17.2465 14.8246 19.8831C15.8969 22.254 14.4008 23.2949 13.2734 23.7269C13.2135 23.7504 13.1475 23.7536 13.0856 23.736C13.0237 23.7185 12.9691 23.6811 12.9303 23.6296C12.8914 23.5781 12.8703 23.5152 12.8702 23.4505C12.8701 23.3859 12.891 23.3229 12.9296 23.2713C13.3086 22.7553 13.6383 22.0197 13.314 21.2335C12.008 18.0682 6.47105 19.7607 8.55612 26.452C9.73056 30.2213 13.0351 32.284 16.7829 32.8277C25.9976 34.1646 30.5038 27.378 31.2651 25.1399C32.304 22.0865 32.0354 18.6707 29.5952 16.8235C27.7644 15.4376 24.6211 15.1347 22.2177 16.644C21.0801 17.3585 20.28 18.5236 20.1117 19.8611C19.9714 20.9038 20.2472 21.96 20.8789 22.7992C22.7029 25.3038 27.1709 23.6161 25.2563 20.2469C25.2261 20.1925 25.2125 20.1303 25.2173 20.0681C25.222 20.006 25.2449 19.9466 25.283 19.8974C25.3212 19.8482 25.3729 19.8114 25.4317 19.7916C25.4905 19.7718 25.5538 19.7698 25.6137 19.7859C26.4849 20.0204 27.8025 20.7584 27.6351 23.0788C27.4515 25.6247 24.7987 27.5152 22.2764 26.9963C19.0627 26.4586 17.1348 22.6576 18.0789 19.771C21.7178 8.64422 29.6442 10.028 31.8792 10.6683C31.9398 10.6854 32.0038 10.6859 32.0646 10.6698C32.1254 10.6537 32.1808 10.6215 32.2251 10.5767C32.2695 10.5319 32.3011 10.476 32.3167 10.4148C32.3324 10.3536 32.3315 10.2893 32.3142 10.2285C30.9614 5.48389 26.9962 2.88237 25.5196 2.05422ZM9.29873 9.59608C6.6359 10.8042 5.09451 8.2842 7.18524 6.42024C10.9558 3.05866 13.0023 4.56733 13.0856 5.2199C13.0797 7.21712 10.9071 8.77441 9.29873 9.59608Z" fill="white"/>
<path opacity="0.7" d="M31.092 11.7242C26.5475 10.6969 23.536 13.1414 22.3761 14.3408C22.354 14.3636 22.3408 14.3936 22.3387 14.4253C22.3366 14.457 22.3458 14.4885 22.3647 14.514C22.3836 14.5395 22.4109 14.5574 22.4417 14.5645C22.4726 14.5716 22.5049 14.5675 22.533 14.5528C24.3088 13.6275 29.1293 11.8228 32.5976 17.1472C32.6232 17.1856 32.6603 17.2149 32.7035 17.2309C32.7468 17.2468 32.7939 17.2486 32.8382 17.2359C32.8825 17.2233 32.9217 17.1969 32.9501 17.1605C32.9785 17.1241 32.9948 17.0795 32.9964 17.0333C33.0182 15.8497 32.9336 14.6666 32.7436 13.4983C32.6762 13.0706 32.4829 12.673 32.1885 12.3567C31.8941 12.0405 31.5122 11.8202 31.092 11.7242Z" fill="white"/>
<path opacity="0.7" d="M20.7885 10.4961C20.7755 10.5119 20.7686 10.532 20.7691 10.5525C20.7695 10.573 20.7772 10.5928 20.7908 10.6081C20.8044 10.6234 20.8231 10.6334 20.8433 10.6361C20.8636 10.6388 20.8842 10.6342 20.9013 10.623C23.601 8.86061 24.9001 5.86543 23.7447 2.22934C23.2109 0.549207 20.344 0.109021 19.2354 0.0003769C19.2169 -0.00143476 19.1983 0.00332285 19.1829 0.0138257C19.1675 0.0243285 19.1563 0.0399148 19.1511 0.057886C19.1459 0.0758571 19.1472 0.0950812 19.1546 0.112229C19.162 0.129376 19.1752 0.143367 19.1919 0.151778C22.9385 2.05332 23.7795 6.84104 20.7885 10.4961Z" fill="white"/>
<path opacity="0.7" d="M6.44147 22.1249C5.29283 23.638 5.02762 25.4679 5.03634 26.8722C5.04094 27.5719 5.21123 28.2604 5.53313 28.8809C5.85503 29.5013 6.31928 30.0358 6.88749 30.4402C7.88065 31.1454 8.95535 31.7268 10.088 32.1717C10.1252 32.1865 10.1664 32.1877 10.2044 32.1752C10.2424 32.1627 10.2749 32.1373 10.2962 32.1032C10.3176 32.0692 10.3264 32.0288 10.3212 31.9889C10.316 31.949 10.2971 31.9122 10.2678 31.8849C8.93769 30.6519 6.35106 27.5384 6.78148 22.2548C6.78473 22.2137 6.77463 22.1727 6.75272 22.1379C6.7308 22.1031 6.69824 22.0764 6.65992 22.0617C6.62161 22.0471 6.5796 22.0454 6.54021 22.0567C6.50082 22.0681 6.46617 22.0921 6.44147 22.1249Z" fill="white"/>
</svg>
