<svg width="35" height="29" viewBox="0 0 35 29" fill="none" xmlns="http://www.w3.org/2000/svg">
<path d="M24.2018 10.7261C23.0552 12.4975 21.9745 14.1727 20.8869 15.8429C20.701 16.1288 20.881 16.251 21.0796 16.395C22.2528 17.241 23.422 18.0919 24.5922 18.9419C25.7142 19.7572 25.8892 20.4731 25.2579 21.7064C24.3473 23.4828 23.4348 25.2582 22.5183 27.0317C22.1534 27.7377 21.5624 28.0773 20.8908 27.9879C20.2221 27.8985 19.6508 27.4458 19.5583 26.7844C19.5052 26.4011 19.5672 25.9464 19.7314 25.5988C20.3824 24.2275 21.0806 22.8791 21.7916 21.5386C21.9931 21.1592 21.9754 20.9438 21.6047 20.6886C20.346 19.8227 19.105 18.931 17.8719 18.0294C17.6024 17.8328 17.4598 17.8824 17.273 18.1247C16.5315 19.0929 15.7625 20.0392 15.0289 21.0143C14.6277 21.5475 14.1223 21.8216 13.4683 21.7789C11.1132 21.6279 8.75801 21.481 6.4058 21.2992C5.46275 21.2258 4.8629 20.4572 4.93075 19.5248C4.99565 18.6301 5.73908 17.9668 6.68409 18.0383C8.48071 18.1754 10.2773 18.3283 12.069 18.5249C12.7023 18.5944 13.0917 18.3799 13.4841 17.8943C15.7675 15.0683 17.7175 12.01 19.6419 8.93376C19.9104 8.50479 20.1818 8.07781 20.524 7.53764C19.5986 7.36387 18.7775 7.12654 17.9466 7.0898C17.5709 7.07292 17.1353 7.39961 16.8 7.66374C15.8717 8.39656 14.9847 9.18299 14.0741 9.93964C13.7073 10.2445 13.2943 10.4302 12.8006 10.2902C11.716 9.98134 11.4288 8.77289 12.2667 7.94575C12.7111 7.50785 13.2077 7.12257 13.6866 6.7224C14.6454 5.92008 15.6131 5.12968 16.5659 4.3214C17.1363 3.83683 17.7666 3.69284 18.4914 3.84973C19.9812 4.17046 21.472 4.48424 22.9667 4.78015C23.8871 4.96286 24.6227 5.44842 25.135 6.20705C25.8627 7.28343 26.5235 8.40549 27.1971 9.51862C27.4872 9.99723 27.7517 10.4937 28.0035 10.9952C28.1864 11.3586 28.4362 11.5224 28.8541 11.5274C30.2141 11.5433 31.5741 11.59 32.9331 11.6366C33.5034 11.6565 33.9391 11.9176 34.1721 12.4598C34.4052 13.004 34.3177 13.5441 33.8988 13.9205C33.6313 14.1608 33.2094 14.3514 32.8564 14.3514C30.9231 14.3465 28.9898 14.276 27.0565 14.2263C26.4429 14.2104 26.0043 13.9085 25.7093 13.3753C25.31 12.6534 24.9108 11.9315 24.5086 11.2116C24.4339 11.0696 24.3414 10.9415 24.2018 10.7261Z" fill="white"/>
<path d="M30.9214 3.15766C30.9096 4.88642 29.5279 6.26964 27.8198 6.26269C26.0625 6.25573 24.7124 4.85763 24.7183 3.04942C24.7232 1.38123 26.1343 -0.00297412 27.8257 4.7992e-06C29.5673 0.00298372 30.9341 1.39712 30.9214 3.15766Z" fill="white"/>
<path d="M4.92205 6.93849C6.2319 6.93849 7.54076 6.9375 8.8506 6.93949C9.46029 6.94048 9.832 7.23837 9.84085 7.72393C9.8497 8.21347 9.48291 8.52328 8.8683 8.52427C6.2496 8.52824 3.62991 8.52824 1.0112 8.52626C0.350382 8.52526 -0.0164139 8.22638 0.000303314 7.71897C0.0170205 7.21355 0.379883 6.93849 1.04267 6.9375C2.3358 6.9375 3.62893 6.93849 4.92205 6.93849Z" fill="white"/>
<path d="M7.70441 3.51241C8.4085 3.51241 9.11358 3.49652 9.81767 3.51738C10.4372 3.53624 10.7863 3.97712 10.6496 4.52723C10.5581 4.8986 10.3025 5.09025 9.93666 5.09025C8.46259 5.09124 6.98852 5.08826 5.51446 5.06344C5.07981 5.05549 4.77988 4.69405 4.78775 4.27899C4.79463 3.85995 5.12406 3.51738 5.59214 3.50447C6.29623 3.48461 7.00032 3.4995 7.7054 3.4995C7.70441 3.50347 7.70441 3.50844 7.70441 3.51241Z" fill="white"/>
<path d="M4.9341 11.9378C4.23001 11.9378 3.52493 11.9458 2.82084 11.9349C2.30556 11.9269 1.98203 11.625 1.9722 11.1723C1.96138 10.7145 2.27114 10.3769 2.78544 10.3709C4.21034 10.355 5.63622 10.356 7.06112 10.3709C7.55182 10.3759 7.8488 10.6907 7.85666 11.1355C7.86453 11.5982 7.54985 11.9259 7.04834 11.9358C6.34425 11.9497 5.63917 11.9398 4.93508 11.9398C4.9341 11.9388 4.9341 11.9388 4.9341 11.9378Z" fill="white"/>
</svg>
