<svg width="17" height="16" viewBox="0 0 17 16" fill="none" xmlns="http://www.w3.org/2000/svg">
<path fill-rule="evenodd" clip-rule="evenodd" d="M9.12754 3.83669L9.1196 3.14255C8.82673 2.88271 8.63557 2.51108 8.63078 2.09155C8.62175 1.30206 9.25516 0.653997 10.0446 0.644968C10.8341 0.635938 11.4822 1.26935 11.4912 2.05883C11.496 2.47836 11.3135 2.85808 11.0266 3.12074L11.0345 3.81106C11.6522 3.46451 12.0719 2.80745 12.0633 2.04848C12.0506 0.942437 11.1403 0.0564585 10.0381 0.0690647C8.93583 0.0816708 8.04599 0.988238 8.05864 2.09428C8.06737 2.85706 8.50199 3.50436 9.12754 3.83669ZM16.1095 3.34411L13.0278 3.37554C12.7006 4.11547 12.1084 4.70585 11.3683 5.03091C11.0909 4.78615 10.7419 4.6223 10.3561 4.57331C10.5343 4.47592 10.6579 4.28378 10.6555 4.06639L10.6446 3.11672C10.641 2.80016 10.3825 2.54755 10.066 2.55117C9.74941 2.55479 9.4968 2.81325 9.50042 3.1298L9.51133 4.08329C9.51386 4.30449 9.64185 4.48994 9.8222 4.58323C9.4376 4.64103 9.09246 4.81282 8.82069 5.06386C8.07331 4.752 7.46785 4.17532 7.12385 3.44688L4.04219 3.48213C4.04219 3.48213 3.89564 5.00957 5.66531 4.98933L5.96661 4.98589L5.96648 4.98787C5.96203 5.04961 5.85677 6.51291 7.58972 6.49309L8.20757 6.48603C8.20951 6.65558 8.21893 6.82538 8.23518 6.99535L9.01421 6.9837L9.02188 7.49599C9.23123 7.58968 9.42468 7.71988 9.59243 7.88268C9.96955 8.24868 10.1858 8.7495 10.1937 9.27497L10.2356 12.0767C11.2502 10.0944 12.0429 8.31528 12.0215 6.44241L12.6394 6.43534C14.3628 6.41563 14.2344 4.96838 14.2278 4.89429L14.2276 4.89141L14.5289 4.88796C16.2909 4.86781 16.1095 3.34411 16.1095 3.34411ZM9.20807 10.2443L9.1938 9.28992C9.19247 9.20121 9.17915 9.11392 9.15477 9.03021C9.11882 8.90676 9.05882 8.79109 8.97776 8.69013C8.95251 8.65868 8.92522 8.62866 8.89598 8.60028C8.83203 8.53822 8.76054 8.48572 8.68372 8.44367C8.62555 8.41183 8.56433 8.38598 8.50102 8.3665C8.67873 8.99451 8.92537 9.6218 9.20807 10.2443Z" fill="white" fill-opacity="0.5"/>
<path d="M8.19774 8.32315L8.03418 8.3256L8.02928 7.99847L7.0479 8.01315L7.0528 8.34028L6.39854 8.35006L6.3961 8.1865L6.23253 8.18894L6.22397 7.61647C6.21924 7.29998 5.92263 7.04838 5.56116 7.05379L3.59839 7.08314C3.23692 7.08855 2.94797 7.3489 2.9527 7.6654L2.96127 8.23787L2.7977 8.24032L2.80015 8.40388L2.1459 8.41367L2.141 8.08654L1.15962 8.10122L1.16451 8.42835L1.00095 8.43079C0.740673 8.43468 0.492602 8.54181 0.31131 8.72861C0.130018 8.91541 0.0303564 9.16657 0.0342493 9.42685L0.112533 14.6609C0.116426 14.9212 0.223555 15.1692 0.410352 15.3505C0.597149 15.5318 0.848314 15.6315 1.10859 15.6276L1.27216 15.6251L1.44061 15.9498L3.07625 15.9254L3.23492 15.5958L6.17906 15.5517L6.34751 15.8764L7.98315 15.852L8.14182 15.5224L8.30538 15.5199C8.56566 15.516 8.81373 15.4089 8.99502 15.2221C9.17631 15.0353 9.27598 14.7842 9.27208 14.5239L9.1938 9.28985C9.18991 9.02957 9.08278 8.7815 8.89598 8.60021C8.70918 8.41892 8.45802 8.31926 8.19774 8.32315ZM3.60818 7.7374L5.57094 7.70804L5.57828 8.19873L5.41472 8.20118L5.41716 8.36474L3.78153 8.3892L3.77908 8.22564L3.61552 8.22809L3.60818 7.7374ZM4.62014 9.76726C4.49545 9.76957 4.37439 9.80962 4.27293 9.88214C4.17147 9.95466 4.09438 10.0562 4.05183 10.1735C4.00929 10.2907 4.00328 10.4181 4.03461 10.5388C4.06595 10.6595 4.13314 10.7679 4.22733 10.8496L4.23179 11.1481C4.06119 11.059 3.92518 10.9155 3.84529 10.7403C3.7654 10.5652 3.74619 10.3684 3.79069 10.1811C3.8352 9.99385 3.94088 9.82675 4.09102 9.70627C4.24115 9.5858 4.42718 9.51882 4.61965 9.51594C4.81213 9.51307 5.00007 9.57445 5.15375 9.69038C5.30742 9.80631 5.41805 9.97017 5.46814 10.156C5.51822 10.3419 5.5049 10.5392 5.43029 10.7166C5.35567 10.8941 5.22402 11.0416 5.05615 11.1358L5.05171 10.8389C5.14444 10.7542 5.20907 10.6431 5.23694 10.5206C5.26481 10.398 5.25459 10.2699 5.20766 10.1534C5.16072 10.0368 5.07931 9.93742 4.97431 9.86841C4.86931 9.7994 4.74574 9.76411 4.62014 9.76726V9.76726ZM1.86883 14.2812L1.22227 14.8054C1.18685 14.8343 1.14266 14.8502 1.09697 14.8507C1.05379 14.852 1.01129 14.8396 0.975575 14.8153C0.939857 14.791 0.912755 14.756 0.898157 14.7154C0.883559 14.6747 0.882215 14.6305 0.894317 14.589C0.90642 14.5475 0.931347 14.5109 0.965524 14.4845L1.6121 13.9611C1.63274 13.9426 1.65694 13.9284 1.68323 13.9195C1.70952 13.9106 1.73735 13.9072 1.76502 13.9094C1.79268 13.9116 1.81961 13.9194 1.84416 13.9324C1.86871 13.9453 1.89037 13.9631 1.90782 13.9847C1.92526 14.0063 1.93813 14.0312 1.94564 14.0579C1.95314 14.0846 1.95513 14.1126 1.95148 14.1401C1.94783 14.1676 1.93861 14.1941 1.9244 14.218C1.91018 14.2418 1.89126 14.2625 1.86879 14.2788L1.86883 14.2812ZM1.84302 10.0403C1.82432 10.0659 1.79992 10.0869 1.77175 10.1015C1.74358 10.1161 1.71241 10.124 1.68068 10.1245C1.63491 10.1252 1.59027 10.1103 1.55408 10.0822L0.892144 9.57844C0.870364 9.56222 0.851991 9.54187 0.838074 9.51855C0.824158 9.49524 0.81497 9.46941 0.811036 9.44254C0.807102 9.41567 0.808499 9.38829 0.815147 9.36196C0.821794 9.33563 0.833563 9.31087 0.84978 9.28909C0.882532 9.2451 0.931416 9.21593 0.985679 9.20798C1.01255 9.20405 1.03993 9.20544 1.06626 9.21209C1.09259 9.21874 1.11735 9.23051 1.13913 9.24672L1.80107 9.75135C1.82302 9.7674 1.84154 9.78766 1.85556 9.81096C1.86958 9.83425 1.87881 9.86011 1.88272 9.88701C1.88662 9.91392 1.88512 9.94133 1.87831 9.96765C1.87149 9.99397 1.8595 10.0187 1.84302 10.0403V10.0403ZM6.56244 11.5967L6.43159 11.5987C6.43159 11.5987 6.51015 12.2568 5.74787 12.2633L5.48208 12.2673C5.49447 13.0957 5.14134 13.8781 4.69475 14.7559C4.26645 13.9574 3.84575 13.1204 3.83342 12.296L3.56763 12.3C2.80542 12.3114 2.86352 11.6561 2.86433 11.6561L2.73348 11.6581C1.96964 11.6695 2.03012 11.0093 2.03012 11.0093L3.36234 10.9894C3.51265 11.3051 3.77498 11.5536 4.09834 11.6867C4.21797 11.575 4.36856 11.502 4.53038 11.4774C4.48989 11.4566 4.45598 11.425 4.43242 11.3861C4.40887 11.3471 4.39662 11.3024 4.39702 11.2569L4.3909 10.848C4.38993 10.7829 4.41485 10.7201 4.46017 10.6734C4.50549 10.6267 4.56751 10.6 4.63258 10.599C4.69765 10.598 4.76044 10.6229 4.80714 10.6682C4.85384 10.7136 4.88062 10.7756 4.88159 10.8407L4.88771 11.2496C4.8884 11.2944 4.8768 11.3386 4.85416 11.3773C4.83152 11.416 4.79871 11.4477 4.7593 11.4691C4.92178 11.4889 5.07449 11.5573 5.19741 11.6654C5.51664 11.5227 5.77141 11.2664 5.91222 10.9463L7.24608 10.9264C7.24608 10.9264 7.32629 11.5861 6.56244 11.5967ZM8.45615 14.6621C8.43744 14.6877 8.41304 14.7086 8.38488 14.7232C8.35671 14.7379 8.32554 14.7457 8.29381 14.7463C8.24813 14.7472 8.20348 14.7326 8.16722 14.7048L7.50527 14.2002C7.48232 14.1846 7.46279 14.1645 7.44787 14.1411C7.43295 14.1177 7.42294 14.0915 7.41847 14.0641C7.414 14.0367 7.41515 14.0087 7.42185 13.9817C7.42856 13.9548 7.44068 13.9295 7.45747 13.9074C7.47426 13.8853 7.49537 13.8669 7.51953 13.8532C7.54368 13.8395 7.57036 13.8309 7.59795 13.8279C7.62554 13.8248 7.65346 13.8275 7.68 13.8356C7.70655 13.8437 7.73116 13.8571 7.75235 13.875L8.41429 14.3788C8.45695 14.4112 8.48523 14.4589 8.49305 14.5119C8.50088 14.5649 8.48763 14.6188 8.45615 14.6621V14.6621ZM8.34081 9.46621L7.69424 9.98959C7.6589 10.0187 7.61473 10.0349 7.56895 10.0356C7.52638 10.0363 7.48467 10.0236 7.44963 9.99943C7.4146 9.97524 7.38799 9.94071 7.37352 9.90067C7.35905 9.86062 7.35744 9.81706 7.36892 9.77606C7.3804 9.73506 7.40439 9.69866 7.43754 9.67195L8.0841 9.14776C8.10501 9.1309 8.12904 9.11833 8.15481 9.11076C8.18057 9.10319 8.20758 9.10077 8.23429 9.10364C8.26099 9.1065 8.28687 9.1146 8.31044 9.12747C8.33402 9.14034 8.35483 9.15772 8.37168 9.17863C8.38854 9.19954 8.40111 9.22357 8.40868 9.24933C8.41625 9.2751 8.41867 9.30211 8.4158 9.32882C8.41294 9.35552 8.40484 9.3814 8.39197 9.40497C8.3791 9.42855 8.36172 9.44936 8.34081 9.46621V9.46621Z" fill="white"/>
</svg>
