<svg width="15" height="14" viewBox="0 0 15 14" fill="none" xmlns="http://www.w3.org/2000/svg">
<path d="M12.5274 1.93866L12.2774 1.9424L12.2702 1.46097L10.7704 1.48341L10.7776 1.96483L9.77771 1.97979L9.77411 1.73907L9.52414 1.74281L9.51154 0.900315C9.50457 0.434534 9.05149 0.0645092 8.49905 0.0727718L5.49938 0.117637C4.94695 0.1259 4.50513 0.509309 4.5121 0.975091L4.5247 1.81759L4.27473 1.82133L4.27833 2.06204L3.27844 2.077L3.27124 1.59557L1.77141 1.618L1.77861 2.09943L1.52863 2.10317C1.13085 2.10912 0.751642 2.26699 0.47442 2.54205C0.197198 2.81711 0.044675 3.18684 0.0504042 3.56988L0.165614 11.2727C0.171343 11.6558 0.334855 12.0208 0.620179 12.2874C0.905504 12.5541 1.28927 12.7005 1.68705 12.6946L1.93702 12.6908L2.19419 13.1685L4.69391 13.1311L4.93668 12.646L9.43618 12.5787L9.69335 13.0564L12.1931 13.019L12.4358 12.5338L12.6858 12.5301C13.0836 12.5241 13.4628 12.3663 13.74 12.0912C14.0173 11.8161 14.1698 11.4464 14.164 11.0634L14.0488 3.36051C14.0431 2.97746 13.8796 2.61247 13.5943 2.34582C13.3089 2.07917 12.9252 1.93271 12.5274 1.93866ZM5.51379 1.08049L8.51345 1.03563L8.52425 1.75777L8.27428 1.76151L8.27788 2.00222L5.77816 2.03961L5.77456 1.7989L5.52459 1.80263L5.51379 1.08049ZM7.05862 4.06698C6.86806 4.07048 6.68301 4.12953 6.52789 4.23635C6.37277 4.34316 6.25487 4.49272 6.18975 4.66528C6.12463 4.83785 6.11534 5.02531 6.16312 5.20294C6.2109 5.38057 6.3135 5.54001 6.45738 5.66023L6.46395 6.09953C6.20329 5.96846 5.99556 5.75738 5.87361 5.4997C5.75167 5.24202 5.72247 4.95244 5.79065 4.67678C5.85882 4.40112 6.02047 4.15511 6.25003 3.97768C6.47958 3.80025 6.76393 3.70152 7.05809 3.69712C7.35225 3.69272 7.63943 3.7829 7.87419 3.95339C8.10894 4.12387 8.27788 4.36493 8.35427 4.63843C8.43065 4.91193 8.41013 5.20226 8.29595 5.46347C8.18176 5.72469 7.98043 5.94188 7.72381 6.08069L7.71728 5.64379C7.85907 5.51895 7.95793 5.35542 8.00062 5.17509C8.04332 4.99476 8.02781 4.80624 7.95618 4.63476C7.88455 4.46328 7.76021 4.31701 7.59981 4.21554C7.4394 4.11407 7.25058 4.06224 7.05862 4.06698V4.06698ZM2.85004 10.7125L1.86147 11.4845C1.80732 11.527 1.73977 11.5505 1.66995 11.5512C1.60395 11.5532 1.53901 11.535 1.48445 11.4993C1.42988 11.4636 1.38849 11.4121 1.36622 11.3523C1.34394 11.2924 1.34192 11.2273 1.36046 11.1663C1.37899 11.1052 1.41711 11.0514 1.46937 11.0125L2.45795 10.2417C2.48951 10.2143 2.52652 10.1935 2.5667 10.1804C2.60689 10.1673 2.64942 10.1622 2.6917 10.1654C2.73398 10.1686 2.77513 10.1801 2.81264 10.1991C2.85015 10.2181 2.88323 10.2443 2.90987 10.2761C2.93652 10.3078 2.95616 10.3445 2.96761 10.3838C2.97906 10.4231 2.98208 10.4643 2.97647 10.5048C2.97087 10.5453 2.95676 10.5843 2.93502 10.6193C2.91327 10.6544 2.88434 10.6849 2.84998 10.7089L2.85004 10.7125ZM2.81419 4.47115C2.78558 4.50889 2.74828 4.53973 2.70522 4.56127C2.66216 4.5828 2.61451 4.59443 2.56602 4.59525C2.49607 4.59626 2.42786 4.57435 2.37257 4.53313L1.36138 3.79225C1.3281 3.7684 1.30004 3.73847 1.27879 3.70416C1.25754 3.66986 1.24353 3.63185 1.23754 3.59231C1.23155 3.55277 1.2337 3.51248 1.24389 3.47372C1.25407 3.43497 1.27207 3.39852 1.29688 3.36645C1.34697 3.30169 1.4217 3.25871 1.50464 3.24697C1.5457 3.24116 1.58755 3.24319 1.62778 3.25295C1.66801 3.26271 1.70584 3.28001 1.73911 3.30386L2.75033 4.04595C2.78385 4.06955 2.81214 4.09936 2.83354 4.13363C2.85495 4.1679 2.86904 4.20594 2.87498 4.24554C2.88093 4.28513 2.87862 4.32548 2.86818 4.36421C2.85774 4.40295 2.83939 4.43931 2.81419 4.47115V4.47115ZM10.0254 6.75773L9.82547 6.76072C9.82547 6.76072 9.94496 7.72923 8.77999 7.73943L8.37378 7.7455C8.39202 8.96472 7.85168 10.1164 7.16843 11.4088C6.51454 10.234 5.8723 9.00241 5.85415 7.78921L5.44795 7.79528C4.28308 7.81271 4.37242 6.8483 4.37367 6.84828L4.17369 6.85127C3.00632 6.86873 3.0993 5.89705 3.0993 5.89705L5.13532 5.8666C5.36478 6.33111 5.76547 6.6967 6.25954 6.89231C6.44246 6.72779 6.67267 6.62028 6.92 6.58387C6.85813 6.55334 6.80633 6.50683 6.77037 6.44954C6.73441 6.39225 6.71572 6.32645 6.71637 6.25948L6.70737 5.65769C6.70594 5.56193 6.74407 5.4695 6.81338 5.40073C6.88268 5.33197 6.97748 5.2925 7.07693 5.29101C7.17637 5.28952 7.27232 5.32614 7.34365 5.3928C7.41498 5.45946 7.45586 5.55071 7.45729 5.64647L7.46629 6.24826C7.46731 6.31423 7.44954 6.37924 7.41491 6.43621C7.38027 6.49318 7.33011 6.53994 7.26985 6.57142C7.51815 6.60041 7.75148 6.70099 7.93924 6.85996C8.42723 6.64966 8.81682 6.27226 9.03228 5.80109L11.0708 5.7706C11.0708 5.7706 11.1928 6.74147 10.0254 6.75773ZM12.917 11.2674C12.8883 11.3051 12.851 11.336 12.808 11.3575C12.7649 11.379 12.7173 11.3907 12.6688 11.3915C12.599 11.3929 12.5308 11.3715 12.4754 11.3306L11.4641 10.5885C11.4291 10.5655 11.3993 10.5359 11.3765 10.5015C11.3537 10.4671 11.3384 10.4285 11.3316 10.3882C11.3248 10.3479 11.3266 10.3067 11.3368 10.2671C11.3471 10.2274 11.3657 10.1902 11.3913 10.1577C11.417 10.1251 11.4493 10.0979 11.4862 10.0778C11.5231 10.0577 11.5639 10.0449 11.6061 10.0405C11.6483 10.036 11.6909 10.0398 11.7315 10.0517C11.7721 10.0636 11.8097 10.0834 11.842 10.1097L12.8532 10.8506C12.9184 10.8982 12.9616 10.9685 12.9735 11.0464C12.9854 11.1243 12.9651 11.2037 12.917 11.2674V11.2674ZM12.7451 3.62078L11.7565 4.39158C11.7025 4.43443 11.6349 4.45836 11.565 4.45945C11.4999 4.46044 11.4362 4.44185 11.3827 4.40627C11.3291 4.3707 11.2885 4.3199 11.2664 4.26099C11.2444 4.20207 11.2419 4.13796 11.2595 4.07761C11.2771 4.01726 11.3138 3.96367 11.3645 3.92433L12.353 3.15233C12.385 3.12751 12.4217 3.10898 12.4611 3.09782C12.5005 3.08666 12.5418 3.08307 12.5826 3.08727C12.6234 3.09146 12.6629 3.10336 12.699 3.12228C12.735 3.1412 12.7668 3.16676 12.7925 3.19752C12.8183 3.22828 12.8374 3.26363 12.849 3.30155C12.8605 3.33946 12.8642 3.37921 12.8598 3.41851C12.8554 3.45781 12.843 3.49591 12.8233 3.53061C12.8036 3.56532 12.7771 3.59596 12.7451 3.62078V3.62078Z" fill="white"/>
</svg>
