<svg width="20" height="21" viewBox="0 0 20 21" fill="none" xmlns="http://www.w3.org/2000/svg">
<path d="M0.00670515 5.54066L5.11079 5.53435C5.66668 6.75352 6.65844 7.72001 7.89024 8.24431C8.34506 7.83371 8.9199 7.55577 9.55791 7.46733C9.26101 7.30941 9.05255 6.99356 9.05255 6.63349V5.06058C9.05255 4.53627 9.47579 4.11304 10.0001 4.11304C10.5244 4.11304 10.9476 4.53627 10.9476 5.06058V6.63981C10.9476 7.00619 10.7392 7.31572 10.4423 7.47365C11.0803 7.56208 11.6551 7.84003 12.1099 8.25063C13.3418 7.72001 14.3335 6.75352 14.8894 5.54066H19.9935C19.9935 5.54066 20.2651 8.06744 17.3341 8.06744C17.1698 8.06744 17.0056 8.06744 16.835 8.06744C16.835 8.08007 17.1003 10.5942 14.1756 10.5942C13.8092 10.5942 13.4681 10.5942 13.1522 10.5942C13.1522 13.7527 11.5856 16.9806 9.99378 20.0696C8.23135 16.7343 6.83531 13.7527 6.83531 10.5942C6.51946 10.5942 6.17835 10.5942 5.81197 10.5942C2.89354 10.5942 3.15254 8.08639 3.15254 8.06744C2.98198 8.06744 2.81142 8.06744 2.6535 8.06744C-0.264923 8.06744 0.00670515 5.54066 0.00670515 5.54066Z" fill="white"/>
<path d="M11.578 6.22218V5.0725C12.0581 4.63663 12.3676 4.01757 12.3676 3.32271C12.3676 2.0151 11.3064 0.953857 9.99877 0.953857C8.69116 0.953857 7.62992 2.0151 7.62992 3.32271C7.62992 4.01757 7.93945 4.64295 8.41953 5.0725V6.21586C7.38987 5.65366 6.68238 4.57346 6.68238 3.31639C6.68238 1.48448 8.17317 0 9.99877 0C11.8244 0 13.3152 1.48448 13.3152 3.31639C13.3152 4.57978 12.6077 5.65997 11.578 6.22218Z" fill="white"/>
</svg>
