<svg width="24" height="26" viewBox="0 0 24 26" fill="none" xmlns="http://www.w3.org/2000/svg">
<g filter="url(#filter0_d_5666_704)">
<path d="M20.8701 15.064C20.1123 11.512 20.774 11.512 20.5392 9.50667C20.0055 4.86667 16.1309 3 12 3C7.86918 3 3.99452 4.86667 3.46082 9.50667C3.226 11.512 3.88778 11.512 3.12993 15.064C2.38275 18.552 5.0726 18.232 5.74506 18.872C6.41752 19.512 6.84448 21.5173 7.73042 22.264C8.07199 22.552 9.90792 23 11.9893 23C14.0708 23 15.9067 22.5627 16.2483 22.264C17.1342 21.528 17.5505 19.512 18.2336 18.872C18.9274 18.2213 21.6173 18.552 20.8701 15.064ZM7.68773 16.4507C5.94787 16.4507 4.5389 15.864 4.5389 14.1253C4.5389 12.3867 5.81978 10.7973 8.09334 11.5333C10.3669 12.2693 10.8366 13.2187 10.8366 14.9467C10.8366 16.6853 9.42759 16.4507 7.68773 16.4507ZM11.9893 20.7493C11.1461 20.7493 10.4523 22.072 10.463 20.7493C10.463 19.4267 11.1674 16.8347 12.0107 16.8347C12.8539 16.8347 13.5264 19.4267 13.5264 20.7493C13.5157 22.0613 12.8326 20.7493 11.9893 20.7493ZM16.323 16.4507C14.5831 16.4507 13.1742 16.6853 13.1742 14.9467C13.1742 13.208 13.6438 12.2693 15.9174 11.5333C18.1909 10.7973 19.4718 12.3867 19.4718 14.1253C19.4718 15.864 18.0628 16.4507 16.323 16.4507Z" fill="white"/>
</g>
<defs>
<filter id="filter0_d_5666_704" x="0.25" y="0.25" width="23.5" height="25.5" filterUnits="userSpaceOnUse" color-interpolation-filters="sRGB">
<feFlood flood-opacity="0" result="BackgroundImageFix"/>
<feColorMatrix in="SourceAlpha" type="matrix" values="0 0 0 0 0 0 0 0 0 0 0 0 0 0 0 0 0 0 127 0" result="hardAlpha"/>
<feOffset/>
<feGaussianBlur stdDeviation="1.375"/>
<feComposite in2="hardAlpha" operator="out"/>
<feColorMatrix type="matrix" values="0 0 0 0 0 0 0 0 0 0 0 0 0 0 0 0 0 0 0.66 0"/>
<feBlend mode="normal" in2="BackgroundImageFix" result="effect1_dropShadow_5666_704"/>
<feBlend mode="normal" in="SourceGraphic" in2="effect1_dropShadow_5666_704" result="shape"/>
</filter>
</defs>
</svg>
