<svg width="24" height="24" viewBox="0 0 24 24" fill="none" xmlns="http://www.w3.org/2000/svg">
<path fill-rule="evenodd" clip-rule="evenodd" d="M12 24C18.6274 24 24 18.6274 24 12C24 5.37258 18.6274 0 12 0C5.37258 0 0 5.37258 0 12C0 18.6274 5.37258 24 12 24ZM10.125 5.83709C10.125 6.15497 10.2919 6.31391 10.6257 6.31391H13.3435C13.6455 6.31391 13.7965 6.15497 13.7965 5.83709V3.50066C13.7965 3.35762 13.7568 3.23841 13.6773 3.14305C13.5978 3.04768 13.4866 3 13.3435 3H10.6257C10.2919 3 10.125 3.16689 10.125 3.50066V5.83709ZM10.1965 8.19735V21H13.725V8.19735H10.1965Z" fill="white"/>
</svg>
