<svg width="252" height="252" viewBox="0 0 252 252" fill="none" xmlns="http://www.w3.org/2000/svg">
<path fill-rule="evenodd" clip-rule="evenodd" d="M134.647 24.4087C131.635 24.1382 128.583 24 125.5 24C122.277 24 119.09 24.1509 115.945 24.4461L107.586 32.8051C113.385 31.6849 119.374 31.0983 125.5 31.0983C131.465 31.0983 137.3 31.6545 142.957 32.7179L134.647 24.4087ZM217.782 107.543C218.846 113.2 219.402 119.035 219.402 125C219.402 128.861 219.169 132.668 218.716 136.407L226.434 128.689C226.478 127.465 226.5 126.235 226.5 125C226.5 121.917 226.362 118.865 226.091 115.853L217.782 107.543ZM225.24 109.001L215.96 99.7205C213.892 92.3067 210.938 85.2627 207.218 78.71V65.6317C216.37 78.2069 222.689 92.9756 225.24 109.001ZM226.012 134.988L217.6 143.4C215.622 153.354 212.072 162.74 207.218 171.29V184.368C217.503 170.235 224.212 153.332 226.012 134.988ZM136.907 218.216C133.168 218.669 129.361 218.902 125.5 218.902C119.638 218.902 113.902 218.365 108.337 217.337L116.615 225.615C119.543 225.87 122.506 226 125.5 226C126.735 226 127.965 225.978 129.189 225.934L136.907 218.216ZM135.488 225.512L143.9 217.1C153.855 215.122 163.243 211.571 171.793 206.716H184.871C170.737 217.003 153.833 223.712 135.488 225.512ZM109.785 224.785L100.551 215.551C93.0149 213.48 85.8576 210.492 79.2065 206.716H66.129C78.779 215.923 93.649 222.264 109.785 224.785ZM33.1631 142.163C32.1354 136.598 31.5983 130.862 31.5983 125C31.5983 118.874 32.1849 112.885 33.3051 107.086L24.9461 115.445C24.6509 118.59 24.5 121.777 24.5 125C24.5 127.994 24.6303 130.957 24.8854 133.885L33.1631 142.163ZM25.7154 140.715L34.9486 149.949C36.9746 157.318 39.8762 164.326 43.5346 170.852V184.027C34.4627 171.452 28.2134 156.705 25.7154 140.715ZM25.8074 108.706L35.1368 99.377C37.1526 92.2538 39.988 85.4748 43.5346 79.1484V65.973C34.5722 78.3965 28.3647 92.9394 25.8074 108.706ZM99.877 34.6368L109.206 25.3074C93.4405 27.8645 78.8986 34.0712 66.4757 43.0327H79.6519C85.9774 39.487 92.7551 36.6522 99.877 34.6368ZM150.779 34.5403L141.499 25.2602C157.379 27.7874 172.024 34.0155 184.524 43.0327H171.348C164.921 39.43 158.027 36.5613 150.779 34.5403ZM47.782 177.718C54.3782 187.423 62.7446 195.828 72.4171 202.469H60.6919C56.0087 198.547 51.6864 194.208 47.782 189.509V177.718ZM60.9931 47.2801C56.1939 51.2678 51.7699 55.6916 47.782 60.4907V72.282C54.4616 62.4539 62.9566 53.9593 72.7849 47.2801H60.9931ZM202.971 71.92C196.329 62.2453 187.923 53.8771 178.215 47.2801H190.007C194.707 51.1856 199.047 55.5093 202.971 60.1943V71.92ZM202.971 178.08V189.806C199.131 194.39 194.893 198.629 190.308 202.469H178.583C188.135 195.911 196.413 187.632 202.971 178.08Z" fill="#D9D9D9" fill-opacity="0.2"/>
</svg>
