<svg width="252" height="252" viewBox="0 0 252 252" fill="none" xmlns="http://www.w3.org/2000/svg">
<circle cx="125.501" cy="125" r="90" fill="#D9D9D9"/>
<path fill-rule="evenodd" clip-rule="evenodd" d="M106.444 197.364C104.477 196.86 102.501 198.305 102.501 200.335V229.731C102.501 231.388 103.844 232.731 105.501 232.731H144.501C146.158 232.731 147.501 231.388 147.501 229.731V200.073C147.501 198.024 145.491 196.576 143.513 197.112C137.457 198.755 131.082 199.632 124.501 199.632C118.265 199.632 112.215 198.844 106.444 197.364Z" fill="#D9D9D9"/>
<path fill-rule="evenodd" clip-rule="evenodd" d="M209.501 189.343C203.695 197.122 196.846 204.076 189.162 210H209.501V189.343ZM59.8395 210C52.5922 204.413 46.0881 197.909 40.501 190.661V210H59.8395ZM209.501 62.6567V41H187.844C196.065 47.1359 203.365 54.4363 209.501 62.6567ZM61.1577 41H40.501V61.3385C46.4248 53.6545 53.3794 46.806 61.1577 41Z" fill="#D9D9D9" fill-opacity="0.15"/>
<path fill-rule="evenodd" clip-rule="evenodd" d="M164.794 223.42C155.817 227.113 146.37 229.564 136.734 230.7L154.186 241.145L164.794 223.42ZM25.7664 164.288C22.4169 155.772 20.1761 146.851 19.1038 137.763L9.1727 154.357L25.7664 164.288ZM229.852 114.715L240.974 96.132L222.391 85.0104C226.294 94.4969 228.809 104.51 229.852 114.715ZM113.686 19.9518L95.9609 9.34375L85.5163 26.7955C94.5454 23.2442 104.03 20.9392 113.686 19.9518Z" fill="#D9D9D9" fill-opacity="0.15"/>
<path fill-rule="evenodd" clip-rule="evenodd" d="M111.241 230.042C101.612 228.813 92.1886 226.272 83.2511 222.496L93.2562 240.203L111.241 230.042ZM19.633 109.903C20.9321 100.845 23.3952 91.9825 26.9565 83.553L10.1197 93.0662L19.633 109.903ZM221.538 167.72L240.393 157.067L229.74 138.212C228.441 148.387 225.677 158.334 221.538 167.72ZM167.419 27.9141L157.257 9.92969L139.549 19.9349C149.154 21.3123 158.537 23.9982 167.419 27.9141Z" fill="#D9D9D9" fill-opacity="0.15"/>
<path fill-rule="evenodd" clip-rule="evenodd" d="M139.903 230.6C130.361 231.91 120.674 231.92 111.129 230.63L125.501 245.002L139.903 230.6ZM20.3653 139.866C19.0759 130.327 19.0853 120.645 20.3934 111.108L5.99993 125.501L20.3653 139.866ZM230.415 140.088L245.002 125.501L230.386 110.885C231.735 120.569 231.745 130.403 230.415 140.088ZM140.11 20.6091L125.501 6L110.923 20.5784C120.603 19.2507 130.432 19.2609 140.11 20.6091Z" fill="#D9D9D9" fill-opacity="0.15"/>
<path fill-rule="evenodd" clip-rule="evenodd" d="M86.0555 223.975C77.1132 220.396 68.6883 215.615 61.0298 209.775L66.4161 229.373L86.0555 223.975ZM27.0133 86.005C30.6093 77.0754 35.4043 68.6647 41.2571 61.0212L21.6294 66.4156L27.0133 86.005ZM209.482 190.053L229.374 184.586L223.896 164.656C220.281 173.74 215.427 182.292 209.482 190.053ZM190.062 41.5506L184.587 21.6289L164.707 27.0926C173.778 30.7249 182.316 35.5935 190.062 41.5506Z" fill="#D9D9D9" fill-opacity="0.15"/>
<path fill-rule="evenodd" clip-rule="evenodd" d="M41.0845 189.742C35.2495 182.078 30.4755 173.649 26.9034 164.705L21.4607 184.288L41.0845 189.742ZM61.2757 41.0334C68.947 35.2179 77.3808 30.4634 86.328 26.9104L66.7159 21.4596L61.2757 41.0334ZM164.413 224.019L184.289 229.543L189.824 209.628C182.057 215.566 173.5 220.412 164.413 224.019ZM224.011 86.6207L229.544 66.7148L209.68 61.194C215.598 68.969 220.424 77.5313 224.011 86.6207Z" fill="#D9D9D9" fill-opacity="0.15"/>
</svg>
