<svg width="192" height="252" viewBox="0 0 192 252" fill="none" xmlns="http://www.w3.org/2000/svg">
<path fill-rule="evenodd" clip-rule="evenodd" d="M103.6 31.384C100.767 31.1298 97.8988 31 95 31C92.0134 31 89.059 31.1378 86.1428 31.4074L77.7625 39.7878C83.3365 38.6795 89.1004 38.0983 95 38.0983C100.797 38.0983 106.463 38.6594 111.946 39.7304L103.6 31.384ZM181.27 109.054C182.341 114.537 182.902 120.203 182.902 126C182.902 131.695 182.36 137.263 181.326 142.657L189.639 134.344C189.878 131.594 190 128.811 190 126C190 123.101 189.87 120.233 189.616 117.4L181.27 109.054ZM188.814 110.948L179.473 101.607C177.62 95.1785 175.053 89.0525 171.863 83.3205V70.1583C180.471 81.9858 186.415 95.8763 188.814 110.948ZM188.858 140.774L179.567 150.065C177.707 156.614 175.107 162.85 171.863 168.68V181.842C180.524 169.942 186.488 155.953 188.858 140.774ZM111.657 212.326C106.263 213.36 100.695 213.902 95 213.902C89.203 213.902 83.5371 213.341 78.0536 212.27L86.3999 220.616C89.2326 220.87 92.1012 221 95 221C97.8114 221 100.594 220.878 103.344 220.639L111.657 212.326ZM109.774 219.858L119.065 210.567C125.614 208.707 131.85 206.107 137.68 202.863H150.842C138.942 211.524 124.953 217.488 109.774 219.858ZM79.9484 219.814L70.6071 210.473C64.1785 208.62 58.0525 206.053 52.3205 202.863H39.1583C50.9858 211.471 64.8763 217.415 79.9484 219.814ZM8.73039 142.946C7.65944 137.463 7.09828 131.797 7.09828 126C7.09828 120.1 7.67948 114.337 8.78775 108.763L0.407437 117.143C0.137817 120.059 0 123.013 0 126C0 128.899 0.129838 131.767 0.384015 134.6L8.73039 142.946ZM1.18572 141.052L10.5269 150.393C12.3347 156.664 14.8219 162.648 17.9037 168.258V181.52C9.42184 169.763 3.56327 155.987 1.18572 141.052ZM1.23048 110.67L10.6226 101.278C12.422 95.1262 14.8759 89.254 17.9037 83.7417V70.4797C9.47457 82.164 3.63622 95.8414 1.23048 110.67ZM70.2778 41.6226L79.6699 32.2305C64.8414 34.6362 51.164 40.4746 39.4797 48.9037H52.7417C58.254 45.8759 64.1262 43.422 70.2778 41.6226ZM119.393 41.5269L110.052 32.1857C124.987 34.5633 138.763 40.4218 150.52 48.9037H137.258C131.648 45.8219 125.664 43.3347 119.393 41.5269ZM21.8988 174.832C28.2415 184.308 36.3778 192.482 45.822 198.868H34.044C29.6381 195.179 25.5718 191.097 21.8988 186.677V174.832ZM34.3231 52.8988C29.8097 56.6492 25.6492 60.8097 21.8988 65.3231V77.1681C28.3188 67.5765 36.5765 59.3188 46.1681 52.8988H34.3231ZM167.868 76.822C161.482 67.3778 153.308 59.2415 143.832 52.8988H155.677C160.097 56.5718 164.179 60.6381 167.868 65.044V76.822ZM167.868 175.178V186.956C164.257 191.269 160.269 195.257 155.956 198.868H144.178C153.507 192.56 161.56 184.507 167.868 175.178Z" fill="#D9D9D9" fill-opacity="0.2"/>
<circle cx="95" cy="126" r="80" fill="#D9D9D9"/>
</svg>
