<svg width="252" height="252" viewBox="0 0 252 252" fill="none" xmlns="http://www.w3.org/2000/svg">
<circle cx="126" cy="126" r="90" fill="#D9D9D9"/>
<path fill-rule="evenodd" clip-rule="evenodd" d="M106.943 188.364C104.976 187.86 103 189.305 103 191.335V220.731C103 222.388 104.343 223.731 106 223.731H145C146.657 223.731 148 222.388 148 220.731V191.073C148 189.024 145.99 187.576 144.012 188.112C137.956 189.755 131.581 190.632 125 190.632C118.764 190.632 112.714 189.844 106.943 188.364Z" fill="#D9D9D9"/>
<path fill-rule="evenodd" clip-rule="evenodd" d="M106.943 198.364C104.976 197.86 103 199.305 103 201.335V230.731C103 232.388 104.343 233.731 106 233.731H145C146.657 233.731 148 232.388 148 230.731V201.073C148 199.024 145.99 197.576 144.012 198.112C137.956 199.755 131.581 200.632 125 200.632C118.764 200.632 112.714 199.844 106.943 198.364Z" fill="#D9D9D9"/>
</svg>
