<svg width="252" height="252" viewBox="0 0 252 252" fill="none" xmlns="http://www.w3.org/2000/svg">
<path fill-rule="evenodd" clip-rule="evenodd" d="M210 189.343C204.194 197.122 197.346 204.076 189.661 210H210V189.343ZM60.3385 210C53.0912 204.413 46.5871 197.909 41 190.661V210H60.3385ZM210 62.6567V41H188.343C196.564 47.1359 203.864 54.4363 210 62.6567ZM61.6567 41H41V61.3385C46.9238 53.6545 53.8784 46.806 61.6567 41Z" fill="#D9D9D9" fill-opacity="0.15"/>
<path fill-rule="evenodd" clip-rule="evenodd" d="M139.902 230.6C130.36 231.91 120.673 231.92 111.128 230.63L125.5 245.002L139.902 230.6ZM20.3644 139.866C19.075 130.327 19.0844 120.645 20.3925 111.108L5.99896 125.501L20.3644 139.866ZM230.414 140.088L245.001 125.501L230.385 110.885C231.734 120.569 231.744 130.403 230.414 140.088ZM140.109 20.6091L125.5 6L110.922 20.5784C120.602 19.2507 130.431 19.2609 140.109 20.6091Z" fill="#D9D9D9" fill-opacity="0.15"/>
<path fill-rule="evenodd" clip-rule="evenodd" d="M148 202.898C181.416 193.297 205.865 162.504 205.865 126C205.865 81.8172 170.048 46 125.865 46C81.6825 46 45.8652 81.8172 45.8652 126C45.8652 162.237 69.9586 192.847 103 202.685V220.731C103 222.388 104.343 223.731 106 223.731H145C146.657 223.731 148 222.388 148 220.731V202.898Z" fill="#D9D9D9"/>
<circle cx="126" cy="125" r="90" fill="#D9D9D9"/>
<path fill-rule="evenodd" clip-rule="evenodd" d="M106.943 197.364C104.976 196.86 103 198.305 103 200.335V229.731C103 231.388 104.343 232.731 106 232.731H145C146.657 232.731 148 231.388 148 229.731V200.073C148 198.024 145.99 196.576 144.012 197.112C137.956 198.755 131.581 199.632 125 199.632C118.764 199.632 112.714 198.844 106.943 197.364Z" fill="#D9D9D9"/>
</svg>
