<svg width="527" height="506" viewBox="0 0 527 506" fill="none" xmlns="http://www.w3.org/2000/svg">
<path d="M501.819 140.924C443.838 170.677 385.856 200.418 326.445 230.911C329.574 224.014 487.523 142.276 500.788 139.256C501.139 139.808 501.479 140.372 501.831 140.924H501.819Z" fill="white"/>
<path d="M505.815 243.074C448.607 247.728 391.399 252.369 334.18 257.023C334.098 256.094 334.027 255.154 333.945 254.226C390.978 247.786 448.221 243.85 505.487 240.113C505.593 241.1 505.698 242.087 505.815 243.074Z" fill="white"/>
<path d="M211.441 65.4023C223.101 109.009 234.749 152.604 246.408 196.211C245.459 196.47 244.51 196.716 243.549 196.975C231.889 153.368 216.562 110.737 209.566 65.9076C210.187 65.7431 210.82 65.5786 211.441 65.4141V65.4023Z" fill="white"/>
<path d="M203.697 243.612C162.425 232.59 119.924 226.75 79.8594 211.627C121.517 221.028 163.433 229.382 203.697 243.612Z" fill="white"/>
<path d="M145.738 112.041C169.585 145.002 197.943 172.98 219.82 207.186C211.747 204.202 146.055 120.196 145.738 112.041Z" fill="white"/>
<path d="M233.845 198.433C213.608 162.734 193.077 127.247 178.242 88.8691C196.276 125.672 218.517 160.313 233.845 198.433Z" fill="white"/>
<path d="M321.172 237.666C355.072 222.555 389.336 208.348 424.819 197.291C390.953 212.508 357.135 227.855 321.172 237.666Z" fill="white"/>
<path d="M257.261 201.028C251.952 155.059 243.316 109.443 243.797 62.8398C249.023 108.844 254.249 154.848 259.475 200.852C258.737 200.911 257.999 200.969 257.272 201.028H257.261Z" fill="white"/>
<path d="M438.377 214.908C402.239 221.923 368.689 238.48 331.695 242.405C366.639 230.983 401.793 220.325 437.627 212.123L438.377 214.908Z" fill="white"/>
<path d="M263.869 188.186C261.947 150.502 259.943 112.864 262.673 75.2148C262.087 112.899 268.861 150.525 263.869 188.186Z" fill="white"/>
<path d="M427.408 233.826C390.191 244.343 351.814 247.316 313.707 252.063C350.924 241.758 389.723 241.088 427.408 233.826Z" fill="white"/>
<path d="M120.992 169.631C153.815 190.253 186.625 210.864 219.448 231.487C219.038 232.145 218.639 232.791 218.229 233.449C183.157 216.54 153.487 190.853 119.211 172.651C119.797 171.64 120.394 170.641 120.98 169.631H120.992Z" fill="white"/>
<path d="M230.238 85.334C235.804 121.033 248.905 155.298 249.515 191.807C241.874 156.508 233.484 121.35 230.238 85.334Z" fill="white"/>
<path d="M199.785 194.132C170.841 171.606 149.151 142.182 124.977 115.12C125.27 114.744 125.562 114.356 125.867 113.98C127.25 114.979 128.844 115.79 129.968 117.024C138.909 126.836 147.593 136.906 156.698 146.565C168.873 159.503 181.364 172.135 193.692 184.919C196.199 187.516 198.59 190.231 201.039 192.886C200.629 193.298 200.207 193.709 199.797 194.132H199.785Z" fill="white"/>
<path d="M410.464 129.514C382.388 154.332 354.311 179.137 326.234 203.955C325.684 203.32 325.121 202.686 324.57 202.051C352.085 176.599 378.884 150.313 409.105 127.939C409.562 128.468 410.007 128.997 410.464 129.526V129.514Z" fill="white"/>
<path d="M360.942 124.555C340.177 153.802 319.401 183.061 297.77 213.543C297.793 205.494 352.341 128.538 360.942 124.555Z" fill="white"/>
<path d="M319.916 103.429C311.538 137.06 298.05 168.916 285.418 201.054C284.926 200.983 284.434 200.913 283.941 200.842C284.082 199.456 283.953 197.964 284.422 196.694C291.113 178.222 297.945 159.797 304.6 141.302C308.561 130.315 312.264 119.246 316.096 108.212C316.717 106.437 317.408 104.675 318.065 102.912C318.686 103.088 319.295 103.265 319.916 103.429Z" fill="white"/>
<path d="M361.493 97.8561C342.732 129.348 323.972 160.84 305.211 192.332L303.465 191.286C319.038 157.855 341.021 128.243 358.927 96.1992C359.782 96.7515 360.638 97.3038 361.493 97.8561Z" fill="white"/>
<path d="M320.141 217.515L397.187 158.244C397.762 158.984 398.336 159.736 398.91 160.477C373.739 180.9 348.967 201.851 321.617 219.489C321.125 218.831 320.633 218.173 320.129 217.515H320.141Z" fill="white"/>
<path d="M311.422 230.993C337.131 210.171 367.235 196.493 395.406 179.643C369.556 200.218 339.639 214.225 311.422 230.993Z" fill="white"/>
<path d="M334.459 114.757C321.405 141.925 308.339 169.08 295.285 196.248C294.57 195.907 293.855 195.555 293.129 195.214C303.863 166.977 317.175 139.962 331.904 113.629L334.459 114.757Z" fill="white"/>
<path d="M176.074 128.316C194.647 155.895 213.221 183.486 231.794 211.065C231.337 211.37 230.892 211.676 230.435 211.981C225.068 209.396 177.269 138.058 176.062 128.328L176.074 128.316Z" fill="white"/>
<path d="M494.109 92.6278C466.454 112.827 438.811 133.038 410.383 153.802C410.758 148.984 484.207 94.0731 492.703 90.877C493.171 91.4645 493.64 92.0403 494.109 92.6278Z" fill="white"/>
<path d="M200.179 236.692C169.009 227.139 138.881 214.777 108.789 202.333C109.094 201.51 109.398 200.688 109.703 199.865C140.147 211.393 170.579 222.908 201.023 234.436L200.179 236.692Z" fill="white"/>
<path d="M283.355 103.253C280.788 134.898 276.605 166.331 271.344 197.623C270.488 197.517 269.644 197.411 268.789 197.306C272.703 165.837 276.617 134.369 280.531 102.9C281.468 103.018 282.417 103.135 283.355 103.253Z" fill="white"/>
<path d="M281.128 183.391C279.581 175.483 296.995 96.8005 301.061 91.8652C297.065 122.934 288.475 153.016 281.128 183.391Z" fill="white"/>
<path d="M185.968 245.235C155.606 240.265 126.733 235.553 97.8594 230.829C103.66 226.528 181.105 239.383 185.968 245.235Z" fill="white"/>
<path d="M197.437 213.861C170.919 194.614 144.401 175.366 117.883 156.106C118.492 155.26 119.102 154.426 119.711 153.58C146.288 172.828 172.864 192.075 199.453 211.323C198.785 212.169 198.117 213.015 197.449 213.861H197.437Z" fill="white"/>
<path d="M108.531 147.375C82.552 128.856 57.2057 110.772 30.9688 92.0645C39.1363 91.7002 107.594 140.912 108.531 147.375Z" fill="white"/>
<path d="M233.67 177.506C220.921 151.96 214.769 124.157 205.547 97.401C206.449 97.0837 207.351 96.7782 208.265 96.4609C217.452 123.264 226.64 150.068 235.827 176.871L233.682 177.506H233.67Z" fill="white"/>
<path d="M366.439 138.079C348.112 161.122 329.785 184.165 311.458 207.208C310.309 201.862 358.248 141.193 365.092 136.998C365.537 137.362 365.994 137.715 366.439 138.079Z" fill="white"/>
<path d="M151.715 160.982C172.62 178.174 193.537 195.365 214.442 212.556C208.595 213.555 152.172 166.952 151.715 160.982Z" fill="white"/>
<path d="M83.7847 227.071C55.8604 222.899 27.9243 218.728 0 214.544C0.140618 213.64 0.269517 212.747 0.410135 211.842C28.4868 215.202 56.54 218.669 84.2417 224.591C84.0894 225.414 83.9488 226.248 83.7964 227.071H83.7847Z" fill="white"/>
<path d="M195.574 253.38C168.61 251.758 141.659 250.136 114.695 248.515L114.859 245.941C141.858 246.999 168.88 247.61 195.726 250.971C195.679 251.77 195.621 252.581 195.574 253.38Z" fill="white"/>
<path d="M319.53 6.90785C314.433 30.6208 309.336 54.3337 304.25 78.0584C303.406 77.8821 302.562 77.6941 301.707 77.5178C304.918 53.4054 311.281 29.9627 316.73 6.32031C317.667 6.52007 318.605 6.71984 319.53 6.90785Z" fill="white"/>
<path d="M226.406 71.2307C222.093 47.6588 217.769 24.0986 213.457 0.526731C214.336 0.362221 215.226 0.197713 216.105 0.0332031C221.273 23.4406 225.785 46.9773 229.136 70.7254C228.222 70.8899 227.308 71.0662 226.394 71.2307H226.406Z" fill="white"/>
<path d="M127.504 189.689C148.257 200.065 169.01 210.453 189.762 220.829C189.387 221.616 189.001 222.392 188.626 223.179C166.924 214.848 146.944 202.944 126.391 192.204C126.766 191.37 127.129 190.524 127.504 189.689Z" fill="white"/>
<path d="M139.564 154.178C122.045 139.091 104.526 124.003 87.0195 108.926C87.5 108.362 87.9921 107.798 88.4726 107.234C107.186 120.912 124.693 136 141.099 152.392C140.595 152.992 140.079 153.591 139.575 154.19L139.564 154.178Z" fill="white"/>
<path d="M34.707 174.133C55.202 181.289 75.7088 188.433 96.2038 195.59C95.9694 196.271 95.7468 196.953 95.5124 197.622C74.2909 192.816 54.1474 184.767 33.9922 176.777C34.2266 175.895 34.4726 175.014 34.707 174.133Z" fill="white"/>
<path d="M98.4647 52.7715C111.589 69.058 124.713 85.3444 137.838 101.631C137.006 102.312 136.174 102.994 135.33 103.676C122.241 87.4243 109.152 71.1731 96.0625 54.9219C96.8593 54.2051 97.6679 53.4883 98.4647 52.7715Z" fill="white"/>
<path d="M199.339 84.921C192.706 66.7191 186.086 48.5055 179.453 30.3037C180.414 29.9512 181.387 29.5869 182.348 29.2344C189.097 47.4245 195.859 65.6146 202.608 83.7929C201.518 84.1689 200.429 84.5449 199.327 84.921H199.339Z" fill="white"/>
<path d="M527.001 189.631C511.381 194.378 495.761 199.114 479.414 204.072C481.5 199.137 520.416 186.74 527.001 189.631Z" fill="white"/>
<path d="M379.655 16.7069C372.706 31.0428 365.757 45.3669 358.808 59.7028C357.848 59.2445 356.887 58.7744 355.914 58.3162C362.816 43.9803 369.718 29.6445 376.62 15.3086C377.628 15.7786 378.647 16.2486 379.655 16.7069Z" fill="white"/>
<path d="M393.133 43.6295C384.661 57.4249 376.177 71.2202 367.47 85.3798C365.279 81.2435 385.458 46.8962 391.715 42.6777C392.184 42.995 392.664 43.3123 393.133 43.6178V43.6295Z" fill="white"/>
<path d="M437.941 190.757C451.089 185.575 464.249 180.405 477.396 175.223C477.736 176.08 478.076 176.926 478.428 177.784C465.526 183.695 452.355 188.959 438.844 193.389C438.539 192.508 438.246 191.627 437.941 190.745V190.757Z" fill="white"/>
<path d="M33.164 236.986C44.6361 237.962 56.1082 238.937 67.5802 239.912C67.4865 240.923 67.4045 241.922 67.3107 242.932C55.8386 241.945 44.3549 240.946 32.8828 239.959C32.9766 238.972 33.0703 237.973 33.164 236.986Z" fill="white"/>
<path d="M337.555 100.5C341.586 90.5355 345.617 80.5709 350.058 69.5723C352.495 74.7661 344.257 96.0583 339.113 101.111C338.598 100.9 338.07 100.7 337.555 100.488V100.5Z" fill="white"/>
<path d="M113.948 186.082C104.022 182.709 93.8159 180.007 85.0156 174.037C85.332 173.297 85.6367 172.545 85.9531 171.805C95.6557 175.741 105.358 179.689 115.061 183.626C114.686 184.448 114.323 185.259 113.948 186.082Z" fill="white"/>
<path d="M373.129 126.33C379.433 118.669 385.726 111.007 392.03 103.357L394.503 105.414C388.175 113.052 381.859 120.69 375.531 128.328C374.734 127.658 373.926 127 373.129 126.33Z" fill="white"/>
<path d="M431.776 159.232C423.784 163.968 415.792 168.703 407.801 173.451C407.285 172.581 406.77 171.711 406.242 170.854C414.211 166.048 422.191 161.242 430.159 156.447C430.698 157.376 431.225 158.316 431.764 159.244L431.776 159.232Z" fill="white"/>
<path d="M159.93 51.7363C164.242 59.7738 168.554 67.823 173.042 76.2013C168.402 75.9193 159.578 60.9136 158.453 52.5471C158.945 52.2769 159.437 52.0066 159.93 51.7363Z" fill="white"/>
<path d="M114.628 105.497C107.949 99.034 101.269 92.5711 94.5781 86.1082C99.6638 85.5207 113.784 99.1867 114.628 105.497Z" fill="white"/>
<path d="M288.605 54.4623C289.625 46.1546 290.656 37.8468 291.676 29.5391C292.66 29.6566 293.644 29.7741 294.617 29.8798C293.621 38.2228 292.637 46.5658 291.64 54.8971C290.621 54.7443 289.613 54.6033 288.594 54.4506L288.605 54.4623Z" fill="white"/>
<path d="M166.245 117.987C161.476 110.877 156.695 103.768 151.246 95.6367C157.48 97.4816 167.651 112.182 166.245 117.987Z" fill="white"/>
<path d="M240.504 48.5287C239.871 42.0071 239.227 35.4854 238.594 28.9638C239.543 28.858 240.504 28.7523 241.453 28.6348C242.144 35.1094 242.836 41.584 243.515 48.0469C242.508 48.1997 241.512 48.3642 240.504 48.517V48.5287Z" fill="white"/>
<path d="M290.271 67.8574C288.653 75.8479 287.282 82.6398 285.583 90.9945C282.537 84.6844 285.267 71.2534 290.271 67.8574Z" fill="white"/>
<path d="M100.085 247.502C93.7806 246.597 87.4645 245.692 80.75 244.728C83.8319 240.968 95.9367 242.073 100.343 245.856L100.085 247.502Z" fill="white"/>
<path d="M263.633 44.2734V63.6503C263.035 63.6738 262.449 63.6856 261.852 63.7091V44.485L263.633 44.2734Z" fill="white"/>
<path d="M418.68 118.515C423.941 113.791 429.214 109.079 435.343 103.58C434.757 109.385 426.086 117.657 419.805 119.831C419.43 119.397 419.055 118.962 418.68 118.527V118.515Z" fill="white"/>
<path d="M57.9336 158.279C63.4646 160.97 68.9838 163.661 75.0421 166.611C70.2259 168.69 60.5702 164.507 57.9336 158.279Z" fill="white"/>
<path d="M457.03 231.439C451.828 232.085 446.613 232.732 441.41 233.378C441.281 232.497 441.141 231.615 441.012 230.734L456.515 228.02C456.691 229.159 456.855 230.287 457.03 231.427V231.439Z" fill="white"/>
<path d="M366.988 111.63C370.129 107.246 373.269 102.863 376.421 98.4805C377.207 99.0445 378.003 99.5968 378.788 100.161C375.66 104.591 372.531 109.021 369.402 113.451C368.605 112.84 367.797 112.241 367 111.63H366.988Z" fill="white"/>
<path d="M331.016 74.4844C329.211 79.8779 327.407 85.2598 325.309 91.5346C322.813 86.5641 325.262 78.6089 331.016 74.4844Z" fill="white"/>
<path d="M107.749 164.636C103.472 162.051 99.1951 159.466 94.9062 156.881C95.2929 156.152 95.6797 155.424 96.0664 154.695C101.058 155.753 104.82 159.243 108.827 162.251C108.464 163.05 108.101 163.849 107.738 164.636H107.749Z" fill="white"/>
<path d="M451.488 208.667C456.234 207.339 460.968 206.011 465.714 204.684C465.948 205.447 466.171 206.199 466.405 206.963C462.105 209.772 457.183 210.676 452.074 210.947C451.887 210.195 451.687 209.431 451.5 208.679L451.488 208.667Z" fill="white"/>
<path d="M25.181 371.633C83.1623 343.28 141.144 314.938 200.555 285.88C197.426 292.453 39.4771 370.345 26.2122 373.223C25.8606 372.696 25.5208 372.159 25.1693 371.633L25.181 371.633Z" fill="white"/>
<path d="M21.1847 274.291C78.3927 269.857 135.601 265.434 192.82 261C192.902 261.884 192.973 262.78 193.055 263.665C136.022 269.801 78.7794 273.552 21.5128 277.113C21.4074 276.173 21.3019 275.232 21.1847 274.291Z" fill="white"/>
<path d="M315.559 443.602C303.899 402.047 292.251 360.503 280.592 318.948C281.541 318.702 282.49 318.467 283.451 318.221C295.111 359.775 310.438 400.401 317.434 443.12C316.813 443.277 316.18 443.434 315.559 443.59L315.559 443.602Z" fill="white"/>
<path d="M323.303 273.778C364.575 284.281 407.076 289.846 447.141 304.258C405.483 295.3 363.567 287.338 323.303 273.778Z" fill="white"/>
<path d="M381.262 399.158C357.415 367.749 329.057 341.087 307.18 308.49C315.253 311.334 380.945 391.387 381.262 399.158Z" fill="white"/>
<path d="M293.155 316.833C313.392 350.851 333.923 384.668 348.758 421.24C330.724 386.169 308.483 353.158 293.155 316.833Z" fill="white"/>
<path d="M205.828 279.443C171.928 293.843 137.664 307.381 102.181 317.918C136.047 303.417 169.865 288.793 205.828 279.443Z" fill="white"/>
<path d="M269.739 314.358C275.048 358.163 283.684 401.633 283.203 446.043C277.977 402.204 272.751 358.365 267.525 314.526C268.263 314.47 269.001 314.414 269.728 314.358L269.739 314.358Z" fill="white"/>
<path d="M88.6227 301.131C124.761 294.446 158.311 278.669 195.305 274.929C160.361 285.813 125.207 295.969 89.3727 303.785L88.6227 301.131Z" fill="white"/>
<path d="M263.131 326.595C265.053 362.506 267.057 398.372 264.327 434.25C264.913 398.339 258.139 362.484 263.131 326.595Z" fill="white"/>
<path d="M99.5918 283.104C136.809 273.082 175.186 270.249 213.293 265.725C176.076 275.545 137.277 276.183 99.5918 283.104Z" fill="white"/>
<path d="M406.008 344.277C373.185 324.625 340.375 304.985 307.552 285.333C307.962 284.705 308.361 284.09 308.771 283.462C343.843 299.576 373.513 324.054 407.789 341.4C407.203 342.363 406.606 343.314 406.02 344.277L406.008 344.277Z" fill="white"/>
<path d="M296.762 424.609C291.196 390.591 278.095 357.938 277.485 323.147C285.126 356.785 293.516 390.288 296.762 424.609Z" fill="white"/>
<path d="M327.215 320.931C356.159 342.397 377.849 370.436 402.023 396.224C401.73 396.583 401.438 396.952 401.133 397.311C399.75 396.359 398.156 395.586 397.032 394.41C388.091 385.06 379.407 375.464 370.302 366.259C358.127 353.931 345.636 341.893 333.308 329.71C330.801 327.235 328.41 324.648 325.961 322.118C326.371 321.726 326.793 321.334 327.203 320.931L327.215 320.931Z" fill="white"/>
<path d="M116.536 382.507C144.612 358.858 172.689 335.219 200.766 311.57C201.316 312.174 201.879 312.779 202.43 313.384C174.915 337.638 148.116 362.687 117.895 384.008C117.438 383.504 116.993 383 116.536 382.496L116.536 382.507Z" fill="white"/>
<path d="M166.058 387.232C186.823 359.361 207.599 331.479 229.23 302.432C229.207 310.102 174.659 383.436 166.058 387.232Z" fill="white"/>
<path d="M207.084 407.365C215.462 375.317 228.95 344.96 241.582 314.334C242.074 314.401 242.566 314.468 243.059 314.536C242.918 315.857 243.047 317.279 242.578 318.488C235.887 336.091 229.055 353.649 222.4 371.274C218.439 381.744 214.736 392.293 210.904 402.807C210.283 404.498 209.592 406.178 208.935 407.857C208.314 407.689 207.705 407.521 207.084 407.365Z" fill="white"/>
<path d="M165.507 412.675C184.268 382.665 203.028 352.655 221.789 322.645L223.535 323.642C207.962 355.499 185.979 383.718 168.073 414.254C167.218 413.728 166.362 413.201 165.507 412.675Z" fill="white"/>
<path d="M206.859 298.648L129.813 355.129C129.238 354.423 128.664 353.707 128.09 353.001C153.261 333.54 178.033 313.574 205.383 296.766C205.875 297.393 206.367 298.02 206.871 298.648L206.859 298.648Z" fill="white"/>
<path d="M215.578 285.802C189.869 305.645 159.765 318.679 131.594 334.736C157.444 315.129 187.361 301.781 215.578 285.802Z" fill="white"/>
<path d="M192.541 396.57C205.595 370.68 218.661 344.802 231.715 318.913C232.43 319.238 233.145 319.574 233.871 319.899C223.137 346.807 209.825 372.55 195.096 397.645L192.541 396.57Z" fill="white"/>
<path d="M350.926 383.648C332.353 357.367 313.779 331.075 295.206 304.794C295.663 304.503 296.108 304.212 296.565 303.921C301.932 306.384 349.731 374.366 350.937 383.637L350.926 383.648Z" fill="white"/>
<path d="M32.891 417.656C60.5459 398.407 88.189 379.147 116.617 359.36C116.242 363.951 42.7929 416.278 34.2972 419.324C33.8285 418.764 33.3598 418.216 32.891 417.656Z" fill="white"/>
<path d="M326.821 280.373C357.991 289.477 388.119 301.257 418.211 313.115C417.906 313.899 417.602 314.683 417.297 315.467C386.853 304.482 356.421 293.508 325.977 282.523L326.821 280.373Z" fill="white"/>
<path d="M243.645 407.531C246.212 377.376 250.395 347.422 255.656 317.602C256.512 317.703 257.356 317.804 258.211 317.905C254.297 347.892 250.383 377.88 246.469 407.867C245.532 407.755 244.583 407.643 243.645 407.531Z" fill="white"/>
<path d="M245.872 331.166C247.419 338.702 230.005 413.682 225.939 418.385C229.935 388.778 238.525 360.112 245.872 331.166Z" fill="white"/>
<path d="M341.032 272.232C371.394 276.968 400.267 281.458 429.141 285.96C423.34 290.058 345.895 277.808 341.032 272.232Z" fill="white"/>
<path d="M329.563 302.128C356.081 320.47 382.599 338.812 409.117 357.165C408.508 357.971 407.898 358.766 407.289 359.572C380.712 341.23 354.136 322.889 327.547 304.547C328.215 303.74 328.883 302.934 329.551 302.128L329.563 302.128Z" fill="white"/>
<path d="M418.465 365.486C444.444 383.133 469.79 400.367 496.027 418.193C487.86 418.541 419.402 371.644 418.465 365.486Z" fill="white"/>
<path d="M293.33 336.775C306.079 361.119 312.231 387.613 321.453 413.11C320.551 413.412 319.649 413.704 318.735 414.006C309.547 388.464 300.36 362.922 291.173 337.38L293.318 336.775L293.33 336.775Z" fill="white"/>
<path d="M160.561 374.345C178.888 352.386 197.215 330.427 215.542 308.469C216.691 313.564 168.752 371.377 161.908 375.375C161.463 375.028 161.006 374.692 160.561 374.345Z" fill="white"/>
<path d="M375.285 352.52C354.38 336.137 333.463 319.755 312.558 303.373C318.405 302.421 374.828 346.831 375.285 352.52Z" fill="white"/>
<path d="M443.215 289.542C471.14 293.518 499.076 297.493 527 301.479C526.859 302.341 526.73 303.192 526.59 304.055C498.513 300.852 470.46 297.549 442.758 291.905C442.911 291.121 443.051 290.326 443.204 289.542L443.215 289.542Z" fill="white"/>
<path d="M331.426 264.47C358.39 266.016 385.341 267.561 412.305 269.106L412.141 271.559C385.142 270.551 358.12 269.969 331.274 266.766C331.321 266.005 331.379 265.232 331.426 264.47Z" fill="white"/>
<path d="M207.47 499.342C212.567 476.745 217.664 454.148 222.75 431.54C223.594 431.708 224.438 431.887 225.293 432.055C222.082 455.033 215.719 477.373 210.27 499.902C209.333 499.712 208.395 499.522 207.47 499.342Z" fill="white"/>
<path d="M300.594 438.047C304.907 460.51 309.231 482.962 313.543 505.424C312.664 505.581 311.774 505.738 310.895 505.895C305.727 483.589 301.215 461.16 297.864 438.529C298.778 438.372 299.692 438.204 300.606 438.047L300.594 438.047Z" fill="white"/>
<path d="M399.496 325.164C378.743 315.276 357.99 305.378 337.238 295.49C337.613 294.74 337.999 294.001 338.374 293.251C360.076 301.19 380.056 312.533 400.609 322.768C400.234 323.563 399.871 324.369 399.496 325.164Z" fill="white"/>
<path d="M387.436 359.003C404.955 373.381 422.474 387.759 439.98 402.126C439.5 402.663 439.008 403.201 438.527 403.738C419.814 390.704 402.307 376.326 385.901 360.705C386.405 360.134 386.921 359.563 387.425 358.992L387.436 359.003Z" fill="white"/>
<path d="M492.289 339.988C471.794 333.169 451.287 326.361 430.792 319.541C431.027 318.892 431.249 318.242 431.484 317.604C452.705 322.184 472.849 329.854 493.004 337.469C492.77 338.309 492.523 339.148 492.289 339.988Z" fill="white"/>
<path d="M428.535 455.639C415.411 440.119 402.287 424.599 389.162 409.079C389.994 408.429 390.826 407.78 391.67 407.13C404.759 422.617 417.848 438.103 430.937 453.589C430.141 454.273 429.332 454.956 428.535 455.639Z" fill="white"/>
<path d="M327.661 425C334.294 442.346 340.914 459.702 347.547 477.047C346.586 477.383 345.613 477.73 344.652 478.066C337.903 460.732 331.141 443.398 324.392 426.075C325.482 425.717 326.571 425.359 327.673 425L327.661 425Z" fill="white"/>
<path d="M-0.00145109 325.22C15.6188 320.696 31.2391 316.183 47.5859 311.458C45.5001 316.161 6.58414 327.974 -0.00145109 325.22Z" fill="white"/>
<path d="M147.345 490.005C154.294 476.344 161.243 462.694 168.192 449.033C169.152 449.47 170.113 449.917 171.086 450.354C164.184 464.015 157.282 477.677 150.38 491.338C149.372 490.89 148.353 490.442 147.345 490.005Z" fill="white"/>
<path d="M133.867 464.349C142.339 451.203 150.823 438.057 159.53 424.563C161.721 428.505 141.542 461.236 135.285 465.256C134.816 464.954 134.336 464.651 133.867 464.36L133.867 464.349Z" fill="white"/>
<path d="M89.0586 324.146C75.9108 329.084 62.7514 334.011 49.6036 338.949C49.2638 338.132 48.924 337.326 48.5724 336.508C61.4741 330.876 74.6453 325.859 88.1563 321.638C88.461 322.477 88.7539 323.317 89.0586 324.157L89.0586 324.146Z" fill="white"/>
<path d="M493.836 280.092C482.364 279.162 470.892 278.233 459.42 277.304C459.514 276.341 459.596 275.389 459.689 274.426C471.161 275.366 482.645 276.318 494.117 277.259C494.023 278.199 493.93 279.151 493.836 280.092Z" fill="white"/>
<path d="M189.445 410.155C185.414 419.65 181.383 429.146 176.942 439.627C174.505 434.678 182.743 414.387 187.887 409.572C188.402 409.774 188.93 409.964 189.445 410.166L189.445 410.155Z" fill="white"/>
<path d="M413.052 328.602C422.978 331.816 433.184 334.391 441.984 340.079C441.668 340.785 441.363 341.502 441.047 342.207C431.344 338.456 421.642 334.693 411.939 330.942C412.314 330.158 412.677 329.386 413.052 328.602Z" fill="white"/>
<path d="M153.871 385.542C147.567 392.843 141.274 400.144 134.97 407.434L132.497 405.474C138.825 398.195 145.141 390.917 151.469 383.638C152.266 384.277 153.074 384.904 153.871 385.542Z" fill="white"/>
<path d="M95.224 354.188C103.216 349.675 111.208 345.163 119.199 340.639C119.715 341.467 120.23 342.296 120.758 343.113C112.789 347.693 104.809 352.273 96.8411 356.842C96.302 355.957 95.7747 355.061 95.2357 354.177L95.224 354.188Z" fill="white"/>
<path d="M367.07 456.625C362.758 448.966 358.446 441.295 353.958 433.311C358.598 433.58 367.422 447.88 368.547 455.852C368.055 456.11 367.563 456.367 367.07 456.625Z" fill="white"/>
<path d="M412.372 405.395C419.051 411.554 425.731 417.712 432.422 423.871C427.336 424.431 413.216 411.408 412.372 405.395Z" fill="white"/>
<path d="M238.395 454.027C237.375 461.944 236.344 469.861 235.324 477.777C234.34 477.665 233.356 477.553 232.383 477.453C233.379 469.502 234.363 461.552 235.36 453.613C236.379 453.758 237.387 453.893 238.406 454.038L238.395 454.027Z" fill="white"/>
<path d="M360.755 393.491C365.524 400.266 370.305 407.04 375.754 414.789C369.52 413.031 359.349 399.023 360.755 393.491Z" fill="white"/>
<path d="M286.496 459.681C287.129 465.896 287.773 472.11 288.406 478.325C287.457 478.426 286.496 478.527 285.547 478.639C284.856 472.469 284.164 466.299 283.485 460.14C284.492 459.994 285.488 459.838 286.496 459.692L286.496 459.681Z" fill="white"/>
<path d="M236.729 441.262C238.347 433.647 239.718 427.175 241.417 419.213C244.463 425.227 241.733 438.026 236.729 441.262Z" fill="white"/>
<path d="M426.915 270.07C433.219 270.933 439.536 271.795 446.25 272.713C443.168 276.296 431.063 275.244 426.657 271.638L426.915 270.07Z" fill="white"/>
<path d="M263.367 463.736L263.367 445.271C263.965 445.249 264.551 445.238 265.148 445.215L265.148 463.535L263.367 463.736Z" fill="white"/>
<path d="M108.32 392.988C103.059 397.49 97.7857 401.98 91.6571 407.221C92.243 401.689 100.914 393.806 107.195 391.734C107.57 392.149 107.945 392.563 108.32 392.977L108.32 392.988Z" fill="white"/>
<path d="M469.066 355.094C463.535 352.529 458.016 349.965 451.958 347.155C456.774 345.173 466.43 349.159 469.066 355.094Z" fill="white"/>
<path d="M69.9696 285.378C75.1725 284.762 80.387 284.146 85.5899 283.531C85.7188 284.37 85.8594 285.21 85.9883 286.05L70.4852 288.637C70.3094 287.551 70.1454 286.476 69.9696 285.389L69.9696 285.378Z" fill="white"/>
<path d="M160.012 399.55C156.871 403.727 153.731 407.903 150.579 412.08C149.793 411.543 148.997 411.016 148.212 410.479C151.34 406.257 154.469 402.036 157.598 397.814C158.395 398.396 159.203 398.968 160 399.55L160.012 399.55Z" fill="white"/>
<path d="M195.984 434.947C197.789 429.808 199.593 424.679 201.691 418.699C204.187 423.436 201.738 431.017 195.984 434.947Z" fill="white"/>
<path d="M419.251 349.036C423.528 351.5 427.805 353.963 432.094 356.427C431.707 357.121 431.32 357.816 430.934 358.51C425.942 357.502 422.18 354.176 418.173 351.31C418.536 350.548 418.899 349.787 419.262 349.036L419.251 349.036Z" fill="white"/>
<path d="M75.5117 307.079C70.7659 308.344 66.0318 309.61 61.2859 310.875C61.0516 310.147 60.8289 309.43 60.5945 308.703C64.8951 306.026 69.8167 305.164 74.9258 304.907C75.1133 305.623 75.3125 306.351 75.5 307.068L75.5117 307.079Z" fill="white"/>
</svg>
