<svg width="104" height="185" viewBox="0 0 104 185" fill="none" xmlns="http://www.w3.org/2000/svg">
<path fill-rule="evenodd" clip-rule="evenodd" d="M75.9921 158.906C73.4045 168.025 67.2295 175.727 60.3075 182.203C75.3545 174.745 87.8792 161.19 95.1547 146.055C100.277 135.4 102.696 122.275 96.7999 112.028C93.6099 106.484 88.4369 102.519 83.2727 98.5614C77.8628 94.4153 72.4625 90.2766 69.3617 84.3371C63.2348 72.6027 68.2081 58.2393 74.4821 46.5824L74.7126 46.1543C77.8098 40.4062 81.2006 34.1132 79.6998 27.793C78.7931 23.9733 76.2079 20.8098 73.6984 17.7917C70.7088 14.1959 67.6539 10.5427 63.7224 8.01239C56.5392 3.38828 47.0932 3.14881 39.0702 6.08501C31.0479 9.02239 24.3315 14.8194 18.9512 21.4558C8.75535 34.0308 2.83703 50.2031 3.43238 66.3819C4.02598 82.5602 11.3524 98.5567 23.8055 108.901C32.1715 115.851 42.4253 120.097 52.6994 123.666C53.0389 123.784 53.3793 123.902 53.7203 124.02C59.6139 126.059 65.6805 128.157 70.149 132.473C76.9688 139.056 78.5792 149.787 75.9921 158.906ZM37.7891 47.3315C39.8813 48.0407 42.8709 44.7995 44.4666 40.092C46.0623 35.3845 45.6598 30.9935 43.5676 30.2843C41.4754 29.5751 38.4857 32.8163 36.89 37.5238C35.2944 42.2313 35.6969 46.6223 37.7891 47.3315ZM59.3504 41.6726C58.0653 45.4639 55.3792 47.98 53.3508 47.2924C51.3225 46.6049 50.72 42.9741 52.0051 39.1828C53.2902 35.3915 55.9763 32.8754 58.0047 33.563C60.033 34.2505 60.6355 37.8813 59.3504 41.6726ZM35.6777 60.9679C38.2628 57.8773 44.4944 52.9457 48.7394 57.9445C52.9844 62.9432 41.8004 62.0429 35.6777 60.9679Z" fill="#73FBC4"/>
</svg>
