<svg width="104" height="185" viewBox="0 0 104 185" fill="none" xmlns="http://www.w3.org/2000/svg">
<g clip-path="url(#clip0_7225_4734)">
<path d="M60.9187 183.437L59.3672 181.198C66.2101 174.796 72.1792 167.301 74.6681 158.531C77.1569 149.758 75.5527 139.602 69.1932 133.463L69.193 133.463C64.9509 129.366 59.1572 127.36 53.1826 125.291C52.8714 125.183 52.5597 125.075 52.2478 124.967C52.2477 124.966 52.2477 124.966 52.2476 124.966L52.6994 123.666C42.4253 120.097 32.1715 115.851 23.8056 108.901C11.3525 98.5567 4.026 82.5602 3.4324 66.3819L60.9187 183.437ZM60.9187 183.437C76.271 175.826 89.0022 162.031 96.3951 146.652C101.591 135.844 104.227 122.177 97.9928 111.341L96.7999 112.028L60.9187 183.437Z" fill="#464646" stroke="#70F8C1" stroke-width="2.75254"/>
</g>
<defs>
<clipPath id="clip0_7225_4734">
<rect width="104" height="185" fill="white"/>
</clipPath>
</defs>
</svg>
