<svg width="29" height="29" viewBox="0 0 29 29" fill="none" xmlns="http://www.w3.org/2000/svg">
<path d="M3.62432 0C3.62432 0 0 1.42269 0 8.67839C0 17.3568 0 24.1857 0 24.1857H3.62432H7.24864C7.24864 24.1857 7.24864 17.3568 7.24864 8.67839C7.24864 1.42269 3.62432 0 3.62432 0Z" fill="white"/>
<path d="M7.24864 25.6074H0V28.4528H7.24864V25.6074Z" fill="white"/>
<path d="M14.4944 0C14.4944 0 10.8701 1.42269 10.8701 8.67839C10.8701 17.3568 10.8701 24.1857 10.8701 24.1857H14.4944H18.1188C18.1188 24.1857 18.1188 17.3568 18.1188 8.67839C18.1188 1.42269 14.4944 0 14.4944 0Z" fill="white"/>
<path d="M18.1188 25.6074H10.8701V28.4528H18.1188V25.6074Z" fill="white"/>
<path d="M25.3714 0C25.3714 0 21.7471 1.42269 21.7471 8.67839C21.7471 17.3568 21.7471 24.1857 21.7471 24.1857H25.3714H28.9957C28.9957 24.1857 28.9957 17.3568 28.9957 8.67839C28.9957 1.42269 25.3714 0 25.3714 0Z" fill="white"/>
<path d="M28.9957 25.6074H21.7471V28.4528H28.9957V25.6074Z" fill="white"/>
</svg>
