<svg width="137" height="145" viewBox="0 0 137 145" fill="none" xmlns="http://www.w3.org/2000/svg">
<path fill-rule="evenodd" clip-rule="evenodd" d="M97.341 2.41797C96.4231 -0.300781 92.5754 -0.300781 91.6574 2.41797L87.8684 13.6426C87.6399 14.3164 87.1789 14.8887 86.5695 15.2559L76.2844 21.4277C74.343 22.5938 74.343 25.4062 76.2844 26.5723L86.5695 32.7441C87.1789 33.1113 87.6399 33.6836 87.8684 34.3574L91.6574 45.582C92.0363 46.7012 92.9113 47.3594 93.8723 47.5566C95.2473 47.8398 96.802 47.1816 97.341 45.582L101.13 34.3574C101.359 33.6836 101.82 33.1113 102.429 32.7441L112.714 26.5723C114.655 25.4062 114.655 22.5938 112.714 21.4277L102.429 15.2559C101.82 14.8887 101.359 14.3164 101.13 13.6426L97.341 2.41797ZM36.6594 18.3633C37.5813 15.6504 41.4172 15.6504 42.3391 18.3633L52.0266 46.8809C52.2551 47.5566 52.718 48.127 53.3293 48.4922L76.6809 62.4238C78.632 63.5879 78.632 66.4121 76.6809 67.5762L53.3293 81.5078C52.718 81.873 52.2551 82.4434 52.0266 83.1191L42.3391 111.637C41.4172 114.35 37.5813 114.35 36.6594 111.637L26.9719 83.1191C26.7434 82.4434 26.2805 81.873 25.6691 81.5078L2.31758 67.5762C1.23165 66.9277 0.749226 65.7656 0.872272 64.6602C0.971882 63.7812 1.45235 62.9395 2.31758 62.4238L25.6691 48.4922C26.2805 48.127 26.7434 47.5566 26.9719 46.8809L36.6594 18.3633ZM101.659 68.3184C102.585 65.6094 106.413 65.6094 107.339 68.3184L114.851 90.3301C115.081 91.0059 115.546 91.5762 116.159 91.9395L134.654 102.92C136.613 104.082 136.613 106.918 134.654 108.08L116.159 119.061C115.909 119.209 115.685 119.391 115.489 119.602C115.345 119.758 115.216 119.93 115.107 120.113C115.003 120.287 114.917 120.475 114.851 120.67L107.339 142.682C106.413 145.391 102.585 145.391 101.659 142.682L94.1477 120.67C93.9172 119.994 93.4524 119.424 92.8391 119.061L74.3449 108.08C72.3859 106.918 72.3859 104.082 74.3449 102.92L92.8391 91.9395C93.4524 91.5762 93.9172 91.0059 94.1477 90.3301L101.659 68.3184Z" fill="#D9D9D9"/>
</svg>
