<svg width="98" height="112" viewBox="0 0 98 112" fill="none" xmlns="http://www.w3.org/2000/svg">
<path fill-rule="evenodd" clip-rule="evenodd" d="M49 0C37.3083 0 32.126 4.33952 24.9968 10.3092C19.321 15.0619 12.4111 20.848 0 26.3C0 91 49 112 49 112C49 112 98 91 98 26.3C85.5889 20.848 78.679 15.0619 73.0032 10.3092C65.874 4.33952 60.6917 0 49 0ZM76.553 63.2497L76.5019 63.4538L76.5002 63.4605C75.2693 68.3813 74.0384 73.302 72.8056 78.2222C72.1328 80.9015 71.2088 81.4425 68.5068 80.766C53.6451 77.0496 38.7841 73.331 23.9231 69.6124L23.9052 69.6079L23.8872 69.6035C23.7381 69.5659 23.5913 69.5289 23.4416 69.4936C22.7848 69.339 22.1305 69.166 22.2127 68.2831C22.2929 67.4164 22.9721 67.3371 23.6349 67.2653C24.4118 67.1802 25.189 67.0981 25.9662 67.016L25.9664 67.016L25.9665 67.016C26.7437 66.9339 27.5209 66.8518 28.2978 66.7667C29.2872 66.6586 30.2766 66.5517 31.266 66.4448C34.0296 66.1463 36.7928 65.8478 39.5536 65.5242C40.0155 65.47 40.338 65.5018 40.551 65.5605C40.4269 65.4062 40.2793 65.1665 40.1258 64.807C39.9271 64.3413 39.7143 63.8825 39.5015 63.4239C39.3284 63.0508 39.1553 62.6777 38.9899 62.301C38.701 61.6417 38.5933 60.9977 39.1346 60.378C39.6896 59.7429 40.3364 59.8283 41.0223 60.043C43.389 60.7814 45.7553 61.5192 48.1216 62.2569L48.1361 62.2615L49.2579 62.6112C48.8206 59.4278 47.3949 53.5808 46.094 48.2462C44.7425 42.7038 43.5259 37.7146 43.693 36.8405C44.1024 34.7007 48.94 38.2685 53.776 41.8353C58.6105 45.4009 63.4435 48.9653 63.8495 46.8253C63.9648 46.219 64.0956 45.6159 64.2266 45.0125L64.2267 45.0119C64.3066 44.6439 64.3865 44.2758 64.4629 43.9068C64.5883 43.2968 64.8948 42.8445 65.5273 42.691C66.1821 42.5339 66.751 42.7244 67.1708 43.2406C67.5056 43.6507 67.8271 44.071 68.1485 44.4913L68.1485 44.4914C68.4537 44.8904 68.7588 45.2893 69.0753 45.6795C70.32 47.2124 71.8054 47.1995 72.916 45.5899C74.418 43.4139 75.9085 41.2291 77.399 39.0442C78.8096 36.9767 80.2202 34.909 81.6407 32.8484C81.7241 32.7271 81.8034 32.5908 81.8842 32.4519L81.8843 32.4518C82.2521 31.8196 82.6498 31.1361 83.5963 31.5864C84.4719 32.004 84.2408 32.7393 84.0281 33.4163L84.028 33.4164C83.9839 33.5567 83.9406 33.6945 83.9081 33.8265C82.3491 40.1181 80.7734 46.4019 79.1971 52.6879L79.1965 52.6906L78.3467 56.0798C77.7486 58.4697 77.1508 60.8597 76.553 63.2497ZM25.6493 45.316C26.5874 46.7981 27.7123 47.8238 29.1975 48.46C31.9392 49.6361 34.6774 50.8145 37.4073 52.0239C38.622 52.5626 39.6798 52.4584 40.4775 51.3297C41.253 50.2267 40.8068 49.2891 39.9883 48.425C38.6611 47.0224 37.3355 45.618 36.0098 44.2135C33.3948 41.4431 30.7794 38.6722 28.1502 35.9134C27.43 35.1596 26.5555 34.5949 25.4249 35.0103C24.1721 35.4673 23.9351 36.5388 23.9949 37.68C24.0185 38.1375 24.0297 38.5983 24.0408 39.0586C24.095 41.3016 24.1489 43.5319 25.6493 45.316Z" fill="white"/>
</svg>
