<svg width="44" height="47" viewBox="0 0 44 47" fill="none" xmlns="http://www.w3.org/2000/svg">
<path fill-rule="evenodd" clip-rule="evenodd" d="M30.4636 21.0467C31.0549 21.2224 31.6062 21.4636 32.1456 21.6995L32.1456 21.6996C33.0517 22.096 33.9239 22.4776 34.8948 22.5088C34.9142 22.4705 34.9339 22.4321 34.9537 22.3938L34.9542 22.3928C34.9742 22.3542 34.9941 22.3155 35.0136 22.2769C34.9425 22.2221 34.8721 22.1663 34.8016 22.1104L34.8014 22.1103C34.6467 21.9876 34.4919 21.865 34.3299 21.7528C31.3831 19.7306 28.7536 17.3768 26.6923 14.3993C25.9595 13.341 25.5981 12.2551 25.7321 10.9476C25.826 10.0341 25.8355 9.11193 25.8449 8.19046V8.19041C25.8481 7.87969 25.8513 7.56904 25.8577 7.25884C25.8696 6.6867 26.0833 6.32246 26.6279 6.06647C30.8589 4.07689 35.1154 2.16979 39.6942 1.12002C40.7494 0.877764 40.8885 0.917281 41.1345 1.93097C41.2518 2.41694 41.3695 2.90282 41.4872 3.3887C42.0893 5.87458 42.6915 8.36042 43.2449 10.8583C43.3671 11.4064 43.3331 12.073 43.1397 12.597C41.4195 17.2583 39.6704 21.9109 37.8552 26.5361C37.633 27.0996 37.0477 27.7491 36.4997 27.9123C33.3884 28.8435 31.0625 30.7798 29.0505 33.2814C28.0757 34.4936 27.0101 35.6314 25.9444 36.7694C25.3743 37.3783 24.8041 37.9872 24.2477 38.6075C23.4487 39.4975 22.5037 40.1177 21.3756 40.5043C17.2119 41.9255 13.0514 43.3572 8.89088 44.7888C6.95542 45.4548 5.01993 46.1208 3.08411 46.7857C1.95425 47.174 1.76594 47.095 1.42325 45.9593C1.31699 45.6065 1.19987 45.2561 1.0828 44.9059C0.596193 43.4503 0.110321 41.9969 0.407063 40.3737C0.994513 37.1626 1.55196 33.945 2.10935 30.7276C2.31334 29.5502 2.51732 28.3728 2.72276 27.1958C2.81817 26.6494 2.91554 26.1032 3.01291 25.5569C3.26699 24.1316 3.52111 22.7061 3.74065 21.2752C3.90181 20.2272 4.35138 19.411 5.17078 18.7479C10.2704 14.6192 15.7602 11.1246 21.6402 8.25706C22.3952 7.88938 22.7582 8.00965 22.7938 8.84294C22.938 12.2757 24.6939 14.8649 26.9214 17.2239C27.0432 17.3521 27.2435 17.6091 27.4973 17.9347C28.2363 18.8829 29.4294 20.4136 30.4636 21.0467ZM10.2695 46.3598C10.9337 46.1264 11.5977 45.8928 12.2615 45.6592C13.8495 45.1004 15.437 44.5418 17.027 43.9858C17.6544 43.7663 18.2849 43.5551 18.9153 43.3439L18.9154 43.3438C20.3448 42.865 21.7736 42.3863 23.1658 41.8114C24.1512 41.405 25.1214 40.7659 25.8752 39.9983C27.1662 38.6839 28.3944 37.304 29.6226 35.924C30.1616 35.3184 30.7006 34.7128 31.245 34.1126C31.3731 33.9711 31.5115 33.8401 31.706 33.6559L31.7061 33.6559C31.817 33.5509 31.9461 33.4286 32.102 33.2773C32.1933 33.6821 32.2842 34.0688 32.3722 34.4428L32.3722 34.4431L32.3723 34.4433C32.6049 35.4327 32.8166 36.3328 32.9589 37.2439C33.0079 37.5565 32.6918 37.9924 32.4451 38.2825C30.836 40.1789 29.2219 42.0702 27.5553 43.9146C27.1767 44.3331 26.6274 44.6978 26.095 44.8437C21.7243 46.0458 17.2432 46.2646 12.7631 46.4834H12.763C12.0455 46.5184 11.328 46.5535 10.611 46.5926C10.5405 46.5961 10.4692 46.5802 10.3976 46.5642C10.3645 46.5568 10.3314 46.5494 10.2983 46.5439C10.2925 46.5105 10.2873 46.4759 10.282 46.4408L10.282 46.4407C10.278 46.4139 10.2739 46.3869 10.2695 46.3598ZM42.0259 28.5055C43.1325 24.3814 43.3293 20.1738 43.3121 15.9262C43.2898 15.9812 43.2664 16.0357 43.2431 16.0901C43.1904 16.2128 43.138 16.3348 43.0997 16.4602C42.8018 17.4035 42.5014 18.3462 42.2011 19.289C41.3512 21.9569 40.5011 24.6252 39.7038 27.3088C39.3723 28.4237 38.7836 29.0882 37.7115 29.4726C36.9522 29.7449 36.2107 30.0663 35.4691 30.3878C34.9697 30.6043 34.4702 30.8208 33.9651 31.0224C33.4454 31.2294 33.2728 31.5059 33.3988 32.0817C33.5539 32.7883 33.6735 33.5022 33.7931 34.2162C33.8599 34.6148 33.9267 35.0134 33.9996 35.4109C34.1464 36.211 34.3087 36.2771 35.0182 35.8092C36.2216 35.0178 37.4232 34.2229 38.611 33.4071C40.1266 32.3666 40.7385 32.0489 41.0895 31.5483C41.4461 31.0396 41.5334 30.3421 42.0259 28.5055Z" fill="white"/>
</svg>
