<svg width="98" height="112" viewBox="0 0 98 112" fill="none" xmlns="http://www.w3.org/2000/svg">
<path fill-rule="evenodd" clip-rule="evenodd" d="M24.9968 10.3092C32.126 4.33952 37.3083 0 49 0C60.6917 0 65.874 4.33952 73.0032 10.3092C78.679 15.0619 85.5889 20.848 98 26.3C98 91 49 112 49 112C49 112 0 91 0 26.3C12.4111 20.848 19.321 15.0619 24.9968 10.3092ZM50.6028 16C46.343 17.5248 41.0862 21.7249 38.9481 24.7972C36.7718 27.9252 37.0159 30.1946 39.6326 32.9904C41.5697 35.0599 43.5124 37.1543 45.1844 39.4222C47.1739 42.1244 46.1895 45.1631 43.1317 46.5527C42.6689 46.7629 42.2029 46.9678 41.7368 47.1728C40.961 47.514 40.185 47.8552 39.4231 48.2212C34.8069 50.4408 30.6954 53.2307 28.2713 57.8117C24.2405 65.4127 25.685 75.0277 31.7281 81.1265C38.1334 87.59 49.6416 89.8664 57.6462 86.3535C63.1851 83.9224 66.7647 79.6329 69.5039 74.6632C72.8546 68.5779 72.9555 62.4105 69.0532 56.4305C68.8302 56.0913 68.4561 55.8424 68.0821 55.5936C67.9122 55.4807 67.7425 55.3677 67.5868 55.2463C67.4842 55.3897 67.3774 55.5309 67.2705 55.6722L67.2705 55.6723C67.0278 55.9932 66.785 56.3143 66.5901 56.6608C66.2658 57.2371 65.9589 57.8236 65.6521 58.4099L65.6516 58.4108C65.0926 59.4789 64.534 60.5463 63.8717 61.5502C63.0191 62.8441 61.9099 64.4099 60.0832 63.8069C58.334 63.2297 57.7692 61.4584 57.4623 59.7595C57.4515 59.6985 57.4584 59.6345 57.4653 59.5702C57.4714 59.5129 57.4775 59.4555 57.4712 59.3999C57.1859 57.0117 58.3233 55.0437 59.4522 53.0903L59.5987 52.8366C62.2871 48.1687 62.2804 43.5611 58.6118 39.5132C55.5818 36.1679 52.1845 33.0959 48.6829 30.2068C46.6801 28.5555 45.9428 26.7999 46.7607 24.5681C47.3749 22.891 48.1457 21.2672 48.9166 19.6431C49.2546 18.931 49.5927 18.2189 49.9175 17.5022C50.031 17.2513 50.1462 16.9997 50.2617 16.7476L50.2629 16.7451C50.3764 16.4973 50.4902 16.2489 50.6028 16ZM49.401 51.0376C51.9703 52.9345 52.4825 54.8894 50.9446 56.8272C48.4902 59.913 49.2364 62.8495 50.9652 65.8443C51.1758 66.2115 51.4063 66.5676 51.6365 66.9234C51.8648 67.2763 52.0928 67.6287 52.3011 67.9911C54.6245 72.0492 52.7285 75.8663 47.9825 76.4654C43.2211 77.0661 38.0759 74.3094 39.2885 68.0812C40.0006 64.4158 41.6851 61.2989 44.4682 58.7698C44.9037 58.3721 45.3682 57.9949 45.8319 57.6182C47.8588 55.9722 49.8728 54.3365 49.401 51.0376ZM54.743 26.4664C54.7896 26.5626 54.8359 26.6636 54.8831 26.7668C55.3012 27.6793 55.8002 28.7684 57.3442 28.3327C58.755 27.935 59.3474 25.6843 58.6627 23.952C58.1379 22.6262 57.2554 21.8155 55.694 22.2862C54.2827 22.7033 53.9133 24.2841 54.743 26.4664Z" fill="white"/>
</svg>
