<svg width="36" height="36" viewBox="0 0 36 36" fill="none" xmlns="http://www.w3.org/2000/svg">
<path fill-rule="evenodd" clip-rule="evenodd" d="M15.0004 5.99991V3L3.00079 14.9996L6.0007 14.9996L15.0004 5.99991ZM5.99991 20.9996H3L14.9996 32.9992L14.9996 29.9993L5.99991 20.9996ZM29.9982 20.9997L32.9981 20.9997L20.9985 32.9994L20.9985 29.9995L29.9982 20.9997ZM20.9997 3.00191V6.00182L29.9995 15.0015L32.9994 15.0015L20.9997 3.00191Z" fill="white"/>
<path fill-rule="evenodd" clip-rule="evenodd" d="M16.0006 0.585938V6.41427L6.41506 15.9998L0.586729 15.9998L16.0006 0.585938ZM0.585938 19.9997H6.41427L15.9998 29.5852L15.9998 35.4136L0.585938 19.9997ZM35.4125 19.9999L19.9986 35.4137L19.9986 29.5854L29.5841 19.9999L35.4125 19.9999ZM19.9999 6.41618V0.58785L35.4137 16.0017L29.5854 16.0017L19.9999 6.41618ZM15.0006 3.00015L3.00094 14.9998L6.00085 14.9998L15.0006 6.00006V3.00015ZM3.00015 20.9997L14.9998 32.9994L14.9998 29.9995L6.00006 20.9997H3.00015ZM20.9986 29.9996L29.9983 20.9999L32.9982 20.9999L20.9986 32.9995L20.9986 29.9996ZM29.9996 15.0017L20.9999 6.00197V3.00206L32.9995 15.0017H29.9996Z" fill="black"/>
</svg>
