<svg width="133" height="83" viewBox="0 0 133 83" fill="none" xmlns="http://www.w3.org/2000/svg">
<path d="M102.19 18.2479H109.067V7.82979C110.111 7.82979 111.072 7.82979 112.033 7.82979C112.89 7.82979 113.748 7.86493 114.602 7.81763C115.186 7.78519 115.377 7.95008 115.37 8.56236C115.338 11.5359 115.355 14.5094 115.355 17.4829V18.2425H121.395V12.3617H127.724V18.2506H133V24.576H127.761V30.5176H121.426V24.6531H115.353V25.4586C115.353 28.4092 115.34 31.361 115.363 34.3116C115.368 34.8441 115.259 35.0657 114.665 35.0536C112.842 35.0157 111.018 35.0401 109.106 35.0401V24.6571H102.189C102.189 24.918 102.189 25.1775 102.189 25.4383C102.189 30.9569 102.189 36.4755 102.19 41.994C102.19 42.5824 101.896 42.8766 101.309 42.8766C86.0471 42.8766 70.7857 42.8766 55.5256 42.8766C54.8629 42.8766 54.531 43.2014 54.5301 43.8511C54.5301 47.7261 54.5301 51.5998 54.5301 55.4748V56.3331H34.8687C34.7064 57.0278 34.5522 57.6752 34.4061 58.3253C32.9804 64.6224 31.5494 70.9181 30.1454 77.2192C30.0439 77.6761 29.8383 77.8491 29.4244 77.9505C22.6263 79.6143 15.8295 81.2889 9.03263 82.9567C8.86897 82.9973 8.69178 82.9838 8.4659 83C8.94066 80.8753 9.39379 78.8168 9.86044 76.7597C12.3952 65.5699 14.9314 54.3814 17.4797 43.1942C17.6095 42.6266 17.4715 42.4509 16.8913 42.2968C7.99385 39.9491 2.29803 34.3589 0.415206 25.3221C-1.56636 15.811 3.71558 6.00108 12.6157 2.00442C15.6253 0.65283 18.7673 0.00405874 22.0568 0.00405874C48.5219 0.00811352 74.9855 0.0121643 101.451 0C102.058 0 102.205 0.181118 102.203 0.765006C102.181 6.30654 102.189 11.8481 102.189 17.3883C102.189 17.6532 102.189 17.9181 102.189 18.2479H102.19ZM16.875 74.5242C19.2975 73.9322 21.5415 73.3577 23.8004 72.8495C24.4861 72.6954 24.7891 72.3886 24.9433 71.6953C26.7652 63.4843 28.6211 55.2802 30.4674 47.0733C30.7717 45.719 31.0733 44.3634 31.3817 42.9901C31.2248 42.9482 31.1409 42.9063 31.0571 42.9063C28.8483 42.9023 26.6394 42.909 24.4306 42.8942C24.0032 42.8915 23.9329 43.1199 23.8545 43.4686C21.7593 52.773 19.6519 62.0733 17.5486 71.3763C17.3227 72.3765 17.1185 73.3807 16.8737 74.5255L16.875 74.5242ZM24.9622 24.5706H40.1993V18.3019H24.9622V24.5706ZM48.1485 49.9927C48.1783 49.8954 48.2148 49.8346 48.2148 49.7724C48.2203 47.6329 48.2148 45.4919 48.2283 43.3524C48.231 42.9415 48.0255 42.8712 47.6819 42.8725C44.5709 42.8793 41.46 42.8698 38.349 42.8915C38.1691 42.8915 37.8674 43.0915 37.8295 43.2469C37.2966 45.4757 36.8002 47.7126 36.2863 49.9927H48.1485ZM75.766 24.5828H87.4823V18.31H75.766V24.5828ZM68.4944 24.5801V18.3249H56.7822V24.5801H68.4944Z" fill="white"/>
</svg>
