<svg width="76" height="83" viewBox="0 0 76 83" fill="none" xmlns="http://www.w3.org/2000/svg">
<path d="M75.9983 22.0584C75.9205 29.1546 74.9845 35.1806 72.6785 40.9528C72.6523 41.0181 72.6252 41.0835 72.5981 41.148C71.7231 43.2393 70.1416 44.1067 67.9279 43.6619C66.0213 43.2792 64.3221 43.7044 62.804 44.8943C60.4608 46.731 57.9381 48.2705 55.2328 49.5071C53.8069 50.159 52.3649 49.39 52.1466 47.8793C52.0645 47.3123 52.2591 46.8226 52.5773 46.3685C53.861 44.5404 55.0516 42.6554 56.0477 40.6506C57.4854 37.7573 58.4789 34.7375 58.8555 31.5073C59.7652 23.7142 53.6588 17.016 45.8337 17.2588C41.6966 17.3869 37.8818 18.6354 34.3073 20.6452C32.7748 21.5075 31.321 22.515 29.8528 23.4885C28.5665 24.3406 26.941 23.777 26.5441 22.3079C26.4028 21.7868 26.5195 21.3055 26.7353 20.8277C27.9809 18.0719 29.5549 15.5172 31.4005 13.1255C32.5624 11.6198 32.9525 9.9249 32.5692 8.05006C32.1435 5.96473 32.8874 4.46671 34.7939 3.52462C38.3743 1.75586 42.1772 0.767096 46.1257 0.322361C51.22 -0.251381 56.3049 -0.0646511 61.3256 0.925817C66.1981 1.88743 70.0121 4.56602 72.7708 8.71462C74.4539 11.2464 75.3957 14.0497 75.6412 17.0814C75.7994 19.0394 75.9247 20.9991 76 22.0558L75.9983 22.0584Z" fill="white"/>
<path d="M50.5379 29.9102C50.4677 32.8544 49.6485 35.5806 48.3495 38.1768C47.3747 40.1247 46.1088 41.8679 44.6219 43.4542C42.4691 45.7534 40.3214 48.0577 38.1712 50.3587C37.4079 51.1751 36.6395 51.2091 35.8229 50.4444C32.9364 47.742 30.0525 45.0371 27.1719 42.328C26.258 41.4682 26.2301 40.7714 27.0848 39.8548C29.5117 37.2509 31.8837 34.5918 34.3978 32.0762C37.4561 29.0165 41.1406 27.0466 45.4318 26.3184C46.1511 26.1961 46.8915 26.1503 47.621 26.1546C49.2313 26.1639 50.4076 27.3368 50.493 28.9537C50.51 29.2787 50.5235 29.603 50.5379 29.9102Z" fill="white"/>
<path d="M10.7162 72.5342C10.7196 72.1625 10.9828 71.5726 11.4584 71.0676C12.6879 69.7614 13.9209 68.4586 15.1403 67.1431C15.9603 66.2596 16.1286 65.152 15.6235 64.17C14.8382 62.6448 12.8419 62.3087 11.6014 63.4935C11.4279 63.659 11.262 63.8339 11.0894 64.0002C10.0291 65.0187 8.45933 65.0425 7.47263 64.0562C6.46477 63.048 6.45122 61.5126 7.46077 60.4305C8.62687 59.1811 9.80988 57.9471 10.9819 56.7037C11.9889 55.6343 12.9858 54.5547 13.9987 53.4912C14.9042 52.5407 16.033 52.5067 16.991 53.4038C19.6413 55.883 22.2892 58.3647 24.9311 60.8531C26.0007 61.8606 26.0388 62.9724 25.036 64.0427C21.7442 67.5581 18.4456 71.0676 15.1453 74.5754C14.3694 75.4004 13.2811 75.638 12.2817 75.2281C11.3399 74.8411 10.7128 73.8947 10.7162 72.5342Z" fill="white"/>
<path d="M29.301 58.9194C28.9743 58.7471 28.5902 58.6359 28.3287 58.3923C25.3348 55.6034 22.3569 52.7975 19.3816 49.989C18.7063 49.3516 18.6826 48.5343 19.3105 47.8494C20.1398 46.9438 20.9792 46.0484 21.8246 45.158C22.4432 44.5071 23.2784 44.4765 23.9275 45.0851C26.9121 47.8833 29.8942 50.6858 32.8713 53.4917C33.5313 54.1138 33.5575 54.9719 32.9431 55.6424C32.1232 56.537 31.2897 57.4196 30.4612 58.3057C30.1599 58.6282 29.8028 58.8336 29.301 58.9194Z" fill="white"/>
<path d="M16.7405 27.535C17.6934 27.5359 18.5032 28.0714 18.8688 28.9405C19.242 29.8283 19.0532 30.8238 18.3213 31.513C17.2829 32.4907 16.2167 33.4379 15.1589 34.3961C13.7043 35.7142 12.2606 37.045 10.7865 38.341C9.53663 39.4401 7.66562 38.9844 7.07919 37.4702C6.71785 36.5358 6.97847 35.5504 7.78154 34.823C10.2102 32.624 12.6406 30.4266 15.0658 28.2233C15.5448 27.7879 16.0805 27.5172 16.7397 27.535H16.7405Z" fill="white"/>
<path d="M39.2332 69.4201C38.2685 69.3887 37.5577 68.9337 37.1642 68.0613C36.7631 67.1701 36.8968 66.3086 37.5467 65.5736C38.7898 64.1664 40.054 62.7779 41.3115 61.3834C42.3321 60.2512 43.3416 59.1071 44.3825 57.9936C45.0704 57.2569 46.1299 57.0948 47.0277 57.5259C47.8943 57.9418 48.463 58.8958 48.2946 59.8557C48.2125 60.32 48.0094 60.8292 47.7022 61.178C45.4809 63.6988 43.2198 66.1856 40.9671 68.6783C40.5068 69.1875 39.9237 69.432 39.2332 69.4201Z" fill="white"/>
<path d="M62.022 58.28C61.2063 58.2385 60.5064 57.8226 60.085 57.001C59.661 56.1743 59.694 55.318 60.2881 54.611C61.2308 53.489 62.2166 52.3975 63.2541 51.3637C64.1147 50.5057 65.4696 50.5685 66.3581 51.3943C67.2289 52.204 67.3651 53.5789 66.5789 54.5023C65.6472 55.5972 64.6572 56.6428 63.6654 57.6842C63.2617 58.1077 62.7168 58.2775 62.0229 58.2792L62.022 58.28Z" fill="white"/>
<path d="M18.0454 13.6833C18.0564 13.0069 18.3061 12.4416 18.7969 11.9867C19.737 11.1142 20.6755 10.2383 21.6275 9.37856C22.6421 8.46278 24.0705 8.52558 24.9498 9.50672C25.8087 10.4641 25.7165 11.89 24.7264 12.81C23.7769 13.6935 22.8384 14.5915 21.8593 15.4411C20.5545 16.5741 18.565 15.935 18.13 14.2656C18.081 14.0763 18.0716 13.8768 18.0446 13.6825L18.0454 13.6833Z" fill="white"/>
<path d="M5.71928 82.9999C4.67081 82.9634 3.87791 82.4932 3.43195 81.5359C2.98769 80.5819 3.10191 79.6534 3.77127 78.8377C4.20961 78.3039 4.68692 77.7998 5.17857 77.3143C6.16358 76.3416 7.68338 76.3365 8.69462 77.2769C9.66524 78.1791 9.76426 79.7332 8.8901 80.7669C8.44414 81.2948 7.96686 81.7981 7.47689 82.2853C6.99793 82.7623 6.40811 83.0093 5.71928 82.9999Z" fill="white"/>
<path d="M2.36401 71.8126C1.4577 71.743 0.64871 71.2711 0.228983 70.2781C-0.19413 69.2766 -0.0282813 68.3336 0.703703 67.5256C1.20551 66.9723 1.73528 66.4537 2.53412 66.3196C3.56482 66.1473 4.59296 66.5776 5.15316 67.4696C5.69898 68.3396 5.6533 69.5218 5.04317 70.3366C4.30188 71.3254 3.4404 71.8287 2.36401 71.8126Z" fill="white"/>
</svg>
