<svg width="136" height="83" viewBox="0 0 136 83" fill="none" xmlns="http://www.w3.org/2000/svg">
<path d="M1.05962 12.1178C1.7684 11.9855 2.47437 11.7558 3.18504 11.7407C5.387 11.6916 7.58895 11.7237 9.96952 11.7247C9.93077 10.911 9.86366 10.1389 9.86366 9.36583C9.86366 7.89723 10.7501 6.9068 12.2168 6.83686C13.5937 6.76977 14.9792 6.77357 16.3552 6.83594C17.6792 6.89548 18.5996 7.90101 18.6743 9.2288C18.6837 9.40647 18.6762 9.58413 18.6762 9.76368C18.6762 22.5445 18.6762 35.3233 18.6762 48.1041C18.6762 50.1549 17.751 51.0782 15.7069 51.0772C14.7722 51.0763 13.8375 51.0753 12.9029 51.0914C10.855 51.1264 9.84853 50.1596 9.84569 48.1174C9.84475 47.4776 9.88632 46.8387 9.91089 46.1507C7.59081 46.1535 5.38792 46.1885 3.18692 46.1422C2.47624 46.1271 1.7684 45.8975 1.05962 45.7651C0.839426 45.545 0.618286 45.3238 0.39809 45.1036C0.265784 44.374 0.021017 43.6454 0.0191269 42.9158C-0.00639019 33.5797 -0.00636792 24.2427 0.0191475 14.9066C0.0210375 14.1978 0.265782 13.49 0.398088 12.7831L1.05962 12.1216V12.1178ZM5.03919 41.09C6.60701 41.0909 8.20226 41.0909 9.73418 41.0919C9.73513 39.5638 9.7351 37.9667 9.7351 36.413C8.18334 36.3998 6.58529 36.3875 5.04675 36.3761C5.04392 37.9647 5.04108 39.5609 5.03824 41.0909L5.03919 41.09ZM5.02315 21.4189C6.58625 21.4113 8.19377 21.4047 9.69733 21.3981C9.69733 19.8785 9.69828 18.2842 9.69733 16.7561C8.16636 16.7561 6.57019 16.7551 5.02693 16.7561C5.02504 18.3003 5.02504 19.8974 5.02315 21.4189ZM5.00234 31.3078C6.60135 31.306 8.19752 31.3032 9.76346 31.3022C9.76346 29.741 9.76348 28.1438 9.76443 26.6516C8.1862 26.6516 6.5768 26.6507 5.00047 26.6488C5.00047 28.1495 5.00139 29.723 5.00234 31.3078Z" fill="white"/>
<path d="M100.055 50.3105C100.426 48.4932 100.987 46.7136 101.115 44.9029C101.303 42.2672 101.191 39.6088 101.193 36.9608C101.197 28.5423 101.179 20.1248 101.204 11.7073C101.212 9.15945 100.86 6.70236 99.7706 4.37849C99.7442 4.32179 99.7517 4.24998 99.7337 4.10349C100.873 4.0931 101.992 4.07701 103.114 4.07606C108.98 4.07134 114.847 4.06002 120.714 4.07325C122.891 4.07892 125.09 3.9608 127.24 4.22635C131.894 4.80094 135.249 8.69545 135.266 13.398C135.299 22.5517 135.299 31.7054 135.267 40.86C135.249 46.2751 131.201 50.3001 125.724 50.3256C117.261 50.3662 108.798 50.336 100.336 50.3341C100.186 50.3341 100.038 50.3086 100.058 50.3095L100.055 50.3105Z" fill="white"/>
<path d="M93.721 50.8402C91.1958 53.3578 88.8663 54.4663 86.1332 54.5438C83.7999 54.6109 81.4439 54.6951 79.1304 54.4531C73.7191 53.8861 69.7405 49.295 69.732 43.7807C69.714 32.8929 69.7122 22.006 69.732 11.1181C69.7424 5.46014 73.6313 0.847387 79.1012 0.282251C82.1385 -0.031504 85.26 -0.238505 88.269 0.52887C93.1625 1.77633 96.301 6.04323 96.2934 11.0916C96.2773 21.42 96.2906 31.7494 96.2858 42.0778C96.2858 43.0568 96.3038 44.0406 96.2055 45.0121C95.9541 47.5089 94.9212 49.6513 93.7219 50.8374L93.721 50.8402Z" fill="white"/>
<path d="M23.6819 16.7373C23.68 14.9663 23.68 13.3692 23.6781 11.6738C24.7564 11.7088 25.881 11.7428 27.1795 11.7844C27.1379 10.8941 27.067 10.1183 27.0746 9.34334C27.0878 7.87474 27.9913 6.89377 29.457 6.82857C30.8122 6.76808 32.175 6.76808 33.5292 6.82951C35.0007 6.89661 35.8767 7.95033 35.8786 9.52478C35.8833 14.3303 35.8853 19.1368 35.8862 23.9423C35.8862 32.0414 35.8852 40.1395 35.8852 48.2385C35.8852 50.104 34.9298 51.0632 33.0511 51.0764C32.0058 51.084 30.9615 51.102 29.9154 51.0897C28.0206 51.0679 27.0642 50.087 27.0576 48.1827C27.0557 47.5401 27.0548 46.8965 27.0529 46.2426C25.9188 46.2747 24.7951 46.3059 23.7556 46.3361C23.7528 44.5301 23.75 42.9188 23.7471 41.2338C24.7441 41.2726 25.8489 41.3151 26.9262 41.3567C26.9196 39.5942 26.914 37.9914 26.9073 36.3612C25.8754 36.382 24.7469 36.4046 23.6478 36.4264C23.6233 34.6875 23.6015 33.0497 23.5779 31.3439C24.7422 31.3723 25.8526 31.3997 26.964 31.4262C26.9546 29.7478 26.9442 28.144 26.9338 26.4987C25.8801 26.5185 24.7696 26.5403 23.6186 26.563C23.6762 24.8723 23.732 23.261 23.7868 21.6468C24.7063 21.6705 25.8262 21.6998 26.9612 21.7291C26.9271 19.924 26.8969 18.3193 26.8667 16.6674C25.8923 16.6891 24.7838 16.7147 23.68 16.7392L23.6819 16.7373Z" fill="white"/>
<path d="M77.6751 59.3483C82.3464 59.4456 86.9762 60.076 91.5058 58.3645C91.519 58.5384 91.5379 58.6821 91.5379 58.8257C91.5379 65.235 91.5445 71.6452 91.5313 78.0545C91.5256 80.591 90.1213 82.4093 87.8087 82.8828C87.2928 82.9886 86.7475 82.9782 86.2164 82.9839C84.9254 82.9971 83.6336 83.0132 82.3436 82.982C79.5992 82.9158 77.6874 80.9473 77.6864 78.2076C77.6836 72.423 77.6855 66.6374 77.6845 60.8528C77.6845 60.3425 77.6779 59.8331 77.6741 59.3493L77.6751 59.3483Z" fill="white"/>
<path d="M108.694 55.3516C112.128 55.3526 115.571 55.3545 118.91 55.3554C118.992 57.7029 119.225 60.1345 119.116 62.551C119.008 64.9845 118.281 67.3253 116.844 69.3458C115.801 70.8144 114.378 71.7085 112.477 71.5223C110.998 71.3777 109.505 71.2889 108.053 71.0044C106.222 70.6462 105.305 69.3912 105.31 67.5266C105.314 65.8463 105.938 64.3173 106.515 62.7816C106.975 61.5596 107.55 60.3746 107.918 59.1262C108.279 57.8995 108.442 56.6151 108.695 55.3507L108.694 55.3516Z" fill="white"/>
<path d="M40.9029 45.9727C40.8944 44.4711 40.8849 42.8777 40.8745 41.3345C48.8309 41.3354 56.7995 41.3354 64.7766 41.3364C64.8239 42.8711 64.874 44.4673 64.9212 45.9756C56.9479 45.9746 48.9207 45.9746 40.9029 45.9727Z" fill="white"/>
<path d="M64.7509 31.4844C64.7509 33.0494 64.7499 34.6494 64.7499 36.1747C56.8115 36.1747 48.8307 36.1737 40.8819 36.1746C40.8706 34.6928 40.8573 33.0787 40.845 31.4825C48.8127 31.4834 56.769 31.4844 64.7499 31.4853L64.7509 31.4844Z" fill="white"/>
<path d="M40.8467 26.3834C40.858 24.7806 40.8694 23.1835 40.8816 21.6251C48.8049 21.6251 56.7716 21.6251 64.6608 21.6251C64.6608 23.2033 64.6599 24.8165 64.6599 26.3834C56.8066 26.3834 48.8389 26.3843 40.8476 26.3843L40.8467 26.3834Z" fill="white"/>
<path d="M40.8695 16.5587C40.8544 14.9502 40.8383 13.3522 40.8232 11.808C48.8126 11.808 56.7803 11.807 64.679 11.807C64.679 13.3814 64.679 14.9937 64.678 16.5578C56.802 16.5578 48.8344 16.5587 40.8676 16.5587L40.8695 16.5587Z" fill="white"/>
</svg>
