<svg width="134" height="83" viewBox="0 0 134 83" fill="none" xmlns="http://www.w3.org/2000/svg">
<path d="M108.829 0C108.841 0.0224184 108.845 0.0576474 108.864 0.0704579C109.709 0.522029 109.78 1.29066 109.741 2.12655C109.709 2.76387 109.735 2.76707 110.368 2.77668C111.155 2.78629 111.942 2.78309 112.73 2.85034C113.176 2.88877 113.572 2.99126 113.928 3.31472C114.391 3.73107 114.925 4.07375 115.423 4.45486C115.631 4.61179 115.869 4.6214 116.11 4.60859C116.592 4.58297 117.017 4.68865 117.421 4.9865C118.103 5.48611 118.884 5.56297 119.713 5.43807C120.519 5.31317 121.29 5.05055 122.091 4.89362C122.746 4.76552 123.276 4.92885 123.665 5.49251C123.823 5.7231 123.983 5.95689 124.179 6.15226C124.616 6.59102 124.694 7.10023 124.507 7.65749C123.958 9.31005 123.45 10.9786 122.659 12.5383C122.454 12.945 122.441 13.3037 122.634 13.7105C122.981 14.4439 123.328 15.1741 123.662 15.9139C124.224 17.1565 124.597 18.4568 124.944 19.7666C125.121 20.4328 125.41 21.0381 125.825 21.5889C126.201 22.0886 126.445 22.6746 126.831 23.171C127.409 23.9205 128.155 24.3112 129.106 24.4201C130.176 24.545 131.262 24.6571 132.191 25.3008C132.84 25.7492 132.808 26.9277 132.12 27.3281C131.757 27.5394 131.365 27.6451 130.95 27.7156C129.883 27.8981 128.791 27.8309 127.727 28.0358C125.487 28.465 123.53 29.429 121.969 31.1104C120.763 32.4074 120.153 33.9511 119.986 35.7093C119.684 38.8928 120.391 41.9224 121.576 44.8112C123.154 48.6544 124.401 52.6064 125.764 56.5232C127.444 61.3592 129.048 66.2176 130.696 71.0632C131.625 73.795 132.538 76.5301 133.46 79.2651C133.621 79.7423 133.868 80.1875 133.965 80.6903C134.071 81.238 133.948 81.539 133.466 81.824C132.731 82.2596 131.901 82.3429 131.082 82.4389C130.153 82.5478 129.215 82.5158 128.28 82.5222C124.822 82.5446 121.371 82.7848 117.913 82.788C116.245 82.788 114.574 82.8201 112.906 82.8457C109.69 82.8969 106.473 82.9706 103.256 82.9994C101.785 83.0122 100.329 82.8169 98.902 82.4357C97.7676 82.1315 96.9193 81.5006 96.6622 80.2964C96.5144 79.6046 96.4854 78.8904 96.5818 78.1923C96.8004 76.6486 96.6879 75.1273 96.4887 73.5901C96.1898 71.3002 95.8299 69.0167 95.4346 66.7428C95.2161 65.4874 94.914 64.248 94.6409 63.0022C94.1749 60.8756 93.6961 58.7491 93.1016 56.6546C92.6903 55.2038 92.3979 53.7081 91.5431 52.4079C90.1645 50.3133 88.2332 49.5479 85.7716 49.8105C83.7728 50.0219 81.8222 50.4382 79.8813 50.9315C78.3195 51.3286 76.7385 51.4727 75.1285 51.5111C73.6985 51.5464 72.2717 51.5432 70.8449 51.4919C69.3924 51.4375 67.956 51.2421 66.5227 50.9827C65.1377 50.7329 63.7784 50.3934 62.4705 49.9002C60.626 49.202 58.8007 48.443 56.9786 47.6808C56.2235 47.3637 56.1656 47.21 56.3713 46.4157C56.5545 45.708 56.5159 44.9842 56.5352 44.2732C56.5898 42.4669 56.5448 40.6638 56.4388 38.8543C56.3231 36.8847 55.5293 35.2225 54.411 33.6597C53.1899 31.9559 51.5896 30.7293 49.6551 29.9446C48.8292 29.6083 47.9326 29.5123 47.0489 29.3938C45.2751 29.1568 43.4916 29.0607 41.7049 28.987C37.5948 28.8173 33.4815 28.9294 29.3682 28.9358C28.899 28.9358 28.4042 28.8653 27.9543 29.0959C27.8386 29.1568 27.7711 29.0831 27.739 28.9934C27.6908 28.8557 27.6361 28.7116 27.6393 28.5707C27.6522 27.9814 27.5719 28.0262 27.0288 28.023C26.3347 28.0198 25.6405 28.0454 24.9464 28.0326C24.5865 28.0262 24.4483 28.1543 24.4483 28.5194C24.4483 29.2208 24.4355 29.2144 23.7253 29.2144C21.749 29.2112 19.7727 29.2144 17.7964 29.208C16.9834 29.208 16.1671 29.1856 15.3541 29.1824C15.1292 29.1824 15.0488 29.0831 15.0392 28.8717C15.0199 28.3689 14.9749 27.8629 14.9717 27.3601C14.9717 27.043 14.8753 26.9181 14.5347 26.9181C11.9028 26.9053 9.27417 26.8701 6.64231 26.8477C5.50152 26.8381 4.9488 26.3352 4.87489 25.1951C4.83632 24.5834 4.82668 23.9397 4.58888 23.392C4.10686 22.2743 4.34466 21.1502 4.38322 20.0261C4.39607 19.6513 4.53104 19.3311 4.95844 19.2094C5.18017 19.1485 5.18659 18.9308 5.17374 18.7418C5.08376 17.4543 4.99378 16.1701 5.02913 14.8794C5.04199 14.4535 4.73028 14.4791 4.47962 14.4951C3.69232 14.5432 2.90501 14.5303 2.1177 14.5175C1.59711 14.5111 1.07652 14.5015 0.555936 14.4727C0.241013 14.4567 0.221732 14.4054 0.208878 13.7777C0.0642701 13.8706 0.12854 14.0628 0 14.13V5.43487C0.0578431 5.46049 0.122113 5.51493 0.157462 5.41245C0.266721 5.07937 0.549509 5.04415 0.832297 5.02173C1.05724 5.00571 1.2854 5.00892 1.51356 5.01212C2.56759 5.01532 3.62162 5.00571 4.67565 5.08898C4.8781 5.105 5.08376 5.1114 5.10304 4.81035C5.15767 4.0161 5.31192 3.22825 5.27015 2.42759C5.25408 2.13616 5.27015 1.84151 5.29264 1.55007C5.31192 1.32589 5.39869 1.13693 5.67183 1.11452C5.97712 1.08889 6.2824 1.04086 6.58768 1.03125C8.44187 0.986411 10.2961 0.967195 12.1503 1.08249C12.417 1.0985 12.5519 1.17857 12.5809 1.43158C12.658 2.10093 12.944 2.70622 13.1304 3.34355C13.2171 3.63819 13.3971 3.75348 13.6895 3.73747C13.8213 3.73107 13.9562 3.73747 14.0912 3.73747C23.2272 3.79192 32.3632 3.66701 41.496 3.80793C45.2204 3.86558 48.9481 3.83035 52.6725 3.86878C59.964 3.94564 67.2586 3.90721 74.5501 3.91362C75.1349 3.91362 75.1349 3.91362 75.1638 3.31472C75.1863 2.83113 75.3277 2.66459 75.8098 2.63256C76.2211 2.60374 76.6292 2.53648 77.047 2.5525C78.7019 2.61014 80.3569 2.69021 82.0086 2.69662C88.5802 2.71903 95.1518 2.71263 101.723 2.73184C102.659 2.73184 103.591 2.78629 104.526 2.77348C104.812 2.77028 104.988 2.69341 104.927 2.34753C104.898 2.18099 104.937 2.00485 104.937 1.83191C104.937 1.22341 105.04 0.614905 104.905 0.00640526C106.213 0.00640526 107.524 0.00640526 108.832 0.00640526L108.829 0ZM73.8592 48.7216C75.4499 48.7441 77.0309 48.6928 78.6055 48.4078C79.9616 48.1644 81.3049 47.905 82.5806 47.3733C84.091 46.7456 85.4471 45.9129 86.4882 44.6127C87.1888 43.7383 87.4651 42.7007 87.7865 41.679C88.23 40.2635 88.516 38.8191 88.336 37.3235C88.1175 35.5012 87.2048 34.0216 85.9998 32.6989C85.3732 32.0135 84.6212 31.5139 83.6796 31.2961C82.5645 31.0399 81.4463 31.1744 80.328 31.1488C80.1255 31.1424 80.0484 31.2897 80.0323 31.4595C80.0002 31.7797 79.8299 32.0295 79.666 32.2889C79.3832 32.7341 79.0008 33.0864 78.5991 33.4163C78.3324 33.6372 78.2167 33.8902 78.2295 34.2457C78.2552 34.9888 78.2199 35.735 78.2456 36.478C78.2585 36.8463 78.1749 37.1217 77.8311 37.3043C77.619 37.4163 77.529 37.6309 77.439 37.8423C76.2018 40.7855 74.4247 43.2708 71.5519 44.8689C70.5718 45.4133 69.5563 45.8297 68.4573 46.025C68.0395 46.0987 67.6025 46.1019 67.1815 46.0026C66.6609 45.8809 66.5195 45.5927 66.7477 45.1219C67.0723 44.4461 67.6378 44.0426 68.3223 43.7864C68.7111 43.6423 69.1096 43.5302 69.4984 43.3957C70.395 43.0818 71.1502 42.5502 71.6965 41.7943C73.2486 39.6422 74.2866 37.2722 74.5436 34.614C74.6368 33.634 74.5951 32.6508 74.2737 31.6964C74.2062 31.4947 74.1195 31.3762 73.8881 31.3762C72.7537 31.3826 71.6161 31.2961 70.485 31.3281C69.0036 31.3698 67.5221 31.3826 66.0407 31.3634C64.9385 31.3506 63.9359 31.5972 62.975 32.1224C61.3072 33.0351 60.1054 34.3162 59.6394 36.1961C59.4852 36.8143 59.3052 37.4292 59.1863 38.0537C58.9421 39.3379 58.7718 40.6382 59.1574 41.9192C59.7615 43.9113 60.928 45.5158 62.6987 46.6431C64.0708 47.5174 65.6101 47.9626 67.1976 48.2444C69.3988 48.6384 71.6194 48.7665 73.8527 48.7248L73.8592 48.7216ZM121.734 6.88886C121.531 6.88886 121.326 6.91768 121.152 7.01697C120.522 7.38527 119.844 7.52618 119.121 7.52298C118.803 7.52298 118.736 7.6671 118.97 7.91691C119.706 8.70796 120.352 9.57267 121.03 10.4118C121.194 10.6135 121.339 10.6135 121.445 10.3701C121.83 9.4926 122.187 8.60547 122.399 7.6671C122.505 7.19952 122.216 6.89206 121.737 6.88566L121.734 6.88886Z" fill="white"/>
</svg>
