<svg width="162" height="83" viewBox="0 0 162 83" fill="none" xmlns="http://www.w3.org/2000/svg">
<path d="M110.432 51.8542C110.491 52.3777 110.57 52.8947 110.604 53.4158C110.635 53.8918 110.62 54.3702 110.622 54.8479C110.624 55.4074 110.648 55.9695 110.614 56.5266C110.548 57.59 110.459 58.6518 110.358 59.7128C110.296 60.3666 110.208 61.0179 110.109 61.6676C110 62.382 109.859 63.0907 109.746 63.8051C109.646 64.4409 109.581 65.0824 109.472 65.7157C109.383 66.2417 109.247 66.7595 109.138 67.2822C109.035 67.7787 108.942 68.2784 108.839 68.7749C108.701 69.4402 108.571 70.1079 108.413 70.7691C108.233 71.5212 108.029 72.2684 107.83 73.0164C107.708 73.4801 107.579 73.943 107.449 74.4051C107.114 75.5889 106.769 76.7695 106.441 77.955C106.178 78.9062 105.914 79.8591 105.691 80.8201C105.634 81.0667 105.692 81.3592 105.764 81.6123C105.88 82.0203 105.749 82.3284 105.479 82.611C105.2 82.9035 104.88 83.0838 104.463 82.9609C103.629 82.7143 102.794 82.4726 101.966 82.2096C101.226 81.9753 100.497 81.7065 99.7578 81.4689C98.6998 81.1289 97.6352 80.8094 96.5773 80.4711C95.4776 80.1188 94.3829 79.7501 93.2832 79.397C91.7375 78.8997 90.1893 78.4097 88.642 77.9173C87.4149 77.5274 86.1829 77.1497 84.9623 76.7392C84.7041 76.6524 84.4852 76.45 84.2482 76.3001C84.437 76.1043 84.6665 75.933 84.8038 75.7053C84.986 75.4046 85.1249 75.0687 85.2327 74.7328C85.6183 73.535 85.9892 72.3323 86.3536 71.1279C86.7907 69.6802 87.2319 68.2334 87.6403 66.7775C88.008 65.4666 88.3274 64.1418 88.6779 62.8261C88.9565 61.7798 89.2604 60.741 89.53 59.6923C89.6199 59.3433 89.6664 58.9763 89.6811 58.6158C89.7375 57.1902 89.7555 55.7638 89.8225 54.3391C89.8797 53.1249 89.9916 51.9123 90.066 50.699C90.1231 49.7675 90.1722 48.8343 90.1975 47.9019C90.2065 47.5759 90.0782 47.2916 89.7784 47.0859C89.4369 46.8516 89.1297 46.5673 88.8037 46.3011C89.0472 45.9856 89.2163 45.6792 89.4647 45.4678C89.7759 45.2032 89.8176 44.9001 89.8176 44.5289C89.8094 39.9139 89.8078 35.2997 89.8209 30.6846C89.8217 30.2938 89.7204 30.1152 89.3266 30.1947C88.6812 30.325 88.6648 29.7195 88.4206 29.4041C88.1501 29.0534 87.9557 28.6454 87.7098 28.2743C87.4884 27.9392 87.356 27.9597 87.1551 28.3251C86.9132 28.7634 86.6526 29.1911 86.4263 29.6367C86.2131 30.0562 85.8789 30.1955 85.4321 30.1955C80.0547 30.1906 74.6765 30.1873 69.2992 30.1939C64.7119 30.1996 60.1254 30.2308 55.538 30.2291C49.8347 30.2283 44.1314 30.2062 38.4281 30.1898C37.866 30.1881 37.3685 29.9751 36.9567 29.6056C36.5278 29.2214 36.1242 28.8076 35.7345 28.3833C35.6299 28.2694 35.5768 28.0711 35.5719 27.9097C35.5531 27.3231 35.549 26.7348 35.5719 26.1491C35.5834 25.8476 35.4984 25.7501 35.1863 25.7517C32.7223 25.764 30.2575 25.7517 27.7935 25.7722C27.6064 25.7738 27.3899 25.9434 27.242 26.0901C27.0639 26.2662 26.9716 26.5308 26.7886 26.7004C26.6636 26.816 26.4512 26.8807 26.2739 26.8881C25.7167 26.911 25.1538 26.9356 24.6015 26.8782C24.3573 26.8528 24.055 26.6865 23.9169 26.4874C23.6065 26.0401 23.3777 25.5354 23.1269 25.0479C23.0182 24.8366 22.8932 24.7325 22.6285 24.7374C21.4987 24.7563 20.3688 24.7505 19.2389 24.7415C18.9856 24.7399 18.8231 24.789 18.6874 25.0447C18.5273 25.3478 18.2659 25.5166 17.8607 25.5158C12.7554 25.5002 7.64926 25.4846 2.54479 25.5239C1.6118 25.5313 0.449239 24.7161 0.245811 23.8993C-0.0703588 22.6335 -0.154506 21.3226 0.438619 20.0929C0.780116 19.385 1.3038 18.8205 2.09381 18.5838C2.24577 18.5379 2.40998 18.5117 2.56848 18.5117C7.60596 18.5059 12.6434 18.5018 17.6809 18.51C18.1221 18.51 18.5044 18.6772 18.7691 19.0917C18.9987 19.4506 19.2969 19.6906 19.8043 19.6652C20.823 19.6152 21.8459 19.639 22.8663 19.6579C23.1874 19.6636 23.2772 19.5743 23.2764 19.2441C23.265 14.1375 23.2682 9.0317 23.2682 3.92508C23.2682 3.57443 23.4474 3.39883 23.8058 3.39829C24.8001 3.39829 25.7935 3.40894 26.787 3.39829C27.6619 3.38846 28.5222 3.55722 29.2714 3.95867C29.7885 4.2364 30.1872 4.76402 30.5892 5.22364C31.023 5.71931 31.4053 6.26005 31.7975 6.79177C32.429 7.64792 33.0499 8.51227 33.6765 9.37252C34.304 10.2336 34.9322 11.0947 35.5613 11.9549C35.7288 12.1835 35.9118 12.4022 36.0686 12.6382C36.3097 13.0003 36.5376 13.0323 36.8497 12.7226C37.1046 12.4694 37.3513 12.2081 37.607 11.9557C37.8791 11.6878 38.2165 11.6444 38.5841 11.6452C43.5946 11.6518 48.6043 11.6551 53.6149 11.6477C58.2292 11.6411 62.8426 11.6084 67.4569 11.6084C71.7983 11.6084 76.1406 11.6346 80.482 11.6501C81.2949 11.6526 81.5767 11.8705 81.7075 12.6767C81.7532 12.9594 81.9166 12.9127 82.0849 12.9127C83.12 12.9151 84.1543 12.8995 85.1886 12.9258C85.4043 12.9315 85.6355 13.0585 85.8267 13.1814C86.2343 13.4436 86.5366 13.922 87.1183 13.8057C87.2327 13.7827 87.3618 13.7049 87.4312 13.6123C87.633 13.342 87.8127 13.0544 87.9925 12.7685C88.414 12.0983 88.9884 11.7673 89.807 11.7681C99.9228 11.7804 110.038 11.7763 120.154 11.7763H120.757V8.64008H131.528V8.16079C131.528 6.64511 131.598 5.12615 131.51 3.61539C131.411 1.91455 132.912 0.367742 134.402 0.0777143C135.949 -0.223783 137.014 0.373463 137.958 1.4967C138.525 2.17098 138.719 2.92064 138.634 3.75958C138.565 4.43304 138.281 5.03194 137.838 5.53989C137.362 6.08554 136.82 6.54844 136.11 6.7721C135.655 6.91548 135.57 7.27923 135.441 7.70444C135.237 8.37626 135.527 8.77525 135.897 9.25863C136.568 10.1344 137.16 11.0725 137.782 11.986C137.934 12.2089 138.128 12.2859 138.403 12.2851C141.139 12.2769 143.877 12.2556 146.612 12.3048C147.324 12.3179 148.045 12.5161 148.735 12.7201C149.352 12.9028 149.678 13.4706 149.678 14.1154C149.678 14.7438 149.688 15.3713 149.673 15.9997C149.666 16.2693 149.756 16.3586 150.023 16.352C150.649 16.3365 151.28 16.3954 151.901 16.3356C152.767 16.2521 153.509 16.6109 154.276 16.8919C154.378 16.9288 154.453 17.114 154.486 17.2434C154.522 17.3811 154.494 17.5351 154.494 17.7366H162V25.7361H154.507C154.653 26.7398 153.791 26.6177 153.299 26.8733C152.995 27.0314 152.602 27.02 152.202 27.0929C152.244 27.369 152.324 27.6557 152.326 27.9433C152.338 29.445 152.398 30.9517 152.297 32.4469C152.253 33.0835 152.382 33.7799 152.013 34.3854C151.592 35.0777 151.012 35.5258 150.181 35.516C149.316 35.5053 148.454 35.4201 147.589 35.4021C146.639 35.3816 145.937 35.8322 145.495 36.663C145.026 37.547 144.688 38.4793 144.598 39.4887C144.565 39.85 144.504 40.2088 144.477 40.5701C144.403 41.5394 144.821 42.3496 145.308 43.1394C145.685 43.749 146.048 44.3675 146.413 44.9845C147.102 46.1495 147.794 47.3137 148.477 48.4836C148.981 49.3488 149.47 50.2238 149.97 51.0914C150.74 52.4277 151.512 53.7623 152.286 55.0961C152.889 56.1358 153.503 57.1697 154.097 58.2135C155.005 59.8086 155.894 61.4136 156.804 63.0071C157.546 64.3057 158.308 65.5928 159.06 66.8856C159.669 67.9335 160.263 68.9904 160.888 70.0284C161.35 70.7944 161.1 71.3507 160.602 71.853C159.76 72.7026 158.716 73.2023 157.616 73.5784C156.723 73.884 155.8 74.1044 154.882 74.3289C154.494 74.4239 154.083 74.4255 153.685 74.4821C153.209 74.5501 152.736 74.6377 152.26 74.7041C151.848 74.7623 151.434 74.8098 151.02 74.8491C150.457 74.9024 149.894 74.9613 149.33 74.9859C148.072 75.0392 146.812 75.1309 145.556 75.0924C144.682 75.0654 143.792 74.9499 142.991 74.505C142.237 74.0872 142.072 73.331 142.555 72.6165C142.886 72.1283 143.155 71.5974 143.443 71.0812C143.686 70.6486 143.53 70.2414 143.335 69.8474C142.718 68.5979 142.114 67.342 141.469 66.1073C140.536 64.3205 139.583 62.5442 138.616 60.7762C138.286 60.1749 137.692 59.8857 137.077 59.6423C136.453 59.3949 135.835 59.1303 135.215 58.873C134.929 58.7542 134.857 58.5871 135.037 58.3012C135.253 57.9595 135.407 57.5785 135.629 57.241C135.938 56.7707 136.084 56.2398 135.937 55.7294C135.813 55.2985 135.533 54.879 135.227 54.5398C134.615 53.8623 134.108 53.1396 133.738 52.2958C133.367 51.4495 132.605 51.0824 131.596 51.3323C131.151 51.4421 130.952 51.6707 130.75 52.0361C130.591 52.322 130.31 52.5514 130.05 52.7636C129.8 52.9676 129.539 52.9692 129.318 52.6669C129.111 52.3843 128.823 52.1508 128.664 51.8468C128.511 51.5551 128.319 51.5191 128.042 51.5199C123.494 51.5248 118.947 51.5117 114.4 51.5371C113.803 51.5404 113.423 51.2758 113.082 50.8719C112.9 50.6564 112.772 50.3959 112.593 50.1779C112.521 50.0894 112.376 50.0591 112.265 50.0018C112.222 50.1034 112.144 50.2033 112.139 50.3074C112.092 51.3347 112.095 51.3348 111.12 51.6322C110.916 51.6944 110.713 51.76 110.43 51.8484L110.432 51.8542ZM121.94 49.5774C123.355 49.5774 124.77 49.5995 126.185 49.5643C126.602 49.5536 127.048 49.4512 127.424 49.2702C128.58 48.7122 129.204 47.6947 129.597 46.5173C129.724 46.1364 129.785 45.7341 129.896 45.3474C130.08 44.7092 129.994 44.0906 129.764 43.4893C129.457 42.6855 128.821 42.1342 128.206 41.5836C127.949 41.3542 127.614 41.2075 127.301 41.0502C127.117 40.9568 126.895 40.8839 126.865 41.2305C126.827 41.6737 126.836 42.1309 126.725 42.5561C126.549 43.2238 126.361 43.9079 126.043 44.5134C125.74 45.0901 125.293 45.603 124.854 46.0938C124.497 46.4944 124.069 46.8369 123.645 47.1711C123.535 47.2572 123.322 47.235 123.163 47.2129C123.133 47.2088 123.091 46.9589 123.128 46.8467C123.326 46.2478 123.522 45.6464 123.765 45.0664C124.256 43.9005 124.484 42.729 124.024 41.4943C123.827 40.9659 123.746 40.8856 123.189 40.8856C121.203 40.8856 119.216 40.8806 117.23 40.888C116.458 40.8905 115.769 41.2133 115.298 41.772C114.695 42.4881 114.295 43.3516 114.324 44.3348C114.346 45.0516 114.36 45.7751 114.463 46.4829C114.57 47.2367 114.848 47.9511 115.359 48.5353C115.962 49.2251 116.766 49.5446 117.654 49.5684C119.082 49.6069 120.511 49.579 121.94 49.579L121.94 49.5774ZM25.0484 8.14359C25.0991 8.63189 25.1612 9.05626 25.184 9.48229C25.2421 10.5662 25.2805 11.651 25.3295 12.7349C25.3711 13.6705 25.4226 14.6053 25.4553 15.5418C25.4626 15.7572 25.5403 15.8236 25.7469 15.8228C27.5296 15.8178 29.3114 15.8236 31.0941 15.8121C31.2191 15.8121 31.4045 15.7277 31.4568 15.6278C31.6815 15.196 31.9151 14.7585 32.0565 14.2956C32.295 13.5156 32.4462 12.721 32.0099 11.9369C31.737 11.4461 31.505 10.9316 31.2526 10.4294C30.9168 9.76004 30.5875 9.08823 30.2354 8.42788C30.1709 8.30663 30.0091 8.15669 29.8915 8.15505C28.3155 8.13703 26.7388 8.14277 25.0484 8.14277V8.14359Z" fill="white"/>
</svg>
