<svg width="211" height="83" viewBox="0 0 211 83" fill="none" xmlns="http://www.w3.org/2000/svg">
<path d="M148.332 63.8568C148.405 63.8505 148.493 63.8547 148.576 63.8347C148.752 63.7916 148.926 63.7368 149.1 63.6874C149.005 63.5474 148.915 63.4021 148.812 63.2685C148.295 62.6011 147.767 61.978 147.463 61.1339C147.085 60.0845 146.428 59.134 145.888 58.1436C145.635 57.6773 145.35 57.2268 145.118 56.7499C144.547 55.5732 143.985 54.3922 143.446 53.2007C143.156 52.5566 142.931 51.8829 142.662 51.2282C142.308 50.3672 141.928 49.5168 141.587 48.6516C141.488 48.4021 141.52 48.1022 141.43 47.8474C141.167 47.0949 140.883 46.3497 140.578 45.6129C140.538 45.5171 140.313 45.4371 140.194 45.4592C140.117 45.4739 140.015 45.6907 140.026 45.8065C140.083 46.3539 139.809 46.6938 139.252 46.6938C133.714 46.696 128.176 46.7117 122.638 46.6717C122.025 46.6675 121.388 46.3938 120.813 46.1339C120.472 45.9802 120.233 45.6044 119.946 45.3297C119.182 44.6013 118.382 43.9077 117.664 43.1372C116.636 42.0352 115.67 40.8774 114.677 39.7427C114.642 39.7027 114.578 39.6669 114.575 39.6259C114.507 38.8596 113.788 38.5786 113.413 38.0428C113.26 37.826 113.176 37.5618 113.054 37.3229C112.991 37.1976 112.937 36.9966 112.842 36.9713C112.275 36.8208 111.698 36.6071 111.122 36.604C105.304 36.5777 99.4851 36.5882 93.6671 36.5882C92.9635 36.5882 92.7869 36.7598 92.7669 37.4723C92.7595 37.7176 92.7795 37.9639 92.7627 38.2091C92.6996 39.1764 92.7164 40.1595 92.5313 41.1037C92.3683 41.9331 91.9455 42.7078 91.6952 43.5235C91.4943 44.1772 91.0968 44.4035 90.4353 44.5319C89.8537 44.6445 89.3615 45.1708 88.7788 45.3287C87.8943 45.5676 86.993 46.1444 86.0381 45.5013C85.9718 45.456 85.8698 45.4213 85.7962 45.436C85.142 45.5644 84.5994 45.1929 84.0115 45.035C83.8201 44.9834 83.6507 44.8097 83.4993 44.6624C83.1259 44.2982 82.7694 43.9182 82.4066 43.5435C82.3224 43.4562 82.212 43.3762 82.1657 43.2709C81.6914 42.1784 81.3338 41.0174 80.728 40.0048C80.2642 39.2301 79.9803 38.2481 78.998 37.8376C78.7656 37.7408 78.5889 37.4387 78.4532 37.1945C78.1819 36.704 77.8664 36.3146 77.2553 36.2651C77.1134 36.2535 76.9219 36.1766 76.8504 36.0672C76.2531 35.1514 75.2708 34.802 74.3632 34.3431C74.2748 34.2989 74.1644 34.2842 74.0645 34.281C71.6624 34.2063 69.2613 34.1189 66.8582 34.0684C64.3415 34.0147 61.8227 34.0031 59.3059 33.9558C58.8379 33.9474 58.5277 34.1189 58.2605 34.4978C58.1291 34.6841 57.863 34.7799 57.6527 34.9062C57.5969 34.9399 57.4739 34.9199 57.4591 34.9557C57.2467 35.4651 56.7829 35.5377 56.3275 35.6325C55.9983 35.7009 55.6692 35.7714 55.3452 35.8577C54.9582 35.9609 54.5764 36.0883 54.1894 36.1946C54.0432 36.2346 53.8897 36.2703 53.7393 36.2703C52.1975 36.2756 50.6483 36.3619 49.1149 36.2482C47.7498 36.1461 46.309 35.9788 45.3036 34.902C44.4412 33.9789 43.3085 33.3084 42.7122 32.1348C42.017 30.7665 41.3134 29.4024 40.5983 28.0446C40.4153 27.6983 40.185 27.3741 39.9525 27.0573C39.8936 26.9773 39.7233 26.8994 39.6433 26.9289C39.0396 27.1489 39.0481 26.6994 39.0333 26.3531C39.0049 25.689 39.0249 25.0237 39.0249 24.2754H37.3422C36.7459 24.2754 36.1475 24.308 35.5554 24.2606C35.2798 24.2385 35.0221 24.0364 34.7445 23.9638C34.4837 23.8954 34.2071 23.8649 33.9378 23.8607C33.1417 23.848 32.7221 23.367 32.8041 22.5629C32.8157 22.4492 32.741 22.2397 32.6632 22.2166C32.191 22.0745 31.7061 21.8766 31.2245 21.8745C26.7379 21.8482 22.2513 21.8566 17.7648 21.8566C17.0391 21.8566 16.4228 21.2545 16.4144 20.5209C16.4028 19.4431 16.569 19.543 15.4311 19.542C10.752 19.5399 6.07196 19.5336 1.39294 19.5525C0.917571 19.5546 0.63887 19.3863 0.455874 18.9789C0.184535 18.3779 -0.0110813 17.7706 0.000487376 17.0895C0.0278316 15.4412 -0.012133 13.7919 0.0278316 12.1436C0.0351935 11.8194 0.207673 11.4341 0.429582 11.1931C0.870245 10.7152 1.42344 10.4679 2.13123 10.469C12.1908 10.489 22.2503 10.4826 32.3098 10.4826C32.7894 10.4826 33.0295 10.2441 33.0302 9.76691C33.0302 9.34589 33.0281 8.92487 33.0302 8.50384C33.0355 7.69758 33.5098 7.21129 34.3207 7.22602C35.0232 7.2376 35.7247 7.3039 36.4262 7.32074C36.646 7.32601 36.8763 7.27863 37.0824 7.20284C37.1561 7.17653 37.2328 6.97549 37.2055 6.88708C36.9815 6.16818 36.8132 5.48613 36.9752 4.68935C37.1361 3.89677 37.0256 3.04736 37.0141 2.22426C37.0078 1.78534 37.1035 1.53381 37.6156 1.72116C38.0153 1.86747 38.2603 1.58747 38.4339 1.31381C38.8756 0.615962 39.4603 0.365426 40.3006 0.365426C77.595 0.38332 114.888 0.379116 152.183 0.398062C152.776 0.398062 153.278 0.217036 153.808 0.0444163C153.926 0.00547163 154.111 -0.027168 154.187 0.0338804C154.584 0.348596 155.038 0.277054 155.483 0.278107C171.986 0.312841 188.489 0.346476 204.992 0.387526C205.225 0.387526 205.498 0.419148 205.685 0.53914C206.507 1.06858 207.09 1.69903 207.471 2.7158C208.04 4.23464 207.82 5.75983 208.02 7.2713C208.027 7.32288 208.006 7.38708 208.029 7.42708C208.509 8.2807 208.627 9.27958 209.302 10.0806C210.042 10.9595 210.719 11.9447 210.553 13.2467C210.478 13.8414 210.52 14.4371 210.826 15.0213C211.003 15.3602 210.938 15.8328 210.956 16.2465C210.974 16.6664 210.908 17.0959 210.97 17.5074C211.135 18.5916 210.594 19.4231 210.08 20.282C209.849 20.6683 209.755 21.1103 209.367 21.4324C208.79 21.9113 208.271 22.4671 207.764 23.0239C207.517 23.2944 207.352 23.6396 207.091 24.0385C206.377 23.8691 205.965 24.6722 205.3 24.9553C204.465 25.31 204.04 26.1174 203.416 26.7068C203.2 26.912 202.883 27.0089 202.644 27.1962C202.174 27.5646 201.663 27.9099 201.284 28.3604C200.681 29.0761 199.808 29.2971 199.062 29.7487C198.964 29.8087 198.855 29.8603 198.774 29.9392C198.514 30.1918 198.273 30.4686 197.85 30.3876C197.785 30.3749 197.7 30.3834 197.646 30.4171C197.156 30.7128 196.677 31.0275 196.182 31.3149C195.613 31.6454 195.046 32.1801 194.45 32.2212C193.489 32.2864 192.806 33.0463 191.857 33.0316C191.688 33.0295 191.523 33.1906 191.346 33.2453C190.558 33.4927 189.757 33.701 188.979 33.9768C188.22 34.2452 187.486 34.5789 186.74 34.8799C186.676 34.9052 186.602 34.8999 186.533 34.9125C185.937 35.022 185.28 35.0062 184.76 35.2683C183.834 35.7356 182.871 35.8135 181.882 35.8651C181.783 35.8703 181.665 35.9019 181.594 35.964C181.09 36.3966 180.486 36.2451 179.911 36.2872C179.631 36.3072 179.359 36.4208 179.083 36.4945C179.051 36.5029 179.023 36.5335 178.991 36.5398C178.312 36.665 177.632 36.7798 176.956 36.9155C176.647 36.9776 176.353 37.1092 176.045 37.1577C175.704 37.2113 175.352 37.1818 175.011 37.2313C174.768 37.266 174.535 37.3692 174.299 37.4471C174.236 37.4682 174.181 37.5292 174.118 37.5366C173.08 37.6471 172.039 37.7418 171.002 37.8649C170.761 37.8934 170.529 38.006 170.297 38.0923C170.169 38.1397 170.055 38.2481 169.926 38.2671C169.335 38.3534 168.743 38.4323 168.149 38.487C167.594 38.5375 167.336 39.0007 167.636 39.4743C167.93 39.9374 168.278 40.3679 168.544 40.8447C168.747 41.2089 168.828 41.6405 169.018 42.0131C169.454 42.8625 169.944 43.6846 170.373 44.5371C170.649 45.0834 170.78 45.7139 171.112 46.2149C171.519 46.8275 171.554 47.4591 171.533 48.1369C171.515 48.6979 171.561 49.2621 171.521 49.8199C171.468 50.5735 171.754 51.1872 172.132 51.8135C172.515 52.4481 172.777 53.1555 173.113 53.8207C173.298 54.1881 173.554 54.5207 173.728 54.8933C174.122 55.7416 174.426 56.6384 174.877 57.4552C175.427 58.452 175.796 59.5087 176.162 60.5739C176.184 60.6371 176.224 60.6981 176.269 60.7476C177.024 61.5633 177.366 62.5875 177.743 63.6011C177.902 64.0263 178.184 64.4042 178.369 64.8231C178.741 65.6662 179.076 66.5262 179.445 67.3703C179.547 67.604 179.717 67.8081 179.858 68.025C179.923 68.126 180.016 68.2145 180.059 68.3239C180.516 69.4891 180.96 70.6596 181.421 71.8237C181.495 72.01 181.652 72.1626 181.728 72.3479C182.02 73.0647 182.233 73.8204 182.593 74.4993C182.872 75.0277 183.327 75.4623 183.706 75.937C183.725 75.9602 183.785 75.9571 183.797 75.9802C184.051 76.5023 184.318 77.0201 184.537 77.5569C184.572 77.6412 184.384 77.8096 184.314 77.9464C184.215 78.1422 184.108 78.339 184.054 78.5474C184.03 78.6348 184.107 78.8032 184.187 78.8474C184.26 78.8874 184.415 78.8379 184.504 78.78C185.108 78.379 185.39 78.3758 185.778 78.7895C186.132 79.1663 186.171 80.0452 185.818 80.4315C185.189 81.1199 184.539 81.7903 183.898 82.4671C183.838 82.5303 183.761 82.6472 183.709 82.6387C182.959 82.5166 182.321 83.2208 181.55 82.9282C181.473 82.8987 181.378 82.9082 181.292 82.9029C181.239 82.8997 181.187 82.9029 181.134 82.9019C177.443 82.8671 173.751 82.8292 170.06 82.7966C165.964 82.7608 161.87 82.7303 157.775 82.6882C157.582 82.6861 157.366 82.625 157.204 82.5229C156.606 82.1482 156.517 81.8135 156.975 81.322C157.314 80.9588 157.206 80.5757 157.187 80.1947C157.183 80.1084 156.902 79.96 156.756 79.9684C156.252 79.9989 155.988 79.8094 155.769 79.3337C155.557 78.8716 155.172 78.4832 154.827 78.0938C154.733 77.9885 154.497 78.0243 154.347 77.9506C154.142 77.8485 153.958 77.7043 153.765 77.578C153.86 77.437 153.945 77.2886 154.053 77.157C154.394 76.7402 154.294 76.2813 154.197 75.8192C154.147 75.5855 154.117 75.3466 154.058 75.115C153.996 74.8751 153.901 74.6435 153.837 74.4046C153.793 74.2414 153.759 74.073 153.75 73.9056C153.719 73.3709 153.69 72.8604 153.199 72.4805C153.024 72.3457 153.038 71.99 152.884 71.8005C152.447 71.2584 151.882 70.9595 151.162 70.8806C150.86 70.8479 150.467 70.5921 150.332 70.328C150.058 69.7954 149.933 69.186 149.745 68.6092C149.724 68.545 149.703 68.4681 149.657 68.426C149.098 67.9197 149.259 67.2492 149.218 66.6177C149.202 66.3724 149.09 66.1325 149.011 65.8935C148.793 65.2346 148.569 64.5768 148.331 63.8674L148.332 63.8568ZM127.025 40.0511C127.796 40.0511 128.569 40.0785 129.338 40.0364C129.609 40.0217 129.932 39.8996 130.124 39.7143C130.495 39.3575 130.793 38.9249 131.112 38.5165C131.206 38.3965 131.281 38.2555 131.34 38.1144C131.697 37.2524 131.683 36.345 131.664 35.4356C131.65 34.7652 131.621 34.7283 130.948 34.7252C128.197 34.7125 125.446 34.6978 122.695 34.6852C122.029 34.682 121.362 34.6599 120.698 34.7009C120.513 34.7125 120.294 34.8841 120.181 35.0451C120.131 35.1157 120.286 35.3578 120.382 35.4988C120.509 35.6851 120.75 35.8272 120.801 36.024C120.991 36.7608 121.345 37.3987 121.769 38.026C122.208 38.6765 122.512 39.428 123.433 39.5386C123.546 39.5522 123.643 39.6617 123.755 39.7027C124.09 39.8248 124.424 40.0122 124.767 40.0353C125.517 40.0859 126.273 40.0511 127.027 40.0511H127.025ZM135.601 37.0177C135.601 37.3787 135.648 37.5797 135.592 37.746C135.397 38.3302 135.17 38.9038 134.946 39.4785C134.889 39.6259 134.797 39.7596 134.721 39.8995C134.888 39.9753 135.052 40.1101 135.22 40.1164C135.85 40.1406 136.482 40.1332 137.112 40.1185C137.568 40.108 137.7 39.9175 137.476 39.5196C137.073 38.807 136.634 38.1134 136.185 37.4281C136.092 37.285 135.889 37.2134 135.601 37.0166V37.0177Z" fill="white"/>
</svg>
