<svg width="83" height="83" viewBox="0 0 83 83" fill="none" xmlns="http://www.w3.org/2000/svg">
<path d="M41.6894 75.2803C46.6872 75.4541 51.6842 75.6296 56.682 75.8018C57.6999 75.8372 58.7275 75.8163 59.6979 76.1816C60.1711 76.3595 60.6434 76.5727 61.0666 76.8456C63.0711 78.138 65.0602 79.4554 67.0526 80.7671C67.6569 81.1655 67.8516 81.7497 67.582 82.3219C67.3664 82.7806 66.8932 83.0478 66.3605 82.9931C63.7751 82.7259 61.1897 82.4539 58.6043 82.1851C55.5788 81.8705 52.5532 81.559 49.5285 81.2436C46.2768 80.9047 43.026 80.5627 39.7743 80.2247C37.1085 79.9479 34.4426 79.6751 31.7767 79.4015C29.6186 79.1794 27.4597 78.9613 25.3016 78.7359C24.1565 78.6168 23.3921 77.7252 23.4589 76.6009C23.5233 75.5113 24.3915 74.7041 25.5309 74.7363C27.9835 74.8055 30.4353 74.9029 32.8872 74.9874C35.821 75.0888 38.7556 75.1886 41.6894 75.2891C41.6894 75.2859 41.6894 75.2827 41.6894 75.2795V75.2803Z" fill="white"/>
<path d="M47.1258 31.6509C46.9238 31.5076 46.7661 31.3893 46.602 31.2807C43.5233 29.2374 40.1147 27.9964 36.5452 27.1466C32.9065 26.2807 29.2051 25.9145 25.4787 25.6932C22.5432 25.5186 19.6287 25.1211 16.8446 24.1296C12.9959 22.7591 10.0379 20.2611 7.97954 16.7403C5.82223 13.0489 3.71804 9.32687 1.60016 5.61292C1.08115 4.70273 1.25334 3.77646 2.01778 3.1077C2.76049 2.45907 3.73815 2.42768 4.56293 3.07069C6.7307 4.76068 8.86308 6.49815 11.0534 8.15837C14.1345 10.493 17.6058 11.9536 21.4344 12.5041C24.9218 13.0054 28.4318 13.0199 31.9514 12.9427C36.9065 12.8348 41.8029 13.3482 46.5883 14.701C50.7122 15.8671 54.5931 17.5604 57.9752 20.2378C62.1948 23.5783 65.2059 27.8122 67.1033 32.8483C68.4294 36.3667 69.2711 39.9938 69.6943 43.7271C70.0564 46.9203 70.0709 50.1184 70.0057 53.327C69.9389 56.6281 70.0741 59.9292 70.7758 63.17C71.5708 66.8397 73.2566 70.0845 75.6215 72.9937C77.0763 74.7835 78.4941 76.603 79.9079 78.425C80.8904 79.6917 80.188 81.4549 78.6133 81.6641C78.2753 81.7092 77.8657 81.6456 77.568 81.4855C73.3378 79.2185 69.1061 76.941 65.1166 74.2716C61.3475 71.7495 59.1081 68.1305 58.1538 63.6979C57.6018 61.1332 57.3499 58.5394 57.1834 55.9272C56.8607 50.8765 56.0721 45.9136 54.1892 41.1768C53.5141 39.4779 52.6917 37.8547 51.665 36.3386C51.5692 36.1969 51.467 36.0585 51.339 35.8774C51.2055 36.0014 51.0985 36.0939 50.9979 36.1937C43.5636 43.6297 36.1292 51.0664 28.6957 58.504C27.1974 60.0025 25.708 61.5098 24.2016 63.001C23.1089 64.0826 22.6229 65.4225 22.4249 66.9113C22.3107 67.774 22.1272 68.6279 21.984 69.4874C21.8287 70.4201 21.4473 71.253 20.8728 71.9966C18.4563 75.1287 16.0359 78.2576 13.6187 81.3897C13.168 81.9732 12.575 82.1872 11.8733 82.0303C11.1741 81.8742 10.8031 81.3728 10.6213 80.7C10.0628 78.631 9.49314 76.5652 8.93953 74.4954C8.87274 74.2451 8.76088 74.1228 8.50419 74.0544C6.42091 73.5007 4.34166 72.9293 2.26079 72.3652C1.58567 72.1825 1.09966 71.7865 0.958843 71.0864C0.813198 70.3653 1.07311 69.7883 1.66695 69.3312C4.7271 66.9757 7.78646 64.6178 10.8281 62.2389C11.8693 61.4245 13.0498 61.039 14.3332 60.8612C15.2087 60.7396 16.0761 60.5594 16.9484 60.4081C18.1232 60.2045 19.1202 59.6564 19.957 58.8211C24.2861 54.5003 28.6104 50.1764 32.9355 45.8524C37.5543 41.2347 42.1731 36.6154 46.7911 31.9969C46.8852 31.9027 46.9753 31.8046 47.1226 31.6509H47.1258Z" fill="white"/>
<path d="M71.335 16.0163C70.515 16.8476 69.7353 17.6403 68.9532 18.4298C68.2829 19.1058 67.6102 19.7801 66.9351 20.4513C66.1232 21.2593 65.1101 21.2641 64.3047 20.465C63.7052 19.8703 63.1049 19.2748 62.5118 18.6736C61.7281 17.8801 61.7329 16.8621 62.5215 16.0726C63.8677 14.7255 65.2139 13.3799 66.5666 12.0392C66.6889 11.9185 66.8546 11.842 67.0003 11.7454C66.9778 11.6947 66.9552 11.644 66.9319 11.5933C66.4209 11.2819 65.9196 10.9552 65.3982 10.6622C64.0946 9.93072 62.705 9.41406 61.2662 9.01249C60.3585 8.75899 59.9353 7.91963 60.266 7.10682C60.4277 6.70927 60.7359 6.47106 61.1206 6.30528C62.4965 5.71298 63.9474 5.39751 65.4111 5.1239C70.7138 4.13163 75.8339 2.56396 80.7223 0.26316C81.0176 0.123937 81.3563 -0.000800885 81.6742 3.87269e-06C82.6889 0.0032229 83.2843 1.02044 82.8635 1.99339C82.4804 2.87782 82.0548 3.74454 81.683 4.6338C79.8251 9.07687 78.5738 13.693 77.687 18.4209C77.469 19.5846 77.0634 20.7169 76.6836 21.8435C76.439 22.5694 75.9361 22.8551 75.2401 22.8181C74.6068 22.7851 74.1594 22.4045 73.9607 21.6737C73.4465 19.7842 72.6804 18.0097 71.5933 16.3768C71.5281 16.2786 71.4557 16.1837 71.335 16.0155V16.0163Z" fill="white"/>
<path d="M7.70196 41.3212C7.88706 46.656 8.07458 51.9907 8.25645 57.3254C8.29186 58.362 7.78807 59.1369 6.91571 59.4339C5.7126 59.8427 4.42742 59.0798 4.27612 57.8204C4.07896 56.1843 3.9333 54.5418 3.7627 52.9025C3.53656 50.7288 3.30719 48.556 3.08105 46.3823C2.82996 43.9689 2.5805 41.5554 2.33103 39.1419C2.02361 36.1683 1.71539 33.1948 1.40797 30.2212C1.09895 27.2347 0.788306 24.2475 0.479279 21.261C0.322352 19.7416 0.169441 18.2214 0.00929377 16.7029C-0.0558916 16.0888 0.224968 15.5738 0.752889 15.3734C1.29047 15.1698 1.83529 15.3517 2.18375 15.8788C3.5285 17.9148 4.87246 19.9517 6.20353 21.9974C6.8409 22.9776 7.11692 24.0761 7.15635 25.2357C7.32052 30.0345 7.47985 34.8333 7.64322 39.632C7.66253 40.1946 7.69393 40.7571 7.71968 41.3204C7.71405 41.3204 7.7084 41.3204 7.70196 41.3204V41.3212Z" fill="white"/>
</svg>
