<svg width="117" height="83" viewBox="0 0 117 83" fill="none" xmlns="http://www.w3.org/2000/svg">
<path d="M55.0586 63.7796C54.4301 63.6073 53.8745 63.4661 53.3287 63.2946C53.2247 63.2618 53.1321 63.119 53.0821 63.0058C53.0419 62.9139 53.073 62.7908 53.073 62.6816C53.073 55.5981 53.0731 48.5146 53.069 41.4319C53.069 41.2957 53.0034 41.1586 52.9682 41.0224C52.8494 41.0708 52.7305 41.1192 52.6109 41.1676C51.2908 41.7027 50.1108 42.593 48.6423 42.7522C47.8122 42.8425 46.9821 42.9475 46.1495 42.9935C44.89 43.0633 43.6207 43.1872 42.3678 43.1002C41.2115 43.0198 40.0127 43.055 38.9064 42.616C38.1271 42.3075 37.3765 41.9275 36.7611 41.3268C35.2853 39.8834 34.1077 38.2257 33.1899 36.3794C32.8417 35.6777 32.5122 34.9663 32.1443 34.2753C32.0845 34.1637 31.8731 34.0858 31.7264 34.0776C31.5174 34.0661 31.3052 34.1629 31.0938 34.1637C29.223 34.1719 27.3522 34.1695 25.4814 34.1695C25.0331 34.1695 24.9987 34.0956 25.1061 33.6664C25.2323 33.1609 25.3085 32.6431 25.4183 32.1335C25.4715 31.8865 25.5313 31.6371 25.6231 31.4032C25.7469 31.0872 25.6346 30.8755 25.3798 30.7065C25.1782 30.5735 24.9733 30.4455 24.7684 30.3183C24.5259 30.1682 24.4415 30.0492 24.5251 29.6881C24.7275 28.8191 24.7824 27.9164 24.9061 26.953H8.62693V20.5153C8.44829 20.4833 8.28767 20.5013 8.19098 20.4308C7.57393 19.9811 6.8692 20.0927 6.18332 20.091C4.74929 20.0869 3.31525 20.0763 1.88203 20.1001C1.53705 20.1058 1.31744 19.9729 1.1134 19.7349C0.83069 19.4058 0.525844 19.0948 0.262801 18.751C0.142342 18.5934 0.0358268 18.3784 0.0309101 18.1864C0.00632665 17.2985 0.0661401 16.4057 0.0038619 15.521C-0.0362911 14.9507 0.244775 14.5478 0.470124 14.0932C0.737265 13.5549 1.15764 13.4392 1.73371 13.4498C3.58976 13.4859 5.44747 13.4572 7.30435 13.4687C7.65835 13.4712 7.90909 13.3276 8.18033 13.1199C8.83016 12.6235 9.04239 12.0187 9.02109 11.189C8.96045 8.82485 8.96946 6.45739 9.01453 4.0932C9.03255 3.14376 9.70041 2.28212 10.5797 1.86525C11.6589 1.35401 12.6406 1.76758 13.6059 2.09665C15.3095 2.67846 16.982 3.3522 18.6537 4.02264C18.8127 4.08665 18.9307 4.38617 18.9684 4.59461C19.0815 5.21253 19.1347 5.84111 19.2437 6.45986C19.2568 6.53289 19.4683 6.61577 19.5895 6.61741C20.4631 6.63054 21.3374 6.6248 22.2109 6.6248C25.27 6.6248 28.3281 6.6248 31.3871 6.6248C32.0788 6.6248 32.1705 6.54356 32.4041 5.88625C32.686 5.0919 33.1072 4.38451 33.6103 3.69684C34.0471 3.09862 34.6199 3.04693 35.1992 3.03216C36.8365 2.99031 38.4762 2.99605 40.1143 3.03216C40.7682 3.04611 41.4197 3.18643 42.1506 3.27916C42.344 4.75052 42.5358 6.21202 42.7365 7.73918C42.8013 7.73918 42.9471 7.73918 43.093 7.73918C58.3454 7.73918 73.5986 7.74411 88.851 7.72852C89.9417 7.7277 91.0341 7.5841 92.1231 7.48891C92.8328 7.42654 93.5383 7.31411 94.2479 7.25585C95.4329 7.15901 96.6194 7.08762 97.8052 7.00473C98.3976 6.9637 98.9893 6.91037 99.5826 6.88657C99.8104 6.87754 99.9144 6.80697 99.8866 6.57473C99.8817 6.53452 99.8858 6.49267 99.8858 6.45164C99.8882 5.75248 99.6744 5.59411 98.986 5.78449C98.8819 5.81322 98.782 5.87229 98.6779 5.87886C97.8248 5.92891 96.9702 5.95435 96.1187 6.01753C95.2878 6.0799 94.4602 6.17837 93.6309 6.25961C93.5768 6.26536 93.5219 6.26372 93.467 6.26618C92.5869 6.30885 91.7068 6.34169 90.8284 6.39585C89.6557 6.46806 88.4856 6.58212 87.3129 6.63217C85.6986 6.7011 84.0835 6.73394 82.4683 6.77005C81.7587 6.78564 81.0474 6.79877 80.3386 6.76676C79.1094 6.71178 77.8909 6.59279 76.8035 5.91907C76.3823 5.65811 76.0225 5.35203 75.966 4.83997C75.9422 4.62251 76.0381 4.38207 76.1184 4.16625C76.1668 4.03577 76.27 3.90856 76.3815 3.82075C76.6224 3.63037 76.7429 3.35054 77.1837 3.34726C78.0204 3.34069 78.8554 3.14376 79.6921 3.03134C80.382 2.93861 81.0745 2.85819 81.7644 2.76382C82.6273 2.64565 83.4886 2.51681 84.3506 2.39536C84.6833 2.34859 85.0185 2.31493 85.3503 2.26406C86.1313 2.14425 86.9081 1.98834 87.6923 1.90053C88.4175 1.82011 89.1526 1.83325 89.8794 1.76185C90.8931 1.66174 91.9035 1.52058 92.9147 1.39995C93.036 1.38518 93.1597 1.39503 93.2826 1.38765C94.9191 1.28999 96.5465 1.08566 98.1944 1.12259C99.2138 1.14557 100.239 0.984724 101.26 0.891995C102.522 0.777109 103.781 0.635968 105.044 0.526827C106.215 0.425891 107.388 0.347119 108.561 0.266699C109.291 0.216642 110.021 0.193658 110.749 0.137036C111.093 0.109956 111.432 0.0328245 111.634 0C111.983 0.491547 112.244 0.883785 112.53 1.25716C113.162 2.08106 113.771 2.92793 114.459 3.70259C114.947 4.2524 114.817 4.91053 114.956 5.52106C115.007 5.74181 114.959 5.98472 114.968 6.21696C115.01 7.35515 115.054 8.49332 115.105 9.63069C115.135 10.3216 115.181 11.0118 115.216 11.7027C115.299 13.3407 115.376 14.9778 115.461 16.6158C115.5 17.3707 115.554 18.1257 115.596 18.8806C115.638 19.6389 115.69 20.3971 115.709 21.1562C115.76 23.2799 115.779 25.4053 115.849 27.5282C115.879 28.403 115.965 29.2811 116.107 30.1444C116.194 30.6794 116.43 31.1906 116.608 31.7101C116.898 32.5602 116.911 33.444 116.989 34.3278C117.076 35.3011 116.621 36.0043 116.087 36.6838C115.716 37.1565 115.278 37.5931 114.807 37.9656C114.528 38.1864 114.135 38.3234 113.777 38.3693C113.041 38.4654 112.291 38.531 111.551 38.5039C110.784 38.476 110.135 38.7797 109.454 39.0291C107.748 39.6544 106.091 39.5346 104.478 38.6968C104.304 38.6065 104.102 38.5441 103.908 38.5277C103.695 38.5097 103.621 38.4334 103.627 38.2266C103.638 37.8983 103.63 37.5701 103.63 37.2418C103.63 34.7398 103.621 32.2369 103.639 29.7349C103.641 29.3574 103.522 29.2868 103.174 29.2876C99.4326 29.2999 95.691 29.2991 91.9494 29.2893C91.6085 29.2885 91.4143 29.4239 91.2856 29.7144C91.0447 30.2584 90.7128 30.6663 90.0294 30.553C89.9581 30.5415 89.8762 30.5908 89.8 30.6162C89.5115 30.7114 89.2681 30.7016 89.0239 30.4587C88.5724 30.0081 88.0931 29.5831 87.6047 29.1719C87.4588 29.0497 87.2499 28.9676 87.0597 28.9413C86.5533 28.8716 86.042 28.8199 85.5315 28.8018C84.1179 28.751 82.7044 28.6861 81.2908 28.696C80.5558 28.7009 79.8117 28.8051 79.0914 28.9569C78.7734 29.0234 78.4604 29.2762 78.2211 29.5182C77.464 30.2847 76.9141 31.1956 76.4257 32.1573C75.8439 33.3037 75.1548 34.3968 74.5893 35.5506C74.4566 35.8222 74.5951 36.2538 74.6729 36.5968C74.8884 37.5471 75.14 38.4892 75.3727 39.4361C75.5801 40.2789 75.7874 41.1217 75.9824 41.9669C76.1234 42.5791 76.2373 43.1978 76.3741 43.8108C76.5224 44.4747 76.6888 45.1353 76.8379 45.7992C76.9789 46.4253 77.0969 47.0563 77.2444 47.6816C77.4787 48.6803 77.7393 49.6725 77.9696 50.6728C78.158 51.4926 78.3072 52.3214 78.494 53.1412C78.6751 53.9347 78.8923 54.7192 79.075 55.5119C79.2225 56.1512 79.3364 56.7987 79.4774 57.4396C79.629 58.1289 79.7978 58.8149 79.9551 59.5034C80.0887 60.0877 80.2468 60.6695 80.328 61.2611C80.3509 61.4269 80.1592 61.6386 80.0346 61.806C79.6241 62.3591 79.1701 62.8827 78.7947 63.4579C78.6415 63.6926 78.4801 63.6696 78.2859 63.6705C75.7185 63.6721 73.1512 63.6582 70.5847 63.6877C70.2512 63.6918 69.898 63.8764 69.5989 64.0537C69.4719 64.1292 69.4071 64.4016 69.4063 64.5846C69.394 66.9636 69.3981 69.3434 69.3981 71.7223C69.3981 75.3191 69.3932 78.915 69.4055 82.5117C69.4072 82.8736 69.3334 83.0008 68.9376 83C64.4724 82.9852 60.0072 82.9844 55.5421 83C55.1266 83.0016 55.0545 82.8588 55.0553 82.4822C55.066 76.3973 55.0627 70.3117 55.0627 64.2268C55.0627 64.0644 55.0627 63.9027 55.0627 63.7771L55.0586 63.7796ZM44.2369 39.2253C45.8472 39.2253 47.4574 39.2212 49.0668 39.2269C49.7158 39.2294 50.3058 39.0693 50.8646 38.7263C51.7496 38.1839 52.1954 37.4183 52.1774 36.3769C52.1676 35.8304 52.2126 35.2806 52.1635 34.7381C52.1274 34.3442 52.0684 33.9011 51.8619 33.5827C51.2572 32.6489 50.355 32.0892 49.238 32.0777C45.9094 32.0449 42.58 32.0605 39.2506 32.0687C38.2312 32.0711 37.4699 32.589 36.9348 33.4129C36.7299 33.728 36.5947 34.1325 36.5644 34.5067C36.5071 35.2264 36.5316 35.9543 36.5521 36.6781C36.571 37.3551 36.8439 37.9689 37.3118 38.4235C37.9214 39.016 38.6917 39.2573 39.5702 39.2351C41.1247 39.1949 42.6808 39.2236 44.2361 39.2236L44.2369 39.2253ZM110.568 9.82519C110.568 9.82519 110.565 9.82519 110.564 9.82519C110.564 9.15639 110.594 8.48511 110.55 7.81877C110.531 7.53484 110.589 7.0589 110.154 7.05151C109.242 7.0351 108.313 6.91201 107.424 7.278C107.208 7.36745 107.096 7.45936 107.171 7.69324C107.355 8.26685 107.552 8.83635 107.729 9.4116C108.083 10.5654 108.463 11.7126 108.765 12.8803C109.132 14.291 109.428 15.7188 109.76 17.1385C109.776 17.2058 109.844 17.3157 109.878 17.3116C109.955 17.3034 110.051 17.2534 110.093 17.1902C110.149 17.104 110.184 16.9908 110.192 16.8865C110.24 16.2259 110.272 15.5645 110.322 14.9048C110.398 13.9077 110.507 12.9123 110.562 11.9145C110.599 11.2202 110.569 10.5219 110.569 9.82601L110.568 9.82519Z" fill="white"/>
</svg>
