<?xml version="1.0" encoding="utf-8"?>
<!-- Generator: Adobe Illustrator 26.0.3, SVG Export Plug-In . SVG Version: 6.00 Build 0)  -->
<svg version="1.1" id="Layer_1" xmlns="http://www.w3.org/2000/svg" xmlns:xlink="http://www.w3.org/1999/xlink" x="0px" y="0px"
	 viewBox="0 0 128 128" style="enable-background:new 0 0 128 128;" xml:space="preserve">
<style type="text/css">
	.st0{fill:#FFFFFF;fill-opacity:0.3;}
	.st1{fill:#FFFFFF;}
</style>
<path class="st0" d="M64,128c35.3,0,64-28.7,64-64S99.3,0,64,0S0,28.7,0,64S28.7,128,64,128z"/>
<path class="st1" d="M64,10.6c29.4,0,53.4,23.9,53.4,53.4S93.4,117.4,64,117.4S10.6,93.4,10.6,64S34.6,10.6,64,10.6z M64,0
	C28.6,0,0,28.6,0,64s28.6,64,64,64s64-28.6,64-64S99.4,0,64,0z"/>
<path class="st1" d="M91.4,79.9l-11.2-3c2.9-3.6,4.6-8,4.6-13c0-0.1,0-0.2,0-0.2l6.6-1.8c2.8-0.7,4.4-3.6,3.7-6.4
	c-0.5-1.8-2-3.1-3.7-3.6V52l-13.8-3.8c-3.7-3.1-8.4-5.1-13.6-5.1c-1.4,0-2.7,0.2-4,0.4L58.1,43l33.4-9L88.7,24L36.6,38
	c-2.3,0.6-3.8,2.6-3.8,5c0,2.4,1.6,4.4,3.8,5l11.2,3c-2.9,3.6-4.6,8.1-4.6,13c0,0.1,0,0.2,0,0.2l-6.6,1.8c-2.8,0.7-4.4,3.6-3.7,6.4
	c0.5,1.8,2,3.2,3.7,3.7v0.1l13.9,3.8C54.2,83,58.8,85,64,85c1.4,0,2.7-0.2,4-0.4l1.9,0.5l-33.4,9l2.7,10l52.2-14
	c2.3-0.6,3.8-2.6,3.8-5S93.8,80.6,91.4,79.9z M64,45.3c6.9,0,12.8,3.8,16.1,9.3l-34.8,9.3C45.4,53.6,53.7,45.3,64,45.3z M47.9,73.5
	l34.8-9.4C82.6,74.4,74.3,82.7,64,82.7C57.1,82.7,51.2,79,47.9,73.5z"/>
</svg>
