<svg width="512" height="512" viewBox="0 0 512 512" fill="none" xmlns="http://www.w3.org/2000/svg">
<g clip-path="url(#clip0_3460_401)">
<path d="M118.857 382.446L155.429 446.446L173.715 446.446L200.686 306.286C171.155 302.994 143.635 297.234 118.857 289.371L118.857 382.446Z" fill="white"/>
<path d="M338.29 446.446L356.576 446.446L393.147 382.446L393.147 289.371C368.461 297.234 340.85 302.994 311.319 306.286L338.29 446.446Z" fill="white"/>
<path d="M256 204.16C268.623 204.16 278.857 193.927 278.857 181.303C278.857 168.679 268.623 158.446 256 158.446C243.376 158.446 233.143 168.679 233.143 181.303C233.143 193.927 243.376 204.16 256 204.16Z" fill="white"/>
<path d="M466.286 163.017L426.514 180.114C425.143 133.577 349.44 96 256 96C162.56 96 86.8571 133.577 85.4857 180.114L45.7143 163.017L-3.3564e-06 245.303L-6.43943e-06 382.446L27.4286 446.446L64 446.446L104.411 220.343L109.714 190.446L124.891 235.886C156.16 254.629 203.337 266.606 256 266.606C308.663 266.606 355.84 254.629 387.109 235.886L402.286 190.446L407.589 220.343L448 446.446L484.571 446.446L512 382.446L512 245.303L466.286 163.017ZM256 236.16C225.737 236.16 201.143 211.566 201.143 181.303C201.143 151.04 225.737 126.446 256 126.446C286.263 126.446 310.857 151.04 310.857 181.303C310.857 211.566 286.263 236.16 256 236.16Z" fill="white"/>
</g>
<defs>
<clipPath id="clip0_3460_401">
<rect width="512" height="512" fill="white"/>
</clipPath>
</defs>
</svg>
