<svg width="512" height="512" viewBox="0 0 512 512" fill="none" xmlns="http://www.w3.org/2000/svg">
<g clip-path="url(#clip0_3460_407)">
<path d="M457.143 96L457.143 132.571L54.8571 132.571L54.8571 96L0 96L-8.22139e-07 132.571L-4.11069e-06 278.857L54.8571 278.857L140.434 278.857C143.543 292.023 148.846 304.366 155.977 315.429L155.429 315.429L155.429 425.143L356.571 425.143L356.571 315.429L356.023 315.429C363.154 304.366 368.366 292.023 371.566 278.857L457.143 278.857L512 278.857L512 132.571L512 96L457.143 96ZM256 324.571C215.589 324.571 182.857 291.84 182.857 251.429C182.857 211.017 215.589 178.286 256 178.286C296.411 178.286 329.143 211.017 329.143 251.429C329.143 291.84 296.411 324.571 256 324.571Z" fill="white"/>
<path d="M256 288C276.198 288 292.572 271.626 292.572 251.429C292.572 231.231 276.198 214.857 256 214.857C235.802 214.857 219.429 231.231 219.429 251.429C219.429 271.626 235.802 288 256 288Z" fill="white"/>
</g>
<defs>
<clipPath id="clip0_3460_407">
<rect width="512" height="512" fill="white"/>
</clipPath>
</defs>
</svg>
