<svg width="24" height="41" viewBox="0 0 24 41" fill="none" xmlns="http://www.w3.org/2000/svg">
<g filter="url(#filter0_d_8927_67)">
<path d="M6.82 23.3017C6.82 22.165 6.975 21.1489 7.285 20.2533C7.595 19.3578 8.09445 18.5139 8.78333 17.7217C9.50667 16.9294 10.4539 16.12 11.625 15.2933C12.6583 14.5356 13.485 13.8639 14.105 13.2783C14.7594 12.6928 15.2244 12.1072 15.5 11.5217C15.81 10.9361 15.965 10.2817 15.965 9.55833C15.965 8.45611 15.5517 7.62944 14.725 7.07833C13.9328 6.49278 12.8133 6.2 11.3667 6.2C9.92 6.2 8.49056 6.42389 7.07833 6.87167C5.66611 7.31944 4.21944 7.92222 2.73833 8.68L0 3.15166C1.68778 2.22166 3.51333 1.46389 5.47667 0.878334C7.44 0.292778 9.59278 0 11.935 0C15.5172 0 18.29 0.861109 20.2533 2.58333C22.2511 4.30555 23.25 6.49278 23.25 9.145C23.25 10.5572 23.0261 11.78 22.5783 12.8133C22.1306 13.8467 21.4589 14.8111 20.5633 15.7067C19.6678 16.5678 18.5483 17.4978 17.205 18.4967C16.2061 19.22 15.4311 19.84 14.88 20.3567C14.3289 20.8733 13.95 21.3728 13.7433 21.855C13.5711 22.3372 13.485 22.94 13.485 23.6633V25.1617H6.82V23.3017ZM5.99333 33.79C5.99333 32.2056 6.42389 31.1033 7.285 30.4833C8.14611 29.8289 9.19667 29.5017 10.4367 29.5017C11.6422 29.5017 12.6756 29.8289 13.5367 30.4833C14.3978 31.1033 14.8283 32.2056 14.8283 33.79C14.8283 35.3056 14.3978 36.4078 13.5367 37.0967C12.6756 37.7511 11.6422 38.0783 10.4367 38.0783C9.19667 38.0783 8.14611 37.7511 7.285 37.0967C6.42389 36.4078 5.99333 35.3056 5.99333 33.79Z" fill="white"/>
</g>
<defs>
<filter id="filter0_d_8927_67" x="0" y="0" width="23.25" height="40.0783" filterUnits="userSpaceOnUse" color-interpolation-filters="sRGB">
<feFlood flood-opacity="0" result="BackgroundImageFix"/>
<feColorMatrix in="SourceAlpha" type="matrix" values="0 0 0 0 0 0 0 0 0 0 0 0 0 0 0 0 0 0 127 0" result="hardAlpha"/>
<feOffset dy="2"/>
<feComposite in2="hardAlpha" operator="out"/>
<feColorMatrix type="matrix" values="0 0 0 0 0 0 0 0 0 0 0 0 0 0 0 0 0 0 0.56 0"/>
<feBlend mode="normal" in2="BackgroundImageFix" result="effect1_dropShadow_8927_67"/>
<feBlend mode="normal" in="SourceGraphic" in2="effect1_dropShadow_8927_67" result="shape"/>
</filter>
</defs>
</svg>
