<svg width="55" height="45" viewBox="0 0 55 45" fill="none" xmlns="http://www.w3.org/2000/svg">
<path d="M27.9646 14.1748C27.0706 13.0825 25.4603 12.9217 24.368 13.8157L9.84347 25.7032L6.91395 22.1239C5.4718 20.3618 2.61915 21.223 2.39293 23.4887L0.697893 40.4661C0.55766 41.8707 1.5826 43.123 2.98715 43.2632L19.9646 44.9582C22.2303 45.1844 23.6385 42.5584 22.1963 40.7963L18.9523 36.8326L33.4768 24.9451C34.5691 24.0511 34.7299 22.4409 33.8359 21.3485L27.9646 14.1748Z" fill="white" fill-opacity="0.5"/>
<g filter="url(#filter0_d_6074_785)">
<path fill-rule="evenodd" clip-rule="evenodd" d="M29.1958 4.23009C29.2203 6.56613 27.3329 8.47566 24.9893 8.48719C22.6488 8.49872 20.7643 6.61926 20.7518 4.26116C20.7397 1.93465 22.6157 0.0115856 24.9081 5.82316e-05C27.2928 -0.0119703 29.1712 1.84092 29.1958 4.23009ZM18.7066 18.9906H18.7066C19.7652 18.9899 20.824 18.9891 21.8825 18.9951C22.1015 18.9961 22.2774 18.945 22.4568 18.8152C23.4 18.1333 24.3475 17.4573 25.295 16.7813L25.2957 16.7808L25.2966 16.7801C25.5917 16.5696 25.8867 16.3591 26.1817 16.1484C26.5345 15.8963 26.5611 15.8993 26.8182 16.2401L26.8367 16.2646C28.4599 18.415 30.0831 20.5655 31.7058 22.7164C31.9148 22.9931 31.9007 23.0658 31.5995 23.2372C30.7814 23.704 29.9632 24.1705 29.1451 24.637L29.1437 24.6378L29.1395 24.6402C28.1922 25.1803 27.2449 25.7203 26.2979 26.2608C24.8004 27.1154 24.6681 28.9347 26.0193 29.9972C28.7488 32.1443 31.4747 34.2949 34.2012 36.446C35.6025 37.5516 37.6403 36.8139 37.9591 35.0627C38.1225 34.1651 37.8368 33.3898 37.1136 32.8134C36.1291 32.0283 35.1393 31.2496 34.1494 30.4708L34.1487 30.4703C33.7872 30.1859 33.4257 29.9015 33.0645 29.6168C32.7427 29.3632 32.7412 29.28 33.0705 29.045C33.8589 28.4819 34.6476 27.9193 35.4363 27.3567L35.4402 27.3539L35.4417 27.3529C36.8929 26.3177 38.3441 25.2825 39.7935 24.2446C41.5632 22.9771 41.9305 20.5849 40.6189 18.8418C39.1227 16.8529 37.6225 14.8672 36.1222 12.8814L36.1211 12.8799L36.1154 12.8723C35.57 12.1504 35.0246 11.4285 34.4794 10.7065C34.2643 10.4213 34.2689 10.3777 34.556 10.1732C35.582 9.44146 36.6079 8.70972 37.6338 7.97899C37.908 7.78352 37.9631 7.79255 38.1546 8.06118L39.2216 9.55678L39.2222 9.5576C40.4951 11.3415 41.7681 13.1256 43.0371 14.9124C43.4566 15.5028 44.0059 15.8562 44.7262 15.9614C45.9596 16.1419 47.2115 15.1425 47.3088 13.8985C47.3579 13.2715 47.1975 12.7172 46.8316 12.2055C45.2593 10.0066 43.6904 7.80521 42.1215 5.60379L42.1189 5.60009C41.5428 4.79173 40.9667 3.98335 40.3904 3.17509C39.5449 1.98928 38.3094 1.77126 37.1301 2.61226C35.3425 3.88711 33.5553 5.16234 31.768 6.43756L31.7667 6.43848C28.1476 9.02072 24.5286 11.6029 20.9072 14.1817C20.7834 14.2699 20.6059 14.3245 20.4536 14.325C18.985 14.3306 17.5165 14.3306 16.048 14.3307H16.0473C15.1356 14.3307 14.2239 14.3307 13.3121 14.3321C12.1729 14.3336 11.1966 15.1605 11.0222 16.2586C10.8388 17.4114 11.4823 18.5024 12.5784 18.8598C12.8275 18.941 13.1006 18.9831 13.3633 18.9851C14.4342 18.9941 15.5055 18.993 16.5768 18.9919C16.9338 18.9915 17.2909 18.9911 17.6479 18.9911C18.0008 18.9911 18.3537 18.9909 18.7066 18.9906ZM43.7759 24.0902C42.8199 24.773 41.872 25.4496 40.9208 26.1287L39.9458 26.8247L40.2607 27.453C40.4839 27.8986 40.7047 28.3392 40.9256 28.7798C41.0849 29.0974 41.2436 29.4153 41.4022 29.7331L41.4022 29.7332C41.8318 30.5938 42.2615 31.4546 42.7029 32.3092C42.8577 32.6089 43.0537 32.8991 43.2817 33.1472C45.8213 35.9057 48.3678 38.6567 50.9179 41.4053C51.5549 42.0914 52.3427 42.3545 53.2559 42.1079C54.1756 41.8598 54.7504 41.2449 54.9399 40.3137C55.1003 39.5278 54.8813 38.8282 54.3319 38.2368C53.8551 37.7233 53.3793 37.2088 52.9036 36.6944L52.3748 36.1227L51.9684 35.6837L51.9653 35.6804C50.281 33.8607 48.5969 32.0413 46.9154 30.2192C46.8266 30.123 46.755 30.0062 46.6958 29.8889C45.9178 28.345 45.1418 26.7999 44.3659 25.255L43.9002 24.3278C43.8773 24.2819 43.8532 24.2365 43.8266 24.1863L43.8264 24.186C43.8106 24.1561 43.7938 24.1245 43.7759 24.0902Z" fill="white"/>
</g>
<defs>
<filter id="filter0_d_6074_785" x="10.9912" y="0" width="44" height="44.1987" filterUnits="userSpaceOnUse" color-interpolation-filters="sRGB">
<feFlood flood-opacity="0" result="BackgroundImageFix"/>
<feColorMatrix in="SourceAlpha" type="matrix" values="0 0 0 0 0 0 0 0 0 0 0 0 0 0 0 0 0 0 127 0" result="hardAlpha"/>
<feOffset dy="2"/>
<feComposite in2="hardAlpha" operator="out"/>
<feColorMatrix type="matrix" values="0 0 0 0 0 0 0 0 0 0 0 0 0 0 0 0 0 0 0.56 0"/>
<feBlend mode="normal" in2="BackgroundImageFix" result="effect1_dropShadow_6074_785"/>
<feBlend mode="normal" in="SourceGraphic" in2="effect1_dropShadow_6074_785" result="shape"/>
</filter>
</defs>
</svg>
