<svg width="42" height="45" viewBox="0 0 42 45" fill="none" xmlns="http://www.w3.org/2000/svg">
<g filter="url(#filter0_d_8927_70)">
<path fill-rule="evenodd" clip-rule="evenodd" d="M17 0C15.8954 0 15 0.89543 15 2V15L2 15C0.895431 15 0 15.8954 0 17V25C0 26.1046 0.89543 27 2 27H15V40C15 41.1046 15.8954 42 17 42H25C26.1046 42 27 41.1046 27 40V27H40C41.1046 27 42 26.1046 42 25V17C42 15.8954 41.1046 15 40 15L27 15V2C27 0.895431 26.1046 0 25 0H17Z" fill="white"/>
</g>
<defs>
<filter id="filter0_d_8927_70" x="0" y="0" width="42" height="44.4737" filterUnits="userSpaceOnUse" color-interpolation-filters="sRGB">
<feFlood flood-opacity="0" result="BackgroundImageFix"/>
<feColorMatrix in="SourceAlpha" type="matrix" values="0 0 0 0 0 0 0 0 0 0 0 0 0 0 0 0 0 0 127 0" result="hardAlpha"/>
<feOffset dy="2.47373"/>
<feComposite in2="hardAlpha" operator="out"/>
<feColorMatrix type="matrix" values="0 0 0 0 0 0 0 0 0 0 0 0 0 0 0 0 0 0 0.56 0"/>
<feBlend mode="normal" in2="BackgroundImageFix" result="effect1_dropShadow_8927_70"/>
<feBlend mode="normal" in="SourceGraphic" in2="effect1_dropShadow_8927_70" result="shape"/>
</filter>
</defs>
</svg>
