<svg width="49" height="53" viewBox="0 0 49 53" fill="none" xmlns="http://www.w3.org/2000/svg">
<g filter="url(#filter0_d_6175_721)">
<path d="M24.4189 50.1496C37.7327 50.0664 48.4557 38.8064 48.3695 24.9995C48.2832 11.1927 37.4204 0.0674002 24.1067 0.150546C10.7929 0.233691 0.0698992 11.4938 0.156124 25.3006C0.242349 39.1075 11.1052 50.2327 24.4189 50.1496Z" fill="white" fill-opacity="0.3"/>
<path d="M24.1326 4.30671C35.2217 4.23746 44.2899 13.5248 44.3617 25.0245C44.4335 36.5243 35.482 45.9241 24.393 45.9934C13.3039 46.0627 4.23568 36.7754 4.16386 25.2756C4.09204 13.7758 13.0436 4.37597 24.1326 4.30671ZM24.1067 0.150546C10.7877 0.233724 0.0698656 11.4884 0.156124 25.3006C0.242383 39.1128 11.1 50.2327 24.4189 50.1496C37.7379 50.0664 48.4557 38.8117 48.3695 24.9995C48.2832 11.1873 37.4256 0.0673678 24.1067 0.150546Z" fill="white"/>
<path d="M34.6397 31.305L30.4138 30.1752C31.4898 28.7622 32.142 27.0393 32.1299 25.1019C32.1297 25.0706 32.1295 25.0394 32.1295 25.0394L34.5962 24.3364C35.6491 24.0486 36.2447 22.9199 35.9667 21.8278C35.7814 21.1102 35.2057 20.6138 34.5718 20.4303L34.5716 20.399L29.3493 18.9628C27.9556 17.7528 26.1728 16.9826 24.2142 16.9949C23.7019 16.9981 23.19 17.0638 22.7085 17.1605L21.9841 16.9776L34.5278 13.3992L33.4787 9.46813L13.8659 15.0595C12.9934 15.2837 12.426 16.0997 12.4318 17.0372C12.4377 17.9747 13.0452 18.7522 13.8905 18.9969L18.1164 20.1268C17.0404 21.5398 16.3884 23.2939 16.4003 25.2001C16.4005 25.2313 16.4007 25.2626 16.4007 25.2626L13.9341 25.9655C12.8811 26.2533 12.2855 27.3821 12.5635 28.4741C12.7488 29.1917 13.3247 29.7194 13.9586 29.9029L13.9588 29.9342L19.2112 31.3702C20.605 32.5802 22.3576 33.3505 24.3162 33.3383C24.8285 33.3351 25.3404 33.2694 25.8219 33.1727L26.5463 33.3556L14.0025 36.934L15.0515 40.8338L34.6643 35.2425C35.5366 34.987 36.1042 34.2022 36.0984 33.2647C36.0925 32.3272 35.5151 31.5496 34.6397 31.305ZM24.2194 17.8386C26.8109 17.8224 29.0499 19.2772 30.2989 21.4257L17.2135 25.1325C17.2187 21.1324 20.3322 17.8629 24.2194 17.8386ZM18.2315 28.9075L31.3167 25.1694C31.3115 29.1695 28.198 32.4391 24.3108 32.4633C21.7193 32.4795 19.4805 31.056 18.2315 28.9075Z" fill="white"/>
</g>
<defs>
<filter id="filter0_d_6175_721" x="0.155762" y="0.150085" width="48.2144" height="52" filterUnits="userSpaceOnUse" color-interpolation-filters="sRGB">
<feFlood flood-opacity="0" result="BackgroundImageFix"/>
<feColorMatrix in="SourceAlpha" type="matrix" values="0 0 0 0 0 0 0 0 0 0 0 0 0 0 0 0 0 0 127 0" result="hardAlpha"/>
<feOffset dy="2"/>
<feComposite in2="hardAlpha" operator="out"/>
<feColorMatrix type="matrix" values="0 0 0 0 0 0 0 0 0 0 0 0 0 0 0 0 0 0 0.56 0"/>
<feBlend mode="normal" in2="BackgroundImageFix" result="effect1_dropShadow_6175_721"/>
<feBlend mode="normal" in="SourceGraphic" in2="effect1_dropShadow_6175_721" result="shape"/>
</filter>
</defs>
</svg>
