<svg width="56" height="43" viewBox="0 0 56 43" fill="none" xmlns="http://www.w3.org/2000/svg">
<g filter="url(#filter0_d_6074_767)">
<path d="M8.41718 9.225C5.84049 9.225 3.77914 7.175 3.77914 4.6125C3.77914 2.05 5.84049 0 8.41718 0C10.9939 0 13.0552 2.05 13.0552 4.6125C13.0552 7.175 10.9939 9.225 8.41718 9.225Z" fill="white"/>
<path d="M3.67776 40.666C3.66045 40.6382 3.64017 40.6055 3.60736 40.5729C3.70004 40.714 3.79725 40.8564 3.89897 41H12.454V30.2375H14.3436C15.3742 30.2375 16.2331 29.1271 16.2331 27.7604V14.9479C16.2331 13.5812 15.1166 12.4708 13.7423 12.4708H2.4908C1.11656 12.4708 0 13.5812 0 14.9479V27.7604C0 29.1271 0.858896 30.2375 1.88957 30.2375H3.77914V40.7438C3.72606 40.7438 3.70578 40.7111 3.67776 40.666Z" fill="white"/>
<path d="M23.5337 41V35.6188H21.6442C20.6135 35.6188 19.7546 34.5083 19.7546 33.1417V20.3292C19.7546 18.9625 20.8712 17.8521 22.2454 17.8521H33.4969C34.8712 17.8521 35.9877 18.9625 35.9877 20.3292V33.1417C35.9877 34.5083 35.1288 35.6188 34.0982 35.6188H32.2086V41H23.5337Z" fill="white"/>
<path d="M52.2209 41H43.546V30.2375H41.6564C40.6258 30.2375 39.7669 29.1271 39.7669 27.7604V14.9479C39.7669 13.5812 40.8834 12.4708 42.2577 12.4708H53.5092C54.8834 12.4708 56 13.5812 56 14.9479V27.7604C56 29.1271 55.1411 30.2375 54.1104 30.2375H52.2209V41Z" fill="white"/>
<path d="M23.5337 9.99375C23.5337 12.5563 25.5951 14.6062 28.1718 14.6062C30.7485 14.6062 32.8098 12.5563 32.8098 9.99375C32.8098 7.43125 30.7485 5.38125 28.1718 5.38125C25.5951 5.38125 23.5337 7.43125 23.5337 9.99375Z" fill="white"/>
<path d="M47.9264 9.225C45.3497 9.225 43.2883 7.175 43.2883 4.6125C43.2883 2.05 45.3497 0 47.9264 0C50.5031 0 52.5644 2.05 52.5644 4.6125C52.5644 7.175 50.5031 9.225 47.9264 9.225Z" fill="white"/>
</g>
<defs>
<filter id="filter0_d_6074_767" x="0" y="0" width="56" height="43" filterUnits="userSpaceOnUse" color-interpolation-filters="sRGB">
<feFlood flood-opacity="0" result="BackgroundImageFix"/>
<feColorMatrix in="SourceAlpha" type="matrix" values="0 0 0 0 0 0 0 0 0 0 0 0 0 0 0 0 0 0 127 0" result="hardAlpha"/>
<feOffset dy="2"/>
<feComposite in2="hardAlpha" operator="out"/>
<feColorMatrix type="matrix" values="0 0 0 0 0 0 0 0 0 0 0 0 0 0 0 0 0 0 0.56 0"/>
<feBlend mode="normal" in2="BackgroundImageFix" result="effect1_dropShadow_6074_767"/>
<feBlend mode="normal" in="SourceGraphic" in2="effect1_dropShadow_6074_767" result="shape"/>
</filter>
</defs>
</svg>
