<svg width="60" height="45" viewBox="0 0 60 45" fill="none" xmlns="http://www.w3.org/2000/svg">
<path d="M34.7947 38.0191C35.7929 39.0172 37.4111 39.0172 38.4092 38.0191L51.6809 24.7474L54.9515 28.0181C56.5616 29.6281 59.3146 28.4878 59.3146 26.2108L59.3146 9.14901C59.3146 7.73747 58.1703 6.59318 56.7588 6.59319L39.6969 6.59319C37.4199 6.59319 36.2796 9.34617 37.8897 10.9563L41.5115 14.578L28.2398 27.8497C27.2417 28.8478 27.2417 30.4661 28.2398 31.4642L34.7947 38.0191Z" fill="white" fill-opacity="0.5"/>
<g filter="url(#filter0_d_6074_784)">
<path fill-rule="evenodd" clip-rule="evenodd" d="M25.7954 4.23006C25.7709 6.5661 27.6583 8.47563 30.0019 8.48716C32.3425 8.49868 34.2269 6.61923 34.2395 4.26113C34.2515 1.93462 32.3755 0.0115551 30.0831 2.7714e-05C27.6984 -0.0120008 25.82 1.84089 25.7954 4.23006ZM36.2847 18.9906H36.2846C35.226 18.9898 34.1672 18.9891 33.1087 18.9951C32.8897 18.9961 32.7138 18.945 32.5344 18.8152C31.5912 18.1333 30.6437 17.4572 29.6962 16.7812L29.6955 16.7807L29.6946 16.7801C29.3995 16.5696 29.1045 16.359 28.8095 16.1483C28.4567 15.8962 28.4301 15.8992 28.173 16.2401L28.1545 16.2645C26.5313 18.415 24.9081 20.5655 23.2854 22.7164C23.0764 22.9931 23.0905 23.0657 23.3917 23.2371C24.2098 23.704 25.028 24.1705 25.8461 24.6369L25.8475 24.6377L25.8517 24.6401C26.799 25.1802 27.7463 25.7203 28.6933 26.2608C30.1908 27.1153 30.3231 28.9347 28.9719 29.9972C26.2425 32.1443 23.5165 34.2949 20.79 36.446C19.3887 37.5516 17.3509 36.8139 17.0321 35.0627C16.8687 34.1651 17.1544 33.3897 17.8776 32.8134C18.8621 32.0282 19.8519 31.2495 20.8418 30.4708L20.8425 30.4702C21.204 30.1859 21.5655 29.9015 21.9267 29.6168C22.2485 29.3632 22.25 29.28 21.9207 29.0449C21.1323 28.4819 20.3436 27.9193 19.5549 27.3567L19.551 27.3539L19.5496 27.3529C18.0983 26.3177 16.6471 25.2825 15.1978 24.2445C13.4281 22.977 13.0607 20.5849 14.3723 18.8417C15.8685 16.8528 17.3687 14.8672 18.869 12.8814L18.8701 12.8799L18.8758 12.8723C19.4212 12.1504 19.9666 11.4285 20.5119 10.7064C20.7269 10.4212 20.7224 10.3776 20.4352 10.1732C19.4092 9.44143 18.3833 8.70969 17.3574 7.97896C17.0832 7.78349 17.0281 7.79251 16.8366 8.06115L15.7696 9.55675L15.769 9.55757C14.4961 11.3415 13.2231 13.1256 11.9541 14.9124C11.5346 15.5028 10.9853 15.8561 10.2651 15.9614C9.03163 16.1418 7.77966 15.1424 7.68243 13.8985C7.63331 13.2715 7.79369 12.7172 8.15956 12.2055C9.73191 10.0065 11.3008 7.80518 12.8697 5.60376L12.8723 5.60006C13.4484 4.79169 14.0245 3.98332 14.6008 3.17506C15.4463 1.98925 16.6818 1.77123 17.8611 2.61223C19.6487 3.88708 21.436 5.16231 23.2232 6.43753L23.2245 6.43845C26.8436 9.02069 30.4626 11.6029 34.0841 14.1817C34.2078 14.2699 34.3853 14.3245 34.5376 14.325C36.0063 14.3306 37.4747 14.3306 38.9432 14.3306H38.9439C39.8556 14.3307 40.7673 14.3307 41.6791 14.332C42.8183 14.3335 43.7946 15.1605 43.969 16.2586C44.1524 17.4113 43.5089 18.5024 42.4128 18.8598C42.1637 18.941 41.8906 18.9831 41.6279 18.9851C40.557 18.9941 39.4857 18.993 38.4144 18.9918C38.0574 18.9915 37.7003 18.9911 37.3433 18.9911C36.9904 18.9911 36.6376 18.9908 36.2847 18.9906ZM11.2153 24.0902C12.1713 24.773 13.1192 25.4496 14.0704 26.1287L15.0454 26.8246L14.7305 27.453C14.5073 27.8985 14.2866 28.3392 14.0656 28.7798C13.9063 29.0973 13.7476 29.4152 13.589 29.7331L13.589 29.7331C13.1594 30.5938 12.7297 31.4546 12.2883 32.3092C12.1335 32.6089 11.9375 32.8991 11.7095 33.1471C9.16995 35.9057 6.62341 38.6567 4.07336 41.4052C3.43635 42.0914 2.64848 42.3545 1.73532 42.1079C0.815634 41.8598 0.24077 41.2449 0.0513207 40.3136C-0.10906 39.5278 0.10996 38.8281 0.659263 38.2367C1.13613 37.7233 1.61192 37.2088 2.08762 36.6944L2.61641 36.1227L3.02282 35.6836L3.02587 35.6803C4.71018 33.8607 6.39431 32.0412 8.07585 30.2192C8.16456 30.123 8.23623 30.0062 8.29537 29.8889C9.07343 28.3449 9.84939 26.7999 10.6253 25.255L11.091 24.3277C11.1139 24.2819 11.138 24.2365 11.1646 24.1862L11.1648 24.1859C11.1806 24.1561 11.1974 24.1245 11.2153 24.0902Z" fill="white"/>
</g>
<defs>
<filter id="filter0_d_6074_784" x="0" y="-3.05176e-05" width="44" height="44.1987" filterUnits="userSpaceOnUse" color-interpolation-filters="sRGB">
<feFlood flood-opacity="0" result="BackgroundImageFix"/>
<feColorMatrix in="SourceAlpha" type="matrix" values="0 0 0 0 0 0 0 0 0 0 0 0 0 0 0 0 0 0 127 0" result="hardAlpha"/>
<feOffset dy="2"/>
<feComposite in2="hardAlpha" operator="out"/>
<feColorMatrix type="matrix" values="0 0 0 0 0 0 0 0 0 0 0 0 0 0 0 0 0 0 0.56 0"/>
<feBlend mode="normal" in2="BackgroundImageFix" result="effect1_dropShadow_6074_784"/>
<feBlend mode="normal" in="SourceGraphic" in2="effect1_dropShadow_6074_784" result="shape"/>
</filter>
</defs>
</svg>
