<svg width="60" height="60" viewBox="0 0 60 60" fill="none" xmlns="http://www.w3.org/2000/svg">
<g clip-path="url(#clip0_2020_39)">
<path fill-rule="evenodd" clip-rule="evenodd" d="M17.2539 0H42.7484H42.7507C43.6632 0 44.5365 0.360906 45.1817 1.00456L59 14.7902C59.6452 15.4339 60.0069 16.3051 60.0069 17.2154V42.7846C60.0069 43.6949 59.6452 44.5661 59 45.2098L45.1817 58.9954C44.5365 59.6391 43.6632 60 42.7507 60H17.2562C16.3438 60 15.4705 59.6391 14.8253 58.9954L1.00694 45.2098C0.361761 44.5661 0 43.6949 0 42.7846V17.2154C0 16.3051 0.361761 15.4339 1.00694 14.7902L14.823 1.00456C15.4682 0.360906 16.3415 0 17.2539 0ZM39.9455 5C40.858 5 41.7313 5.36051 42.3765 6.00344L53.9931 17.4225C54.6382 18.0655 55 18.9357 55 19.845V40.1573C55 41.0666 54.6382 41.9369 53.9931 42.5798L42.3765 53.9966C41.7313 54.6395 40.858 55 39.9455 55H19.3391C18.4266 55 17.5533 54.6395 16.9082 53.9966L6.00694 42.5798C5.36176 41.9369 5 41.0666 5 40.1573V19.845C5 18.9357 5.36176 18.0655 6.00694 17.4225L16.9082 6.00344C17.5533 5.36051 18.4266 5 19.3391 5H39.9455ZM52.5813 18.8392L52.5851 18.843C52.8521 19.111 53 19.4702 53 19.845V40.1573C53 40.532 52.8521 40.8911 52.5853 41.1591L52.5813 41.1631L40.9746 52.5701L40.9647 52.5799C40.6951 52.8485 40.3298 53 39.9455 53H19.3391C18.9614 53 18.602 52.8537 18.3338 52.5935L7.43628 41.1807L7.41869 41.1631C7.14933 40.8947 7 40.5339 7 40.1573V19.845C7 19.4684 7.14933 19.1076 7.41869 18.8392L7.43636 18.8216L18.3339 7.40638C18.6021 7.1463 18.9615 7 19.3391 7H39.9455C40.3298 7 40.6951 7.15149 40.9647 7.42015L52.5813 18.8392Z" fill="#10130D"/>
</g>
<defs>
<clipPath id="clip0_2020_39">
<rect width="60" height="60" fill="white"/>
</clipPath>
</defs>
</svg>
