<svg width="44" height="44" viewBox="0 0 44 44" fill="none" xmlns="http://www.w3.org/2000/svg">
<rect x="1" y="4" width="28.2426" height="3.64421" fill="#9DC3DF" fill-opacity="0.59"/>
<rect x="1" y="11.2886" width="31.8868" height="3.64421" fill="#9DC3DF" fill-opacity="0.59"/>
<rect x="1" y="17.9033" width="21.6276" height="3.86207" fill="#9DC3DF" fill-opacity="0.59"/>
<path d="M43.0002 32.4414L39.9391 31.5548C39.4835 33.0293 38.5518 34.3218 37.282 35.2405C36.0123 36.1592 34.4721 36.6554 32.8898 36.6554C31.3074 36.6554 29.7672 36.1592 28.4975 35.2405C27.2277 34.3218 26.296 33.0293 25.8404 31.5548L22.7793 32.4414C23.3596 34.2995 24.4656 35.9611 25.9709 37.2361C27.4763 38.511 29.32 39.3479 31.2913 39.651V42.8863H34.4882V39.651C36.4595 39.3479 38.3033 38.511 39.8086 37.2361C41.3139 35.9611 42.42 34.2995 43.0002 32.4414Z" fill="#9DC3DF"/>
<path d="M32.8898 33.5536C34.1616 33.5536 35.3813 33.0619 36.2807 32.1868C37.18 31.3117 37.6852 30.1248 37.6852 28.8872V22.6654C37.6852 21.4278 37.18 20.2409 36.2807 19.3658C35.3813 18.4907 34.1616 17.999 32.8898 17.999C31.6179 17.999 30.3982 18.4907 29.4988 19.3658C28.5995 20.2409 28.0943 21.4278 28.0943 22.6654V28.8872C28.0943 30.1248 28.5995 31.3117 29.4988 32.1868C30.3982 33.0619 31.6179 33.5536 32.8898 33.5536Z" fill="#9DC3DF"/>
</svg>
