<svg width="44" height="44" viewBox="0 0 44 44" fill="none" xmlns="http://www.w3.org/2000/svg">
<rect x="1" y="3" width="28.2426" height="3.64421" fill="#A7A7A7" fill-opacity="0.59"/>
<rect x="1" y="10.2886" width="31.8868" height="3.64421" fill="#A7A7A7" fill-opacity="0.59"/>
<rect x="1" y="16.9033" width="21.6276" height="3.86207" fill="#A7A7A7" fill-opacity="0.59"/>
<path d="M43.0002 31.4414L39.9391 30.5548C39.4835 32.0293 38.5518 33.3218 37.282 34.2405C36.0123 35.1592 34.4721 35.6554 32.8898 35.6554C31.3074 35.6554 29.7672 35.1592 28.4975 34.2405C27.2277 33.3218 26.296 32.0293 25.8404 30.5548L22.7793 31.4414C23.3596 33.2995 24.4656 34.9611 25.9709 36.2361C27.4763 37.511 29.32 38.3479 31.2913 38.651V41.8863H34.4882V38.651C36.4595 38.3479 38.3033 37.511 39.8086 36.2361C41.3139 34.9611 42.42 33.2995 43.0002 31.4414Z" fill="#868686"/>
<path d="M32.8898 32.5536C34.1616 32.5536 35.3813 32.0619 36.2807 31.1868C37.18 30.3117 37.6852 29.1248 37.6852 27.8872V21.6654C37.6852 20.4278 37.18 19.2409 36.2807 18.3658C35.3813 17.4907 34.1616 16.999 32.8898 16.999C31.6179 16.999 30.3982 17.4907 29.4988 18.3658C28.5995 19.2409 28.0943 20.4278 28.0943 21.6654V27.8872C28.0943 29.1248 28.5995 30.3117 29.4988 31.1868C30.3982 32.0619 31.6179 32.5536 32.8898 32.5536Z" fill="#868686"/>
<path fill-rule="evenodd" clip-rule="evenodd" d="M40.5355 6.53554L6.53553 40.5355L3 37L37 3L40.5355 6.53554Z" fill="#FF4F4F"/>
</svg>
