<svg width="44" height="44" viewBox="0 0 44 44" fill="none" xmlns="http://www.w3.org/2000/svg">
<path fill-rule="evenodd" clip-rule="evenodd" d="M24.5031 23.8294V28.9993L18.2827 30.8009L19.4512 34.5426C19.9154 36.0289 20.6249 37.418 21.542 38.6593H2V30.9275C2 27.6465 3.30337 24.4999 5.62338 22.1799C7.94339 19.8599 11.09 18.5565 14.371 18.5565C17.652 18.5565 20.7986 19.8599 23.1186 22.1799C23.6306 22.6919 24.0932 23.2442 24.5031 23.8294ZM26.742 33.9391V38.5013C26.5758 38.3769 26.4132 38.2473 26.2544 38.1128C25.7977 37.7261 25.3784 37.3031 25.0002 36.8494C24.1642 35.8468 23.5285 34.6943 23.1327 33.4511L23.1159 33.3981L26.126 32.5263C26.2787 33.0205 26.4859 33.4939 26.742 33.9391ZM18.237 13.7446C17.0927 14.5092 15.7473 14.9174 14.371 14.9174C13.4566 14.9194 12.5508 14.7408 11.7056 14.3918C10.8604 14.0428 10.0925 13.5303 9.44591 12.8838C8.79933 12.2372 8.28684 11.4693 7.93785 10.6241C7.58887 9.77888 7.41027 8.87308 7.41231 7.95868C7.41231 6.58239 7.82043 5.237 8.58506 4.09265C9.34969 2.9483 10.4365 2.05639 11.708 1.5297C12.9795 1.00302 14.3787 0.86521 15.7286 1.13371C17.0784 1.40221 18.3183 2.06496 19.2915 3.03815C20.2647 4.01134 20.9275 5.25126 21.196 6.60111C21.4645 7.95096 21.3267 9.35012 20.8 10.6217C20.2733 11.8932 19.3814 12.98 18.237 13.7446Z" fill="#6DA849"/>
<path d="M43 33.3981L39.9899 32.5262C39.5419 33.9762 38.6257 35.2471 37.3771 36.1505C36.1285 37.0539 34.6139 37.5418 33.058 37.5418C31.502 37.5418 29.9875 37.0539 28.7389 36.1505C27.4903 35.2471 26.5741 33.9762 26.1261 32.5262L23.116 33.3981C23.6866 35.2252 24.7742 36.8591 26.2544 38.1128C27.7347 39.3665 29.5477 40.1895 31.4861 40.4875V43.6689H34.6298V40.4875C36.5682 40.1895 38.3813 39.3665 39.8615 38.1128C41.3417 36.8591 42.4294 35.2252 43 33.3981Z" fill="#C8E8B5"/>
<path d="M33.058 34.4917C34.3086 34.4917 35.508 34.0082 36.3924 33.1477C37.2767 32.2872 37.7735 31.12 37.7735 29.9031V23.7849C37.7735 22.5679 37.2767 21.4008 36.3924 20.5403C35.508 19.6797 34.3086 19.1963 33.058 19.1963C31.8073 19.1963 30.6079 19.6797 29.7236 20.5403C28.8392 21.4008 28.3424 22.5679 28.3424 23.7849V29.9031C28.3424 31.12 28.8392 32.2872 29.7236 33.1477C30.6079 34.0082 31.8073 34.4917 33.058 34.4917Z" fill="#C8E8B5"/>
</svg>
