<svg width="59" height="16" viewBox="0 0 59 16" fill="none" xmlns="http://www.w3.org/2000/svg">
<path d="M0 0.0917969H56.6586V15.9992H0V0.0917969ZM1.6319 1.76103V14.378H55.0234V1.76103H1.6319Z" fill="white"/>
<path d="M17.7833 3.38281H20.3247L23.0015 12.7574H21.0955L20.4601 10.4154H17.6478C17.6478 10.4154 17.1608 12.2993 17.0576 12.7126C16.49 12.7542 15.1064 12.7126 15.1064 12.7126L17.7833 3.38281ZM19.0088 4.95913L18.0123 8.92556H20.0989L19.012 4.95913H19.0088Z" fill="white"/>
<path d="M46.9512 3.38281H50.8987V4.60029H48.3573V5.95234H50.6697V7.16982H48.3573V8.56672H50.8987V9.78421H46.9512V3.38281Z" fill="white"/>
<path d="M35.6533 3.38281H37.5594L39.3751 10.3673L41.1424 3.38281H43.0485L40.191 12.7574H38.514L35.6533 3.38281Z" fill="white"/>
<path d="M27.5811 3.38281H29.4419V11.1779H33.3862V12.7574H27.5811V3.38281Z" fill="white"/>
<path d="M4.94434 3.38281H6.80522L8.62095 10.457L10.3883 3.38281H12.3395L9.48205 12.7574H7.75662L4.94434 3.38281Z" fill="white"/>
<path d="M58.0459 0C58.5781 0 59.0006 0.429323 59.0006 0.967578C59.0006 1.50583 58.5781 1.93836 58.0395 1.93836C57.5009 1.93836 57.0752 1.51224 57.0752 0.967578C57.0752 0.422915 57.5074 0 58.0395 0H58.0427H58.0459ZM58.0395 0.150583C57.6106 0.150583 57.259 0.515828 57.259 0.967578C57.259 1.41933 57.6106 1.78778 58.0427 1.78778C58.4749 1.79098 58.82 1.42894 58.82 0.970782C58.82 0.512624 58.4749 0.150583 58.0427 0.150583H58.0395ZM57.8589 1.52826H57.6847V0.45175C57.775 0.438934 57.8621 0.426119 57.9911 0.426119C58.1556 0.426119 58.2653 0.461362 58.3298 0.506216C58.3943 0.554275 58.4297 0.627965 58.4297 0.730489C58.4297 0.871461 58.333 0.957966 58.2169 0.993209V1.00282C58.3104 1.01884 58.3781 1.10535 58.3975 1.26554C58.4233 1.43214 58.4491 1.49622 58.4684 1.53146H58.2846C58.2588 1.49622 58.233 1.3969 58.2104 1.25593C58.1846 1.11816 58.1137 1.0669 57.975 1.0669H57.8557V1.53146L57.8589 1.52826ZM57.8589 0.932335H57.9847C58.1266 0.932335 58.2491 0.881073 58.2491 0.746509C58.2491 0.650392 58.1782 0.557479 57.9847 0.557479C57.9298 0.557479 57.8879 0.560683 57.8589 0.56709V0.932335Z" fill="white"/>
</svg>
