<svg width="8" height="18" viewBox="0 0 8 18" fill="none" xmlns="http://www.w3.org/2000/svg">
<g clip-path="url(#clip0_14880_8037)">
<path d="M3.64592 13.3345C3.84148 13.139 4.15852 13.139 4.35408 13.3345L7.59969 16.5802C7.9128 16.8933 7.69525 17.4288 7.25249 17.4349L3.93816 17.4805L0.670823 17.5254C0.22143 17.5315 -0.00793095 16.9884 0.309868 16.6706L3.64592 13.3345Z" fill="#00FF99"/>
<path d="M3.64592 6.84431C3.84148 6.64876 4.15852 6.64876 4.35408 6.84431L7.59969 10.0899C7.9128 10.403 7.69525 10.9386 7.25249 10.9447L3.93816 10.9902L0.670823 11.0351C0.22143 11.0413 -0.00793095 10.4982 0.309868 10.1804L3.64592 6.84431Z" fill="#00FF99"/>
<path d="M3.64592 0.354075C3.84148 0.158525 4.15852 0.158525 4.35408 0.354075L7.59969 3.59969C7.9128 3.9128 7.69525 4.44837 7.25249 4.45446L3.93816 4.5L0.670823 4.5449C0.22143 4.55107 -0.00793095 4.00793 0.309868 3.69013L3.64592 0.354075Z" fill="#00FF99"/>
</g>
<defs>
<clipPath id="clip0_14880_8037">
<rect width="8" height="18" fill="white"/>
</clipPath>
</defs>
</svg>
