<svg width="8" height="18" viewBox="0 0 8 18" fill="none" xmlns="http://www.w3.org/2000/svg">
<g clip-path="url(#clip0_14880_8033)">
<path d="M3.64592 9.84431C3.84148 9.64876 4.15852 9.64876 4.35408 9.84431L7.59969 13.0899C7.9128 13.403 7.69525 13.9386 7.25249 13.9447L3.93816 13.9902L0.670823 14.0351C0.22143 14.0413 -0.00793095 13.4982 0.309868 13.1804L3.64592 9.84431Z" fill="#00FF99"/>
<path d="M3.64592 3.35408C3.84148 3.15852 4.15852 3.15852 4.35408 3.35408L7.59969 6.59969C7.9128 6.9128 7.69525 7.44837 7.25249 7.45446L3.93816 7.5L0.670823 7.5449C0.22143 7.55107 -0.00793095 7.00793 0.309868 6.69013L3.64592 3.35408Z" fill="#00FF99"/>
</g>
<defs>
<clipPath id="clip0_14880_8033">
<rect width="8" height="18" fill="white"/>
</clipPath>
</defs>
</svg>
