<svg width="40" height="44" viewBox="0 0 40 44" fill="none" xmlns="http://www.w3.org/2000/svg">
<path d="M39.7113 26.5408C38.0272 18.7264 39.4979 18.7264 38.976 14.3147C37.79 4.10667 29.1797 0 20 0C10.8204 0 2.21005 4.10667 1.02405 14.3147C0.502214 18.7264 1.97285 18.7264 0.288734 26.5408C-1.37166 34.2144 4.60577 33.5104 6.10013 34.9184C7.59449 36.3264 8.54329 40.7381 10.512 42.3808C11.2711 43.0144 15.3509 44 19.9763 44C24.6017 44 28.6816 43.0379 29.4406 42.3808C31.4094 40.7616 32.3344 36.3264 33.8525 34.9184C35.3943 33.4869 41.3717 34.2144 39.7113 26.5408ZM10.4172 29.5915C6.55081 29.5915 3.41977 28.3008 3.41977 24.4757C3.41977 20.6507 6.26617 17.1541 11.3185 18.7733C16.3709 20.3925 17.4146 22.4811 17.4146 26.2827C17.4146 30.1077 14.2835 29.5915 10.4172 29.5915ZM19.9763 39.0485C18.1024 39.0485 16.5606 41.9584 16.5844 39.0485C16.5844 36.1387 18.1499 30.4363 20.0238 30.4363C21.8976 30.4363 23.392 36.1387 23.392 39.0485C23.3683 41.9349 21.8502 39.0485 19.9763 39.0485ZM29.6066 29.5915C25.7403 29.5915 22.6092 30.1077 22.6092 26.2827C22.6092 22.4576 23.6529 20.3925 28.7053 18.7733C33.7576 17.1541 36.604 20.6507 36.604 24.4757C36.604 28.3008 33.473 29.5915 29.6066 29.5915Z" fill="white"/>
</svg>
