<svg width="49" height="50" viewBox="0 0 49 50" fill="none" xmlns="http://www.w3.org/2000/svg">
<path fill-rule="evenodd" clip-rule="evenodd" d="M25.7205 0.0308838H21.1141V8.47577C14.3467 10.0536 9.139 15.6729 8.18373 22.661L0.0203857 22.75L0.0705956 27.356L8.17936 27.2676C9.12301 34.2706 14.3363 39.9047 21.1141 41.485V49.9022H23.2796V49.9036L27.8859 49.9036V41.4587C34.6533 39.8809 39.861 34.2616 40.8163 27.2734L48.9796 27.1845L48.9294 22.5785L40.8206 22.6669C39.877 15.6639 34.6637 10.0298 27.8859 8.44949V0.0322324L25.7205 0.0322322V0.0308838ZM12.6328 24.9804C12.6328 18.3731 17.8958 12.9409 24.435 12.6504C31.0371 12.8737 36.3672 18.3058 36.3672 24.9541C36.3672 31.5614 31.1042 36.9936 24.5651 37.2841C17.9629 37.0608 12.6328 31.6287 12.6328 24.9804Z" fill="white"/>
</svg>
