<svg width="47" height="42" viewBox="0 0 47 42" fill="none" xmlns="http://www.w3.org/2000/svg">
<path fill-rule="evenodd" clip-rule="evenodd" d="M23.5001 12.2782L20.9106 7.85222C18.5727 3.85614 14.0915 2.36837 10.071 3.23679C6.1606 4.08143 3 7.07317 3 12.0796C3 15.3064 4.93556 19.1064 8.86918 23.8403C12.3434 28.0213 16.9694 32.4704 22.1361 37.4396C22.5868 37.8731 23.0415 38.3104 23.5 38.7519C23.9611 38.308 24.4183 37.8683 24.8712 37.4327C30.0538 32.4488 34.6786 28.0013 38.1473 23.8257C42.0733 19.0999 44 15.3095 44 12.0796C44 7.05734 40.8356 4.0847 36.9206 3.25188C32.8848 2.39338 28.4026 3.89814 26.0894 7.85211L23.5001 12.2782ZM21.5624 3.79736C14.3247 -3.55902 0 0.0758762 0 12.0796C0 20.3158 9.16871 29.1324 20.0436 39.5896C20.645 40.1679 21.2516 40.7512 21.8621 41.3397C22.318 41.7807 22.9101 42 23.5 42C24.0898 42 24.682 41.7807 25.1379 41.3397C25.7512 40.7487 26.3602 40.1631 26.9638 39.5827C37.872 29.0944 47 20.3178 47 12.0796C47 0.0430307 32.6542 -3.4964 25.4404 3.80068C24.714 4.53552 24.0599 5.38025 23.5 6.33726C22.9393 5.37892 22.2863 4.53316 21.5624 3.79736Z" fill="white"/>
</svg>
